<?xml version="1.0" encoding="utf-8"?>
<!-- Generator: Adobe Illustrator 18.1.0, SVG Export Plug-In . SVG Version: 6.00 Build 0)  -->
<!DOCTYPE svg PUBLIC "-//W3C//DTD SVG 1.1//EN" "http://www.w3.org/Graphics/SVG/1.1/DTD/svg11.dtd">
<svg version="1.1" xmlns="http://www.w3.org/2000/svg" xmlns:xlink="http://www.w3.org/1999/xlink" x="0px" y="0px"
	 viewBox="0 0 54 54" enable-background="new 0 0 54 54" xml:space="preserve">
<g id="BG" display="none">
	<rect x="29" y="-47.2" display="inline" fill="#CECECE" width="273" height="204.2"/>
</g>
<g id="icons">
	<g id="facebook_logo">
	</g>
	<g id="twitter_logo">
	</g>
	<g id="instagram_logo">
	</g>
	<g>
		<path fill="#FFFFFF" d="M27,0C12.1,0,0,12.1,0,27s12.1,27,27,27c14.9,0,27-12.1,27-27S41.9,0,27,0z M13.1,35.3
			c-0.6,0.2-1.2-0.1-1.4-0.6l-1.6-4.4c-0.2-0.6,0.1-1.2,0.6-1.4c0.6-0.2,1.2,0.1,1.4,0.6l1.6,4.4C13.9,34.5,13.7,35.1,13.1,35.3z
			 M40,32.1l-13.5,1.1l0.2,1.1c0.2,1-0.5,2-1.5,2.2L20,37.6c-1,0.2-2-0.5-2.2-1.5l-0.6-2.1L15,34.2l-2.3-6.4l20.4-14.5
			c-0.1-0.3-0.1-0.5-0.1-0.6c0.2-0.8,0.5-0.8,0.8-0.6c4.1,3.6,7.2,12.3,8,20.7c-0.1,0.6-0.8,0.7-1.5,0C40.3,32.8,40.1,32.5,40,32.1z
			"/>
		<path fill="#FFFFFF" d="M19.1,34.6c0.2,0.8,0.6,1.2,1.3,1.1L24,35c1-0.3,0.6-0.8,0.5-1.5L19,33.9L19.1,34.6z"/>
	</g>
</g>
</svg>
