<?xml version="1.0" encoding="utf-8"?>
<!-- Generator: Adobe Illustrator 18.1.0, SVG Export Plug-In . SVG Version: 6.00 Build 0)  -->
<!DOCTYPE svg PUBLIC "-//W3C//DTD SVG 1.1//EN" "http://www.w3.org/Graphics/SVG/1.1/DTD/svg11.dtd">
<svg version="1.1" xmlns="http://www.w3.org/2000/svg" xmlns:xlink="http://www.w3.org/1999/xlink" x="0px" y="0px"
	 viewBox="0 0 12 12" enable-background="new 0 0 12 12" xml:space="preserve">
<g id="BG" display="none">
	<rect x="-98" y="-14.2" display="inline" fill="#CECECE" width="273" height="204.2"/>
</g>
<g id="icons">
	<g id="facebook_logo">
	</g>
	<g id="twitter_logo">
	</g>
	<g id="instagram_logo">
		<g>
			<path fill-rule="evenodd" clip-rule="evenodd" fill="#FFFFFF" d="M11.8,4c-1,0-2,0-3.1,0C8.5,4,8.5,4,8.6,4.2
				c0.2,0.5,0.3,1.1,0.2,1.7C8.4,7.5,6.7,8.5,5.1,8C3.6,7.5,2.7,5.7,3.4,4.2C3.5,4,3.4,4,3.2,4c-1,0-2,0-3,0C0,4,0,4,0,4.2
				c0,2.2,0,4.3,0,6.5C0,11.5,0.5,12,1.3,12c1.6,0,3.1,0,4.7,0c1.6,0,3.1,0,4.7,0c0.8,0,1.3-0.5,1.3-1.3c0-2.2,0-4.3,0-6.5
				C12,4,12,4,11.8,4z"/>
			<path fill-rule="evenodd" clip-rule="evenodd" fill="#FFFFFF" d="M0.2,3.6c1.1,0,2.2,0,3.3,0c0.1,0,0.2,0,0.3-0.1
				C5,2.1,7,2.1,8.2,3.5c0.1,0.1,0.2,0.1,0.3,0.1c1.1,0,2.2,0,3.3,0c0.2,0,0.2,0,0.2-0.2c0-0.7,0-1.4,0-2.1C12,0.5,11.5,0,10.7,0
				C9.1,0,7.6,0,6,0C4.4,0,2.8,0,1.3,0C0.5,0,0,0.5,0,1.3C0,2,0,2.7,0,3.4C0,3.6,0.1,3.6,0.2,3.6z M9.4,0.7c0.2,0,0.6,0,0.6,0
				c0,0,0,0,0,0c0,0,0.3,0,0.5,0c0.5,0,0.8,0.4,0.8,0.8c0,0.2,0,0.4,0,0.7c0,0.4-0.3,0.7-0.7,0.8c-0.4,0-0.8,0-1.2,0
				C9,2.9,8.7,2.6,8.7,2.2c0-0.2,0-0.5,0-0.7C8.7,1.1,9,0.7,9.4,0.7z M2.7,0.8c0-0.1,0.1-0.2,0.2-0.2c0.1,0,0.2,0,0.2,0.2
				c0,0.7,0,1.4,0,2.1c0,0.1-0.1,0.2-0.2,0.2c-0.1,0-0.2,0-0.2-0.2c0-0.4,0-0.7,0-1.1C2.7,1.5,2.7,1.2,2.7,0.8z M2,0.8
				c0-0.1,0-0.2,0.2-0.2c0.2,0,0.2,0,0.2,0.2c0,0.3,0,0.7,0,1c0,0.3,0,0.7,0,1c0,0.2-0.1,0.2-0.2,0.2C2,3.1,2,3.1,2,2.9
				C2,2.2,2,1.5,2,0.8z M1.3,0.8c0-0.2,0.1-0.2,0.2-0.2c0.1,0,0.2,0.1,0.2,0.2c0,0.4,0,0.7,0,1.1c0,0.3,0,0.7,0,1
				c0,0.1-0.1,0.2-0.2,0.2c-0.1,0-0.2,0-0.2-0.2C1.3,2.2,1.3,1.5,1.3,0.8z M0.6,1.3C0.6,1,1,0.9,1,0.8c0,0.2,0,0.3,0,0.5
				c0,0.6,0,1.1,0,1.7c0,0.1-0.1,0.2-0.2,0.2C0.7,3.1,0.6,3,0.6,2.9C0.6,2.4,0.6,1.8,0.6,1.3z"/>
			<path fill-rule="evenodd" clip-rule="evenodd" fill="#FFFFFF" d="M6,2.8c-1.4,0-2.5,1.1-2.5,2.5c0,1.4,1.1,2.5,2.5,2.5
				c1.4,0,2.5-1.1,2.5-2.5C8.5,3.9,7.4,2.8,6,2.8z M6,7.3c-1.1,0-2-0.9-2-2c0-1.1,0.9-2,2.1-2c1.1,0,2,0.9,2,2.1
				C8,6.4,7.1,7.3,6,7.3z"/>
		</g>
	</g>
</g>
</svg>
