<?xml version="1.0" encoding="utf-8"?>
<!-- Generator: Adobe Illustrator 18.1.1, SVG Export Plug-In . SVG Version: 6.00 Build 0)  -->
<!DOCTYPE svg PUBLIC "-//W3C//DTD SVG 1.1//EN" "http://www.w3.org/Graphics/SVG/1.1/DTD/svg11.dtd">
<svg version="1.1" xmlns="http://www.w3.org/2000/svg" xmlns:xlink="http://www.w3.org/1999/xlink" x="0px" y="0px"
	 viewBox="0 0 54 54" enable-background="new 0 0 54 54" xml:space="preserve">
<g id="BG" display="none">
	<rect x="29" y="-178.2" display="inline" fill="#CECECE" width="273" height="204.2"/>
</g>
<g id="icons">
	<g id="facebook_logo">
	</g>
	<g id="twitter_logo">
	</g>
	<g id="instagram_logo">
	</g>
	<path fill="#FFFFFF" d="M27,0C12.1,0,0,12.1,0,27s12.1,27,27,27c14.9,0,27-12.1,27-27S41.9,0,27,0z M13.4,15.9H41
		c0.3,0,0.4,0.3,0.2,0.5L28,29.6c-0.5,0.5-1.2,0.4-1.6,0L13.2,16.4C13,16.2,13.1,15.9,13.4,15.9z M12.9,36.7V17.1
		c0-0.1,0-0.2,0.1-0.1l11.1,11.2c0.1,0.1,0,0.2-0.1,0.2L13,36.8C12.9,36.9,12.9,36.8,12.9,36.7z M40.8,38.1H13.2
		c-0.2,0-0.3-0.3-0.1-0.4l11.3-8.7c0.1-0.1,0.3-0.1,0.4,0l1.7,1.6c0.4,0.4,1.1,0.4,1.6,0l1.6-1.6c0.1-0.1,0.3-0.1,0.4,0l11,8.4
		C41.2,37.6,41.1,38.1,40.8,38.1z M42.1,36.9c0,0.1-0.3,0.2-0.4,0.1l-11.3-8.6c-0.1-0.1-0.1-0.2-0.1-0.2L41.7,17
		c0.1-0.1,0.4,0,0.4,0.1V36.9z"/>
</g>
</svg>
