<?xml version="1.0" encoding="utf-8"?>
<!-- Generator: Adobe Illustrator 18.1.0, SVG Export Plug-In . SVG Version: 6.00 Build 0)  -->
<!DOCTYPE svg PUBLIC "-//W3C//DTD SVG 1.1//EN" "http://www.w3.org/Graphics/SVG/1.1/DTD/svg11.dtd">
<svg version="1.1" xmlns="http://www.w3.org/2000/svg" xmlns:xlink="http://www.w3.org/1999/xlink" x="0px" y="0px"
	 viewBox="0 0 10 10" enable-background="new 0 0 10 10" xml:space="preserve">
<g id="BG" display="none">
	<rect x="-99" y="-40.2" display="inline" fill="#CECECE" width="273" height="204.2"/>
</g>
<g id="icons">
	<g id="facebook_logo">
	</g>
	<g id="twitter_logo">
	</g>
	<g id="instagram_logo">
	</g>
	<g>
		<path fill-rule="evenodd" clip-rule="evenodd" fill="#FDFDFD" d="M5,10c-1.3,0-2.6,0-3.9,0C0.4,10,0,9.6,0,8.9c0-1.8,0-3.6,0-5.4
			c0-0.2,0-0.2,0.2-0.2c0.8,0,1.7,0,2.5,0c0.2,0,0.2,0,0.1,0.2C2.3,4.8,3,6.2,4.3,6.6c1.3,0.4,2.7-0.4,3-1.8c0.1-0.5,0.1-1-0.1-1.4
			c-0.1-0.2,0-0.2,0.1-0.2c0.8,0,1.7,0,2.5,0c0.1,0,0.2,0,0.2,0.2c0,1.8,0,3.6,0,5.4C10,9.6,9.6,10,8.9,10C7.6,10,6.3,10,5,10z"/>
		<path fill-rule="evenodd" clip-rule="evenodd" fill="#FDFDFD" d="M10,1.1C10,0.4,9.6,0,8.9,0C7.6,0,6.3,0,5,0C3.7,0,2.4,0,1.1,0
			C0.4,0,0,0.4,0,1c0,0.6,0,1.2,0,1.8C0,3,0,3,0.2,3C1.1,3,2,3,2.9,3C3,3,3.1,3,3.2,2.9c1-1.1,2.7-1.1,3.6,0C6.9,3,6.9,3,7,3
			C8,3,8.9,3,9.8,3C10,3,10,3,10,2.8C10,2.3,10,1.7,10,1.1z M0.7,2.6c-0.1,0-0.1,0-0.1-0.1c0-0.5,0-0.9,0-1.4c0-0.2,0.1-0.3,0.3-0.4
			c0,0.2,0,0.3,0,0.4c0,0.5,0,0.9,0,1.4C0.8,2.6,0.8,2.6,0.7,2.6z M1.2,2.6c-0.1,0-0.2,0-0.2-0.2c0-0.6,0-1.2,0-1.7
			c0-0.1,0.1-0.1,0.2-0.2c0.1,0,0.2,0,0.2,0.2c0,0.3,0,0.6,0,0.9c0,0.3,0,0.6,0,0.9C1.4,2.6,1.4,2.6,1.2,2.6z M2,1.6
			c0,0.3,0,0.6,0,0.9c0,0.1,0,0.2-0.2,0.2c-0.1,0-0.2,0-0.2-0.2c0-0.6,0-1.2,0-1.7c0-0.1,0-0.2,0.2-0.2c0.1,0,0.2,0,0.2,0.2
			C2,1,2,1.3,2,1.6z M2.6,2.4c0,0.1,0,0.1-0.2,0.1c-0.1,0-0.2,0-0.2-0.1c0-0.3,0-0.6,0-0.9c0-0.3,0-0.6,0-0.9c0-0.1,0-0.2,0.2-0.2
			c0.1,0,0.2,0,0.2,0.2C2.6,1.3,2.6,1.8,2.6,2.4z M9.4,1.8c0,0.4-0.2,0.6-0.6,0.7c-0.3,0-0.7,0-1,0c-0.3,0-0.6-0.3-0.6-0.6
			c0-0.2,0-0.4,0-0.6c0-0.4,0.3-0.6,0.6-0.6c0.2,0,0.3,0,0.5,0v0c0.1,0,0.3,0,0.4,0c0.4,0,0.7,0.3,0.7,0.7C9.4,1.5,9.4,1.6,9.4,1.8z
			"/>
		<path fill-rule="evenodd" clip-rule="evenodd" fill="#FDFDFD" d="M5,2.3c-1.2,0-2.1,0.9-2.1,2.1c0,1.2,0.9,2.1,2.1,2.1
			c1.2,0,2.1-0.9,2.1-2.1C7.1,3.3,6.2,2.3,5,2.3z M5,6.1c-0.9,0-1.7-0.8-1.7-1.7c0-0.9,0.8-1.7,1.7-1.7c0.9,0,1.7,0.8,1.7,1.7
			C6.7,5.4,5.9,6.1,5,6.1z"/>
	</g>
</g>
</svg>
