<?xml version="1.0" encoding="utf-8"?>
<!-- Generator: Adobe Illustrator 18.1.0, SVG Export Plug-In . SVG Version: 6.00 Build 0)  -->
<!DOCTYPE svg PUBLIC "-//W3C//DTD SVG 1.1//EN" "http://www.w3.org/Graphics/SVG/1.1/DTD/svg11.dtd">
<svg version="1.1" xmlns="http://www.w3.org/2000/svg" xmlns:xlink="http://www.w3.org/1999/xlink" x="0px" y="0px"
	 viewBox="0 0 20 20" enable-background="new 0 0 20 20" xml:space="preserve">
<g id="BG" display="none">
	<rect x="-121" y="-35.2" display="inline" fill="#CECECE" width="273" height="204.2"/>
</g>
<g id="icons">
	<g>
		<path fill="#FFFFFF" d="M18.1,20H1.9c-1,0-1.9-0.8-1.9-1.9V1.9C0,0.8,0.8,0,1.9,0h16.3c1,0,1.9,0.8,1.9,1.9v16.3
			C20,19.2,19.2,20,18.1,20z"/>
		<path fill="#00BBE8" d="M15.7,13.4c0-0.3-0.7-0.9-1.5-1.4c-0.9-0.5-1.8-0.6-2-0.3c0,0-0.6,0.6-0.6,0.6c0,0,0,0-0.1,0
			c0,0-0.1,0-0.1,0l-0.1,0c-0.1,0-0.2-0.1-0.4-0.2c-0.2-0.1-0.4-0.2-0.7-0.5c-0.3-0.2-0.6-0.5-1-0.9c-0.4-0.4-0.7-0.7-0.9-1
			C8.1,9.6,8,9.4,7.9,9.2C7.8,9,7.7,8.8,7.7,8.6c0,0,0-0.1,0-0.1c0,0,0-0.1,0-0.1c0,0,0.5-0.5,0.7-0.7c0,0,0-0.1,0-0.1
			c0.1-0.3-0.1-1.1-0.7-1.8C7.2,5,6.5,4.5,6.2,4.7L4.7,6.1C4.6,6.2,4.6,6.3,4.5,6.4C4.5,6.5,4.4,6.6,4.4,6.7c0,0,0,0.1,0,0.2
			c0,0.1,0,0.3,0,0.6s0.1,0.6,0.2,0.9C4.8,8.8,5,9.2,5.2,9.6C5.4,10,5.7,10.5,6.1,11c0.4,0.5,0.8,1,1.4,1.6c0.7,0.7,1.4,1.3,2,1.7
			c0.6,0.4,1.2,0.7,1.7,0.9c0.5,0.2,0.9,0.3,1.2,0.4c0.3,0.1,0.6,0.1,0.7,0.1c0.1,0,0.1,0,0.2,0c0,0,0.1,0,0.1,0
			c0.1,0,0.2-0.1,0.3-0.1c0.1-0.1,0.2-0.1,0.3-0.2l1.6-1.6C15.7,13.5,15.7,13.5,15.7,13.4z"/>
	</g>
	<g id="facebook_logo">
	</g>
	<g id="twitter_logo">
	</g>
	<g id="instagram_logo">
	</g>
</g>
</svg>
