<?xml version="1.0" encoding="utf-8"?>
<!-- Generator: Adobe Illustrator 18.1.0, SVG Export Plug-In . SVG Version: 6.00 Build 0)  -->
<!DOCTYPE svg PUBLIC "-//W3C//DTD SVG 1.1//EN" "http://www.w3.org/Graphics/SVG/1.1/DTD/svg11.dtd">
<svg version="1.1" xmlns="http://www.w3.org/2000/svg" xmlns:xlink="http://www.w3.org/1999/xlink" x="0px" y="0px"
	 viewBox="0 0 9 9" enable-background="new 0 0 9 9" xml:space="preserve">
<g id="BG" display="none">
	<rect x="-214" y="-113.2" display="inline" fill="#CECECE" width="273" height="204.2"/>
</g>
<g id="icons">
	<g id="facebook_logo">
	</g>
	<g id="twitter_logo">
	</g>
	<g id="instagram_logo">
	</g>
	<g>
		<g>
			<path fill="#FFFFFF" d="M0,4.7V4.3c0-0.7,0.4-1,1.1-1h2.1V1c0-0.7,0.4-1,1.1-1h0.5c0.7,0,1.1,0.3,1.1,1v2.3h2.1
				c0.7,0,1.1,0.3,1.1,1v0.4c0,0.7-0.4,1-1.1,1H5.8V8c0,0.7-0.4,1-1.1,1H4.3C3.6,9,3.2,8.6,3.2,8V5.7H1.1C0.4,5.7,0,5.4,0,4.7z"/>
		</g>
	</g>
</g>
</svg>
