<?xml version="1.0" encoding="utf-8"?>
<!-- Generator: Adobe Illustrator 18.1.0, SVG Export Plug-In . SVG Version: 6.00 Build 0)  -->
<!DOCTYPE svg PUBLIC "-//W3C//DTD SVG 1.1//EN" "http://www.w3.org/Graphics/SVG/1.1/DTD/svg11.dtd">
<svg version="1.1" xmlns="http://www.w3.org/2000/svg" xmlns:xlink="http://www.w3.org/1999/xlink" x="0px" y="0px"
	 viewBox="0 0 20 20" enable-background="new 0 0 20 20" xml:space="preserve">
<g id="BG" display="none">
	<rect x="-179" y="-35.2" display="inline" fill="#CECECE" width="273" height="204.2"/>
</g>
<g id="icons">
	<g>
		<path fill="#FFFFFF" d="M18.1,20H1.9c-1,0-1.9-0.8-1.9-1.9V1.9C0,0.8,0.8,0,1.9,0h16.3c1,0,1.9,0.8,1.9,1.9v16.3
			C20,19.2,19.2,20,18.1,20z"/>
		<g>
			<path fill="#00BBE8" d="M15.3,6.7c0,0-0.5,0.2-1.1,0.3c0.2-0.1,0.7-0.6,0.8-1.1l0,0l0,0c0,0-0.6,0.4-1.4,0.5
				c-0.1-0.1-0.6-0.7-1.6-0.7c-0.3,0-0.6,0.1-0.9,0.2c0,0-1.6,0.6-1.3,2.5c0,0-0.1,0-0.1,0C9.3,8.3,7.4,8.1,5.5,6l0,0l0,0
				c0,0-0.8,1.7,0.6,2.9c0,0,0,0-0.1,0c-0.2,0-0.5,0-0.8-0.3l0,0l0,0c0,0,0,1.8,1.7,2.2c-0.1,0-0.2,0.1-0.5,0.1c-0.1,0-0.2,0-0.4,0
				l0,0l0,0c0,0,0.3,1.4,2,1.5c-0.1,0.2-0.8,0.9-2.7,0.9h0c-0.1,0-0.3,0-0.4,0l-0.1,0l0.1,0c0,0,1.5,1,3.4,1c1.7,0,3.3-0.8,4.7-2.3
				c0,0,1.4-1.4,1.4-4.3C14.4,7.8,15,7.4,15.3,6.7L15.3,6.7L15.3,6.7z"/>
		</g>
	</g>
	<g id="facebook_logo">
	</g>
	<g id="twitter_logo">
	</g>
	<g id="instagram_logo">
	</g>
</g>
</svg>
