<?xml version="1.0" encoding="utf-8"?>
<!-- Generator: Adobe Illustrator 18.1.0, SVG Export Plug-In . SVG Version: 6.00 Build 0)  -->
<!DOCTYPE svg PUBLIC "-//W3C//DTD SVG 1.1//EN" "http://www.w3.org/Graphics/SVG/1.1/DTD/svg11.dtd">
<svg version="1.1" xmlns="http://www.w3.org/2000/svg" xmlns:xlink="http://www.w3.org/1999/xlink" x="0px" y="0px"
	 viewBox="0 0 7 15" enable-background="new 0 0 7 15" xml:space="preserve">
<g id="BG" display="none">
	<rect x="-44.5" y="-12.7" display="inline" fill="#CECECE" width="273" height="204.2"/>
</g>
<g id="icons">
	<g id="facebook_logo">
		<path fill="#FFFFFF" d="M4.8,4.9V3.3c0,0,0-0.3,0.2-0.5c0.2-0.2,0.4-0.2,0.6-0.2c0.2,0,1.5,0,1.5,0V0c0,0-1.5,0-2.2,0
			C3.4,0,2.7,0.4,2.3,0.9C1.9,1.4,1.5,2.2,1.5,3.1c0,0.1,0,1.6,0,1.8H0v2.6h1.5V15h3.2V7.5h2L7,4.9H4.8z"/>
	</g>
	<g id="twitter_logo">
	</g>
	<g id="instagram_logo">
	</g>
</g>
</svg>
