<?xml version="1.0" encoding="utf-8"?>
<!-- Generator: Adobe Illustrator 18.1.0, SVG Export Plug-In . SVG Version: 6.00 Build 0)  -->
<!DOCTYPE svg PUBLIC "-//W3C//DTD SVG 1.1//EN" "http://www.w3.org/Graphics/SVG/1.1/DTD/svg11.dtd">
<svg version="1.1" xmlns="http://www.w3.org/2000/svg" xmlns:xlink="http://www.w3.org/1999/xlink" x="0px" y="0px"
	 viewBox="0 0 20 20" enable-background="new 0 0 20 20" xml:space="preserve">
<g id="BG" display="none">
	<rect x="-209" y="-35.2" display="inline" fill="#CECECE" width="273" height="204.2"/>
</g>
<g id="icons">
	<g>
		<path fill="#FFFFFF" d="M18.1,20H1.9c-1,0-1.9-0.8-1.9-1.9V1.9C0,0.8,0.8,0,1.9,0h16.3c1,0,1.9,0.8,1.9,1.9v16.3
			C20,19.2,19.2,20,18.1,20z"/>
		<path fill="#00BBE8" d="M14.4,7.4V5.8c0,0,0-0.3,0.2-0.5c0.2-0.2,0.4-0.2,0.6-0.2c0.2,0,1.5,0,1.5,0V2.5c0,0-1.5,0-2.2,0
			c-1.3,0-2.1,0.4-2.5,1c-0.4,0.5-0.7,1.2-0.7,2.2c0,0.1,0,1.6,0,1.8H9.8V10h1.5v7.5h3.2V10h2l0.2-2.6H14.4z"/>
	</g>
	<g id="facebook_logo">
	</g>
	<g id="twitter_logo">
	</g>
	<g id="instagram_logo">
	</g>
</g>
</svg>
