<?xml version="1.0" encoding="utf-8"?>
<!-- Generator: Adobe Illustrator 18.1.0, SVG Export Plug-In . SVG Version: 6.00 Build 0)  -->
<!DOCTYPE svg PUBLIC "-//W3C//DTD SVG 1.1//EN" "http://www.w3.org/Graphics/SVG/1.1/DTD/svg11.dtd">
<svg version="1.1" xmlns="http://www.w3.org/2000/svg" xmlns:xlink="http://www.w3.org/1999/xlink" x="0px" y="0px"
	 viewBox="0 0 15 12" enable-background="new 0 0 15 12" xml:space="preserve">
<g id="BG" display="none">
	<rect x="-69.5" y="-14.2" display="inline" fill="#CECECE" width="273" height="204.2"/>
</g>
<g id="icons">
	<g id="facebook_logo">
	</g>
	<g id="twitter_logo">
		<path fill="#FFFFFF" d="M14.9,1.4c0,0-0.7,0.3-1.5,0.4c0.3-0.2,1-0.8,1.2-1.6l0-0.1l-0.1,0c0,0-0.9,0.5-1.9,0.7
			C12.5,0.8,11.7,0,10.4,0C10,0,9.5,0.1,9.1,0.2c0,0-2.3,0.9-1.8,3.4c0,0-0.1,0-0.2,0C6.4,3.6,3.8,3.4,1,0.5l0,0l0,0
			c0,0-1.2,2.4,0.9,4c0,0-0.1,0-0.1,0c-0.2,0-0.7,0-1.2-0.4l0,0l0,0.1c0,0,0,2.5,2.3,3c-0.1,0-0.3,0.1-0.7,0.1c-0.2,0-0.3,0-0.5,0
			l0,0l0,0c0,0,0.4,1.9,2.8,2.1c-0.2,0.2-1.2,1.2-3.8,1.2h0c-0.2,0-0.4,0-0.6,0l-0.1,0l0.1,0.1c0,0,2.1,1.4,4.8,1.4
			c2.4,0,4.6-1.1,6.6-3.1c0,0,2-1.9,2-5.9C13.6,2.9,14.5,2.4,14.9,1.4L14.9,1.4L14.9,1.4z"/>
	</g>
	<g id="instagram_logo">
	</g>
</g>
</svg>
