<?xml version="1.0" encoding="utf-8"?>
<!-- Generator: Adobe Illustrator 18.1.0, SVG Export Plug-In . SVG Version: 6.00 Build 0)  -->
<!DOCTYPE svg PUBLIC "-//W3C//DTD SVG 1.1//EN" "http://www.w3.org/Graphics/SVG/1.1/DTD/svg11.dtd">
<svg version="1.1" xmlns="http://www.w3.org/2000/svg" xmlns:xlink="http://www.w3.org/1999/xlink" x="0px" y="0px"
	 viewBox="0 0 20 20" enable-background="new 0 0 20 20" xml:space="preserve">
<g id="BG" display="none">
	<rect x="-149" y="-35.2" display="inline" fill="#CECECE" width="273" height="204.2"/>
</g>
<g id="icons">
	<g>
		<path fill="#FFFFFF" d="M18.1,20H1.9c-1,0-1.9-0.8-1.9-1.9V1.9C0,0.8,0.8,0,1.9,0h16.3c1,0,1.9,0.8,1.9,1.9v16.3
			C20,19.2,19.2,20,18.1,20z"/>
		<g>
			<path fill="#00BBE8" d="M16,6.3C16,6.2,15.8,6,15.7,6H4.3C4.2,6,4,6.2,4,6.3v7.3C4,13.8,4.2,14,4.3,14h11.3
				c0.2,0,0.3-0.2,0.3-0.3V6.3z M15,12.7c0,0.2-0.2,0.3-0.3,0.3H5.3C5.2,13,5,12.8,5,12.7V7.3C5,7.2,5.2,7,5.3,7h9.3
				C14.8,7,15,7.2,15,7.3V12.7z"/>
			<polygon fill="#00BBE8" points="13,7.7 11.5,9.2 10.1,10.6 7.1,7.7 6.2,8.6 7.7,10 7.7,10 6.2,11.4 7.1,12.3 8.6,10.8 9.1,11.3 
				10.1,12.3 11.6,10.9 13,12.3 13.9,11.4 12.4,10 13.9,8.6 			"/>
		</g>
	</g>
	<g id="facebook_logo">
	</g>
	<g id="twitter_logo">
	</g>
	<g id="instagram_logo">
	</g>
</g>
</svg>
