<?xml version="1.0" encoding="utf-8"?>
<!-- Generator: Adobe Illustrator 18.1.0, SVG Export Plug-In . SVG Version: 6.00 Build 0)  -->
<!DOCTYPE svg PUBLIC "-//W3C//DTD SVG 1.1//EN" "http://www.w3.org/Graphics/SVG/1.1/DTD/svg11.dtd">
<svg version="1.1" xmlns="http://www.w3.org/2000/svg" xmlns:xlink="http://www.w3.org/1999/xlink" x="0px" y="0px"
	 viewBox="0 0 11 9" enable-background="new 0 0 11 9" xml:space="preserve">
<g id="BG" display="none">
	<rect x="-71.5" y="-40.7" display="inline" fill="#CECECE" width="273" height="204.2"/>
</g>
<g id="icons">
	<g id="facebook_logo">
	</g>
	<g id="twitter_logo">
	</g>
	<g id="instagram_logo">
	</g>
	<path fill="#FFFFFF" d="M10.9,1.1c0,0-0.5,0.2-1.1,0.3c0.2-0.1,0.8-0.6,0.8-1.2l0,0l0,0c0,0-0.6,0.4-1.4,0.5C9.2,0.6,8.6,0,7.6,0
		C7.3,0,7,0.1,6.7,0.2c0,0-1.7,0.7-1.3,2.6c0,0-0.1,0-0.1,0c-0.5,0-2.5-0.2-4.5-2.3l0,0l0,0c0,0-0.8,1.8,0.6,3c0,0-0.1,0-0.1,0
		c-0.2,0-0.5,0-0.9-0.3l0,0l0,0c0,0,0,1.9,1.7,2.2C2,5.4,1.9,5.5,1.6,5.5c-0.1,0-0.2,0-0.4,0l0,0l0,0c0,0,0.3,1.4,2,1.5
		C3.1,7.2,2.4,7.9,0.5,7.9h0c-0.1,0-0.3,0-0.4,0L0,7.9l0.1,0c0,0,1.5,1.1,3.5,1.1C5.3,9,7,8.2,8.4,6.6c0,0,1.5-1.5,1.5-4.4
		C10,2.2,10.6,1.8,10.9,1.1L10.9,1.1L10.9,1.1z"/>
</g>
</svg>
