<?xml version="1.0" encoding="utf-8"?>
<!-- Generator: Adobe Illustrator 18.1.0, SVG Export Plug-In . SVG Version: 6.00 Build 0)  -->
<!DOCTYPE svg PUBLIC "-//W3C//DTD SVG 1.1//EN" "http://www.w3.org/Graphics/SVG/1.1/DTD/svg11.dtd">
<svg version="1.1" xmlns="http://www.w3.org/2000/svg" xmlns:xlink="http://www.w3.org/1999/xlink" x="0px" y="0px"
	 viewBox="0 0 10 10" enable-background="new 0 0 10 10" xml:space="preserve">
<g id="BG" display="none">
	<rect x="-43" y="-40.2" display="inline" fill="#CECECE" width="273" height="204.2"/>
</g>
<g id="icons">
	<g id="facebook_logo">
	</g>
	<g id="twitter_logo">
	</g>
	<g id="instagram_logo">
	</g>
	<path fill="#FFFFFF" d="M9.1,0H0.9C0.4,0,0,0.4,0,0.9v8.2C0,9.6,0.4,10,0.9,10h8.2C9.6,10,10,9.6,10,9.1V0.9C10,0.4,9.6,0,9.1,0z
		 M8.3,3.1c0,0-0.6,0-0.7,0c-0.1,0-0.2,0-0.3,0.1C7.2,3.3,7.3,3.4,7.3,3.4v0.8h1L8.2,5.4h-1V9H5.7V5.4H5V4.2h0.7c0-0.1,0-0.8,0-0.9
		c0-0.4,0.2-0.8,0.3-1c0.2-0.2,0.5-0.4,1.2-0.4c0.4,0,1.1,0,1.1,0V3.1z"/>
</g>
</svg>
