<?xml version="1.0" encoding="utf-8"?>
<!-- Generator: Adobe Illustrator 18.1.1, SVG Export Plug-In . SVG Version: 6.00 Build 0)  -->
<!DOCTYPE svg PUBLIC "-//W3C//DTD SVG 1.1//EN" "http://www.w3.org/Graphics/SVG/1.1/DTD/svg11.dtd">
<svg version="1.1" xmlns="http://www.w3.org/2000/svg" xmlns:xlink="http://www.w3.org/1999/xlink" x="0px" y="0px"
	 viewBox="0 0 54 54" enable-background="new 0 0 54 54" xml:space="preserve">
<g id="BG" display="none">
	<rect x="29" y="-112.2" display="inline" fill="#CECECE" width="273" height="204.2"/>
</g>
<g id="icons">
	<g id="facebook_logo">
	</g>
	<g id="twitter_logo">
	</g>
	<g id="instagram_logo">
	</g>
	<g>
		<circle fill="#FFFFFF" cx="38.5" cy="29.5" r="0.9"/>
		<path fill="#FFFFFF" d="M27,0C12.1,0,0,12.1,0,27s12.1,27,27,27c14.9,0,27-12.1,27-27S41.9,0,27,0z M26.6,8c3.6,0,6.6,3,6.6,6.6
			c0,2-0.9,3.8-2.3,5c-1.8-0.5-4.5-0.7-8.4,0.1C21,18.5,20,16.7,20,14.6C20,10.9,23,8,26.6,8z M42.6,34.6c-1.4-0.5-4.6,1.7-5.8,3.1
			c-1.2,1.3,3.3,3.1,0.4,4.7c-2.9,1.6-5.2,1.1-5.8,0.6c-0.6-0.5-1.1-2.5-1.1-2.5c-3.7,0.7-7.5,0.1-7.5,0.1c-0.1,0.6-0.8,2.1-1.6,2.9
			c-0.8,0.8-4.4,0.3-5.6-1.7c-1.3-1.9,2.9-4.9,0.8-5.6c-1.4-0.4-2.6-5.1-1-9.3c-1.1-0.9-2.5-2.4-2.5-2.4c-1.7,0.3-2.8-1-3-2.3
			c-0.3-1.3,0.8-1.7,1-0.9c0.3,1.5,1.5,1.4,1.5,1.4s-0.6-2.5,1.3-4.1c2.3-1.5,3.6,0.5,3.8,0.9c0.6,1-0.4,4.4-1.8,3.5
			c-1.4-0.9,0.3-1.4,0-2.4c-0.4-1.3-1.4-0.4-1.4,1.3c0,1.2,1.4,2.6,2,3c1.1-1.7,2.8-3.2,5.3-4c9.4-2.1,12.2,1.3,12.2,1.3
			c-0.4,3.3,1.2,3.1,1.2,3.1s-0.7-0.5-0.8-2.2c0.3-2.9,4-2.7,6-2.8c2-0.1,1.3,1.2,0.8,1.8c-0.6,0.7-2.7,3.4-2.7,3.4
			c0.1,0.7,3,3,4.4,3.2c1.3,0.2,1.8,0.6,1.8,1.9C44.5,31.9,44,35,42.6,34.6z"/>
		<path fill="#FFFFFF" d="M27.3,15.2c0,0.4-0.3,0.6-0.7,0.6c-0.4,0-0.8-0.2-1-0.3c-0.2-0.1-0.3-0.1-0.4,0.1l-0.2,0.2
			C25,15.9,24.8,16,25,16.1c0.2,0.2,1,0.4,1,0.5V17c0,0.2,0.4,0.7,0.6,0.7h0c0.2,0,0.4-0.6,0.4-0.7v-0.3c1-0.1,1.3-0.7,1.3-1.4
			c0-1.5-2.4-1.4-2.4-2.2c0-0.3,0.3-0.6,0.7-0.6c0.4,0,0.6,0.1,0.8,0.3c0.2,0.1,0.3,0.1,0.4-0.1l0.1-0.2c0.1-0.2,0.1-0.3,0-0.4
			c-0.2-0.1-0.9-0.3-0.9-0.3v-0.4c0-0.2-0.2-0.5-0.4-0.5h0c-0.2,0-0.6,0.3-0.6,0.5v0.4c0,0.1-1.2,0.7-1.2,1.4
			C24.8,14.4,27.3,14.4,27.3,15.2z"/>
	</g>
</g>
</svg>
