<?xml version="1.0" encoding="utf-8"?>
<!-- Generator: Adobe Illustrator 18.1.0, SVG Export Plug-In . SVG Version: 6.00 Build 0)  -->
<!DOCTYPE svg PUBLIC "-//W3C//DTD SVG 1.1//EN" "http://www.w3.org/Graphics/SVG/1.1/DTD/svg11.dtd">
<svg version="1.1" xmlns="http://www.w3.org/2000/svg" xmlns:xlink="http://www.w3.org/1999/xlink" x="0px" y="0px"
	 viewBox="0 0 21 21" enable-background="new 0 0 21 21" xml:space="preserve">
<g id="BG" display="none">
	<rect x="-83.5" y="-63.7" display="inline" fill="#CECECE" width="273" height="204.2"/>
</g>
<g id="icons">
	<g id="facebook_logo">
	</g>
	<g id="twitter_logo">
	</g>
	<g id="instagram_logo">
	</g>
	<g>
		<path fill="#757678" d="M8.1,0C3.6,0,0,3.7,0,8.2s3.6,8.3,8.1,8.3s8.1-3.7,8.1-8.3S12.5,0,8.1,0z M8.1,13.3c-2.8,0-5-2.3-5-5.1
			s2.2-5.1,5-5.1s5,2.3,5,5.1S10.8,13.3,8.1,13.3z"/>
		<path fill="#757678" d="M20.6,20.2l-0.3,0.3c-0.6,0.6-1.5,0.6-2,0l-3.6-3.7c-0.6-0.6-0.6-1.5,0-2.1l0.3-0.3c0.6-0.6,1.5-0.6,2,0
			l3.6,3.7C21.1,18.7,21.1,19.7,20.6,20.2z"/>
	</g>
</g>
</svg>
