<?xml version="1.0" encoding="utf-8"?>
<!-- Generator: Adobe Illustrator 18.1.0, SVG Export Plug-In . SVG Version: 6.00 Build 0)  -->
<!DOCTYPE svg PUBLIC "-//W3C//DTD SVG 1.1//EN" "http://www.w3.org/Graphics/SVG/1.1/DTD/svg11.dtd">
<svg version="1.1" xmlns="http://www.w3.org/2000/svg" xmlns:xlink="http://www.w3.org/1999/xlink" x="0px" y="0px"
	 viewBox="0 0 41 41" enable-background="new 0 0 41 41" xml:space="preserve">
<g id="BG" display="none">
	<rect x="-209" y="-61.2" display="inline" fill="#CECECE" width="273" height="204.2"/>
</g>
<g id="icons">
	<g id="facebook_logo">
	</g>
	<g id="twitter_logo">
	</g>
	<g id="instagram_logo">
	</g>
	<circle fill="#00BBE8" cx="20.5" cy="20.5" r="20.5"/>
	<g>
		<path fill="#FFFFFF" d="M24.4,3.2c-0.3,0-0.1,0-0.1,0C24.4,3.2,24.3,3.2,24.4,3.2z"/>
		<polygon fill="#FFFFFF" points="21.6,3 21.2,3 21.5,3 		"/>
		<path fill="#FFFFFF" d="M20.4,3L20.4,3l0.3,0c-0.5,0-1.2,0.1-1.6,0.1C19.3,3.1,19.9,3,20.4,3z"/>
		<path fill="#FFFFFF" d="M18,3.1c-0.1,0-0.1,0-0.3,0C17.8,3.1,17.4,3.2,18,3.1C18,3.1,18,3.1,18,3.1z"/>
		<path fill="#FFFFFF" d="M18,3.1C18.2,3,17.8,3.1,18,3.1L18,3.1z"/>
		<path fill="#FFFFFF" d="M16.7,3.3l0.3-0.1C17,3.2,16.7,3.3,16.7,3.3C16.5,3.4,16.5,3.4,16.7,3.3z"/>
		<path fill="#FFFFFF" d="M16.4,3.5l0.2-0.1C16.6,3.4,16.5,3.4,16.4,3.5z"/>
		<path fill="#FFFFFF" d="M17,3.3l-0.4,0.1c0.1,0,0.1,0,0.2,0C16.8,3.4,16.8,3.3,17,3.3z"/>
		<path fill="#FFFFFF" d="M17.3,3.3c0.7-0.1,0.6-0.1-0.1,0C17.4,3.2,17.6,3.2,17.3,3.3z"/>
		<path fill="#FFFFFF" d="M19.2,3.1l0.2,0c-0.1,0-0.5,0-0.5,0C18.9,3.1,19.2,3.1,19.2,3.1z"/>
		<path fill="#FFFFFF" d="M14.6,3.9c0,0,0.1,0,0.2,0L15,3.8C14.9,3.9,14.7,3.9,14.6,3.9z"/>
		<path fill="#FFFFFF" d="M14.8,3.9l-0.4,0.1C14.8,4,14.8,3.9,14.8,3.9z"/>
		<polygon fill="#FFFFFF" points="17,3.3 16.3,3.6 16.4,3.5 		"/>
		<polygon fill="#FFFFFF" points="13.5,4.4 13.1,4.6 13.3,4.5 		"/>
		<path fill="#FFFFFF" d="M12.3,4.9c-0.2,0.1-0.4,0.3-0.6,0.4C11.9,5.2,12.1,5,12.3,4.9C12.5,4.8,12.2,5,12.3,4.9z"/>
		<path fill="#FFFFFF" d="M13.8,4.3c0,0-0.1,0-0.3,0.1l0.2,0C13.7,4.3,13.8,4.3,13.8,4.3z"/>
		<path fill="#FFFFFF" d="M13.7,4.4L13.7,4.4c-0.2,0.1-0.3,0.1-0.3,0.1C13.4,4.5,13.5,4.4,13.7,4.4z"/>
		<path fill="#FFFFFF" d="M15.2,3.9c0.1-0.1-0.1,0,0.2-0.1C15.2,3.9,14.8,4,15.2,3.9z"/>
		<path fill="#FFFFFF" d="M14.5,4.1l-0.4,0.2L14.5,4.1C14.4,4.1,14.4,4.1,14.5,4.1z"/>
		<polygon fill="#FFFFFF" points="13.9,4.3 13.9,4.3 14.1,4.3 		"/>
		<path fill="#FFFFFF" d="M12.1,5.1c-0.1,0.1-0.3,0.2-0.5,0.3c0.2-0.1,0.4-0.2,0.6-0.3C12.2,5.1,12.3,5,12.1,5.1z"/>
		<polygon fill="#FFFFFF" points="9.8,6.7 9.8,6.7 9.8,6.6 		"/>
		<path fill="#FFFFFF" d="M12.2,5.1C12.4,5,12.4,5,12.6,4.9C12.4,5,12.3,5,12.2,5.1C12.2,5.1,12.2,5.1,12.2,5.1z"/>
		<path fill="#FFFFFF" d="M11.2,5.7c-0.1,0-0.3,0.1-0.3,0.1L11.2,5.7z"/>
		<path fill="#FFFFFF" d="M12.8,4.8L12.8,4.8C12.7,4.8,12.7,4.8,12.8,4.8z"/>
		<path fill="#FFFFFF" d="M12.8,4.8c-0.1,0-0.1,0.1-0.2,0.1C12.7,4.9,12.7,4.8,12.8,4.8C12.8,4.8,12.8,4.8,12.8,4.8z"/>
		<path fill="#FFFFFF" d="M9.4,7.2C9.5,7.2,9.3,7.3,9.4,7.2c0,0,0.3-0.3,0.7-0.5c0.3-0.2,0-0.2-0.3,0c0,0,0,0-0.3,0.3
			c0.1-0.1,0.7-0.5,0.5-0.3C9.6,7,9.7,6.9,9.4,7.1C9.6,7,9,7.6,9.1,7.5L9.4,7.2z"/>
		<path fill="#FFFFFF" d="M10.5,6.2l0.1-0.1c-0.2,0.1-0.3,0.2-0.5,0.3C9.9,6.6,9.8,6.6,9.8,6.6L10.5,6.2L10.5,6.2z"/>
		<path fill="#FFFFFF" d="M11,5.9c0.4-0.3,0.3-0.2,0.5-0.4c-0.7,0.4,0.2-0.1-0.3,0.1c0.1-0.1,0.3-0.2,0.4-0.2l-0.4,0.2l0,0l0,0l0,0
			c0,0,0,0,0,0c0,0,0,0,0,0c0,0,0,0,0,0c-0.2,0.1,0,0,0,0l0,0l0,0c0,0-0.2,0.1-0.3,0.2c-0.2,0.1-0.3,0.2-0.3,0.2
			c0.1-0.1,0.3-0.2,0.6-0.4C11.1,5.8,10.8,6,11,5.9z"/>
		<path fill="#FFFFFF" d="M14.8,4.1C14.8,4.1,14.8,4.1,14.8,4.1C14.8,4.2,14.7,4.2,14.8,4.1z"/>
		<path fill="#FFFFFF" d="M14.8,4.1L14.8,4.1c-0.4,0.1-0.8,0.2-0.7,0.2c0.1,0,0.2,0,0.4,0C14.6,4.2,14.6,4.2,14.8,4.1
			C14.9,4.1,14.8,4.1,14.8,4.1C14.9,4.1,15.2,4,14.8,4.1z"/>
		<path fill="#FFFFFF" d="M12.8,4.9c0,0-0.1,0.1-0.3,0.1c-0.1,0.1-0.3,0.2-0.3,0.2s0.3-0.1,0.3-0.1l0,0C12.9,4.9,12.8,4.9,12.8,4.9z
			"/>
		<path fill="#FFFFFF" d="M9.7,6.7L9.7,6.7c0-0.1-0.2,0.2-0.2,0.2C9.5,6.9,9.7,6.7,9.7,6.7z"/>
		<polygon fill="#FFFFFF" points="9.1,7.2 8.9,7.4 9.1,7.3 		"/>
		<path fill="#FFFFFF" d="M4.7,27L4.7,27c-0.1-0.3-0.1-0.4-0.2-0.5C4.6,26.7,4.6,27,4.7,27z"/>
		<path fill="#FFFFFF" d="M14.3,36c0.1,0,0.2,0.1,0.3,0.1l-0.1,0C14.5,36,14.4,36,14.3,36z"/>
		<path fill="#FFFFFF" d="M33.4,32.4l0.1-0.2C33.2,32.4,33.4,32.3,33.4,32.4z"/>
		<path fill="#FFFFFF" d="M4,15c0.1-0.3,0.2-0.5,0.2-0.6C4.1,14.7,4,14.8,4,15z"/>
		<path fill="#FFFFFF" d="M26.8,36.7c-0.1,0-0.2,0.1-0.1,0.1C26.7,36.7,26.8,36.7,26.8,36.7z"/>
		<path fill="#FFFFFF" d="M3.8,15.7c0,0,0-0.1,0-0.1c0-0.2,0.1-0.4,0.1-0.6C3.9,15.2,3.8,15.4,3.8,15.7z"/>
		<path fill="#FFFFFF" d="M26.9,4c-0.1,0-0.2-0.1-0.3-0.1C26.8,3.9,26.9,3.9,26.9,4z"/>
		<path fill="#FFFFFF" d="M6.7,9.7C6.8,9.6,6.7,9.7,6.7,9.7L6.7,9.7z"/>
		<path fill="#FFFFFF" d="M3.6,17.5L3.6,17.5C3.6,17.4,3.6,17.5,3.6,17.5z"/>
		<path fill="#FFFFFF" d="M6.8,9.6c0,0,0.1-0.1,0.1-0.1C7,9.4,6.9,9.4,6.8,9.6z"/>
		<path fill="#FFFFFF" d="M6.7,9.7c0,0-0.1,0.1-0.2,0.2C6.6,9.9,6.7,9.8,6.7,9.7C6.7,9.7,6.7,9.8,6.7,9.7z"/>
		<path fill="#FFFFFF" d="M38.6,21.3C38.6,21.2,38.6,21.2,38.6,21.3C38.6,21,38.6,21.1,38.6,21.3z"/>
		<polygon fill="#FFFFFF" points="7.2,30.3 7.1,30.2 7.2,30.3 		"/>
		<path fill="#FFFFFF" d="M7.6,30.7c-0.2-0.2-0.3-0.3-0.4-0.5l0,0.2L7.6,30.7z"/>
		<path fill="#FFFFFF" d="M9.4,32.7C9.4,32.7,9.4,32.7,9.4,32.7C9.5,32.7,9.5,32.8,9.4,32.7L9.4,32.7z"/>
		<path fill="#FFFFFF" d="M3.6,23.4c0-0.1,0-0.2,0-0.2C3.6,23.2,3.6,23.3,3.6,23.4z"/>
		<path fill="#FFFFFF" d="M14.8,36C14.8,36,14.8,36,14.8,36C14.9,36,14.9,36,14.8,36z"/>
		<path fill="#FFFFFF" d="M33.3,32.4L33.3,32.4C33.4,32.4,33.4,32.4,33.3,32.4L33.3,32.4z"/>
		<path fill="#FFFFFF" d="M3.6,20.1c0,0,0,0,0-0.2C3.6,20,3.6,20.1,3.6,20.1z"/>
		<path fill="#FFFFFF" d="M7.9,8.4C7.9,8.4,7.8,8.4,7.9,8.4L7.7,8.6C7.8,8.5,7.8,8.4,7.9,8.4z"/>
		<path fill="#FFFFFF" d="M10.7,6.3c0.1,0,0.1-0.1,0.1-0.1l0,0C10.6,6.3,10.4,6.4,10.7,6.3z"/>
		<path fill="#FFFFFF" d="M8.3,8.1c0,0,0.2-0.2,0.4-0.4l0,0C8.7,7.7,8.4,7.9,8.3,8.1z"/>
		<path fill="#FFFFFF" d="M8.9,7.6c0,0-0.1,0.1-0.2,0.2L8.9,7.6z"/>
		<path fill="#FFFFFF" d="M6.4,10.1c0.1-0.1-0.5,0.7-0.1,0.1C6.4,10.1,6.4,10.2,6.4,10.1z"/>
		<polygon fill="#FFFFFF" points="8.3,8.2 8.5,8.1 8.4,8.1 		"/>
		<path fill="#FFFFFF" d="M7.3,9.3C7.3,9.3,7.3,9.3,7.3,9.3C7.2,9.4,7,9.6,7,9.6L7.3,9.3z"/>
		<path fill="#FFFFFF" d="M7.6,8.9c0,0.1-0.2,0.2-0.2,0.3C7.5,9.1,7.6,9,7.6,8.9z"/>
		<polygon fill="#FFFFFF" points="7.8,8.8 8.1,8.5 8,8.6 		"/>
		<path fill="#FFFFFF" d="M4.5,14.1c0,0.1,0-0.1,0.1-0.2c0-0.1,0.1-0.3,0-0.2L4.5,14.1z"/>
		<path fill="#FFFFFF" d="M5.3,12.6l0.1-0.2C5.3,12.5,5.3,12.5,5.3,12.6L5.3,12.6z"/>
		<path fill="#FFFFFF" d="M4.8,13.7C4.8,13.7,4.6,14.3,4.8,13.7C4.8,13.7,5,13.3,4.8,13.7z"/>
		<polygon fill="#FFFFFF" points="3.4,20.5 3.5,20.6 3.5,20.5 		"/>
		<path fill="#FFFFFF" d="M4.9,26.3c0.1,0.3,0.2,0.5,0.2,0.3c-0.2-0.5-0.1-0.1-0.3-0.6C4.7,26,4.9,26.5,4.9,26.3z"/>
		<polygon fill="#FFFFFF" points="25.3,3.5 25,3.4 25.2,3.4 		"/>
		<path fill="#FFFFFF" d="M24.6,3.4L24.6,3.4l-0.3-0.1C24.4,3.3,24.6,3.3,24.6,3.4z"/>
		<path fill="#FFFFFF" d="M22.7,37c0.1,0,0.1,0,0.3,0L22.7,37L22.7,37z"/>
		<polygon fill="#FFFFFF" points="27.3,36 27.5,36 27.4,36 		"/>
		<path fill="#FFFFFF" d="M30.6,34.4c0.3-0.2,0.5-0.2,0.4-0.3C30.9,34.2,30.7,34.3,30.6,34.4z"/>
		<path fill="#FFFFFF" d="M32,32.4c-0.1,0.1,0,0.1-0.1,0.1C32.2,32.3,32,32.4,32,32.4z"/>
		<polygon fill="#FFFFFF" points="33.7,30.3 33.7,30.3 33.9,30 		"/>
		<path fill="#FFFFFF" d="M34.4,29.3L34.4,29.3l-0.1,0.3c0.3-0.5,0.6-1.1,0.8-1.5C34.9,28.2,34.6,28.9,34.4,29.3z"/>
		<path fill="#FFFFFF" d="M35.7,27.2C35.7,27.1,35.7,27.1,35.7,27.2c0.1-0.1,0.1-0.2,0.1-0.3C35.8,26.9,35.9,26.6,35.7,27.2z"/>
		<path fill="#FFFFFF" d="M35.7,27.1C35.6,27.4,35.8,26.9,35.7,27.1L35.7,27.1z"/>
		<path fill="#FFFFFF" d="M36.1,26.3c0-0.1,0.1-0.4,0.1-0.3c0.1-0.4,0.1-0.3,0-0.1L36.1,26.3z"/>
		<path fill="#FFFFFF" d="M36.2,25.8c0,0,0-0.1,0.1-0.2L36.2,25.8z"/>
		<path fill="#FFFFFF" d="M36.1,25.9c0,0,0,0-0.1,0.2l0.1-0.4C36.2,25.8,36.1,25.8,36.1,25.9z"/>
		<path fill="#FFFFFF" d="M36,26.4C35.9,26.5,35.8,26.8,36,26.4C35.6,27.1,35.7,27,36,26.4z"/>
		<path fill="#FFFFFF" d="M35,28.1l-0.1,0.2c0.1-0.1,0.3-0.4,0.2-0.4C35.1,27.9,35,28.1,35,28.1z"/>
		<path fill="#FFFFFF" d="M36.8,23.9l0,0.3c0-0.1,0.1-0.4,0.1-0.4C36.8,23.8,36.8,23.9,36.8,23.9z"/>
		<path fill="#FFFFFF" d="M36.8,23.9l0.1-0.4C36.7,23.9,36.7,23.9,36.8,23.9z"/>
		<polygon fill="#FFFFFF" points="36.2,25.5 36,26.1 36.2,25.4 		"/>
		<polygon fill="#FFFFFF" points="37.1,22.5 37.1,22.1 37.1,22.3 		"/>
		<path fill="#FFFFFF" d="M37.3,21.2c0-0.3,0-0.5,0-0.7C37.3,20.7,37.3,21,37.3,21.2C37.3,21.4,37.3,21,37.3,21.2z"/>
		<path fill="#FFFFFF" d="M37,22.9c0,0,0-0.1,0.1-0.3L37,22.7C37,22.7,37,22.8,37,22.9z"/>
		<path fill="#FFFFFF" d="M37,22.7L37,22.7c0-0.2,0-0.3,0.1-0.3C37,22.4,37,22.5,37,22.7z"/>
		<path fill="#FFFFFF" d="M36.5,24.3c0,0.2,0.1-0.1,0,0.3C36.6,24.3,36.7,23.8,36.5,24.3z"/>
		<path fill="#FFFFFF" d="M36.8,23.5l0.1-0.4L36.8,23.5C36.8,23.5,36.8,23.4,36.8,23.5z"/>
		<polygon fill="#FFFFFF" points="36.9,23.1 36.9,22.9 36.9,22.9 		"/>
		<path fill="#FFFFFF" d="M37.2,20.9c0-0.2,0-0.4,0-0.6c0,0.3,0,0.5,0,0.7C37.2,21,37.2,21.1,37.2,20.9z"/>
		<polygon fill="#FFFFFF" points="37.2,18 37.2,18.1 37.2,18.1 		"/>
		<path fill="#FFFFFF" d="M37.2,21c0,0.2,0,0.3,0,0.4C37.2,21.3,37.2,21.1,37.2,21C37.2,21,37.2,21,37.2,21z"/>
		<path fill="#FFFFFF" d="M37.2,21.7L37.2,21.7C37.2,21.6,37.2,21.6,37.2,21.7z"/>
		<path fill="#FFFFFF" d="M37.2,21.7c0-0.1,0-0.2,0-0.2C37.2,21.5,37.1,21.6,37.2,21.7C37.1,21.7,37.1,21.7,37.2,21.7z"/>
		<path fill="#FFFFFF" d="M36.8,17l0.1,0.5c0,0,0-0.2,0,0c0,0,0.2,0.5,0.1,0.9c0,0.4,0.1,0.1,0.2-0.2c0,0,0,0-0.1-0.4
			c0,0.1,0,0.9,0,0.6c0-0.5,0-0.4,0-0.7C37,17.7,36.9,16.8,36.8,17z"/>
		<path fill="#FFFFFF" d="M37.2,18.9l0,0.2c0-0.2,0-0.3,0-0.6c0-0.3,0-0.3-0.1-0.4L37.2,18.9L37.2,18.9z"/>
		<path fill="#FFFFFF" d="M37.2,19.8c0-0.1-0.1-0.5-0.1-0.3c0,0.5,0,0.4,0,0.7C37.2,19.4,37.2,20.4,37.2,19.8c0,0.2,0,0.3,0,0.4
			L37.2,19.8L37.2,19.8L37.2,19.8L37.2,19.8C37.3,19.9,37.3,19.9,37.2,19.8C37.3,19.9,37.3,19.9,37.2,19.8
			C37.3,19.8,37.3,19.8,37.2,19.8C37.3,19.6,37.3,19.8,37.2,19.8L37.2,19.8L37.2,19.8C37.3,19.9,37.3,19.8,37.2,19.8
			C37.3,19.8,37.3,19.8,37.2,19.8c0-0.1,0.1-0.3,0-0.3C37.3,19.6,37.3,19.7,37.2,19.8c0-0.2,0-0.8,0-0.8
			C37.2,19.2,37.3,19.4,37.2,19.8z"/>
		<path fill="#FFFFFF" d="M36.6,23.8C36.6,23.8,36.6,23.8,36.6,23.8C36.6,23.7,36.6,23.7,36.6,23.8z"/>
		<path fill="#FFFFFF" d="M36.6,23.9L36.6,23.9c0.1-0.4,0.2-0.8,0.2-0.7c-0.1,0.1-0.1,0.2-0.2,0.4C36.7,23.6,36.7,23.6,36.6,23.9
			C36.6,24,36.6,23.8,36.6,23.9C36.6,23.9,36.5,24.2,36.6,23.9z"/>
		<path fill="#FFFFFF" d="M37.1,21.3c-0.1,0.4,0,0.3,0,0.3C37,21.7,37.1,21.5,37.1,21.3c0-0.2,0-0.3,0-0.3L37.1,21.3L37.1,21.3z"/>
		<path fill="#FFFFFF" d="M37.2,18c0,0-0.1-0.4-0.1-0.4S37.2,18,37.2,18L37.2,18z"/>
		<polygon fill="#FFFFFF" points="37.1,17.1 37.1,16.9 37.1,17.1 		"/>
		<path fill="#FFFFFF" d="M2.3,14.2C2.3,14.3,2.3,14.3,2.3,14.2L2.3,14.2z"/>
		<path fill="#FFFFFF" d="M9.4,4.9C9.3,4.9,9.2,5,9.2,5l0.1,0C9.3,4.9,9.3,4.9,9.4,4.9z"/>
		<path fill="#FFFFFF" d="M1.7,23.3c0,0,0.1,0.2,0.1,0.2C1.7,23.1,1.7,23.3,1.7,23.3z"/>
		<path fill="#FFFFFF" d="M33.3,8.3c0.2,0.3,0.3,0.5,0.4,0.5C33.5,8.6,33.4,8.4,33.3,8.3z"/>
		<path fill="#FFFFFF" d="M1.7,15c0,0.1,0,0.2,0,0.2C1.7,15,1.7,14.9,1.7,15z"/>
		<path fill="#FFFFFF" d="M29.8,34.3c0.1,0,0.1-0.1,0.3-0.2C30,34.1,29.9,34.2,29.8,34.3z"/>
		<path fill="#FFFFFF" d="M36.3,13.6C36.3,13.8,36.3,13.7,36.3,13.6L36.3,13.6z"/>
		<path fill="#FFFFFF" d="M31.3,6.6L31.3,6.6C31.4,6.6,31.4,6.6,31.3,6.6z"/>
		<path fill="#FFFFFF" d="M36.3,13.9c0-0.1,0-0.2-0.1-0.2C36.3,13.7,36.3,13.8,36.3,13.9z"/>
		<path fill="#FFFFFF" d="M36.3,13.9c0,0.1,0,0.1,0.1,0.2C36.4,14,36.4,14,36.3,13.9z"/>
		<path fill="#FFFFFF" d="M36.2,13.4c0,0.1,0.1,0.2,0.1,0.3c0,0,0-0.1,0,0C36.2,13.6,36.2,13.5,36.2,13.4z"/>
		<path fill="#FFFFFF" d="M8.3,34.1C8.3,34.1,8.3,34.2,8.3,34.1C8.5,34.3,8.4,34.2,8.3,34.1z"/>
		<polygon fill="#FFFFFF" points="18.4,2.1 18.4,2.1 18.4,2.1 		"/>
		<path fill="#FFFFFF" d="M34.7,10.7c0-0.1-0.1-0.1-0.1-0.2C34.6,10.6,34.7,10.7,34.7,10.7z"/>
		<path fill="#FFFFFF" d="M1.8,14.2c0,0,0,0.1,0.1,0.1c0,0,0-0.1,0.1-0.1L1.8,14.2z"/>
		<path fill="#FFFFFF" d="M25.5,36.5c0,0,0.1,0,0.1,0C25.7,36.4,25.6,36.4,25.5,36.5z"/>
		<path fill="#FFFFFF" d="M15,2.6C15,2.6,15,2.6,15,2.6c0,0-0.1,0-0.1,0L15,2.6z"/>
		<path fill="#FFFFFF" d="M2,15L2,15C2,15.1,2.1,15.1,2,15C2.1,14.9,2.1,14.9,2,15z"/>
		<path fill="#FFFFFF" d="M9.1,5.2C9.1,5.3,9,5.3,9.1,5.2C9,5.3,9,5.3,9.1,5.2z"/>
		<path fill="#FFFFFF" d="M1.7,23.2L1.7,23.2C1.7,23.2,1.7,23.3,1.7,23.2L1.7,23.2z"/>
		<path fill="#FFFFFF" d="M36.8,15.5C36.8,15.4,36.8,15.4,36.8,15.5l-0.1-0.4C36.8,15.3,36.8,15.4,36.8,15.5z"/>
		<path fill="#FFFFFF" d="M37.1,19.2c0-0.3,0-0.4,0-0.2C37,19.1,37,19.1,37.1,19.2L37.1,19.2z"/>
		<path fill="#FFFFFF" d="M36.9,16.4c0.1,0.1,0-0.2-0.1-0.5C36.7,15.9,36.8,16.2,36.9,16.4L36.9,16.4z"/>
		<path fill="#FFFFFF" d="M36.9,16.8c0,0,0-0.1,0-0.3C36.9,16.6,36.9,16.7,36.9,16.8z"/>
		<path fill="#FFFFFF" d="M36,13.1c0,0.1,0.1,0.1,0.1,0.1C36.2,13.3,35.8,12.4,36,13.1z"/>
		<polygon fill="#FFFFFF" points="36.7,16 36.7,15.9 36.7,16.1 		"/>
		<path fill="#FFFFFF" d="M36.4,14.5c-0.1-0.3-0.2-0.6-0.2-0.5l0.1,0.4C36.3,14.4,36.3,14.4,36.4,14.5z"/>
		<path fill="#FFFFFF" d="M36.4,14.5c0,0.1,0.1,0.3,0.1,0.4C36.4,14.8,36.4,14.6,36.4,14.5z"/>
		<polygon fill="#FFFFFF" points="36.5,15.4 36.5,15.1 36.6,15.5 		"/>
		<path fill="#FFFFFF" d="M34.1,9.6l-0.3-0.4c0,0,0,0.1,0.1,0.2C34,9.6,34.1,9.7,34.1,9.6z"/>
		<path fill="#FFFFFF" d="M34.6,10.8L34.6,10.8l0.1,0.2C34.7,10.8,34.7,10.8,34.6,10.8z"/>
		<path fill="#FFFFFF" d="M34,9.7C33.9,9.7,33.5,9.2,34,9.7C33.9,9.7,34.2,10.1,34,9.7z"/>
		<polygon fill="#FFFFFF" points="28.8,4.6 28.9,4.7 28.9,4.6 		"/>
		<path fill="#FFFFFF" d="M23.4,2.6c0.1,0-0.4-0.1-0.3-0.1c-0.3-0.1-0.5-0.1-0.4,0C23.3,2.6,22.8,2.4,23.4,2.6z"/>
		<path fill="#FFFFFF" d="M23.1,2.5c0,0,0.1,0,0.2,0C23.2,2.5,23.1,2.5,23.1,2.5z"/>
		<polygon fill="#FFFFFF" points="31.2,33.2 31.5,33 31.3,33.1 		"/>
		<path fill="#FFFFFF" d="M31.9,32.5c-0.1,0.1-0.2,0.2-0.2,0.2l0.1,0L31.9,32.5z"/>
		<path fill="#FFFFFF" d="M3.7,11.4c0,0-0.1,0.1-0.2,0.3L3.7,11.4L3.7,11.4z"/>
		<polygon fill="#FFFFFF" points="1.9,16.1 1.9,16 1.8,16.1 		"/>
		<path fill="#FFFFFF" d="M1.5,20.2c0-0.2,0-0.4,0-0.5C1.5,20.1,1.4,20.3,1.5,20.2z"/>
		<path fill="#FFFFFF" d="M2.4,20.6c0-0.2,0-0.1,0-0.1C2.4,20.7,2.4,20.6,2.4,20.6z"/>
		<polygon fill="#FFFFFF" points="2.7,23.4 2.7,23.4 2.8,23.8 		"/>
		<path fill="#FFFFFF" d="M3,24.6L3,24.6l-0.1-0.3C3,24.9,3.2,25.6,3.3,26C3.3,25.8,3.1,25.1,3,24.6z"/>
		<path fill="#FFFFFF" d="M3.6,27.1C3.6,27.1,3.6,27.2,3.6,27.1c0,0.1,0.1,0.2,0.1,0.3C3.7,27.3,3.8,27.7,3.6,27.1z"/>
		<path fill="#FFFFFF" d="M3.6,27.2C3.5,26.9,3.7,27.4,3.6,27.2L3.6,27.2z"/>
		<path fill="#FFFFFF" d="M4.1,28.3C4.3,28.6,4.2,28.6,4.1,28.3L4,28C4,28.1,4.1,28.4,4.1,28.3z"/>
		<path fill="#FFFFFF" d="M4.3,28.5c0,0,0,0.1,0.1,0.2L4.3,28.5z"/>
		<path fill="#FFFFFF" d="M4.2,28.3c0,0,0,0-0.1-0.2l0.2,0.4C4.2,28.4,4.3,28.4,4.2,28.3z"/>
		<path fill="#FFFFFF" d="M4,27.8c-0.3-0.7-0.3-0.5,0,0.1C3.9,27.7,3.8,27.5,4,27.8z"/>
		<path fill="#FFFFFF" d="M3.4,25.9l-0.1-0.2c0,0.1,0.1,0.5,0.2,0.5C3.4,26.2,3.4,25.9,3.4,25.9z"/>
		<path fill="#FFFFFF" d="M5.3,30.4c0,0,0-0.1,0-0.2L5.1,30C5.1,30.2,5.3,30.4,5.3,30.4z"/>
		<path fill="#FFFFFF" d="M5.2,30.3l0.2,0.3C5.3,30.3,5.2,30.2,5.2,30.3z"/>
		<polygon fill="#FFFFFF" points="4.4,28.7 4.1,28.1 4.5,28.8 		"/>
		<polygon fill="#FFFFFF" points="6.3,31.8 6.2,31.7 6,31.5 		"/>
		<path fill="#FFFFFF" d="M6.8,32.6C7,32.8,7.2,33,7.4,33.1C7.2,32.9,7.1,32.8,6.8,32.6C6.7,32.4,7,32.7,6.8,32.6z"/>
		<path fill="#FFFFFF" d="M6,31.4L6,31.3c0,0-0.1-0.1-0.1-0.1C5.9,31.2,5.9,31.3,6,31.4z"/>
		<path fill="#FFFFFF" d="M6,31.3L6,31.3c0.1,0.1,0.2,0.2,0.2,0.3C6.1,31.5,6.1,31.5,6,31.3z"/>
		<path fill="#FFFFFF" d="M5.1,29.8c-0.1-0.1,0,0.1-0.2-0.2C5.1,29.9,5.4,30.3,5.1,29.8z"/>
		<path fill="#FFFFFF" d="M5.5,30.6c0,0,0.3,0.4,0.3,0.4C5.7,31,5.5,30.6,5.5,30.6C5.5,30.6,5.5,30.7,5.5,30.6z"/>
		<polygon fill="#FFFFFF" points="5.9,31.1 5.8,31 5.8,31.1 		"/>
		<path fill="#FFFFFF" d="M7.2,32.8c0.1,0.1,0.3,0.3,0.4,0.4c-0.2-0.2-0.3-0.4-0.5-0.6C7.1,32.6,7,32.6,7.2,32.8z"/>
		<polygon fill="#FFFFFF" points="9.3,34.8 9.3,34.8 9.3,34.8 		"/>
		<path fill="#FFFFFF" d="M7.1,32.6c-0.1-0.1-0.2-0.2-0.3-0.3C6.9,32.4,7,32.6,7.1,32.6C7.1,32.7,7.1,32.7,7.1,32.6z"/>
		<path fill="#FFFFFF" d="M8.1,33.8l-0.2-0.2C8,33.6,8.1,33.8,8.1,33.8z"/>
		<path fill="#FFFFFF" d="M6.6,32.2L6.6,32.2C6.6,32.2,6.6,32.2,6.6,32.2z"/>
		<path fill="#FFFFFF" d="M6.8,32.3c-0.1-0.1-0.1-0.2-0.2-0.2c0,0,0,0,0,0.1C6.7,32.2,6.7,32.3,6.8,32.3z"/>
		<path fill="#FFFFFF" d="M9.2,34.6c0.4,0.3,0.4,0.3,0.6,0.5c-0.2-0.2,0.6,0.4,0.6,0.3L9.9,35c0,0,0.2,0.1,0,0c0,0-0.5-0.2-0.8-0.6
			c-0.3-0.3-0.2,0,0,0.3c0,0,0,0,0.4,0.2C9.5,34.9,8.9,34.4,9.2,34.6z"/>
		<path fill="#FFFFFF" d="M9,34.5c0.2,0.2,0.3,0.2,0.3,0.2l-0.7-0.6l0,0l-0.1-0.1C8.7,34.2,8.8,34.3,9,34.5z"/>
		<path fill="#FFFFFF" d="M7.9,33.5L7.9,33.5L7.9,33.5C7.9,33.5,7.9,33.5,7.9,33.5C7.9,33.5,7.9,33.5,7.9,33.5
			C7.9,33.5,7.9,33.6,7.9,33.5C8.1,33.7,7.9,33.6,7.9,33.5L7.9,33.5L7.9,33.5c0,0,0.2,0.1,0.3,0.3c0.2,0.1,0.3,0.3,0.3,0.3
			C8.4,34,8.2,33.8,7.9,33.5c0.2,0.1,0.5,0.4,0.3,0.2c-0.4-0.3-0.3-0.2-0.5-0.4C8.3,33.9,7.5,33.1,7.9,33.5
			c-0.1-0.1-0.2-0.2-0.3-0.3L7.9,33.5L7.9,33.5z"/>
		<path fill="#FFFFFF" d="M5.4,30.2C5.4,30.2,5.4,30.2,5.4,30.2C5.5,30.2,5.5,30.3,5.4,30.2z"/>
		<path fill="#FFFFFF" d="M5.4,30.2c0.2,0.3,0.4,0.7,0.3,0.6c0-0.1-0.1-0.2-0.2-0.4C5.6,30.4,5.5,30.4,5.4,30.2
			C5.3,30.1,5.4,30.2,5.4,30.2C5.4,30.1,5.2,29.9,5.4,30.2L5.4,30.2z"/>
		<path fill="#FFFFFF" d="M7,32.3L7,32.3c-0.3-0.3-0.2-0.2-0.3-0.2c0,0,0.5,0.5,0.5,0.5L7,32.3z"/>
		<path fill="#FFFFFF" d="M37.8,12.1L37.8,12.1C37.7,12,37.7,12,37.8,12.1z"/>
		<path fill="#FFFFFF" d="M31.5,35.6L31.5,35.6c-0.3,0.2-0.4,0.2-0.5,0.3C31.2,35.8,31.5,35.7,31.5,35.6z"/>
		<path fill="#FFFFFF" d="M39.5,24c0-0.1,0-0.2,0-0.3l0,0.1C39.5,23.9,39.5,24,39.5,24z"/>
		<path fill="#FFFFFF" d="M31.5,5.1L31.3,5C31.6,5.2,31.5,5.1,31.5,5.1z"/>
		<path fill="#FFFFFF" d="M19.3,39.1C19,39.1,18.7,39,18.6,39C18.9,39.1,19.1,39.1,19.3,39.1z"/>
		<path fill="#FFFFFF" d="M37.7,11.1C37.6,11,37.6,11,37.6,11C37.6,11.1,37.7,11.1,37.7,11.1z"/>
		<path fill="#FFFFFF" d="M20,39.2c0,0-0.1,0-0.1,0c-0.2,0-0.4,0-0.6-0.1C19.5,39.2,19.7,39.2,20,39.2z"/>
		<path fill="#FFFFFF" d="M2.7,17.6c0,0.1,0,0.3-0.1,0.3C2.6,17.8,2.7,17.7,2.7,17.6z"/>
		<path fill="#FFFFFF" d="M13.2,37.3C13.1,37.2,13.2,37.3,13.2,37.3L13.2,37.3z"/>
		<path fill="#FFFFFF" d="M13,37.1c0.1,0,0.1,0.1,0.2,0.1C13.2,37.2,13.1,37.2,13,37.1z"/>
		<path fill="#FFFFFF" d="M13,37.2c-0.1,0-0.1-0.1-0.2-0.1C12.8,37.1,12.8,37.1,13,37.2z"/>
		<path fill="#FFFFFF" d="M13.5,37.4c-0.1,0-0.2-0.1-0.3-0.1c0,0,0,0,0,0C13.3,37.3,13.4,37.3,13.5,37.4z"/>
		<polygon fill="#FFFFFF" points="34.5,32.4 34.5,32.4 34.5,32.4 		"/>
		<path fill="#FFFFFF" d="M34.9,31.9c-0.2,0.2-0.3,0.4-0.4,0.5l0.2-0.1L34.9,31.9z"/>
		<path fill="#FFFFFF" d="M16.5,38.3c0.1,0,0.2,0,0.2,0.1C16.6,38.3,16.5,38.3,16.5,38.3z"/>
		<path fill="#FFFFFF" d="M40,21.9c0-0.1-0.1-0.4-0.1-0.5c0-0.6,0-0.7-0.1-1.2c0-0.2,0.1-0.5,0-0.9l0.1,0c0-1.1,0-0.5-0.1-1.6l0,0.1
			c-0.1-0.1-0.1-1-0.3-1.6l0,0.2c-0.1-0.3-0.1-1-0.2-1.3c0-0.1,0,0.1,0.1,0.2c-0.2-0.9-0.1-0.1-0.3-0.8c0-0.1,0.1,0.1,0-0.3
			c-0.1-0.2-0.5-1.2-0.8-1.8c0,0.1,0.1,0.3-0.1,0c-0.2-0.4-0.5-1.2-0.8-1.6c0-0.1,0-0.1,0-0.1c-0.2-0.3-0.6-1-0.8-1.2
			c0-0.2-0.4-0.6-0.7-1C35.7,8.3,35.3,8,35.4,8l-0.8-0.8l0,0c-0.5-0.5-0.7-0.6-1-0.8c-0.1-0.1,0,0,0,0c-0.8-0.7-0.9-0.7-1.6-1.2
			L32,5c-0.1-0.1-0.4-0.3-0.8-0.5c-0.4-0.3-0.9-0.6-1.4-0.8c0,0,0,0,0.1,0c-1.1-0.5-2.5-1.2-3-1.2l-0.8-0.2c1,0.3-0.2,0,0.2,0.2
			c-0.4-0.1-1-0.3-0.5-0.2l0.1,0c0.2,0-1.2-0.3-1.2-0.3c-1.9-0.4-3.9-0.4-5.7-0.2l0.1,0c0,0-0.1,0-0.1,0c-0.1,0-0.3,0.1-0.3,0.1
			c-0.1,0-0.1,0-0.1,0c0.1,0,0.1,0,0.2,0c-0.1,0-0.2,0-0.3,0c-0.2,0-0.2,0,0.1-0.1c-0.8,0.1-0.7,0.1-1.4,0.2l0,0
			c-0.2,0-0.6,0.1-0.8,0.1c-0.6,0-2.7,0.6-4.1,1.1c0.3,0-0.6,0.2-0.7,0.3c-0.1,0-0.3,0.1-0.1,0c-0.7,0.3-1,0.4-1.4,0.8
			c-0.1,0,0.1-0.1,0-0.1c0,0-0.2,0.1-0.3,0.2c-0.1,0,0.1-0.1,0.2-0.1C9.6,4.5,9.6,4.6,9.6,4.7C9.2,4.8,9.1,4.9,8.9,5.1
			C8.7,5.2,8.6,5.3,8.9,5C8.7,5.2,7.6,6,7.6,6c-0.1,0-0.3,0.2-0.3,0.3C6.9,6.7,6.8,6.8,6.4,7.2L6.5,7C6.4,7.2,6.2,7.4,5.9,7.8l0,0
			c-0.7,0.8-0.3,0.3-1,1.1l0.1,0C5,9,4.4,9.6,4,10.1l0.1-0.2c-0.2,0.3-0.6,0.7-0.8,1c0,0.1,0-0.1,0.1-0.2c-0.5,0.7,0,0.1-0.3,0.7
			c-0.1,0.1,0-0.2-0.2,0.2c-0.1,0.2-0.5,1.2-0.7,1.7c0.1-0.1,0.1-0.2,0,0.1c-0.1,0.2-0.2,0.5-0.3,0.7c0,0,0.6-0.6,0.6-0.6
			c0.1-0.2,0.1-0.4,0.5-1.1l-0.2,0.4c0.2-0.2,0.3-0.6,0.6-1.1c-0.1,0.1-0.5,0.9-0.3,0.4c0.1-0.1,0.2-0.3,0.3-0.6
			c0,0,0.2-0.2,0.4-0.5l0,0C4,10.9,3.9,10.9,4,10.7c0.2-0.4,0.3-0.4,0.4-0.5c0.4-0.6-0.3,0.3,0.1-0.3c0.4-0.4,0.5-0.8,1-1.3
			c0.3-0.3,0,0.1,0.1,0l0.2-0.3c0.1-0.1,0.1,0,0,0c0.2-0.2,0-0.1,0.3-0.4c0-0.1,0.2-0.2,0.4-0.4c0.2-0.2,0.5-0.4,0.7-0.6
			c0.1-0.1,0,0.1,0,0.1c0.6-0.6,0.5-0.5,1-0.9l0.5-0.3C8.4,5.7,8.8,5.3,9.2,5C9,5.1,8.9,5.2,8.8,5.2c0,0,0.1-0.1,0.3-0.2
			c0.1-0.1,0.3-0.2,0.3-0.2c0.1,0,0,0-0.1,0.1c0,0,0.1-0.1,0.1-0.1c0.2-0.1,0.1,0,0,0.1C9.4,4.9,9.3,5,9.2,5C9.1,5.1,9,5.3,9,5.3
			c0.1,0,0.1-0.1,0.2-0.2c0,0-0.1,0.1,0,0.1c0,0,0.1-0.1,0.2-0.1l0.2,0l0,0l0.8-0.5c0.5-0.4,1.1-0.7,2.1-1.2c-0.2,0.1,0,0.1,0,0.1
			c-0.3,0.1-0.8,0.4-1.3,0.6c0.3-0.1,0.2-0.1,0.2,0l0.9-0.5c0,0,0.2-0.1,0.5-0.1c-0.2,0,0.7-0.3,1.1-0.5c0,0-0.1,0.1-0.5,0.2
			c0.5-0.1,0.6-0.4,1.2-0.4c-0.1,0-0.2,0-0.2,0.1c0.3-0.1,0.9-0.2,0.8-0.2c0.3-0.1,0.7-0.2,1.2-0.3l-0.4,0.1l0.3,0
			c-0.3,0.1-0.7,0.2-0.4,0.1c-0.3,0.1-1,0.3-1.7,0.6c-0.7,0.3-1.3,0.6-1.4,0.7c-0.4,0.2-0.8,0.5-1.4,0.8c0.1-0.1,0.2-0.1-0.2,0.2
			c0.1-0.2-0.8,0.5-1.2,0.7c0.2-0.1-0.1,0.1-0.4,0.3C9.1,6.1,8.9,6.3,9.1,6.2c-0.3,0.3,0,0-0.3,0.2C8,7.1,7.1,8,6.3,9
			c0,0,0.1-0.1,0,0.1L5.8,9.6c-0.1,0.2-0.1,0.2-0.4,0.6c0-0.1,0.1-0.1,0,0c-1.5,2.1-2.3,4.7-2.8,7.2c0.1-0.3,0-0.1,0,0.2
			c0-0.2,0,0,0.1,0c0,0-0.2,1.1-0.2,1.1c0,0.2-0.1,1.2,0,1.3l0-0.3C2.6,20,2.7,19,2.8,19c-0.1-0.5,0.3-1.3,0.3-2.1
			c0-0.2,0,0.2,0,0.1c0-0.2,0.1-0.5,0.2-0.9l0,0.1c0.3-1.3,0.5-1.8,1.1-3.2L4.3,13c0.1-0.3,0.2-0.3,0.3-0.5c0.1-0.4-0.4,0.8-0.3,0.5
			c0.1-0.2,0.4-0.7,0.6-1.2c0.2-0.5,0.5-0.9,0.6-1c0.3-0.4-0.1,0.1,0.1-0.3l0.1-0.1l0-0.1C5.9,10,6.1,9.9,6.1,9.9
			c0,0.1-0.1,0.2-0.2,0.3c0.3-0.3,0.7-0.9,0.8-1.1L6.4,9.5C6.6,9.2,6.8,8.9,7,8.6c0.2-0.3,0.5-0.5,0.7-0.8c0.5-0.6,1-1,1.5-1.5
			L9.2,6.4c0.7-0.7,0.6-0.5,1.5-1.1l0,0C10.8,5.1,11,5,11.3,4.8c-0.2,0.2,0.5-0.2,0.2,0c0.9-0.6,0.4-0.3,1-0.7l0.2,0
			c0.2-0.1,0.2-0.2,0.7-0.4c-0.4,0.2,0.3-0.1-0.1,0.1c1-0.5,1.5-0.7,2-0.8c0.5-0.3-0.9,0.3-0.7,0.2c-0.2,0.1,0.4-0.2,0.7-0.3
			c0.3-0.1,0.6-0.1,1.5-0.3c-0.1,0-0.1,0-0.2,0.1c0.3-0.1,0.6-0.2,1.1-0.3c0.2-0.1,0.5-0.1,0.6-0.2c0,0-0.2,0-0.4,0.1
			c-0.2,0-0.4,0.1-0.4,0.1c0.3-0.1,0.6-0.1,0.9-0.2c0,0,0,0,0,0l0,0c0.1,0,0.2,0,0.4-0.1c0,0-0.1,0-0.3,0.1c0.1,0,0.1,0,0.2,0
			c-0.2,0-0.1,0,0,0c0.1,0,0.2,0,0.4,0c-0.3,0.1-0.9,0.1-1.2,0.2c0.2,0,0.9-0.2,0.7-0.1c0.3-0.1,0.6-0.1,1-0.2c0.1,0,0.2,0,0.5,0.1
			c-0.1,0-0.1,0,0-0.1c0,0,0.1,0,0.2,0c0,0,0.1,0,0.1,0c0,0,0,0,0,0l-0.2,0c0.1,0,0.1,0,0.2,0c0,0,0,0.1-0.1,0.1c0,0,0.2,0,0.4,0
			c0.2,0,0.4,0,0.4,0c-0.2,0,0,0.1,0.1,0.1c-0.1,0,0.7,0.1,0.9,0.1l-0.3-0.1c0.9,0.1,0.9,0,1.7,0.2c-0.1,0-0.3,0.1,0.1,0.2
			c0.2,0,0.9,0,1.7,0.2l0.1,0.1c0,0,0.6,0.2,0.6,0.2c-0.5-0.1-1.5-0.3-2-0.4c0.3,0.1,0.1,0.1,0.5,0.2c0.2,0.1-0.3,0-0.4-0.1l1.1,0.4
			c0-0.1,0.8,0.2,0.8,0.2C26.2,3.4,25,3,25,3c0,0,0.8,0,1.5,0.4c0.2,0.1-0.2,0-0.2,0.1c0.1,0,0.7,0.3,0.8,0.3l-0.3-0.1
			c0.4,0.2,0.7,0.2,1.2,0.6c0.1,0.1,0.2,0.2,0.3,0.2c-0.4-0.2-0.8-0.4-1.1-0.5c0.3,0.1,0.1,0.1-0.1,0c0.2,0.1,0,0,0,0.1
			c0,0-0.9-0.4-0.9-0.4c-0.2,0-1.1-0.3-1.2-0.2l0.3,0.1c-0.4,0,0.5,0.3,0.5,0.3c0.5,0,1.2,0.5,1.9,0.6c0.2,0.1-0.1,0-0.1,0
			c0.2,0,0.4,0.1,0.8,0.3l0,0c1.1,0.5,1.6,0.8,2.7,1.5l-0.1-0.1c0.2,0.2,0.3,0.2,0.4,0.3c0.3,0.2-0.7-0.5-0.4-0.4
			c0.1,0.1,0.2,0.2,0.4,0.4c0,0,0,0,0,0c0.7,0.6,0.9,1,1.5,1.6c0,0.1,0.3,0.4,0.2,0.3c0.1,0.1,0.2,0.2,0.3,0.4
			c0.2,0.4-0.3-0.4-0.2-0.1c0,0,0.4,0.5,0.6,0.8c0-0.1-0.5-0.7-0.7-0.9c0.1,0,0.5,0.4,1,1.1c0.4,0.5,0.1,0.3,0.2,0.4
			c0.6,1.1,0.7,0.8,1.1,1.8c0.1,0.4-0.1,0.1-0.1,0.2c-0.2-0.5-0.3-0.8-0.5-1.1l0.2,0.4c-0.1-0.1-0.2-0.3-0.3-0.5
			c0.3,0.5,1,1.8,1.2,2.7c0.1,0.2,0.2,0.4,0.2,0.3l-0.1-0.3c-0.1-0.3,0.2,0.5,0.1,0.2c0.1,0.4,0.4,0.8,0.5,1.4l0,0.1
			c0,0-0.1-0.4-0.1-0.5c0.1,0.2,0.1,0.9,0.3,1.1l-0.1-0.4c0.1,0.4,0.3,0.9,0.4,1.4c0-0.2,0-0.1,0-0.5c0,0.3-0.3-1.3-0.3-0.8
			c0-0.4-0.1-0.7-0.2-1.1c0,0,0,0.2-0.1-0.2c0,0,0-0.1,0-0.1c0,0,0,0,0,0l0,0c0,0,0,0,0,0c0,0.1,0,0.2,0,0.2
			c-0.1-0.2-0.3-0.9-0.4-1.1c-0.1-0.2,0.1,0.1,0,0c0,0-0.1-0.3-0.2-0.3c0,0-0.2-0.7,0-0.1l-0.2-0.5c-0.1-0.3-0.3-0.7-0.4-1
			c-0.1-0.2-0.4-0.5-0.2-0.4l-0.5-0.7l0,0C34.3,9.7,34,9.3,33.7,9c-0.3-0.4-0.5-0.8-0.9-1.1c0,0,0,0,0,0c0,0,0,0,0,0
			c0,0,0,0,0.1,0.1C33,8,33.2,8.1,33.3,8.3c-0.1-0.2-0.3-0.4-0.5-0.5c0,0,0,0,0.1,0.1L33,8L33.2,8c0.2,0.2,0.3,0.3,0.3,0.4
			c0-0.1-0.1-0.1-0.2-0.2C33.6,8.6,34,9,34.1,9.1l-0.3-0.3C34,9,34.3,9.2,34.5,9.5c0.2,0.3,0.4,0.5,0.6,0.8c0.4,0.5,0.8,1.1,1.1,1.6
			l0-0.1c0.5,0.8,0.3,0.7,0.8,1.5l0,0c0.1,0.2,0.2,0.4,0.3,0.7c-0.1-0.2,0.1,0.5,0,0.2c0.4,0.9,0.2,0.4,0.5,1l0,0.2
			c0.1,0.2,0.1,0.2,0.3,0.7c-0.1-0.4,0,0.3-0.1-0.1c0.3,1,0.4,1.5,0.4,2c0.2,0.5-0.1-0.9,0-0.6c0-0.2,0.1,0.4,0.2,0.7
			c0.1,0.3,0,0.6,0,1.4c0-0.1,0-0.1,0-0.2c0,0.3,0.1,0.6,0,1c0,0.2,0,0.5,0,0.6l0-0.8c0,0.4,0.1,0.9,0,1.6c0-0.1,0-0.3,0-0.4
			c0,0.2,0,0.4,0,0.6c0-0.1,0-1,0-1.4c0,0.2,0,0.9,0,0.7c0,0.2,0,0.4,0,0.6c0,0.2-0.1,0.5-0.1,0.8l0,0c0,0.1,0,0.3,0,0.4l0-0.3
			c0,0.5-0.1,0.9-0.2,1.3c0.2-0.9,0.1-0.2,0.2-0.6c-0.2,1.1-0.2,0.6-0.5,1.9c0.1-0.2,0.2-0.6,0.1-0.4c-0.1,0.2-0.2,0.5-0.3,0.7
			c-0.3,0.8,0.1-0.1,0,0.2c-0.1,0.3-0.1,0.4-0.2,0.8l0,0c-0.4,0.9,0,0.3-0.4,1.1l0.2-0.4L37,27.7v-0.1c0,0.5-0.3,0.6-0.6,1
			c0.1-0.1,0,0.1-0.2,0.5c-0.2,0.2,0-0.2-0.3,0.4c0.1-0.1,0.1-0.3,0.3-0.5c0,0,0-0.1,0.1-0.2c-0.2,0.3-0.4,0.7-0.5,0.9
			c0-0.1,0.1-0.1,0.1-0.2c0,0-0.1,0.2-0.2,0.4c-0.1,0.2-0.2,0.4-0.2,0.4c-0.1,0.1,0,0,0-0.1c-0.1,0.1-0.2,0.3-0.3,0.5
			c0-0.1,0-0.1,0.2-0.4l-0.5,0.7c0,0-0.3,0.3-0.2,0.2c-0.3,0.3-0.7,0.9-1.2,1.3c0,0-0.1,0.1-0.2,0.2c-0.4,0.4-0.8,0.7-1.4,1.1
			l-0.4,0.2c-0.4,0.3,0.5-0.3-0.2,0.3c-0.5,0.4-0.2,0.1-0.4,0.2c-0.3,0.2-0.7,0.5-1.2,0.8c0.2-0.1,0.3-0.2,0.5-0.3l-0.4,0.2
			c0.4-0.3,0.8-0.5,0.4-0.3c0,0.2-1.5,0.8-1.5,0.9l-0.3,0.1c0.1,0,0.1,0,0.2-0.1c-0.5,0.2-0.4,0.2-1.1,0.5c-0.2,0.1-0.4,0.1-0.3,0.1
			l-0.5,0.2c-0.2,0-0.1,0,0,0l-0.8,0.2c1.4-0.6,2.7-1.3,4-2.2c-0.3,0.2-0.1,0,0.1-0.1c-0.1,0.1,0,0-0.1,0c0,0,0.9-0.6,0.9-0.6
			c0.1-0.2,0.8-0.8,0.9-0.9L31.3,33c0.3-0.3-0.5,0.3-0.6,0.2c-0.3,0.4-1.1,0.7-1.6,1.3c-0.2,0.1,0.1-0.1,0-0.1
			c-0.1,0.2-0.3,0.3-0.7,0.5l0,0.1c-1.1,0.7-1.6,0.6-2.9,1.6c-0.1,0-0.2,0-0.3,0c0.1,0,0.2-0.1,0.3-0.2c-0.2,0.1-0.7,0.2-1.1,0.3
			c-0.1,0-0.2,0-0.2,0.1c-0.1,0-0.2,0-0.3,0l0.5-0.1c-0.3,0-0.7,0.1-1.2,0.1c0.1,0,1-0.1,0.5,0.1c-0.1,0-0.3,0.1-0.6,0.1
			c0,0-0.3,0-0.6,0l0-0.1c-0.4,0-0.3,0.1-0.6,0.1c-0.4,0-0.5,0-0.6-0.1c-0.7,0,0.5,0.1-0.3,0.1c-0.6-0.1-1,0-1.6-0.1
			C19,37,19.4,37,19.3,37l-0.3,0c-0.1,0-0.1,0,0,0c-0.3,0,0,0-0.5,0c-0.1,0.1-0.9-0.2-1.5-0.3c-0.1,0,0.1,0,0,0
			c-0.8-0.1-0.7-0.1-1.3-0.3l-0.5-0.2c0.4,0.2-0.1,0-0.6-0.1c0.1,0.1,0.3,0.1,0.3,0.2c0,0-0.7-0.2-0.7-0.2c-0.1,0,0,0,0.1,0
			c0,0-0.1,0-0.1,0c-0.2-0.1-0.1-0.1,0.1,0c0.1,0,0.1,0.1,0.2,0.1c0.2,0,0.3,0,0.3,0c-0.1,0-0.1,0-0.2-0.1c0,0,0.1,0,0.1,0
			c0,0-0.1,0-0.2-0.1l-0.1-0.1l0,0l-0.8-0.4c-0.6-0.2-1.2-0.5-2.1-1c0.2,0.1,0.1,0,0.1-0.1c0.2,0.2,0.7,0.4,1.2,0.7
			c-0.2-0.2-0.2-0.1-0.1-0.1l-0.9-0.5c0,0-0.2-0.1-0.4-0.3c0.1,0.2-0.6-0.4-1-0.6c0,0,0.1,0,0.5,0.3c-0.4-0.4-0.6-0.3-1-0.7
			c0.1,0.1,0.1,0.1,0.2,0.1c-0.2-0.2-0.7-0.6-0.6-0.5c-0.6-0.5-1.6-1.6-1.8-1.6c0,0,0.1,0,0.2,0c0,0-0.1-0.1-0.2-0.1
			c-0.1-0.1-0.2-0.2-0.4-0.3c-0.3-0.2-0.5-0.5-0.5-0.5c0.1,0.1-0.1-0.4,0.4,0.1c-0.1-0.2-0.2-0.3-0.5-0.6c0.1,0.1,0.1,0.3,0,0.2
			c-0.3-0.5-0.2-0.3-0.4-0.8c0.1,0.2-0.1,0-0.3-0.2c0,0,0.1-0.1,0.1,0c0,0-0.5-0.6-0.5-0.6c0.1,0.2,0.1,0,0-0.2
			c0,0.1-0.3-0.6-0.4-0.8l0.1,0.3C5,26.7,4.9,26.8,4.6,26c0.1,0.1,0.2,0.2,0.1-0.2c-0.1-0.1-0.2-0.3-0.3-0.5c-0.1-0.3-0.3-0.6-0.4-1
			l0-0.1c0,0-0.2-0.6-0.2-0.6C3.9,24,4.3,25,4.5,25.4c-0.1-0.3,0-0.1-0.1-0.6c0-0.2,0.1,0.2,0.1,0.4l-0.3-1.1c0,0.1-0.3-0.8-0.3-0.8
			c0,0,0.4,1.2,0.4,1.2c0,0.1-0.4-0.6-0.5-1.4c0-0.2,0.1,0.1,0.1,0.1c0-0.1-0.2-0.7-0.2-0.8l0.1,0.3c-0.1-0.4-0.2-0.7-0.2-1.2
			c0-0.2,0-0.5,0-0.6c0,0.3-0.2,0.4-0.3,0.2c0-0.1,0-1,0-1.2c0.1-0.3,0.1,0.5,0.2,0.2c0,0,0-0.2,0-0.2c0-0.2,0,0.1,0.1-0.3
			c-0.1-0.1,0-0.8,0-0.2c0-0.4,0-0.4,0.1-0.9c-0.1,0.1-0.1-0.4,0-0.9c0,0,0-0.1,0.1-0.1c0.1-0.8,0.3-1.3,0.5-2
			c0-0.1,0.1-0.4,0.1-0.3c0-0.1,0-0.2,0.1-0.4c0.2-0.4-0.2,0.5,0,0.2c0,0,0.2-0.6,0.3-0.9c-0.1,0.1-0.3,0.7-0.4,1.1
			c-0.1,0,0.1-0.6,0.3-1.4c0.2-0.6,0.2-0.2,0.2-0.4c0.6-1.1,0.3-1,0.9-1.9c0.3-0.3,0.1,0,0.2,0c-0.3,0.5-0.5,0.7-0.6,1l0.2-0.4
			c-0.1,0.2-0.2,0.5-0.3,0.7c0.2-0.3,1-1.8,1.6-2.5C6.8,10,7,9.8,6.9,9.9l-0.2,0.2C6.5,10.3,7,9.6,6.7,9.9C7,9.6,7.2,9.2,7.6,8.8
			l0.1,0c0,0-0.3,0.3-0.4,0.4C7.5,9,8,8.6,8.1,8.3L7.8,8.6c0.3-0.3,0.6-0.7,1-1C8.6,7.7,8.7,7.6,8.4,7.8c0.3-0.2-0.9,0.9-0.5,0.6
			C7.6,8.7,7.4,8.9,7.1,9.2c0,0,0.1-0.1-0.1,0.2c0,0,0,0.1,0,0.1c0,0,0,0,0,0l0,0c0,0,0,0,0,0C7,9.4,7,9.4,7.1,9.4
			C7,9.6,6.5,10.1,6.4,10.3c-0.2,0.2,0-0.1,0,0c0,0-0.2,0.3-0.2,0.3c0,0-0.4,0.5-0.1,0L5.8,11c-0.2,0.3-0.4,0.6-0.5,0.9
			c-0.1,0.2-0.2,0.6-0.2,0.4l-0.3,0.8l0,0c-0.2,0.4-0.3,0.8-0.5,1.2c-0.1,0.4-0.3,0.8-0.4,1.3c-0.1,0.3-0.1,0.6-0.2,1l-0.1,0.1
			c-0.1,0.3-0.2,1.1-0.2,1.2c-0.2,0.4-0.2,1.7-0.2,2.4l0,0c0,0.4,0.1,0.8,0.1,1.4l0,0c0,0.5,0.1,1.2,0.3,1.9c0,0,0-0.1,0-0.1
			c0,0.4,0.1,0.7,0.3,1.1c0.1,0.4,0.3,0.9,0.4,1.2c0.1,0.2,0.1,0.3,0.2,0.4c0,0,0,0,0,0c0,0,0,0,0,0.1c0,0.1,0.1,0.2,0.1,0.3
			c0-0.1,0-0.2-0.1-0.2c0.1,0.1,0.1,0.3,0.2,0.6l0,0.1c0,0,0,0,0,0c0.1,0.2,0.1,0.2,0.1,0c0.1,0.1,0.1,0.2,0.2,0.3
			c0,0.2,0.3,0.5,0.3,0.8c0.1,0.1,0.5,0.9,0.7,1c0.1,0.2,0.3,0.4,0.4,0.6l0,0.1c0,0,0.4,0.4,0.4,0.4c0.2,0.3,0.3,0.4,0,0.2
			c0.5,0.6,0.4,0.5,0.9,1l0,0c0.2,0.2,0.5,0.4,0.5,0.6c0.3,0.5,2,1.9,3.1,2.7c-0.2-0.2,0.5,0.4,0.6,0.3c0.1,0.1,0.2,0.2,0,0.1
			c0.6,0.3,0.9,0.6,1.4,0.7c0.1,0.1-0.2,0-0.1,0c0.1,0,0.2,0.1,0.3,0.1c0.1,0-0.1,0-0.2-0.1c0.7,0.3,0.8,0.3,0.8,0.2
			c0.3,0.2,0.5,0.2,0.8,0.3c0.1,0.1,0.3,0.2-0.1,0c0.2,0.1,1.5,0.6,1.5,0.5c0.1,0,0.3,0.1,0.4,0.1c0.6,0.1,0.6,0.1,1.1,0.3l-0.1,0
			c0.2,0,0.5,0.1,0.9,0.1l0,0c1,0.2,0.4,0.1,1.5,0.2l-0.1,0.2c0.1-0.1,0.8,0.4,1.4,0.4c0,0,0,0,0,0h0c0,0,0.1-0.3,0.1-0.3
			c-1.2,0.2-2.6,0-3.7,0l0.1,0.2c-1,0-0.8,0-1.8,0h0c-0.2,0-0.5-0.3-0.8-0.4c0.3,0-0.5-0.3-0.1-0.2c-1-0.2-0.5-0.1-1.2-0.3L13.8,37
			c-0.2,0-0.3-0.1-0.8-0.2c0.4,0.1-0.3-0.2,0.2,0c-1-0.4-1.5-0.6-2-0.8c-0.1,0-0.1,0-0.1,0l-0.1,0l0.1,0.1l0.1,0
			c0.2,0.1,0.7,0.3,0.6,0.3c0.1,0,0,0,0,0l-0.1-0.1l0.1,0.1l0,0c-0.1,0-0.4-0.2-0.6-0.2c-0.1-0.1-0.3-0.2-0.4-0.3l0,0c0,0,0,0,0,0
			c-0.2-0.1-0.4-0.3-0.9-0.6c0.1,0,0.1,0,0.2,0.1c-0.2-0.1-0.4-0.2-0.6-0.3l-0.1,0l0,0c-0.1,0-0.2-0.1-0.2-0.2
			c-0.2-0.1-0.4-0.3-0.5-0.3l0.7,0.5c-0.4-0.3-0.8-0.4-1.4-0.9c0.1,0,0.2,0.1,0.4,0.2c-0.2-0.1-0.4-0.2-0.5-0.4
			c0.1,0,0.8,0.6,1.2,0.8c-0.2-0.2-0.8-0.5-0.5-0.4c-0.2-0.1-0.3-0.2-0.5-0.3c-0.2-0.2-0.4-0.4-0.6-0.5l0.1,0
			C7.2,33.2,7.1,33.1,7,33l0.3,0.2c-0.4-0.3-0.7-0.6-1-1c0.7,0.7,0.1,0.2,0.4,0.5c-0.9-0.8-0.4-0.6-1.3-1.5c0.1,0.1,0.4,0.5,0.2,0.3
			c-0.2-0.2-0.4-0.5-0.4-0.6c-0.5-0.7,0,0.1-0.2-0.2c-0.1-0.3-0.3-0.3-0.5-0.6l0,0c-0.5-0.8-0.2-0.2-0.7-1L4,29.4L3.7,29L3.8,29
			c-0.3-0.4-0.4-0.6-0.6-1c0,0.1-0.1,0-0.3-0.4c-0.1-0.3,0.1,0.1-0.2-0.4c0.1,0.1,0.2,0.2,0.3,0.5c0,0,0.1,0.1,0.1,0.1
			c-0.1-0.3-0.3-0.7-0.4-1c0,0.1,0.1,0.2,0.1,0.2c0,0-0.1-0.2-0.2-0.4c-0.1-0.2-0.2-0.4-0.2-0.4c0-0.1,0,0,0.1,0.1
			c-0.1-0.2-0.1-0.3-0.2-0.5c0.1,0.1,0.1,0,0.2,0.4l-0.3-0.8c0-0.1-0.1-0.4-0.1-0.3c-0.1-0.5-0.4-1.1-0.5-1.8c0,0,0-0.1-0.1-0.2
			c-0.1-0.6-0.2-1.1-0.2-1.8l0-0.4c0-0.6,0,0.6-0.1-0.4c0-0.7,0-0.2,0.1-0.5c0-0.3,0-0.9,0-1.5c0,0.2,0,0.4,0,0.5l0.1-0.5
			c0,0.6,0,1,0.1,0.5c0,0-0.1-0.5,0-0.9c0.1-0.4,0.1-0.9,0.1-0.9l0.1-0.3c0,0.1,0,0.1,0,0.2c0.1-0.6,0-0.4,0.2-1.2
			c0.1-0.3,0.1-0.4,0.1-0.3L2,15c0,0-0.2-0.2-0.1-0.4c0-0.1,0-0.2,0-0.3c-0.1,0.3-0.2,0.5-0.2,0.7c0,0.1,0,0.1,0,0.1
			c-0.1,0.4-0.2,1.1-0.3,1.4c-0.2,0.3-0.3,2.2-0.4,2.2l0,1.1l0,0c0,0.7,0,1,0.1,1.2c0,0.2,0,0,0,0c0,1,0.1,1.1,0.2,2l0,0.1
			c0,0.2,0.2,1.5,0.6,2.4c0,0,0,0-0.1-0.1c0.2,0.5,0.4,1.2,0.6,1.7c0.2,0.5,0.4,1,0.6,1.2c0,0,0.4,0.6,0.4,0.6
			C2.9,28,3.5,29,3.3,28.6c0.2,0.3,0.5,0.9,0.2,0.5l0-0.1c-0.2-0.1,0.6,1,0.5,1c1.1,1.6,2.3,2.9,3.7,4.1c0,0-0.1-0.2-0.1-0.2
			l0.5,0.4c0.1,0.1,0.1,0.2-0.2-0.1c0.2,0.2,0.6,0.4,0.6,0.4c0.7,0.5-0.3-0.1-0.1,0l0.3,0.2l-0.1-0.1C9,35,9.1,35,9.4,35.3
			c0.3,0.2,0.1,0.1,0.2,0.2c0,0,0,0,0.2,0.1l0.7,0.4l-0.2-0.2c0.3,0.2,0.6,0.4,0.3,0.1c0.2,0.1,0.6,0.3,1.1,0.6
			c0.2,0.2,0.5,0.3,0.8,0.5c0,0-0.1-0.1,0.3,0.1c0,0,0.1,0,0.1,0c0,0,0,0,0,0l0,0c0,0,0,0,0,0c-0.1-0.1-0.2-0.1-0.2-0.1
			c0.2,0.1,0.9,0.4,1.1,0.5c0.2,0.1-0.1,0,0,0c0,0,0.3,0.1,0.3,0.1c0,0,0.6,0.3,0,0.1l0.5,0.2c0.3,0.1,0.7,0.3,1,0.4
			c0.3,0.1,0.7,0.1,0.4,0.1l0.9,0.2l0,0c0.4,0.1,0.9,0.2,1.3,0.3c0.5,0.1,0.9,0.2,1.4,0.3c0.3,0,0.6,0,1.1,0.1l0.1,0
			c0.4,0,1.2,0,1.3,0c0.2,0.1,0.7,0,1.2-0.1c0.5-0.1,1-0.2,1.3-0.3l0,0c0.4-0.1,0.9-0.2,1.4-0.5l0,0c0.5-0.2,1.2-0.4,1.9-0.8
			c0,0-0.2,0.1-0.3,0.2c0.4-0.2,0.9-0.4,1.3-0.6c0.4-0.3,0.8-0.5,1.2-0.7c0.2-0.1,0.3-0.2,0.4-0.3l0,0c0,0,0,0,0.1,0
			c0.1,0,0.2-0.1,0.2-0.2c-0.1,0.1-0.2,0.1-0.2,0.1c0.1-0.1,0.3-0.2,0.5-0.4l0.1,0c0,0,0,0,0,0c0.2-0.1,0.1-0.1,0-0.1l0.2-0.2
			c0.2-0.1,0.5-0.4,0.7-0.5c0.1-0.1,0.9-0.8,1-0.9c0,0,0,0,0,0c0.2-0.2,0.4-0.3,0.5-0.5l0.1,0l0.4-0.5c0.3-0.2,0.4-0.3,0.2,0
			c0.6-0.6,0.4-0.5,0.9-1.1l0,0c0.2-0.2,0.4-0.5,0.5-0.6c0.2-0.2,0.6-0.8,1.1-1.5c0.4-0.7,0.9-1.5,1.3-2.2c-0.2,0.2,0.3-0.6,0.3-0.7
			c0.1-0.1,0.2-0.3,0.1,0c0.3-0.7,0.5-1,0.6-1.6c0-0.1,0,0.2,0,0.1c0-0.1,0.1-0.2,0.1-0.3c0-0.1,0,0.1,0,0.2
			c0.2-0.7,0.2-0.8,0.2-0.9c0.1-0.4,0.1-0.6,0.2-0.9c0-0.1,0.1-0.4,0,0.1C39.8,23.3,40.1,22,40,21.9z M2.7,13.4c0-0.1,0-0.2,0-0.1
			C2.8,13.1,2.7,13.2,2.7,13.4z M2.9,12.8c0-0.2,0.1-0.3,0.2-0.5C3.1,12.4,3,12.7,2.9,12.8z M9.7,4.8c0.1-0.1,0.2-0.1,0.4-0.2
			C10,4.6,9.9,4.7,9.7,4.8z M35.4,11.7L35.4,11.7C35.3,11.4,35.4,11.5,35.4,11.7z M5.6,11.4L5.6,11.4C5.4,11.7,5.5,11.6,5.6,11.4z
			 M5.9,29C5.9,29,6,29,5.9,29C6,29,6,29.1,5.9,29z M13.7,35.6c0.1,0,0.2,0.1,0.4,0.2C14,35.7,13.9,35.6,13.7,35.6z M9.8,35.5
			l-0.1-0.1C9.9,35.5,9.8,35.5,9.8,35.5z M38.6,14.1c-0.1-0.1-0.2-0.4-0.2-0.5C38.5,13.7,38.6,13.8,38.6,14.1z M16.6,2.2
			C16.6,2.2,16.6,2.2,16.6,2.2C16.6,2.2,16.6,2.2,16.6,2.2z M18.6,1.9c0.1,0,0.1,0,0.1,0c0,0,0,0,0,0L18.6,1.9
			C18.6,1.9,18.6,1.9,18.6,1.9z M19.1,2C19.1,2,19.1,2,19.1,2C19.1,2,19.1,2,19.1,2C19.1,2,19.1,2,19.1,2z M19.2,2
			C19.2,2,19.2,2,19.2,2c0,0,0.1,0,0.1,0c0,0,0,0,0,0C19.3,2,19.3,2,19.2,2z M28.4,4.3c0.1,0,0.8,0.6,1,0.7c0.2,0.2-0.1,0-0.2,0
			c-0.3-0.1-0.5-0.3-0.8-0.4C28.2,4.4,28.2,4.2,28.4,4.3z M24.1,36.9c-0.1,0-0.2,0-0.2,0.1c-0.1,0-0.1,0-0.2,0
			C23.8,37,24,36.9,24.1,36.9z M21.2,37.4c0.1,0,0.1,0,0.2,0c0,0,0,0-0.1,0L21.2,37.4z M21.4,37.4L21.4,37.4c0.1,0,0.1,0,0.1,0
			C21.5,37.4,21.4,37.4,21.4,37.4L21.4,37.4z M15.2,38.1L15.2,38.1C15.5,38.2,15.4,38.2,15.2,38.1z M39.2,24.8
			c0-0.1,0.1-0.3,0.1-0.4C39.3,24.5,39.3,24.6,39.2,24.8z M39.7,21.2c0,0.8,0,0.7,0,1.4l-0.1,0.6c0.1-0.4,0.1,0.1,0,0.6
			c0.1-0.2,0.1-0.3,0.1-0.4l-0.1,0.8c0,0.1,0,0,0-0.1c0,0.1,0,0.1,0,0.1c-0.1,0.3-0.1,0.1-0.1-0.1c0-0.1,0.1-0.2,0.1-0.3
			c0-0.2,0-0.4,0-0.3c0,0.1,0,0.2,0,0.2c0-0.1,0-0.1,0-0.1c0,0,0,0.1,0,0.2l-0.1,0.2l0,0c0,0-0.3,0.9-0.3,0.9
			c-0.1,0.3-0.1,0.7-0.3,1.1c-0.1,0.4-0.3,0.8-0.5,1.3c0.1-0.3,0-0.1-0.1-0.1c0.2-0.3,0.4-0.8,0.6-1.3c-0.1,0.3-0.1,0.2-0.1,0.1
			l-0.4,1c0,0-0.1,0.2-0.3,0.4c0.2-0.1-0.3,0.7-0.5,1.1c0,0,0-0.1,0.3-0.5c-0.3,0.4-0.3,0.7-0.6,1.1c-0.2,0.3-0.5,0.7-0.4,0.5
			l0.1-0.1c-0.2,0.3-0.6,0.9-0.9,1.3c-0.3,0.4-0.6,0.8-0.7,0.9c0,0,0-0.1,0-0.2c0,0-0.2,0.3-0.4,0.7c-0.2,0.3-0.4,0.6-0.4,0.6
			c0.1-0.1-0.4,0.1,0.1-0.4c-0.1,0.1-0.3,0.3-0.6,0.6c0.1-0.1,0.3-0.2,0.2,0c-0.4,0.3-0.3,0.2-0.8,0.6c0.2-0.1,0.1,0.1-0.2,0.3
			c0,0-0.1-0.1,0-0.1l-0.6,0.6c0.1-0.1,0-0.1-0.2,0c0.1,0-0.5,0.5-0.7,0.6c0,0,0.1,0,0.1-0.1c0.1-0.1,0.1-0.1,0.1-0.1
			c-0.7,0.5-0.7,0.6-1.4,1.2c0.1-0.1,0.2-0.3-0.2,0c-0.2,0.1-0.7,0.7-1.4,1.1l-0.1,0.1l-0.5,0.3c0.3-0.2,1.2-0.9,1.7-1.3
			c-0.3,0.2-0.1,0-0.5,0.3c-0.2,0.1,0.2-0.2,0.3-0.3l-1,0.6c0.1,0-0.8,0.5-0.7,0.5c0,0,0.3-0.2,0.6-0.3c0.1-0.1,0.3-0.2,0.4-0.2
			c0.1-0.1,0.2-0.1,0.2-0.1c0,0-0.1,0.1-0.3,0.3c-0.3,0.2-0.6,0.4-1,0.5c-0.2,0.1,0.1-0.2,0.1-0.2c-0.1,0.1-0.7,0.4-0.8,0.4
			c0,0,0.3-0.2,0.3-0.2c-0.4,0.2-0.7,0.4-1.2,0.5c-0.2,0.1-0.6,0.1-0.6,0.2c0.3,0,0.4,0.1,0.3,0.2c-0.1,0-1,0.2-1.2,0.3
			c-0.3,0,0.4-0.2,0.2-0.2c0,0-0.2,0.1-0.2,0.1c-0.2,0,0.1-0.1-0.4,0.1c-0.1,0.1-0.9,0.1-0.2,0.1c-0.4,0.1-0.5,0.1-1,0.1
			c0.1,0,0,0.1-0.2,0.1c-0.2,0-0.5,0.1-0.7,0.1c0,0-0.1,0-0.1,0c-0.4,0-0.8,0-1.1-0.1c-0.3,0-0.7-0.1-1.1-0.1
			c-0.1,0-0.5-0.1-0.3-0.1c-0.1,0-0.2,0-0.5-0.1c-0.5-0.1,0.6,0.1,0.2,0c0,0-0.7-0.1-1-0.1c0.1,0.1,0.8,0.2,1.2,0.2
			c0,0.1-0.7,0-1.5-0.1c-0.7-0.1-0.3-0.1-0.4-0.1c-1.3-0.4-1.1-0.1-2.1-0.6c-0.4-0.2,0-0.1-0.1-0.2c0.5,0.2,0.8,0.3,1.2,0.4
			l-0.4-0.2c0.1,0,0.4,0.1,0.5,0.1c-0.6-0.2-2-0.7-2.8-1.1c-0.2-0.1-0.5-0.2-0.3-0.1l0.3,0.1c0.2,0.2-0.6-0.2-0.2,0
			c-0.3-0.2-0.7-0.3-1.2-0.5c0.2,0.1,0.4,0.1,0.6,0.2C13,36.9,13,37,13,37l-0.1-0.1c0.3,0.1,0.6,0.2,0.7,0.2
			c0.5,0.1,0.9,0.2,1.5,0.4c-0.1,0-0.2-0.1,0.3,0c-0.2,0.1,0.9,0.2,1.3,0.3c-0.2-0.1,0.2,0,0.5,0c0.3,0,0.7,0,0.4,0
			c0.4,0,0,0,0.3,0.1c1,0,2.3,0.1,3.5-0.1c0,0-0.2,0,0.1-0.1l0.7,0c0.2-0.1,0.2-0.1,0.7-0.2c-0.1,0-0.2,0,0,0c0,0,0.1,0,0.1,0
			c0,0,0,0,0.3,0c0.2,0,1.2-0.3,1.8-0.3c-0.1,0-0.3,0,0-0.1c0.4-0.1,1.2-0.2,1.6-0.4c0.1,0,0.1,0,0.1,0c0.3-0.1,1.1-0.4,1.2-0.5
			c0.4,0,1.9-0.9,2-0.9l0.9-0.5l0,0c0.6-0.3,0.7-0.5,0.9-0.7c0.1-0.1,0,0,0,0c0.8-0.6,0.9-0.6,1.5-1.2l0.1,0c0.2-0.1,1.1-1,1.7-1.7
			c0,0,0,0-0.1,0.1c0.3-0.5,0.7-0.9,1.1-1.4c0.3-0.5,0.6-0.9,0.6-1.1c0,0,0.1-0.2,0.2-0.3C37,28.2,37,28,37,28
			c-0.4,0.8,0-0.2-0.2,0.2c0.2-0.3,0.5-0.8,0.3-0.4l0,0.1c0,0.2,0.5-1,0.6-1c0.7-1.7,1.1-3.5,1.3-5.2c0,0-0.1,0.2-0.1,0.2l0-0.6
			c0-0.2,0.1-0.2,0,0.2c0-0.2,0-0.7,0-0.7c0.1-0.8,0.1,0.3,0.1,0.1l0-0.4l0,0.1c0-0.3,0-0.4-0.1-0.8c0-0.3,0-0.2,0-0.3
			c0,0,0,0,0-0.2l0-0.8l0,0.3c0-0.3-0.1-0.7-0.1-0.4c0-0.3-0.1-1-0.2-1.6c-0.2-0.7-0.4-1.3-0.4-1.4c-0.2-0.6-0.4-0.9-0.6-1.4
			c0,0.1,0,0.2-0.2-0.2c0.2,0.1-0.4-0.8-0.5-1.2c0.1,0.2-0.1-0.1-0.3-0.4c-0.2-0.3-0.4-0.5-0.2-0.3c-0.2-0.4,0,0-0.1-0.3
			c-0.3-0.4-0.6-0.9-0.9-1.3c-0.3-0.5-0.7-1-1.1-1.4c0,0,0.1,0.2-0.1,0l-0.4-0.5c-0.2-0.2-0.2-0.1-0.5-0.4c0,0.1,0.1,0.1,0,0
			c-0.6-0.6-1.2-1.1-1.9-1.5c-0.1-0.1-0.1-0.1-0.2-0.1C31,5.8,29.8,5,29.3,4.6l0,0c-0.4-0.3-0.8-0.4-1.2-0.7l0,0
			c-0.4-0.2-1.1-0.6-1.8-0.9c0.1,0,0.2,0.1,0.3,0.2C26.4,3.1,26.2,3,26,2.9c-0.2-0.1-0.4-0.1-0.7-0.2c-0.5-0.1-0.8-0.2-1.3-0.4
			c-0.2,0-0.3-0.1-0.5-0.1c0,0,0,0,0,0c0,0-0.1,0-0.1,0c-0.1,0-0.2-0.1-0.3-0.1c0.1,0,0.2,0.1,0.2,0.1c-0.1,0-0.3-0.1-0.5-0.1
			c0,0,0,0,0.1,0c0,0,0,0-0.1,0c-0.1,0-0.1,0-0.2,0l0,0c0.1,0,0.2,0,0.3,0c0.1,0,0.1,0,0.2,0c0,0-0.1,0-0.1,0c0.1,0,0.2,0,0.3,0.1
			c0.9,0.1-0.1-0.1,0.3,0c0.3,0.1,0.4,0,0.8,0.1l0,0c1,0.2,0.3,0,1.2,0.2l-0.4,0l0.5,0.1l-0.1,0c0.5,0.1,0.7,0.1,1.2,0.3
			c-0.1-0.1,0.1,0,0.5,0.1c0.3,0.1-0.2,0,0.4,0.2c-0.1,0-0.3-0.1-0.6-0.2c0,0-0.1,0-0.2,0c0.3,0.1,0.8,0.3,1,0.4
			c-0.1,0-0.2-0.1-0.2-0.1c0,0,0.9,0.3,0.9,0.3c0.1,0.1,0,0-0.1,0c0.2,0.1,0.3,0.1,0.6,0.2c-0.1,0-0.1,0-0.4-0.1L29.6,4
			c0,0,0.4,0.2,0.3,0.2c0.4,0.2,1.1,0.6,1.6,0.9c0,0,0.1,0,0.2,0.1c0.5,0.4,0.8,0.6,1.5,1.2l0.3,0.3c0.4,0.4-0.4-0.4,0.4,0.2
			c0.5,0.4,0.2,0.2,0.3,0.4c0.3,0.2,0.7,0.6,1.1,1.1c-0.1-0.1-0.3-0.3-0.4-0.4l0.3,0.4C34.8,8,34.5,7.7,34.8,8
			c0.1,0,0.4,0.3,0.7,0.7c0.3,0.4,0.6,0.7,0.6,0.7l0.2,0.3c-0.1-0.1-0.1-0.1-0.1-0.2c0.3,0.5,0.4,0.3,0.8,1c0.1,0.2,0.2,0.4,0.1,0.3
			l0.3,0.5c0.1,0.2,0.1,0.1,0,0c0,0,0.1,0.2,0.2,0.4c0.1,0.2,0.2,0.4,0.2,0.4l0,0c0.1,0.1,0.2,0.4,0.3,0.5c0.1,0.2-0.1-0.1,0,0
			l0.3,0.5c0.1,0.2-0.1-0.2-0.3-0.5c0.1,0.5,0.3,0.4,0.5,1.4l-0.2-0.5c0,0.3,0.2,0.7,0.4,1.2c0-0.1-0.3-1.1-0.1-0.6
			c0,0.2,0.1,0.3,0.2,0.6c0,0,0.1,0.3,0.2,0.6l-0.1,0c0.1,0.4,0.1,0.3,0.2,0.6c0.1,0.4,0.1,0.5,0.1,0.6c0.2,0.7,0-0.5,0.1,0.3
			c0.1,0.6,0.2,1,0.3,1.7c0,0.4,0-0.1,0,0.1l0.1,0.4c0,0.1,0,0.1,0,0c0,0.3,0.1,0,0.1,0.5C39.9,19.7,39.8,20.6,39.7,21.2
			C39.8,21.4,39.8,21.1,39.7,21.2z M38.9,19.3l0,0.1C38.9,19.2,38.9,19.3,38.9,19.3z"/>
		<path fill="#FFFFFF" d="M33.4,33.9C33.4,33.9,33.4,33.9,33.4,33.9C33.4,33.9,33.4,33.9,33.4,33.9z"/>
		<path fill="#FFFFFF" d="M37.2,29.1c0,0,0-0.1,0.1-0.1C37.2,29,37.2,29,37.2,29.1z"/>
		<path fill="#FFFFFF" d="M37.1,29.2C37.1,29.2,37.1,29.1,37.1,29.2c0-0.1,0.1-0.1,0.1-0.1C37.2,29.1,37.1,29.1,37.1,29.2z"/>
		<path fill="#FFFFFF" d="M39.5,23.5C39.5,23.5,39.5,23.5,39.5,23.5C39.5,23.4,39.5,23.4,39.5,23.5z"/>
		<path fill="#FFFFFF" d="M31.6,5.1L31.6,5.1C31.5,5.1,31.5,5.1,31.6,5.1L31.6,5.1z"/>
		<path fill="#FFFFFF" d="M24.7,38.6c0,0-0.1,0-0.3,0C24.6,38.6,24.6,38.6,24.7,38.6z"/>
		<path fill="#FFFFFF" d="M11.5,36.3l0.4,0.2C11.6,36.4,11.6,36.4,11.5,36.3C11.5,36.4,11.6,36.4,11.5,36.3z"/>
		<path fill="#FFFFFF" d="M8.7,34c-0.1-0.1-0.1-0.1-0.1-0.1l0,0C8.7,34.1,8.9,34.2,8.7,34z"/>
		<path fill="#FFFFFF" d="M10.4,35.5c0,0,0.1,0.1,0.2,0.2L10.4,35.5z"/>
		<path fill="#FFFFFF" d="M13.7,37.5c-0.2,0,0.9,0.3,0.2,0C13.7,37.5,13.7,37.5,13.7,37.5z"/>
		<path fill="#FFFFFF" d="M17.7,38.7l0.5,0.1c0.1,0-0.1,0-0.3-0.1C17.8,38.7,17.7,38.6,17.7,38.7z"/>
		<path fill="#FFFFFF" d="M16.5,38.2L16.5,38.2l-0.2-0.1C16.4,38.2,16.4,38.2,16.5,38.2z"/>
		<path fill="#FFFFFF" d="M17.8,38.5C17.8,38.5,17.3,38.4,17.8,38.5C17.8,38.5,18.4,38.6,17.8,38.5z"/>
		<polygon fill="#FFFFFF" points="25.1,38.7 25.2,38.5 25.1,38.6 		"/>
		<path fill="#FFFFFF" d="M30.5,35.8c-0.1,0.1,0.4-0.2,0.3-0.1c0.3-0.2,0.4-0.3,0.3-0.3C30.6,35.7,31,35.5,30.5,35.8z"/>
		<polygon fill="#FFFFFF" points="2.4,19.4 2.4,19.8 2.4,19.5 		"/>
		<path fill="#FFFFFF" d="M2.4,20.5c0-0.1,0-0.3,0-0.3l-0.1,0.1L2.4,20.5z"/>
		<path fill="#FFFFFF" d="M38.9,15.1L38.9,15.1c0,0,0-0.1-0.1-0.3C38.8,14.8,38.9,15.1,38.9,15.1z"/>
		<polygon fill="#FFFFFF" points="36.7,10.4 36.8,10.5 36.7,10.3 		"/>
		<path fill="#FFFFFF" d="M33.9,7.1c0.1,0.1,0.3,0.2,0.4,0.4C34.1,7.3,33.9,7.1,33.9,7.1z"/>
		<path fill="#FFFFFF" d="M22.1,27.6C22.1,27.6,22.1,27.7,22.1,27.6C22.1,27.7,22.1,27.6,22.1,27.6z"/>
		<polygon fill="#FFFFFF" points="22.3,27.7 22.3,27.7 22.4,27.7 		"/>
		<path fill="#FFFFFF" d="M22.4,27.7L22.4,27.7L22.4,27.7C22.4,27.8,22.5,27.8,22.4,27.7C22.5,27.8,22.4,27.8,22.4,27.7z"/>
		<path fill="#FFFFFF" d="M22.4,28C22.4,28,22.4,28,22.4,28C22.4,28,22.5,28,22.4,28L22.4,28z"/>
		<path fill="#FFFFFF" d="M22.5,28.1C22.5,28.1,22.5,28.1,22.5,28.1L22.5,28.1C22.5,28.1,22.5,28.1,22.5,28.1z"/>
		<path fill="#FFFFFF" d="M22.5,28L22.5,28C22.5,28,22.6,28,22.5,28C22.5,28,22.5,28,22.5,28z"/>
		<path fill="#FFFFFF" d="M22.5,28C22.5,28,22.5,28,22.5,28C22.5,27.9,22.5,28,22.5,28z"/>
		<path fill="#FFFFFF" d="M22.5,27.7L22.5,27.7C22.5,27.7,22.5,27.8,22.5,27.7L22.5,27.7z"/>
		<path fill="#FFFFFF" d="M22.6,28.2C22.6,28.2,22.6,28.1,22.6,28.2L22.6,28.2C22.6,28.1,22.6,28.2,22.6,28.2z"/>
		<polygon fill="#FFFFFF" points="22.6,28 22.6,28 22.5,28 		"/>
		<polygon fill="#FFFFFF" points="22.7,28.3 22.7,28.3 22.7,28.2 		"/>
		<path fill="#FFFFFF" d="M22.8,28.3C22.7,28.3,22.8,28.3,22.8,28.3C22.8,28.4,22.8,28.3,22.8,28.3C22.8,28.3,22.8,28.3,22.8,28.3z"
			/>
		<path fill="#FFFFFF" d="M22.7,28.2C22.7,28.2,22.7,28.2,22.7,28.2L22.7,28.2L22.7,28.2z"/>
		<path fill="#FFFFFF" d="M22.7,28.2L22.7,28.2C22.7,28.2,22.7,28.2,22.7,28.2C22.7,28.2,22.7,28.2,22.7,28.2z"/>
		<path fill="#FFFFFF" d="M22.6,28C22.7,28,22.7,28,22.6,28C22.7,28,22.7,28,22.6,28z"/>
		<path fill="#FFFFFF" d="M22.7,28.1C22.7,28.1,22.7,28.1,22.7,28.1L22.7,28.1L22.7,28.1z"/>
		<polygon fill="#FFFFFF" points="22.8,28.1 22.7,28.1 22.7,28.1 		"/>
		<path fill="#FFFFFF" d="M22.8,28.3C22.9,28.2,22.9,28.3,22.8,28.3C22.9,28.2,22.9,28.2,22.8,28.3C22.8,28.2,22.8,28.2,22.8,28.3z"
			/>
		<polygon fill="#FFFFFF" points="23,28.4 23,28.3 23,28.4 		"/>
		<path fill="#FFFFFF" d="M22.8,28.2C22.8,28.2,22.8,28.2,22.8,28.2C22.8,28.2,22.8,28.2,22.8,28.2C22.8,28.2,22.8,28.2,22.8,28.2z"
			/>
		<path fill="#FFFFFF" d="M22.8,28.2C22.8,28.2,22.8,28.2,22.8,28.2C22.8,28.2,22.8,28.2,22.8,28.2L22.8,28.2z"/>
		<path fill="#FFFFFF" d="M23.2,28.2C23.2,28.2,23.2,28.1,23.2,28.2C23.2,28.2,23.1,28.2,23.2,28.2c-0.1,0-0.1,0.1-0.2,0.2
			c0,0,0,0,0.1,0C23.1,28.3,23.1,28.2,23.2,28.2c-0.1,0-0.1,0.1-0.1,0.1C23.1,28.2,23.2,28.2,23.2,28.2L23.2,28.2z"/>
		<path fill="#FFFFFF" d="M23,28.3L23,28.3C23,28.3,23,28.3,23,28.3C23,28.4,23,28.4,23,28.3L23,28.3L23,28.3z"/>
		<path fill="#FFFFFF" d="M23,28.2C23,28.2,23,28.2,23,28.2C23,28.2,22.9,28.2,23,28.2c-0.1,0.1-0.1,0.1-0.1,0.1l0,0l0,0h0l0,0
			C22.9,28.3,22.9,28.3,23,28.2L23,28.2l-0.1,0.1l0,0l0.1,0C23,28.3,22.9,28.3,23,28.2C22.9,28.2,23,28.2,23,28.2z"/>
		<path fill="#FFFFFF" d="M22.8,28L22.8,28C22.8,28,22.8,28.1,22.8,28C22.8,28,22.8,28,22.8,28C22.8,28,22.8,28,22.8,28
			C22.8,27.9,22.8,27.9,22.8,28C22.8,27.9,22.8,27.9,22.8,28z"/>
		<path fill="#FFFFFF" d="M22.9,28.1L22.9,28.1C22.9,28.1,22.9,28.1,22.9,28.1L22.9,28.1L22.9,28.1z"/>
		<polygon fill="#FFFFFF" points="23,28.4 23,28.4 23,28.4 		"/>
		<polygon fill="#FFFFFF" points="23.1,28.4 23.1,28.4 23,28.4 		"/>
		<path fill="#FFFFFF" d="M24.8,28.8L24.8,28.8C24.8,28.7,24.7,28.7,24.8,28.8C24.8,28.8,24.8,28.8,24.8,28.8z"/>
		<path fill="#FFFFFF" d="M25.4,27.8C25.4,27.8,25.4,27.8,25.4,27.8L25.4,27.8L25.4,27.8z"/>
		<path fill="#FFFFFF" d="M23.7,28.7C23.7,28.7,23.7,28.7,23.7,28.7C23.7,28.7,23.7,28.6,23.7,28.7z"/>
		<path fill="#FFFFFF" d="M23.3,28.6L23.3,28.6C23.3,28.6,23.3,28.6,23.3,28.6L23.3,28.6z"/>
		<polygon fill="#FFFFFF" points="24.8,28.1 24.8,28.1 24.8,28.1 		"/>
		<path fill="#FFFFFF" d="M24.9,28.1C24.9,28.1,24.9,28.1,24.9,28.1l0.1,0.2L24.9,28.1z"/>
		<path fill="#FFFFFF" d="M25.9,27.1C25.9,27.1,25.8,27.1,25.9,27.1c-0.1,0,0-0.1,0-0.1c0,0,0,0,0,0c0,0,0-0.1-0.1-0.1
			c0.2,0-0.1-0.2,0.1-0.2l0-0.1l0,0c0-0.1,0-0.1-0.1-0.1c0,0,0,0,0,0c0-0.1,0-0.1-0.1-0.1l0.1,0c0,0,0.1-0.1,0-0.2c0,0,0,0,0,0
			C25.8,26.1,26,26,25.8,26l-0.1,0c0,0.1-0.1,0-0.1,0c0,0,0-0.1,0.1,0l0,0c0.1,0,0-0.1,0.1-0.1c0-0.1,0-0.3,0-0.4l-0.1,0l0,0
			c0,0,0.1,0,0.1,0c0,0-0.1,0-0.1,0c0-0.1,0.1,0,0.1,0l0,0l0,0c0,0-0.1,0-0.1,0c0,0,0,0,0,0c0,0,0,0,0,0l0-0.1l-0.1,0
			c0,0,0-0.1-0.1,0c0.1-0.1,0-0.2,0-0.2c-0.1,0-0.1,0-0.1-0.1c0,0-0.1,0-0.1,0c0.1,0,0-0.1,0.1-0.1c-0.1,0.1-0.1-0.1-0.1,0
			c0,0,0,0,0.1-0.1c-0.1,0,0-0.2-0.1-0.2c0,0,0,0-0.1,0l0.1-0.1c0,0-0.1,0-0.1,0c0,0,0,0,0,0c0-0.2-0.2-0.3-0.2-0.5c0,0,0,0,0,0
			c0,0,0,0-0.1,0l0-0.1c-0.1,0,0-0.1-0.1,0l0,0c-0.1,0-0.1,0.1-0.2,0.2c0.1,0-0.1,0.1,0.1,0.1c0,0,0,0-0.1,0c0,0,0.1,0,0.1,0l0,0
			c0.1,0.1,0,0.1,0.1,0.2l0,0c0,0,0,0,0,0c0.1,0,0-0.1,0.1-0.1c-0.1,0.1,0.1,0.1,0,0.2c0,0,0,0,0.1,0l0,0l0,0c0,0,0,0-0.1,0.1
			c0,0,0,0,0,0c0,0,0,0.1,0,0.1l0,0c0.1,0.1,0.1,0.2,0.2,0.2l0-0.2c0.1,0,0,0,0,0c0,0,0,0.2,0,0.2c0,0,0,0.1-0.1,0.1
			c0.1,0,0.1,0.1,0.2,0.1l0,0c0,0,0.1,0,0.1,0c0,0-0.1,0-0.1,0c-0.1,0.1,0.1,0.1,0,0.2c0.1,0,0-0.1,0.1-0.1c0,0,0.1,0,0.1,0
			c0,0-0.1,0.1-0.1,0.1c0,0,0,0,0,0c0,0,0,0,0,0.1c0.1,0,0,0,0.1,0l0,0c0,0,0.1,0,0.1,0.1c0,0,0,0-0.1,0c0,0,0,0,0,0
			c-0.1,0,0-0.1-0.1-0.1c0,0,0.1,0,0,0.1c0.1,0,0,0.1,0.1,0.1l-0.1,0c0,0,0,0,0,0l-0.1,0c0.1,0,0,0.1,0,0.1c0-0.1,0.1,0,0.1-0.1
			c0.1,0.1-0.1,0.1-0.1,0.2c0,0,0-0.1,0,0c0,0,0,0,0,0.1c0,0.1,0,0,0.1,0c-0.1,0,0,0,0.1,0l-0.1,0c0,0.1,0.1,0,0.1,0.1l-0.1,0l0,0
			l-0.1,0c0,0,0,0,0,0.1c0,0,0.1,0,0.1,0c0,0-0.1,0,0,0c0,0-0.1,0,0,0l-0.1,0c0,0,0,0.1,0,0.1c0,0,0,0,0,0l0.1,0.1c0,0,0,0-0.1,0
			c0,0,0,0,0,0c0,0-0.1,0-0.1,0l0,0.1c0,0,0,0-0.1,0c0,0,0.1,0.1,0.1,0.1c0,0,0,0,0,0c0,0-0.1,0.1,0,0.1l-0.1,0c0,0,0.1,0,0.1,0
			c0,0-0.1,0-0.1,0c0,0,0.1,0.1,0.1,0.1c0,0,0,0,0,0l0,0c-0.1,0,0-0.1-0.1,0c0.1,0,0,0.1,0.1,0.1l0,0c0,0,0,0,0,0
			c-0.1,0,0.1,0,0.1,0.1c0,0,0,0-0.1,0l0,0c0,0,0,0,0,0l0,0.1l0,0c0,0,0.1,0,0.1,0c0,0,0,0,0,0l0,0c0,0-0.1,0-0.1,0
			c-0.1,0,0,0-0.1,0.1l0,0c-0.1,0-0.1,0-0.1,0.1c0,0,0.1,0,0.2,0c0,0,0,0,0,0c-0.1,0,0,0,0,0l-0.1,0c0,0,0,0,0.1,0.1
			c0,0-0.1,0-0.1,0c0,0,0.1,0,0.1,0c0,0,0,0.1,0,0.1c0,0,0,0-0.1,0l0,0c0,0,0,0,0,0c0,0,0.1,0,0.1,0.1c0.1,0-0.1,0-0.1,0.1
			c0,0,0,0-0.1,0c0,0.1,0,0.1,0.1,0.1l-0.1,0c0.1,0,0.1,0.1,0.1,0.1c0,0,0.1,0,0.1,0l0,0.1c0,0,0,0-0.1,0l0,0c0,0-0.1,0-0.1-0.1l0,0
			c0,0-0.1-0.1-0.1-0.1c0,0,0,0,0,0c0,0,0,0,0,0c0,0,0,0,0,0l-0.1,0l0,0l-0.1,0c0,0.1,0.1,0.2,0.1,0.2c0,0-0.1-0.1-0.1-0.1
			c0.1,0,0-0.1,0-0.1c0,0,0,0,0,0l0,0.1c0,0,0,0-0.1,0c0.1,0.1,0,0.1,0,0.1c0,0-0.1-0.1,0-0.1c-0.1,0,0.1,0.1,0,0.1c0,0,0,0,0,0
			c0,0,0,0.1,0,0l0,0c0,0-0.1,0.1-0.1,0.2c0,0-0.1-0.1-0.1-0.1c0,0,0.1,0.3,0.1,0.3c0-0.1-0.2-0.2-0.1-0.3c0,0,0,0,0,0
			c0,0,0.1,0.1,0.1,0.1c-0.1-0.1,0,0-0.1-0.1c0,0,0.1,0.1,0,0.1c0,0-0.1-0.1-0.1-0.1l0,0.1c0,0,0-0.1-0.1-0.1c0,0,0,0,0,0l0,0
			c-0.1,0,0,0.2-0.1,0.2c0,0,0-0.2-0.1-0.2c0,0.1,0,0.3,0,0.4l0,0l0,0c0-0.1,0.1-0.3,0.1-0.4c0,0,0,0,0,0c0,0,0-0.1,0-0.1
			c0,0-0.1,0-0.1,0c0,0.1,0,0.1,0,0.1l0.1-0.1c0,0.1,0,0.2-0.1,0.2c0,0,0-0.1,0-0.2c0,0,0,0,0,0l0,0c0,0,0,0.1-0.1,0c0,0,0-0.1,0,0
			c0,0.1,0,0.3,0,0.4c0,0-0.1-0.1-0.1-0.1c0-0.1,0-0.2,0-0.2c0,0,0,0,0,0.1c0,0,0-0.1,0-0.1c0,0.1-0.1,0,0,0.1c0,0,0,0-0.1,0
			c0,0-0.1,0.2-0.1,0.2c0,0,0,0,0-0.1c-0.1,0-0.1-0.1-0.1-0.1c0,0,0,0,0-0.1c0,0,0,0,0,0c0-0.1,0,0,0-0.1c0,0-0.1,0-0.1,0.1
			c0,0.1,0.1,0,0.1,0c0,0.1-0.1,0.2-0.2,0.2c-0.1,0,0-0.1,0-0.1c-0.1-0.1-0.1,0.1-0.2,0c0-0.1,0-0.1,0.1-0.1c0,0,0,0.1,0.1,0.1l0,0
			c0,0,0,0,0.1,0c0-0.1-0.1-0.1-0.2-0.1c0,0,0,0,0,0l0,0c0,0.1-0.1,0,0,0.1c0,0-0.1,0-0.1,0l0-0.1c0,0,0,0,0,0c0,0,0-0.1-0.1,0
			l0,0.1c0,0-0.1,0.1-0.1,0c0,0.1,0,0,0,0.1c0-0.1,0.1,0.1,0.1-0.1c0,0,0,0,0,0c0,0,0.1,0,0.1,0c0,0,0,0,0,0l0.1,0c0,0,0,0.1,0,0.1
			l0,0c0,0,0,0.1,0.1,0c0,0,0.1,0,0,0l0.1,0l0,0c0.1,0,0.2,0,0.2,0.1l0,0c0,0,0,0,0,0c0,0,0,0,0.1,0l0,0c0,0,0.1,0,0.1,0l0,0
			c0,0,0.1,0.1,0.1,0c0,0.1,0.1,0.1,0.2,0.1l0-0.1c0,0,0.1,0,0.1,0l0,0c0,0,0.1,0,0.2,0c0,0,0,0,0,0c0.1,0.1,0.1-0.1,0.2,0
			c0,0,0,0,0,0l0,0c0,0,0,0,0,0l0,0c0,0,0,0,0,0c0,0,0,0,0,0l0,0l0,0c0,0,0,0,0-0.1c0,0,0,0,0,0c0,0.1,0,0,0.1,0c0,0,0.1-0.1,0-0.1
			c0,0,0,0,0,0c0,0,0,0,0,0l0,0.1l0-0.1c0,0,0.1,0,0.1,0.1c0-0.1,0-0.1,0-0.2l0,0c0,0,0-0.1,0-0.1c0.1,0,0.2-0.1,0.3-0.2
			c-0.1-0.1,0.1,0,0-0.1c0,0,0.1,0,0.1,0c0-0.1,0.1,0,0-0.1c0,0,0,0,0,0c0,0,0,0,0,0c0,0,0,0,0,0c0-0.1-0.1-0.1-0.1-0.2
			c0,0,0,0,0-0.1c0,0,0.1,0,0.1,0c0,0,0.1-0.1,0-0.1c0,0,0,0,0,0c0,0,0,0,0-0.1l0,0c-0.1,0,0,0,0-0.1l0,0c0.1-0.1,0,0,0.1-0.1
			l-0.1,0c-0.1,0,0.1,0,0.1-0.1l0,0c0,0,0.2,0,0.2-0.1c0,0,0,0,0,0c0.1-0.1-0.1,0-0.1-0.1c0,0,0.1,0,0.1,0
			C26,27.2,25.8,27.1,25.9,27.1z M25.4,27.1C25.4,27.1,25.4,27.1,25.4,27.1C25.5,27.1,25.4,27.1,25.4,27.1z M23.5,28.6L23.5,28.6
			C23.5,28.6,23.5,28.6,23.5,28.6z"/>
		<path fill="#FFFFFF" d="M23.2,28.5L23.2,28.5C23.3,28.5,23.3,28.5,23.2,28.5z"/>
		<path fill="#FFFFFF" d="M23.2,28.5L23.2,28.5C23.2,28.5,23.2,28.5,23.2,28.5C23.2,28.5,23.2,28.5,23.2,28.5z"/>
		<path fill="#FFFFFF" d="M22.8,28.5L22.8,28.5L22.8,28.5l0.2,0l0.2,0c0,0,0-0.1,0-0.1c-0.1,0-0.1,0-0.2,0
			C23.1,28.5,22.8,28.5,22.8,28.5z"/>
		<polygon fill="#FFFFFF" points="25.4,26.4 25.4,26.4 25.4,26.4 		"/>
		<path fill="#FFFFFF" d="M23.1,28.1C23.1,28.1,23.1,28.1,23.1,28.1C23.1,28.1,23.1,28.1,23.1,28.1L23.1,28.1z"/>
		<path fill="#FFFFFF" d="M23.2,28.3L23.2,28.3C23.2,28.4,23.2,28.4,23.2,28.3C23.2,28.3,23.2,28.3,23.2,28.3z"/>
		<path fill="#FFFFFF" d="M23.4,28.5C23.4,28.5,23.3,28.6,23.4,28.5C23.3,28.6,23.4,28.5,23.4,28.5z"/>
		<polygon fill="#FFFFFF" points="23.3,28.2 23.3,28.2 23.2,28.3 		"/>
		<path fill="#FFFFFF" d="M23.4,28.3C23.4,28.3,23.4,28.3,23.4,28.3C23.4,28.3,23.4,28.3,23.4,28.3L23.4,28.3z"/>
		<polygon fill="#FFFFFF" points="23.3,28.2 23.3,28.2 23.3,28.2 		"/>
		<path fill="#FFFFFF" d="M23.7,28.5C23.8,28.4,23.7,28.4,23.7,28.5C23.7,28.4,23.7,28.4,23.7,28.5L23.7,28.5z"/>
		<path fill="#FFFFFF" d="M23.7,28.3L23.7,28.3C23.7,28.3,23.7,28.3,23.7,28.3L23.7,28.3z"/>
		<path fill="#FFFFFF" d="M23.8,28.3C23.8,28.3,23.7,28.3,23.8,28.3C23.8,28.3,23.8,28.3,23.8,28.3z"/>
		<polygon fill="#FFFFFF" points="24.2,28.5 24.2,28.5 24.2,28.6 		"/>
		<path fill="#FFFFFF" d="M24.6,28.2C24.6,28.2,24.6,28.2,24.6,28.2C24.6,28.3,24.6,28.2,24.6,28.2C24.6,28.2,24.6,28.2,24.6,28.2z"
			/>
		<path fill="#FFFFFF" d="M25,23.7L25,23.7C25,23.7,25,23.7,25,23.7C25,23.7,25,23.7,25,23.7L25,23.7L25,23.7c0.1,0,0.1,0,0.2,0
			L25,23.7L25,23.7L25,23.7L25,23.7L25,23.7l-0.1,0C24.9,23.7,24.9,23.7,25,23.7C25,23.7,25,23.7,25,23.7z"/>
		<path fill="#FFFFFF" d="M25.3,27.2L25.3,27.2L25.3,27.2C25.3,27.2,25.3,27.2,25.3,27.2z"/>
		<polygon fill="#FFFFFF" points="25.3,26.9 25.4,26.9 25.3,26.9 		"/>
		<path fill="#FFFFFF" d="M25.3,26.6C25.3,26.6,25.3,26.6,25.3,26.6C25.3,26.6,25.4,26.6,25.3,26.6z"/>
		<path fill="#FFFFFF" d="M24.6,22.9C24.5,22.8,24.5,22.9,24.6,22.9C24.5,22.9,24.6,22.9,24.6,22.9z"/>
		<polygon fill="#FFFFFF" points="23.8,22.4 23.8,22.4 23.7,22.4 		"/>
		<path fill="#FFFFFF" d="M23.5,22.3L23.5,22.3L23.5,22.3c-0.1-0.1-0.3,0-0.5,0C23.1,22.4,23.3,22.2,23.5,22.3z"/>
		<path fill="#FFFFFF" d="M22.6,22.8c0,0,0,0,0-0.2c0,0,0,0,0,0C22.6,22.7,22.6,22.8,22.6,22.8C22.6,22.8,22.6,22.8,22.6,22.8z"/>
		<path fill="#FFFFFF" d="M22.6,22.7C22.6,22.5,22.5,22.8,22.6,22.7L22.6,22.7z"/>
		<path fill="#FFFFFF" d="M22.8,23.2C22.9,23.3,22.9,23.3,22.8,23.2l-0.1-0.1C22.7,23.2,22.8,23.3,22.8,23.2z"/>
		<path fill="#FFFFFF" d="M22.9,23.2C22.9,23.2,23,23.2,22.9,23.2C22.9,23.2,22.9,23.2,22.9,23.2z"/>
		<path fill="#FFFFFF" d="M22.9,23.2C22.9,23.2,22.9,23.2,22.9,23.2c0,0-0.1-0.1-0.1-0.1L22.9,23.2z"/>
		<path fill="#FFFFFF" d="M22.7,23.1C22.7,23,22.7,22.8,22.7,23.1C22.6,22.7,22.6,22.8,22.7,23.1z"/>
		<path fill="#FFFFFF" d="M23.1,22.4L23.1,22.4C23.1,22.4,23,22.4,23.1,22.4C23,22.4,23.1,22.4,23.1,22.4z"/>
		<path fill="#FFFFFF" d="M23.5,23.6C23.5,23.6,23.5,23.5,23.5,23.6l-0.1-0.1C23.4,23.5,23.5,23.5,23.5,23.6z"/>
		<path fill="#FFFFFF" d="M23.5,23.5l0.1,0C23.5,23.5,23.5,23.5,23.5,23.5z"/>
		<path fill="#FFFFFF" d="M23.1,23.2L23.1,23.2c0,0-0.2-0.1-0.2-0.1C22.8,23.1,23.1,23.2,23.1,23.2z"/>
		<polygon fill="#FFFFFF" points="23.9,23.7 24,23.7 23.9,23.7 		"/>
		<path fill="#FFFFFF" d="M24.2,23.7C24.2,23.7,24.3,23.8,24.2,23.7c0.1,0.1,0.2,0.1,0.2,0C24.4,23.8,24.3,23.7,24.2,23.7z"/>
		<path fill="#FFFFFF" d="M23.9,23.6L23.9,23.6L23.9,23.6C23.8,23.6,23.8,23.6,23.9,23.6z"/>
		<path fill="#FFFFFF" d="M23.8,23.6C23.9,23.6,23.9,23.6,23.8,23.6C23.9,23.6,23.9,23.6,23.8,23.6L23.8,23.6z"/>
		<path fill="#FFFFFF" d="M23.4,23.3c-0.1,0,0,0.1-0.1,0.1C23.4,23.4,23.5,23.4,23.4,23.3z"/>
		<path fill="#FFFFFF" d="M23.6,23.5l0.1,0L23.6,23.5C23.6,23.5,23.6,23.5,23.6,23.5z"/>
		<polygon fill="#FFFFFF" points="23.8,23.5 23.7,23.5 23.8,23.5 		"/>
		<path fill="#FFFFFF" d="M24.3,23.7c0.1,0,0.1,0,0.2,0C24.4,23.6,24.4,23.6,24.3,23.7C24.3,23.6,24.3,23.6,24.3,23.7z"/>
		<polygon fill="#FFFFFF" points="25.1,23.7 25.1,23.7 25.1,23.7 		"/>
		<path fill="#FFFFFF" d="M24.3,23.6c0,0-0.1,0-0.1,0C24.2,23.6,24.3,23.6,24.3,23.6C24.3,23.6,24.3,23.6,24.3,23.6z"/>
		<path fill="#FFFFFF" d="M24.6,23.7C24.6,23.7,24.7,23.7,24.6,23.7C24.7,23.7,24.6,23.7,24.6,23.7z"/>
		<path fill="#FFFFFF" d="M24.1,23.6C24.1,23.6,24.2,23.6,24.1,23.6C24.2,23.6,24.1,23.6,24.1,23.6L24.1,23.6z"/>
		<path fill="#FFFFFF" d="M25.2,23.6c0,0-0.3-0.1-0.2-0.1C25.2,23.5,25.2,23.5,25.2,23.6c0-0.1,0.2-0.2,0.2-0.2l-0.1,0c0,0,0,0,0,0
			c0,0-0.1,0.1-0.2,0c-0.1,0,0,0.2,0.1,0.3C25.1,23.6,25.1,23.6,25.2,23.6z"/>
		<path fill="#FFFFFF" d="M24.6,23.7L24.6,23.7L24.6,23.7C24.6,23.7,24.6,23.7,24.6,23.7L24.6,23.7C24.6,23.7,24.6,23.7,24.6,23.7
			C24.7,23.7,24.6,23.7,24.6,23.7L24.6,23.7L24.6,23.7l0.2,0C24.8,23.6,24.7,23.6,24.6,23.7c0.1-0.1,0.2-0.1,0.1-0.1
			C24.6,23.5,24.6,23.6,24.6,23.7C24.8,23.6,24.5,23.6,24.6,23.7c0,0-0.1,0-0.1,0C24.5,23.7,24.6,23.7,24.6,23.7L24.6,23.7z"/>
		<path fill="#FFFFFF" d="M23.6,23.3C23.5,23.3,23.6,23.3,23.6,23.3C23.5,23.3,23.4,23.3,23.6,23.3L23.6,23.3
			c0.1,0.1,0.2,0.1,0.2,0.1C23.7,23.4,23.7,23.3,23.6,23.3C23.6,23.3,23.6,23.3,23.6,23.3z"/>
		<path fill="#FFFFFF" d="M24.1,23.5l0.2,0L24.1,23.5l0.1,0C24.1,23.4,24.1,23.5,24.1,23.5z"/>
		<polygon fill="#FFFFFF" points="25.2,23.7 25.1,23.7 25.1,23.7 		"/>
		<polygon fill="#FFFFFF" points="25.4,23.7 25.4,23.7 25.4,23.7 		"/>
		<path fill="#FFFFFF" d="M31.1,16.7L31.1,16.7L31.1,16.7C31.1,16.7,31.1,16.7,31.1,16.7z"/>
		<path fill="#FFFFFF" d="M27.6,13.3L27.6,13.3C27.6,13.3,27.6,13.3,27.6,13.3z"/>
		<path fill="#FFFFFF" d="M28.2,22.9C28.2,22.9,28.1,22.9,28.2,22.9C28.1,22.9,28,23,28,23C28.1,23,28.1,22.9,28.2,22.9z"/>
		<path fill="#FFFFFF" d="M26.4,23.6C26.4,23.6,26.4,23.6,26.4,23.6C26.4,23.6,26.4,23.6,26.4,23.6C26.4,23.6,26.4,23.6,26.4,23.6z"
			/>
		<path fill="#FFFFFF" d="M25,15.1C25,15.1,25,15.1,25,15.1C25,15.2,25,15.1,25,15.1z"/>
		<polygon fill="#FFFFFF" points="30.5,19.2 30.5,19.2 30.5,19.2 		"/>
		<path fill="#FFFFFF" d="M30.5,19.1c0,0.1,0,0.1,0,0.2l0.1,0L30.5,19.1z"/>
		<path fill="#FFFFFF" d="M25.5,14.6C25.5,14.6,25.5,14.6,25.5,14.6C25.5,14.6,25.5,14.6,25.5,14.6z"/>
		<path fill="#FFFFFF" d="M23.6,18.7l-0.1,0.2c0,0.1,0.1,0.1,0,0.2c0,0,0,0,0,0c-0.2,0.7-0.1,1.4-0.3,2c0-0.1,0,0,0,0c0,0,0,0,0.1,0
			l-0.1,0.3c0.1,0.1,0,0.3,0.1,0.3l0-0.1c0.1,0.1,0.2-0.2,0.3-0.1c-0.1-0.1,0.2-0.3,0-0.6c0,0,0,0,0.1,0c0-0.1,0-0.1,0-0.2l0,0
			c0-0.3,0.1-0.5,0.2-0.9l-0.1,0c0-0.1,0-0.1,0.1-0.1c-0.1-0.1,0,0.2-0.1,0.1c0.1-0.1,0.1-0.6,0.2-0.6c0-0.1-0.1,0,0-0.1l0,0l0,0
			c0-0.1,0.1-0.1,0.1-0.1c0,0,0,0.1,0,0.1c0.1-0.1,0-0.3,0.1-0.3l0,0.1c0-0.3,0.2-0.8,0.2-1.1l0,0c0-0.3,0.1-0.2,0.1-0.5l0,0
			c0-0.1,0-0.1,0-0.2c0,0.1,0.1-0.1,0.1,0c0-0.3,0-0.1,0-0.3l0.1,0c0-0.1,0-0.1,0-0.2c0,0.1,0.1-0.1,0.1,0.1
			c0.2-0.3,0.1-0.4,0.2-0.5c-0.1-0.2-0.1,0.2-0.1,0.1c-0.1,0,0-0.1,0-0.2c0-0.1,0.2-0.1,0.3-0.3c0,0,0,0,0,0c0.1-0.1,0-0.2,0.1-0.3
			c0-0.1,0.1-0.1,0-0.2l-0.1,0.2c0-0.1,0-0.3,0.1-0.4c0,0,0,0.1,0,0.1c0,0,0-0.1,0.1-0.1c0.1,0.1-0.1,0.2-0.1,0.4
			c0.1,0,0.1-0.2,0.1-0.1c-0.1-0.1,0.1-0.2,0.1-0.4l0,0c0,0,0-0.1,0-0.1l0,0.1c0-0.1,0.1-0.1,0.1-0.2c0,0,0-0.1-0.1,0
			c0.1-0.3,0.2-0.1,0.4-0.4c0,0-0.1,0.1-0.1,0c0,0,0.1-0.1,0.2-0.1c0.1-0.2-0.1,0,0-0.1c0.1,0,0.1-0.1,0.1-0.2l0,0
			c0.2-0.2,0-0.1,0.2-0.2l0,0.1l0.1-0.1l0,0.1c0.1-0.1,0.1-0.1,0.2-0.2c0,0,0-0.1,0.1-0.2c0.1,0,0,0.1,0.1,0c0,0,0,0.1-0.1,0.1
			c0,0,0,0,0,0.1c0.1,0,0.2-0.1,0.2-0.1c0,0,0,0-0.1,0l0.2-0.2c0,0,0,0,0,0.1c0,0,0.1-0.1,0.1-0.1c0,0,0,0.1-0.1,0.1
			c0,0,0.2-0.1,0.2-0.1c0,0,0.1,0,0.1,0c0.1,0,0.3-0.1,0.4-0.1c0,0,0,0,0.1,0c0.2,0,0.3,0.1,0.5,0l0.1,0.1c0.1,0-0.1-0.1,0.1-0.1
			c0.2,0,0,0.1,0.1,0.1c0.1,0,0.2,0,0.4,0.1c-0.1,0-0.1,0-0.1,0l0.1,0.1c-0.2,0-0.2,0-0.2,0.1c0.1-0.1,0.4,0.1,0.5,0l0,0.1
			c0,0,0,0,0,0c0.1,0.1,0.1,0,0.3,0.1c0.1,0,0.1,0.1,0,0.1l0.1,0.1c0,0,0,0,0,0c0,0,0.2,0.1,0.2,0.1l0,0c0,0,0.1,0,0.1,0.1
			c0,0.1,0,0,0,0l0.1,0.1c0,0.1-0.1,0-0.1-0.1c0,0.2,0.1,0.1,0.2,0.3l-0.1-0.1c0,0.1,0.1,0.2,0.1,0.3c0,0-0.1-0.3,0-0.2
			c0,0,0,0.1,0.1,0.1c0,0,0,0.1,0.1,0.2l-0.1,0c0.1,0.1,0.1,0.1,0.1,0.1c0,0.1,0,0.1,0,0.2c0.1,0.2,0-0.1,0.1,0
			c0,0.1,0.1,0.2,0.2,0.4c0,0.1,0,0-0.1,0l0.1,0.1c0,0,0,0,0,0c0,0.1,0.1,0,0.1,0.1c0.1,0,0,0.3,0.1,0.4c0,0,0,0-0.1,0
			c0.1,0.2,0.1,0.2,0.2,0.3l0,0.2c0-0.1,0.1,0,0.2,0.1c0,0,0-0.1,0-0.1l0.1,0.2c0,0,0,0-0.1,0l0,0c0,0.1-0.1,0-0.1,0l0-0.1
			c0,0-0.1-0.1-0.1-0.1c0,0,0,0,0,0.1c0,0,0,0,0,0c0,0,0,0,0,0.1l-0.1,0l0,0c0,0-0.1,0.3-0.1,0.3c0.1,0.2,0.2,0.4,0.2,0.7
			c-0.1-0.1-0.1,0-0.2,0c0.1-0.1,0-0.2,0-0.4c0,0.1,0,0.1-0.1,0l0.1,0.3c-0.1,0,0,0.1-0.1,0.1c0.1,0,0,0.2,0,0.3c0,0-0.1,0,0-0.2
			c-0.1,0.1,0.1,0.2,0,0.3c0,0,0,0,0-0.1c0,0.1,0,0.3-0.1,0.2l0,0c0,0.2-0.2,0.6-0.1,0.7c0,0-0.1-0.1-0.1-0.1l0.2,0.5
			c-0.1-0.1-0.3,0-0.3-0.2c0,0-0.1,0.1-0.1,0.2c0,0,0.1,0,0.1,0c-0.1,0.1-0.1,0.1-0.2,0.2c0,0,0.1,0.1,0.1,0.1c0,0-0.1,0-0.1-0.1
			l0,0.2c0-0.1-0.1-0.1-0.1,0c0,0-0.1,0.2-0.1,0.2l0.1-0.1c-0.1,0.2,0.1,0.3-0.1,0.5c0,0-0.1-0.1-0.2,0c0,0.1,0.1,0.4,0,0.6l-0.1,0
			l-0.1,0.2c0-0.1,0-0.5,0-0.7c-0.1,0.1,0,0-0.1,0.1c-0.1,0,0-0.1,0-0.1l-0.2,0.2c0.1,0-0.1,0.2,0,0.3l0.1-0.3
			c0.1,0,0.1,0.3-0.1,0.5c-0.1,0-0.1-0.1-0.1-0.1c0,0-0.1,0.2-0.1,0.2l0-0.1c-0.1,0.1-0.1,0.2-0.2,0.3c0,0-0.2,0-0.1,0.1
			c0.1,0,0.3,0.2,0.3,0.2c0,0-0.2,0.1-0.3,0.2c-0.1,0,0-0.2-0.1-0.2c0,0,0,0.1,0,0.1c-0.1,0,0-0.1-0.1,0c0,0.1-0.2,0.1,0,0.1
			c-0.1,0.1-0.1,0.1-0.2,0.1c0.1,0,0,0.2-0.1,0.3c0,0,0,0-0.1,0c-0.2,0.1-0.3,0.2-0.5,0.3c0,0-0.1,0-0.1,0c0,0,0,0.1-0.1,0.1
			c-0.1,0,0.1-0.1,0-0.1c0,0-0.1,0.1-0.2,0.2c0.1,0,0.2-0.1,0.3-0.2c0,0.1-0.1,0.2-0.3,0.4c-0.2,0.1-0.1,0-0.1,0
			c-0.3,0.1-0.2,0.2-0.5,0.3c-0.1,0,0-0.1-0.1-0.1c0.1-0.1,0.2,0,0.3-0.1l-0.1,0c0,0,0.1-0.1,0.2-0.1c-0.1,0-0.6,0.2-0.8,0.2
			c0,0-0.1,0.1-0.1,0.1l0.1,0c0.1,0-0.1,0.1,0,0.1c-0.1,0.1-0.2,0.1-0.4,0.1l0-0.1c0,0,0.1,0,0.2,0c-0.1,0-0.3-0.1-0.3,0l0.1,0
			c-0.1,0-0.3,0.1-0.4,0.1c0.1,0.1,0,0,0.1,0.1c-0.1-0.1,0.4,0,0.2-0.1c0.1,0.1,0.2,0,0.3,0.1c0,0-0.1,0.2,0.1,0.2c0,0,0,0.2,0,0.2
			c0,0,0,0,0,0l0-0.2c0,0,0-0.1,0-0.1c0,0-0.1-0.1-0.1-0.1c0.1,0,0.2-0.1,0.3-0.2c0.1,0,0,0,0,0l0.1-0.1c0,0,0.2,0,0,0.1l0.1,0
			c0.1,0,0.2,0,0.3-0.1c0.1,0,0.2-0.1,0.1-0.1c0,0,0.2-0.1,0.2-0.1l0,0c0.1-0.1,0.3-0.2,0.4-0.2c0,0,0,0,0,0c0.1,0,0.1,0,0.2-0.1
			c0,0-0.1,0-0.1,0c0.1,0,0.2-0.1,0.2-0.1c0.1-0.1,0.1-0.1,0.3-0.2l0,0c0.1-0.1,0.3-0.2,0.3-0.2c0.2,0,0.4-0.3,0.6-0.4l0,0
			c0.1-0.1,0.2-0.2,0.2-0.3l0,0c0.1-0.1,0.3-0.2,0.4-0.4c0,0,0,0,0,0c0.2-0.2,0.2-0.4,0.4-0.6c0-0.1,0-0.1,0.1-0.1c0,0,0,0,0,0l0,0
			c0,0,0,0,0.1-0.1c0,0,0,0.3-0.1,0.3c0,0,0.1,0.1,0.1,0.1h0.1c0,0,0,0,0,0c0,0,0.1,0,0,0h0c0,0,0-0.3-0.1-0.3c0,0,0-0.2,0-0.2
			c0.1,0,0-0.2,0.2-0.3c0-0.1,0.1-0.3,0-0.4c0,0,0,0,0,0c0-0.1,0.1-0.1,0.1-0.2l0.1,0l0-0.2c0.1-0.1,0.1-0.1,0.1,0
			c0-0.2,0-0.2,0-0.4l0,0c0-0.1,0-0.2,0-0.2c0.2-0.1,0.2-0.7,0.3-1.1c-0.1,0.1,0.1-0.2,0-0.2c0,0,0.1-0.1,0.1,0c0-0.2,0.1-0.3,0-0.5
			c0,0,0,0,0.1,0c0,0,0-0.1,0-0.1c0,0,0,0,0,0.1c0-0.2-0.1-0.2-0.2-0.2c0-0.1,0-0.2,0-0.2c0,0,0-0.1,0.1,0c0-0.1,0-0.4-0.1-0.4
			c0,0,0-0.1,0-0.1c0-0.2,0-0.2-0.1-0.3l0,0c-0.1,0-0.1-0.1-0.1-0.2l0,0c0-0.3-0.1-0.1-0.1-0.4l0,0c-0.1,0-0.1-0.3-0.2-0.4l0,0.1
			c-0.1-0.1,0-0.3,0-0.4c0,0,0,0,0,0c-0.1-0.3-0.1,0-0.2-0.2c0,0,0.1,0,0-0.1c0-0.1-0.3-0.2-0.4-0.4c0,0,0,0.1-0.1,0
			c-0.1-0.1-0.2-0.3-0.3-0.3c0,0,0,0,0,0c-0.1,0-0.3-0.2-0.4-0.1c0-0.3-0.6-0.2-0.5-0.3l-0.3-0.1l0,0c-0.2-0.1-0.3,0-0.3,0
			c0,0,0,0,0,0c-0.3-0.1-0.3-0.1-0.6,0l0-0.1c-0.1,0-0.4-0.1-0.7,0.1c0,0,0,0,0,0c-0.3,0.1-0.8,0.2-0.8,0.4c0,0-0.2,0.2-0.1,0.2
			c0.2-0.1,0,0.1,0.1,0.1c-0.1,0.1-0.2,0.1-0.2,0l0,0c0-0.1-0.3,0.2-0.3,0.1c-0.4,0.4-0.7,0.8-1,1.2l0.1,0L24.7,15c0,0-0.1,0,0-0.1
			c-0.1,0-0.1,0.2,0,0.2c-0.1,0.2,0-0.1-0.1-0.1l0,0.1l0,0c0,0.1,0,0.1,0,0.2c-0.1,0.1-0.1,0-0.1,0.1c0,0,0,0,0,0.1l-0.1,0.2
			l0.1-0.1c0,0.1-0.1,0.2,0,0.1c-0.2,0.1-0.3,0.7-0.4,0.8c0,0.1,0,0.3-0.1,0.4c0,0,0.1,0,0.1,0.1c-0.1-0.1-0.1,0.2-0.3,0.3
			c0.1-0.1-0.1,0.4,0.1,0.3c0,0.1-0.1,0-0.1,0.1C23.7,18,23.6,18.3,23.6,18.7C23.6,18.6,23.6,18.6,23.6,18.7z M26.9,23.4L26.9,23.4
			C27,23.4,27,23.4,26.9,23.4z M30.1,14.4C30.1,14.4,30,14.4,30.1,14.4C30.1,14.3,30.1,14.4,30.1,14.4z M24.5,15.4
			C24.5,15.5,24.5,15.5,24.5,15.4L24.5,15.4z"/>
		<path fill="#FFFFFF" d="M29.8,21.4C29.8,21.4,29.8,21.4,29.8,21.4C29.8,21.4,29.8,21.4,29.8,21.4z"/>
		<polygon fill="#FFFFFF" points="27.6,13.3 27.6,13.3 27.6,13.3 		"/>
		<path fill="#FFFFFF" d="M25.8,23.7l0.1,0C25.9,23.7,25.9,23.7,25.8,23.7C25.9,23.7,25.9,23.7,25.8,23.7z"/>
		<path fill="#FFFFFF" d="M24.9,23.4C24.8,23.4,24.8,23.4,24.9,23.4L24.9,23.4C24.9,23.4,24.9,23.4,24.9,23.4z"/>
		<path fill="#FFFFFF" d="M25.6,23.5c0,0.1,0.1,0,0.1,0C25.7,23.5,25.6,23.5,25.6,23.5C25.6,23.5,25.6,23.5,25.6,23.5z"/>
		<path fill="#FFFFFF" d="M25.5,23.5C25.5,23.5,25.5,23.5,25.5,23.5C25.5,23.6,25.5,23.5,25.5,23.5z"/>
		<path fill="#FFFFFF" d="M26.5,23.6C26.5,23.6,26.7,23.4,26.5,23.6C26.5,23.5,26.5,23.6,26.5,23.6z"/>
		<polygon fill="#FFFFFF" points="25.7,23.4 25.6,23.4 25.7,23.4 		"/>
		<path fill="#FFFFFF" d="M26.1,23.4C26.1,23.4,26.1,23.4,26.1,23.4c0,0,0.1,0,0.1,0L26.1,23.4z"/>
		<polygon fill="#FFFFFF" points="25.9,23.4 25.8,23.3 25.8,23.4 		"/>
		<path fill="#FFFFFF" d="M27.5,22.9C27.5,22.9,27.5,23,27.5,22.9L27.5,22.9C27.6,22.9,27.6,22.9,27.5,22.9z"/>
		<path fill="#FFFFFF" d="M27.1,23C27.1,23,27.1,23,27.1,23L27.1,23L27.1,23z"/>
		<path fill="#FFFFFF" d="M27.4,22.8C27.4,22.8,27.3,22.9,27.4,22.8C27.4,22.8,27.6,22.7,27.4,22.8z"/>
		<polygon fill="#FFFFFF" points="29.1,21.8 29.1,21.9 29.1,21.8 		"/>
		<path fill="#FFFFFF" d="M30,20.4c0-0.1,0.1-0.1,0-0.1C29.8,20.4,30,20.3,30,20.4C29.9,20.5,30,20.3,30,20.4z"/>
		<polygon fill="#FFFFFF" points="23.2,21.7 23.2,21.6 23.2,21.5 		"/>
		<path fill="#FFFFFF" d="M23.3,21.8L23.3,21.8L23.3,21.8C23.3,21.8,23.3,21.8,23.3,21.8z"/>
		<path fill="#FFFFFF" d="M30.1,14.6L30.1,14.6L30.1,14.6C30.2,14.7,30.2,14.7,30.1,14.6z"/>
		<polygon fill="#FFFFFF" points="29.3,13.8 29.3,13.8 29.3,13.8 		"/>
		<path fill="#FFFFFF" d="M28.3,13.5c0,0,0.1,0,0.1,0C28.4,13.5,28.3,13.4,28.3,13.5z"/>
		<path fill="#FFFFFF" d="M17.7,24.5c-0.1,0-0.1,0-0.1,0C17.8,24.6,17.7,24.5,17.7,24.5z"/>
		<path fill="#FFFFFF" d="M19,23.1c0,0,0,0.2,0,0.2l0,0C19,23.4,19,23.1,19,23.1z"/>
		<path fill="#FFFFFF" d="M18.1,21.3C18.1,21.2,18.1,21.2,18.1,21.3c-0.1,0-0.1-0.1-0.2-0.1C17.9,21.2,17.7,21.1,18.1,21.3z"/>
		<path fill="#FFFFFF" d="M18.1,21.2C18.2,21.3,18,21.1,18.1,21.2L18.1,21.2z"/>
		<path fill="#FFFFFF" d="M15.8,20.8c0,0,0.1,0,0.1,0.1l0.2,0C16,20.8,15.9,20.8,15.8,20.8z"/>
		<path fill="#FFFFFF" d="M15.9,20.8c0,0-0.2,0-0.2,0.1C15.9,20.9,16,20.9,15.9,20.8z"/>
		<path fill="#FFFFFF" d="M14.9,21c0,0,0.1-0.1,0.1-0.1C15,20.9,14.8,21.1,14.9,21L14.9,21z"/>
		<path fill="#FFFFFF" d="M13.9,21.4c0.1-0.1,0.3-0.2,0.4-0.2c0.1-0.1-0.2,0-0.1-0.1C14.1,21.3,14,21.3,13.9,21.4z"/>
		<path fill="#FFFFFF" d="M15.1,21l0.1,0c0,0,0.1,0,0.1,0C15.3,21,15.2,21,15.1,21z"/>
		<path fill="#FFFFFF" d="M15.2,21L15.2,21c-0.1,0-0.2,0-0.2,0C15,21,15.1,21,15.2,21z"/>
		<path fill="#FFFFFF" d="M16.4,20.9c-0.1,0-0.4,0.1-0.2,0.1C16.3,21,16.1,20.9,16.4,20.9z"/>
		<path fill="#FFFFFF" d="M15.7,21C15.7,21,15.6,20.9,15.7,21l-0.3,0L15.7,21z"/>
		<polygon fill="#FFFFFF" points="15.3,21.1 15.4,21 15.4,21 		"/>
		<path fill="#FFFFFF" d="M14.1,21.4c-0.1,0.1-0.2,0.1-0.3,0.2C13.9,21.5,14.1,21.4,14.1,21.4C14.2,21.4,14.3,21.3,14.1,21.4z"/>
		<polygon fill="#FFFFFF" points="12.8,22.6 12.8,22.6 12.8,22.6 		"/>
		<path fill="#FFFFFF" d="M14.5,21.3c-0.1,0-0.2,0.1-0.2,0.1c0,0,0,0,0,0C14.3,21.4,14.4,21.3,14.5,21.3z"/>
		<path fill="#FFFFFF" d="M13.6,21.8c-0.1,0-0.2,0.1-0.2,0.1C13.5,21.8,13.5,21.8,13.6,21.8z"/>
		<path fill="#FFFFFF" d="M14.6,21.2L14.6,21.2C14.6,21.2,14.6,21.2,14.6,21.2z"/>
		<path fill="#FFFFFF" d="M14.6,21.2c-0.1,0-0.1,0.1-0.1,0.1C14.5,21.3,14.6,21.2,14.6,21.2C14.6,21.2,14.6,21.2,14.6,21.2z"/>
		<path fill="#FFFFFF" d="M13,22.6c-0.2,0.3-0.2,0.2-0.3,0.3c0.1-0.1-0.1,0.4,0,0.4l0.1-0.3c0,0,0,0.1,0,0c0,0,0.1-0.3,0.3-0.5
			c0.1-0.2-0.1-0.2-0.3-0.1c0,0,0,0-0.1,0.2C12.8,22.7,13.1,22.4,13,22.6z"/>
		<path fill="#FFFFFF" d="M13.2,22.2L13.2,22.2c0,0-0.1,0.1-0.2,0.2c-0.1,0.2-0.1,0.2-0.1,0.2L13.2,22.2L13.2,22.2z"/>
		<path fill="#FFFFFF" d="M13.5,22c0.2-0.2,0.2-0.2,0.3-0.3c-0.4,0.3,0.1-0.1-0.2,0.1c0.1-0.1,0.2-0.1,0.2-0.2
			c-0.1,0-0.1,0.1-0.2,0.1l0,0l0,0v0c0,0,0,0,0,0l0,0c0,0,0,0,0,0c-0.1,0.1,0,0,0,0l0,0l0,0c0,0-0.4,0.3-0.4,0.3
			c0.1-0.1,0.2-0.2,0.4-0.3C13.6,21.9,13.4,22,13.5,22z"/>
		<path fill="#FFFFFF" d="M16,21.1C15.9,21.1,15.9,21.1,16,21.1C15.9,21.1,15.9,21.1,16,21.1z"/>
		<path fill="#FFFFFF" d="M15.5,21.1C15.5,21.1,15.5,21.1,15.5,21.1C15.5,21.1,15.5,21.1,15.5,21.1z"/>
		<path fill="#FFFFFF" d="M16,21L16,21c-0.2,0-0.4,0-0.4,0c0.1,0,0.1,0,0.2,0.1C15.8,21.1,15.8,21.1,16,21C16,21.1,15.9,21.1,16,21
			C16,21.1,16.2,21.1,16,21z"/>
		<path fill="#FFFFFF" d="M14.6,21.3l-0.4,0.2l0.2,0l0,0C14.7,21.4,14.6,21.4,14.6,21.3z"/>
		<path fill="#FFFFFF" d="M12.7,22.8c0,0,0.1-0.2,0.1-0.2l0-0.1C12.7,22.5,12.6,22.8,12.7,22.8z"/>
		<polygon fill="#FFFFFF" points="12.4,23.2 12.5,23.1 12.4,23 		"/>
		<path fill="#FFFFFF" d="M20.9,13.2L20.9,13.2C20.9,13.2,20.9,13.1,20.9,13.2z"/>
		<path fill="#FFFFFF" d="M20.4,28L20.4,28c-0.2,0.1-0.2,0.2-0.3,0.2C20.2,28.1,20.4,28,20.4,28z"/>
		<path fill="#FFFFFF" d="M22.4,19.9L22.4,19.9c0,0.1,0,0.1,0,0.2C22.4,20,22.4,19.9,22.4,19.9z"/>
		<path fill="#FFFFFF" d="M17.3,9.6l-0.1,0C17.4,9.6,17.3,9.6,17.3,9.6z"/>
		<path fill="#FFFFFF" d="M13.4,28.7c-0.1-0.1-0.2-0.3-0.2-0.3C13.2,28.5,13.3,28.6,13.4,28.7z"/>
		<path fill="#FFFFFF" d="M21.2,12.5C21.1,12.4,21.1,12.4,21.2,12.5C21.1,12.5,21.2,12.5,21.2,12.5z"/>
		<path fill="#FFFFFF" d="M13.7,29C13.7,28.9,13.7,28.9,13.7,29c-0.1-0.1-0.2-0.2-0.3-0.3C13.4,28.8,13.6,28.9,13.7,29z"/>
		<path fill="#FFFFFF" d="M19.9,22.5c0,0,0.1,0,0.2,0C20,22.6,20,22.6,19.9,22.5z"/>
		<path fill="#FFFFFF" d="M11.9,25.2C11.9,25.1,11.9,25.2,11.9,25.2L11.9,25.2z"/>
		<path fill="#FFFFFF" d="M12,25.1c0,0,0-0.1,0-0.1C12,24.9,12,25,12,25.1z"/>
		<path fill="#FFFFFF" d="M11.9,25.2C11.9,25.2,11.9,25.2,11.9,25.2c0,0.1,0,0.1,0,0.2C12,25.3,11.9,25.3,11.9,25.2z"/>
		<path fill="#FFFFFF" d="M11.5,12.6C11.5,12.6,11.5,12.6,11.5,12.6C11.5,12.7,11.5,12.7,11.5,12.6z"/>
		<polygon fill="#FFFFFF" points="21.2,25.5 21.2,25.5 21.2,25.5 		"/>
		<path fill="#FFFFFF" d="M21.3,25.2c0,0.2,0,0.3-0.1,0.4l0.2-0.1L21.3,25.2z"/>
		<path fill="#FFFFFF" d="M12.5,26.8c0,0,0.1,0.3,0.1,0.3C12.5,27,12.5,26.9,12.5,26.8z"/>
		<path fill="#FFFFFF" d="M13.9,9.5c0.1-0.1-0.7,0.2-0.7,0.2c-1.1,0.5-1.9,1.5-2,2.6l0.1-0.1c0,0,0,0.4,0,0.4c0,0.1-0.1,0.1,0-0.1
			c-0.1,0.1,0,0.5,0,0.5c0,0.5-0.1-0.2-0.1,0l0,0.2l0-0.1c0,0.2,0.1,0.2,0.1,0.5c0,0.2,0,0.1,0,0.2c0,0,0,0,0,0.1l0.1,0.5l0-0.2
			c0.1,0.2,0.1,0.4,0.1,0.2c0,0.4,0.6,1.6,0.7,1.8c0.2,0.2,0.3,0.5,0.5,0.8c0-0.1,0-0.2,0.2,0.1c-0.2,0,0.3,0.5,0.3,0.8
			c-0.1-0.2,0.6,0.7,0.4,0.3c0.2,0.2,0,0,0.1,0.2c0.4,0.4,0.9,1,1.5,1.5c0,0-0.1-0.1,0.1,0l0.2,0.3c0.1,0.1,0.2,0,0.3,0.2
			c0,0-0.1-0.1,0,0c0.7,0.7,1.6,1.2,2.6,1.6l0,0l0.1,0.1c0,0,0,0-0.1-0.1c0,0,0.1,0,0.1,0c0.1,0.2,0.3,0.4,0.3,0.6l0,0.1
			c0,0,0.1,0.1,0.1,0.1c-0.1-0.3-0.2-0.5-0.3-0.7c0.4,0.2,0.8,0.3,1.1,0.5c-0.2-0.1-0.1-0.1,0.1,0c-0.1,0,0,0,0-0.1
			c0,0,0.6,0.2,0.6,0.2c0.1,0,0.7,0.1,0.7,0l-0.2,0c0.3,0-0.3-0.2-0.3-0.3c-0.3,0-0.7-0.3-1.2-0.3c-0.1-0.1,0.1,0,0,0
			c-0.1,0-0.3,0-0.5-0.1l0,0c-0.6-0.2-0.8-0.4-1.3-0.7c0.1,0,0,0-0.3-0.2c0,0-0.1,0-0.1-0.1l0,0.1c0,0-0.1,0-0.1-0.1c0,0,0,0,0,0
			l0,0c0,0,0,0-0.1-0.1l0.2,0c0,0-0.2-0.1-0.2-0.1c-0.2-0.1-0.2,0-0.1,0c0,0,0.1,0,0.1,0.1l0,0c-0.3-0.2-0.9-0.6-1-0.8
			c-0.2-0.2,0,0.1-0.2-0.1l0-0.1L16,20c-0.1-0.1-0.2-0.2-0.2-0.2c0,0,0.1,0.1,0.1,0.1c-0.2-0.2-0.5-0.4-0.6-0.5l0.2,0.2
			c-0.6-0.5-1.2-1.2-1.7-1.7l0,0.1c-0.4-0.4-0.3-0.4-0.7-0.8l0,0c-0.1-0.1-0.2-0.2-0.3-0.4c0.1,0.1-0.1-0.3,0-0.1
			c-0.4-0.5-0.2-0.2-0.5-0.5l0-0.1c-0.1-0.1-0.1-0.1-0.3-0.4c0.1,0.2,0-0.2,0.1,0c-0.2-0.6-0.5-0.8-0.5-1.2
			c-0.2-0.2,0.1,0.5,0.1,0.4c0,0.1-0.2-0.2-0.2-0.4c-0.1-0.2,0-0.4-0.1-0.9c0,0,0,0.1,0,0.1c0-0.2-0.1-0.4-0.1-0.6
			c-0.1-0.1,0-0.3-0.1-0.3l0,0.5c0-0.3-0.2-0.5-0.1-1c0,0,0,0.2,0,0.3c0-0.1,0-0.2,0-0.4c0.1,0-0.1,0.6,0,0.8c0-0.1-0.1-0.5,0-0.4
			c-0.1-0.2,0-0.5,0.1-0.8l0,0c0-0.1,0-0.2,0.1-0.3l0,0.2c0-0.3,0.2-0.4,0.3-0.7c-0.3,0.5-0.1,0.1-0.3,0.3c0.1-0.3,0.2-0.4,0.3-0.4
			c0.1-0.1,0.2-0.1,0.5-0.4c-0.1,0.1-0.3,0.2-0.2,0.1c0.1-0.1,0.3-0.2,0.3-0.2c0.4-0.3-0.1,0,0.1-0.1c0.2,0,0.2-0.2,0.4-0.3l0,0
			c0.5-0.2,0.1-0.2,0.6-0.3l-0.2,0.1l0.3-0.1l0,0.1c0.3-0.1,0.4-0.2,0.6-0.3c-0.1,0,0-0.1,0.3-0.2c0.2,0-0.1,0.1,0.3,0
			c-0.1,0.1-0.2,0.1-0.3,0.1c0,0-0.1,0-0.1,0.1c0.2,0,0.5-0.1,0.6-0.1c0,0-0.1,0-0.1,0c0,0,0.5-0.2,0.5-0.1c0.1,0,0,0,0,0.1
			c0.1,0,0.2,0,0.3-0.1c0,0,0,0.1-0.2,0.1c0,0,0.5-0.1,0.5-0.1c0,0,0.2,0.1,0.2,0.1c0.1,0,0.3,0,0.5,0c0.2,0,0.4,0,0.5,0.1
			c0,0,0.1,0,0.1,0c0.3,0.1,0.4,0.2,0.9,0.5l0.2,0.2c0.3,0.2-0.2-0.3,0.2,0c0.3,0.2,0.1,0.1,0.2,0.2c0.2,0.1,0.5,0.3,0.6,0.6
			c-0.1-0.1-0.1-0.1-0.2-0.2l0.1,0.2c-0.3-0.2-0.4-0.4-0.3-0.1c0.1,0,0.2,0.1,0.4,0.3c0.2,0.2,0.3,0.4,0.4,0.4l0.1,0.2
			c0,0,0,0-0.1-0.1c0.1,0.3,0.2,0.2,0.4,0.6c0.1,0.1,0.1,0.2,0,0.2l0.2,0.3c0,0.1,0,0.1,0,0l0.2,0.5l0,0c0,0.1,0.1,0.2,0.2,0.3
			c0,0.1,0-0.1,0,0l0.1,0.3c0,0.1-0.1-0.1-0.2-0.3c0,0.3,0.1,0.2,0.2,0.8L21.2,14c0,0.2,0.1,0.4,0.1,0.7c0-0.1-0.1-0.6,0.1-0.3
			c0,0.1,0,0.2,0.1,0.4c0,0,0,0.2,0.1,0.4l-0.1,0c0.1,0.2,0.1,0.2,0.2,0.3c0.1,0.2,0,0.3,0,0.4c0.1,0.4,0-0.3,0.1,0.2
			c0,0.3,0.1,0.6,0.2,1c0,0.2,0,0-0.1,0.1l0.1,0.2c0,0.1,0,0,0,0c0,0.2,0.1,0,0.1,0.3c0.1,0.1-0.1,0.6,0.1,0.9c0,0.1,0,0-0.1,0
			c0.1,0.5,0.1,0.4,0.1,0.8l0,0.3c0.1-0.2,0.1,0.1,0.2,0.3c0-0.1,0-0.2,0.1-0.2l0,0.4c0,0.1,0,0-0.1-0.1c0,0,0,0.1,0,0.1
			c0,0.2-0.1,0.1-0.1,0c0-0.1,0-0.1,0-0.2c0-0.1-0.1-0.2-0.1-0.2c0,0,0,0.1,0,0.1c0,0,0,0,0,0c0,0,0,0.1,0,0.1l-0.1,0.1l0,0
			c0,0,0,0.1,0,0.3c0,0.1,0,0.3,0,0.3c0.1,0.4,0.1,0.8,0.1,1.4c0-0.2-0.1,0-0.2-0.1c0.1-0.2,0-0.5,0.1-0.8c0,0.2,0,0.1-0.1,0.1
			l0,0.6c-0.1,0-0.1,0.1-0.1,0.3c0.1-0.1,0,0.5,0,0.7c0,0-0.1-0.1,0-0.3c-0.1,0.3,0.1,0.4-0.1,0.7c0-0.1,0-0.1,0-0.1
			c0,0.2-0.1,0.6-0.1,0.5l0-0.1c-0.1,0.5-0.4,1.4-0.3,1.5c0,0-0.1-0.1-0.1-0.1c0,0,0,0.2,0,0.5c0,0.2,0,0.5,0,0.5
			c0-0.1-0.3,0.1-0.2-0.3c0,0.1-0.1,0.2-0.2,0.5c0-0.1,0.2-0.1,0.1,0c-0.2,0.2-0.1,0.2-0.4,0.5c0.1-0.1,0.1,0.1,0,0.2
			c0,0-0.1,0-0.1-0.1L20.6,27c0-0.1-0.1-0.1-0.2,0c0,0-0.2,0.3-0.3,0.4l0.1-0.1c-0.3,0.4-0.2,0.5-0.5,0.9c0-0.1,0-0.2-0.2-0.1
			c-0.1,0.1-0.2,0.6-0.6,0.9l-0.1,0c0,0-0.3,0.2-0.3,0.2c0.1-0.1,0.3-0.2,0.4-0.4c0.2-0.2,0.3-0.4,0.4-0.5c-0.2,0.1-0.1,0-0.3,0.2
			c-0.1,0,0.1-0.1,0.1-0.2c0,0-0.1,0.1-0.3,0.2c-0.1,0.1-0.3,0.2-0.3,0.2c0.1,0.1-0.4,0.3-0.4,0.3c0,0,0.2-0.1,0.3-0.2
			c0.1-0.1,0.3-0.2,0.3-0.2c0.1,0-0.2,0.4-0.7,0.6c-0.1,0,0-0.2,0-0.2c0,0-0.4,0.2-0.5,0.2l0.2-0.1c-0.3,0.1-0.4,0.3-0.7,0.2
			c-0.1,0-0.3,0-0.3,0c0.2,0.1,0.3,0.3,0.2,0.4c0,0-0.6,0-0.7,0c-0.2-0.1,0.3-0.1,0.1-0.2c0,0-0.1,0-0.1,0c-0.1,0,0-0.1-0.2-0.1
			c0,0.1-0.5,0-0.1,0.1c-0.2,0-0.3,0-0.5-0.1c0.1,0.1-0.3,0.1-0.5,0c0,0,0-0.1,0-0.1c-0.2-0.1-0.4-0.2-0.6-0.3L14,28.8
			c-0.1-0.1-0.2-0.1-0.2-0.2c0,0-0.2-0.2-0.1-0.2c-0.1,0-0.1-0.1-0.2-0.2c-0.1-0.2,0.2,0.2,0.1,0c-0.1,0-0.3-0.2-0.4-0.4
			c0,0.1,0.3,0.4,0.4,0.5c0,0-0.1,0-0.3-0.1c-0.1-0.1-0.3-0.3-0.4-0.5c-0.3-0.3,0-0.2-0.1-0.2c-0.3-0.7-0.5-0.5-0.6-1.2
			c0-0.3,0.1,0,0.1-0.1c0.1,0.2,0.1,0.3,0.1,0.4c0,0,0,0,0,0c0,0.1,0.2,0.3,0.2,0.4c-0.1-0.2-0.4-1.2-0.4-1.8c0-0.1-0.1-0.3-0.1-0.2
			l0,0.2c0,0.2-0.1-0.3-0.1-0.1c0-0.2,0-0.5,0-0.9l0.1-0.1c0,0-0.1,0.2-0.1,0.3c0-0.1,0-0.2,0.1-0.3c0.1-0.1,0.1-0.3,0.1-0.3
			l-0.1,0.2c0.1-0.2,0-0.6,0.2-0.9c-0.1,0.1,0,0.1-0.2,0.3c0.1-0.2-0.2,0.8,0,0.5c-0.2,0.2-0.1,0.4-0.2,0.7c0,0,0.1-0.1,0,0.2
			c0,0,0,0,0,0.1l0,0c0,0,0,0,0,0c0,0,0,0,0,0c0-0.1,0-0.1,0-0.1c0,0.1,0,0.2,0,0.3c0,0.1,0,0.3,0.1,0.4c0,0.2,0-0.1,0,0l0.1,0.2
			c0,0,0,0.4-0.1,0.1c0,0,0,0.3,0.1,0.3c0,0.2,0.1,0.5,0.2,0.6c0,0.2,0.2,0.4,0.1,0.2l0.3,0.5l0,0c0.3,0.5,0.6,0.9,1.1,1.3
			c0.1,0.1,0.3,0.2,0.6,0.4l0,0.1c0.1,0,0.2,0.2,0.4,0.2c0.1,0.1,0.3,0.1,0.3,0.1c0.1,0.1,0.4,0.2,0.7,0.2c0.3,0,0.6,0,0.8,0l0-0.1
			c0.3,0,0.5-0.1,0.9-0.2l0,0c0.3-0.1,0.7-0.2,1.2-0.4c0,0-0.1,0.1-0.2,0.1c0.6-0.1,1-0.6,1.4-0.8c0.1-0.1,0.2-0.1,0.2-0.2
			c0,0,0,0,0,0c0,0,0,0,0,0c0,0,0.1-0.1,0.1-0.1c0,0-0.1,0.1-0.1,0.1c0.1-0.1,0.2-0.2,0.2-0.3l0.1,0c0,0,0,0,0,0
			c0.1-0.1,0.1-0.1,0-0.1c0-0.1,0.1-0.1,0.1-0.2c0.1,0,0.2-0.3,0.4-0.4c0-0.1,0.3-0.6,0.3-0.7c0,0,0,0,0,0c0.1-0.1,0.2-0.3,0.2-0.4
			l0.1,0l0.1-0.3c0.1-0.2,0.2-0.2,0.1,0c0.1-0.5,0.1-0.4,0.2-0.8l0,0c0.1-0.1,0.1-0.4,0.1-0.5c0.2-0.3,0.4-1.6,0.6-2.4
			c-0.1,0.1,0.1-0.4,0-0.4c0,0,0.1-0.2,0.1,0c0-0.4,0.1-0.7,0-1c0,0,0,0.1,0.1,0.1c0,0,0-0.1,0-0.2c0,0,0,0.1,0,0.1
			c0-0.5-0.1-0.5-0.2-0.5c0-0.2,0-0.3,0-0.5c0-0.1,0.1-0.2,0.1,0.1c0-0.2,0-1,0-1c0,0,0-0.2,0-0.3c0-0.3,0-0.4-0.1-0.7l0,0.1
			c-0.1-0.1,0-0.3-0.1-0.6l0,0c0-0.6-0.1-0.3-0.1-0.9l0,0c-0.1,0,0-0.6-0.2-0.9l0,0.1c-0.1-0.2,0-0.6,0-0.8c0,0,0,0.1,0.1,0.1
			c-0.1-0.5-0.1-0.1-0.2-0.4c0-0.1,0.1,0.1,0-0.2c0-0.1-0.3-0.7-0.4-1.1c0,0.1,0,0.2-0.1,0c-0.1-0.3-0.2-0.7-0.4-0.9
			c0,0,0-0.1,0-0.1c-0.1-0.2-0.4-0.6-0.5-0.7c0.1-0.3-0.9-1-0.7-1.1c0,0-0.1-0.1-0.2-0.2c-0.1-0.1-0.3-0.2-0.3-0.2l0,0
			c-0.3-0.3-0.5-0.4-0.6-0.4c-0.1-0.1,0,0,0,0c-0.5-0.4-0.6-0.4-1.1-0.5l0-0.1c-0.1,0-0.9-0.3-1.5-0.3c0,0,0,0,0.1,0
			c-0.3,0-0.8,0-1.1,0.1c-0.4,0.1-0.7,0.1-0.7,0.3L13.9,9.5c0.6-0.3,0,0,0.3,0C13.9,9.6,13.6,9.6,13.9,9.5L13.9,9.5z M11.3,13.8
			L11.3,13.8C11.3,13.9,11.3,13.8,11.3,13.8z M17.7,21.1c0,0-0.1,0-0.1-0.1C17.6,21.1,17.7,21.1,17.7,21.1z M17.4,21
			c0.1,0.1,0.2,0.1,0.1,0.1C17.4,21.1,17.4,21,17.4,21C17.3,21,17.4,21,17.4,21z M12.2,26.5L12.2,26.5
			C12.2,26.7,12.2,26.6,12.2,26.5z M21.4,14.3c0-0.1-0.1-0.2-0.1-0.3C21.4,14.1,21.4,14.2,21.4,14.3z"/>
		<path fill="#FFFFFF" d="M22.2,19.8C22.2,19.7,22.2,19.7,22.2,19.8C22.2,19.7,22.2,19.7,22.2,19.8z"/>
		<path fill="#FFFFFF" d="M17.4,9.6L17.4,9.6C17.4,9.6,17.3,9.6,17.4,9.6L17.4,9.6z"/>
		<path fill="#FFFFFF" d="M16.4,29.4c0,0,0,0-0.1,0C16.3,29.4,16.4,29.4,16.4,29.4z"/>
		<path fill="#FFFFFF" d="M12,24.3c0-0.1,0.1-0.2,0.1-0.2c0,0,0,0,0,0L12,24.3z"/>
		<path fill="#FFFFFF" d="M13.4,22.3C13.4,22.3,13.4,22.3,13.4,22.3L13.4,22.3C13.3,22.3,13.3,22.4,13.4,22.3z"/>
		<path fill="#FFFFFF" d="M12.3,23.8c0,0,0.1-0.2,0.1-0.3l0,0C12.4,23.5,12.3,23.7,12.3,23.8z"/>
		<path fill="#FFFFFF" d="M12.4,23.5c0,0,0-0.1,0.1-0.1C12.5,23.3,12.5,23.4,12.4,23.5z"/>
		<path fill="#FFFFFF" d="M12,25.6C12,25.5,12,25.5,12,25.6C11.9,25.4,12.1,26.1,12,25.6z"/>
		<polygon fill="#FFFFFF" points="12.4,23.9 12.5,23.7 12.4,23.8 		"/>
		<path fill="#FFFFFF" d="M12.2,25l0-0.3c0,0,0,0,0-0.1C12.2,24.9,12.2,25,12.2,25z"/>
		<path fill="#FFFFFF" d="M12.2,24.7c0-0.1,0-0.2,0-0.2C12.2,24.5,12.2,24.6,12.2,24.7z"/>
		<polygon fill="#FFFFFF" points="12.4,24.1 12.4,24.2 12.3,24.4 		"/>
		<path fill="#FFFFFF" d="M13,27.8l0.2,0.2c0,0,0-0.1-0.1-0.1C13,27.8,12.9,27.7,13,27.8z"/>
		<path fill="#FFFFFF" d="M12.7,27.1L12.7,27.1l0-0.1C12.7,27,12.7,27,12.7,27.1z"/>
		<path fill="#FFFFFF" d="M13.1,27.7C13.1,27.7,12.9,27.5,13.1,27.7C13.1,27.7,13.4,28,13.1,27.7z"/>
		<polygon fill="#FFFFFF" points="16.6,29.5 16.6,29.6 16.7,29.5 		"/>
		<path fill="#FFFFFF" d="M19.8,27.7c-0.2,0.2,0,0.1-0.2,0.3c0,0.1,0.2-0.2,0.1-0.1C19.9,27.7,20,27.6,19.8,27.7z"/>
		<path fill="#FFFFFF" d="M21,22.8L21,22.8c-0.1,0,0.1,0,0.1,0L21,22.8z"/>
		<path fill="#FFFFFF" d="M21.4,22.8l0.1-0.1C21.5,22.8,21.4,22.8,21.4,22.8L21.4,22.8z"/>
		<path fill="#FFFFFF" d="M21.4,14.8l0,0.2l0,0C21.5,14.9,21.5,14.9,21.4,14.8z"/>
		<polygon fill="#FFFFFF" points="20.4,12.3 20.4,12.2 20.4,12.2 		"/>
		<path fill="#FFFFFF" d="M18.8,10.5c0.1,0.1,0.2,0.1,0.2,0.2C18.9,10.5,18.8,10.4,18.8,10.5z"/>
		<polygon fill="#FFFFFF" points="22.2,9.9 22.2,9.9 22.2,9.9 		"/>
		<path fill="#FFFFFF" d="M22.2,9.9L22.2,9.9L22.2,9.9C22.2,9.9,22.3,9.9,22.2,9.9C22.3,9.9,22.2,9.9,22.2,9.9z"/>
		<path fill="#FFFFFF" d="M22.3,10C22.3,10,22.3,10,22.3,10C22.3,10,22.3,10,22.3,10L22.3,10z"/>
		<path fill="#FFFFFF" d="M22.3,10.1C22.3,10.1,22.3,10.1,22.3,10.1L22.3,10.1C22.3,10.1,22.3,10.1,22.3,10.1z"/>
		<path fill="#FFFFFF" d="M22.3,10C22.4,10,22.4,10,22.3,10C22.3,10,22.3,10,22.3,10L22.3,10z"/>
		<path fill="#FFFFFF" d="M22.3,10C22.3,10,22.3,10,22.3,10C22.3,10,22.3,10,22.3,10z"/>
		<path fill="#FFFFFF" d="M22.3,9.9L22.3,9.9C22.3,9.9,22.3,9.9,22.3,9.9L22.3,9.9z"/>
		<path fill="#FFFFFF" d="M22.4,10.2C22.4,10.1,22.4,10.1,22.4,10.2L22.4,10.2C22.4,10.1,22.4,10.1,22.4,10.2z"/>
		<polygon fill="#FFFFFF" points="22.4,10 22.3,10 22.4,10 		"/>
		<polygon fill="#FFFFFF" points="22.4,10.2 22.4,10.2 22.4,10.2 		"/>
		<path fill="#FFFFFF" d="M22.5,10.2C22.4,10.2,22.5,10.3,22.5,10.2C22.5,10.3,22.5,10.3,22.5,10.2C22.5,10.3,22.5,10.3,22.5,10.2z"
			/>
		<path fill="#FFFFFF" d="M22.4,10.2L22.4,10.2C22.4,10.2,22.4,10.2,22.4,10.2L22.4,10.2z"/>
		<path fill="#FFFFFF" d="M22.4,10.2L22.4,10.2C22.5,10.2,22.5,10.2,22.4,10.2C22.5,10.2,22.5,10.2,22.4,10.2z"/>
		<path fill="#FFFFFF" d="M22.4,10.1C22.4,10.1,22.4,10.1,22.4,10.1C22.4,10.1,22.4,10.1,22.4,10.1z"/>
		<path fill="#FFFFFF" d="M22.4,10.1L22.4,10.1L22.4,10.1C22.4,10.1,22.4,10.1,22.4,10.1z"/>
		<polygon fill="#FFFFFF" points="22.5,10.1 22.5,10.1 22.5,10.1 		"/>
		<path fill="#FFFFFF" d="M22.5,10.2C22.5,10.2,22.5,10.2,22.5,10.2C22.5,10.2,22.5,10.2,22.5,10.2C22.5,10.2,22.5,10.2,22.5,10.2z"
			/>
		<polygon fill="#FFFFFF" points="22.6,10.3 22.6,10.3 22.6,10.3 		"/>
		<path fill="#FFFFFF" d="M22.5,10.2L22.5,10.2L22.5,10.2C22.5,10.2,22.5,10.2,22.5,10.2z"/>
		<polygon fill="#FFFFFF" points="22.5,10.2 22.5,10.2 22.5,10.2 		"/>
		<path fill="#FFFFFF" d="M22.7,10.3C22.7,10.3,22.7,10.3,22.7,10.3C22.7,10.3,22.7,10.3,22.7,10.3L22.7,10.3
			C22.7,10.3,22.7,10.3,22.7,10.3C22.7,10.3,22.7,10.3,22.7,10.3C22.7,10.2,22.6,10.3,22.7,10.3C22.6,10.3,22.6,10.3,22.7,10.3
			C22.6,10.3,22.6,10.3,22.7,10.3z"/>
		<path fill="#FFFFFF" d="M22.6,10.3L22.6,10.3L22.6,10.3L22.6,10.3C22.6,10.3,22.6,10.3,22.6,10.3C22.6,10.3,22.6,10.3,22.6,10.3z"
			/>
		<path fill="#FFFFFF" d="M22.5,10.3L22.5,10.3L22.5,10.3L22.5,10.3L22.5,10.3L22.5,10.3L22.5,10.3L22.5,10.3
			C22.6,10.3,22.6,10.3,22.5,10.3C22.6,10.3,22.6,10.3,22.5,10.3C22.6,10.2,22.6,10.2,22.5,10.3C22.6,10.3,22.5,10.2,22.5,10.3
			C22.5,10.3,22.5,10.3,22.5,10.3L22.5,10.3L22.5,10.3z"/>
		<path fill="#FFFFFF" d="M22.5,10.1C22.5,10.1,22.5,10.1,22.5,10.1C22.5,10,22.5,10,22.5,10.1C22.5,10,22.5,10,22.5,10.1L22.5,10.1
			C22.5,10.1,22.5,10.1,22.5,10.1C22.5,10.1,22.5,10.1,22.5,10.1z"/>
		<path fill="#FFFFFF" d="M22.6,10.2L22.6,10.2C22.5,10.1,22.5,10.2,22.6,10.2L22.6,10.2L22.6,10.2z"/>
		<polygon fill="#FFFFFF" points="22.6,10.3 22.6,10.3 22.6,10.3 		"/>
		<polygon fill="#FFFFFF" points="22.6,10.4 22.6,10.4 22.6,10.4 		"/>
		<path fill="#FFFFFF" d="M23,11.4L23,11.4C23,11.4,23,11.4,23,11.4C23,11.4,23,11.4,23,11.4z"/>
		<polygon fill="#FFFFFF" points="23.3,12.1 23.3,12.1 23.3,12.1 		"/>
		<path fill="#FFFFFF" d="M22.8,10.8L22.8,10.8C22.8,10.8,22.8,10.8,22.8,10.8C22.8,10.8,22.8,10.8,22.8,10.8z"/>
		<polygon fill="#FFFFFF" points="22.7,10.5 22.7,10.5 22.7,10.5 		"/>
		<polygon fill="#FFFFFF" points="23.3,11.5 23.3,11.5 23.3,11.5 		"/>
		<path fill="#FFFFFF" d="M23.3,11.6C23.3,11.6,23.3,11.6,23.3,11.6L23.3,11.6L23.3,11.6z"/>
		<path fill="#FFFFFF" d="M23.5,13.6C23.5,13.6,23.5,13.6,23.5,13.6C23.5,13.6,23.5,13.6,23.5,13.6z"/>
		<path fill="#FFFFFF" d="M23.4,11.9C23.4,11.9,23.4,11.9,23.4,11.9L23.4,11.9C23.4,11.9,23.4,11.9,23.4,11.9c0-0.1,0-0.1,0-0.1
			c0,0,0,0,0,0c0,0-0.1,0,0-0.1c0,0,0,0,0,0c0,0,0-0.1,0,0l0,0c0,0,0-0.1-0.1-0.1c0,0,0.1,0,0.1,0l-0.2,0c0,0,0.1,0,0.1,0
			c0,0,0,0,0,0c0,0-0.1,0-0.1,0c0,0,0,0,0-0.1c0,0-0.1,0-0.1,0c0,0,0.1,0,0.1,0l-0.1,0c0,0,0,0,0.1,0c0,0,0,0,0,0l0,0
			c0,0-0.1,0-0.1-0.1c0,0,0.1,0,0.1,0c0,0-0.2,0-0.2,0l0,0l0,0c0,0,0.2,0,0.2,0.1c0,0,0,0,0,0c0,0,0,0,0,0l0-0.1c0,0,0,0-0.1,0
			l0.1,0.1c0,0-0.1,0-0.1-0.1c0,0,0.1,0,0.1,0c0,0,0,0,0,0l0,0c0,0-0.1,0,0-0.1c0,0,0,0,0,0c0,0-0.1,0.1-0.2,0.1c0,0,0-0.1,0-0.1
			c0,0,0.1,0,0.1,0c0,0,0,0,0,0c0,0,0,0,0,0c0,0,0,0,0,0c0,0,0,0,0,0c0,0-0.1,0-0.1,0c0,0,0,0,0,0c0,0,0-0.1,0-0.1c0,0,0,0,0,0
			c0,0,0,0,0,0c0,0,0,0,0,0c0,0,0,0-0.1,0c0,0,0,0,0,0.1c0,0-0.1,0-0.1,0c0,0,0,0,0,0c0-0.1-0.1,0-0.1-0.1c0,0,0,0,0.1,0
			c0,0,0,0,0,0.1l0,0c0,0,0,0,0,0c0,0,0-0.1-0.1-0.2c0,0,0,0,0,0l0,0c0,0,0,0,0,0c0,0-0.1,0-0.1,0l0,0c0,0,0,0,0,0c0,0,0-0.1,0-0.1
			l0,0c0,0-0.1,0-0.1,0c0,0,0,0,0,0c0,0,0,0.1,0.1,0c0,0,0,0.3,0,0.3c0,0,0,0.2,0,0.2H23v-0.5V11h-0.2l0-0.3c0,0,0-0.1,0-0.1
			c0,0,0-0.1,0,0l0,0c0,0,0,0,0,0l0,0c0,0,0,0,0,0c0,0,0,0,0,0l0,0l0,0c0,0,0.1,0.1,0,0.1c0,0,0,0,0,0l0,0c0,0,0,0.1,0,0.1
			c0,0,0,0.1,0,0.1l0,0c0,0,0,0,0,0.1l0,0c0,0,0,0.1,0,0.1c0,0,0,0,0,0c0,0.1,0.1,0.1,0,0.1c0,0,0,0,0,0l0,0v0l0,0c0,0,0,0,0,0
			c0,0,0,0,0,0l0,0l0,0c0,0,0,0,0,0l0,0c0,0,0,0,0,0c0,0,0,0.1,0.1,0.1c0,0,0,0,0,0c0,0,0,0,0,0l0,0l0,0c0,0,0,0-0.1,0
			c0,0,0,0,0.1,0.1l0,0c0,0,0,0,0,0c0,0,0,0.1,0,0.2c0.1,0,0,0,0,0c0,0,0,0,0,0c0,0,0,0.1,0,0.1c0,0,0,0,0,0c0,0,0,0,0,0
			c0,0,0,0,0,0c0,0,0.1,0,0.1,0c0,0,0,0,0,0c0,0,0,0,0,0c0,0,0,0.1,0,0.1c0,0,0,0,0,0c0,0,0,0,0,0.1l0,0.3c0,0,0,0.4,0,0.4h0
			c0,0,0-0.3,0-0.3l0-0.2c0.1,0,0,0,0,0l0-0.1c0,0-0.1,0-0.1,0c0,0,0,0,0,0c0,0,0,0,0,0c0,0,0,0,0,0c0,0,0.1,0.1,0,0.1c0,0,0,0,0,0
			c0,0,0,0.1,0,0.1l0,0c0,0,0,0.1,0,0.1c-0.1,0,0,0.1,0,0.1l0,0.1l0,0c0,0,0,0,0,0.1c0,0,0,0,0,0c0,0.1,0,0.1,0,0.1l0,0
			c0,0,0,0.1,0,0.1c0,0,0,0,0,0c0,0.1-0.1,0.1,0,0.2l0,0c0,0,0,0,0.1,0c0,0,0,0,0,0c0,0,0,0.1,0,0.1c0,0.1,0,0.2,0,0.3l0,0l0,0
			c0,0,0,0,0,0c0,0,0,0,0,0c0,0,0,0,0,0l0,0l0,0c0,0,0,0,0,0c0,0,0,0,0,0c0,0,0,0,0,0l0,0l0,0c0,0,0,0,0,0c-0.1,0,0,0.1,0,0.2
			c0,0,0,0.1,0,0.1c0,0,0,0,0,0c-0.1,0,0,0-0.1,0.1c0,0,0,0.1,0.1,0c0,0,0,0,0,0c0,0.1,0,0.1,0,0.2c0,0,0,0,0,0l0,0c0,0,0.1,0,0,0
			c0,0,0,0,0,0c-0.1,0.1,0,0.3-0.1,0.4c0,0,0,0,0,0c0,0,0,0,0,0l0,0c0,0,0,0.1,0,0.1l0,0c0,0,0.1,0,0.1,0c0,0,0.1-0.1,0-0.1
			c0,0,0,0,0,0c0,0,0,0,0,0l0,0c0-0.1,0-0.1,0.1-0.2l0,0c0,0,0,0,0,0c0,0,0,0,0,0c0.1,0,0-0.1,0.1-0.1c0,0,0,0,0,0l0,0l0,0
			c0,0,0,0,0,0l0,0c0,0,0-0.1,0-0.1l0,0c0-0.1,0-0.1,0-0.2l0,0c0-0.1,0,0,0-0.1l0,0c0,0,0,0,0,0c0,0,0,0,0,0c0-0.1,0,0-0.1-0.1l0,0
			c0,0,0,0,0,0c0,0,0,0,0.1,0c0-0.1,0-0.1,0-0.1c-0.1,0,0,0,0,0c0,0,0,0,0,0c0,0,0.1,0,0.1-0.1l0,0c0,0,0,0,0-0.1c0,0,0,0,0,0l0,0
			c0,0-0.1,0,0-0.1c0,0,0,0,0,0c0,0,0,0,0,0c0,0,0,0.1,0,0.1c0,0,0-0.1,0,0c-0.1,0,0,0,0-0.1l0,0c0,0,0,0,0,0l0,0c0,0,0,0,0-0.1
			c0,0.1,0,0,0,0c0-0.1,0-0.1,0-0.1c0,0,0,0,0,0c0,0,0,0,0,0c0,0,0,0.2,0,0.2c0,0,0,0.2,0,0.2h0c0,0-0.1-0.2,0-0.3l0,0.2l0,0.1h0
			c0,0,0-0.3,0-0.3c0,0,0-0.1,0-0.2c0,0,0-0.1,0-0.1c0,0,0,0,0,0l0,0c0,0,0-0.1,0-0.1l0,0l0-0.1c0,0,0,0,0,0c0,0,0,0,0,0
			c0,0,0,0,0,0l0,0c0,0,0,0,0,0c0,0,0-0.1,0-0.1c0,0,0,0,0,0c0,0,0-0.1,0-0.1l0,0c0,0,0,0-0.1,0c0,0,0,0,0,0c0,0-0.1,0,0-0.1
			c0,0,0,0,0,0l0,0c0,0,0,0.1,0.1,0c-0.1,0,0-0.1-0.1-0.1l0,0c0,0,0,0,0-0.1c0,0,0,0,0,0l0,0c0,0,0,0.2,0,0.2l0,0.1h0
			c0,0,0-0.2,0-0.2c0,0,0-0.1,0-0.1l0-0.1c0,0,0,0,0,0c0.1,0,0,0,0-0.1l0,0c0,0,0,0,0-0.1c0,0-0.1,0.1-0.1,0c0,0,0,0.2,0,0.2
			c0,0,0,0.2,0,0.2h0c0,0,0-0.3,0-0.3c0,0,0-0.2,0-0.2c0,0,0,0,0-0.1c0,0,0-0.1,0-0.1c0,0,0,0,0,0l0,0l0,0c0,0,0,0,0,0
			c0,0,0-0.1,0-0.1c0,0,0,0,0,0c0,0,0,0-0.1-0.1l0,0c0,0-0.1,0-0.1,0c0,0,0,0,0,0l0,0c0,0,0,0,0,0l0,0c0,0,0,0,0,0l0,0
			c0,0,0,0,0.1,0c0,0,0,0,0,0c0,0,0,0,0,0S23.4,12,23.4,11.9L23.4,11.9L23.4,11.9L23.4,11.9C23.3,11.9,23.3,11.9,23.4,11.9
			C23.3,11.9,23.3,11.9,23.4,11.9C23.3,11.9,23.4,11.9,23.4,11.9z M23.4,12.6C23.4,12.6,23.5,12.6,23.4,12.6
			C23.4,12.6,23.4,12.6,23.4,12.6z"/>
		<path fill="#FFFFFF" d="M23.5,12.8L23.5,12.8C23.5,12.8,23.5,12.8,23.5,12.8L23.5,12.8z"/>
		<polygon fill="#FFFFFF" points="23.3,13.5 23.3,13.5 23.3,13.5 		"/>
		<polygon fill="#FFFFFF" points="23.5,13.1 23.5,13.1 23.5,13.1 		"/>
		<path fill="#FFFFFF" d="M22.7,10.5C22.6,10.5,22.6,10.5,22.7,10.5C22.6,10.4,22.6,10.5,22.7,10.5L22.7,10.5z"/>
		<path fill="#FFFFFF" d="M22.7,10.2L22.7,10.2C22.7,10.2,22.7,10.2,22.7,10.2L22.7,10.2z"/>
		<path fill="#FFFFFF" d="M22.7,10.4C22.7,10.4,22.7,10.4,22.7,10.4C22.7,10.4,22.7,10.4,22.7,10.4z"/>
		<polygon fill="#FFFFFF" points="22.7,10.4 22.7,10.4 22.7,10.4 		"/>
		<path fill="#FFFFFF" d="M22.7,10.5C22.7,10.6,22.8,10.6,22.7,10.5C22.7,10.5,22.7,10.6,22.7,10.5z"/>
		<polygon fill="#FFFFFF" points="22.7,10.4 22.8,10.4 22.7,10.3 		"/>
		<path fill="#FFFFFF" d="M22.8,10.4L22.8,10.4C22.8,10.4,22.8,10.5,22.8,10.4L22.8,10.4z"/>
		<polygon fill="#FFFFFF" points="22.8,10.4 22.8,10.4 22.8,10.4 		"/>
		<path fill="#FFFFFF" d="M22.9,10.7L22.9,10.7C22.9,10.7,22.9,10.7,22.9,10.7C22.9,10.7,22.9,10.7,22.9,10.7z"/>
		<path fill="#FFFFFF" d="M22.9,10.6L22.9,10.6L22.9,10.6C22.9,10.6,22.9,10.6,22.9,10.6z"/>
		<path fill="#FFFFFF" d="M23,10.6C23,10.6,23,10.7,23,10.6C23,10.6,23,10.6,23,10.6z"/>
		<polygon fill="#FFFFFF" points="23.1,11 23.1,11 23,11 		"/>
		<path fill="#FFFFFF" d="M23.3,11.3C23.3,11.3,23.3,11.3,23.3,11.3C23.3,11.3,23.3,11.3,23.3,11.3C23.3,11.3,23.3,11.3,23.3,11.3z"
			/>
		<polygon fill="#FFFFFF" points="23.1,15.1 23.1,15.1 23.1,15.1 		"/>
		<path fill="#FFFFFF" d="M23.1,15.1L23.1,15.1L23.1,15.1C23.1,15.1,23.1,15.1,23.1,15.1z"/>
		<path fill="#FFFFFF" d="M23.5,12.5C23.5,12.5,23.5,12.5,23.5,12.5L23.5,12.5L23.5,12.5z"/>
		<polygon fill="#FFFFFF" points="23.5,12.8 23.5,12.8 23.5,12.8 		"/>
		<path fill="#FFFFFF" d="M23.5,13L23.5,13C23.5,13,23.5,13,23.5,13z"/>
		<polygon fill="#FFFFFF" points="27.5,9 27.4,9.1 27.5,9.1 		"/>
		<path fill="#FFFFFF" d="M27.4,9.1L27.4,9.1L27.4,9.1C27.4,9.1,27.3,9.1,27.4,9.1C27.3,9.1,27.4,9.1,27.4,9.1z"/>
		<path fill="#FFFFFF" d="M27.2,9C27.2,9,27.2,9,27.2,9C27.2,9,27.2,9,27.2,9L27.2,9z"/>
		<path fill="#FFFFFF" d="M27.1,9C27.1,9,27.1,9,27.1,9C27.1,9,27.1,9,27.1,9L27.1,9z"/>
		<path fill="#FFFFFF" d="M27.1,9L27.1,9C27.1,9.1,27.1,9.1,27.1,9C27.1,9.1,27.1,9.1,27.1,9z"/>
		<path fill="#FFFFFF" d="M27.2,9.1C27.2,9.1,27.2,9,27.2,9.1C27.2,9,27.2,9,27.2,9.1z"/>
		<path fill="#FFFFFF" d="M27.3,9.1C27.3,9.1,27.3,9.1,27.3,9.1L27.3,9.1L27.3,9.1z"/>
		<path fill="#FFFFFF" d="M27,9.1C27,9.1,27,9.1,27,9.1C27,9.1,27,9.1,27,9.1L27,9.1z"/>
		<polygon fill="#FFFFFF" points="27.1,9.1 27.1,9.1 27.1,9.1 		"/>
		<polygon fill="#FFFFFF" points="26.9,9.1 26.9,9.1 26.9,9.1 		"/>
		<path fill="#FFFFFF" d="M26.8,9.1C26.8,9.1,26.8,9.2,26.8,9.1C26.8,9.2,26.8,9.2,26.8,9.1C26.8,9.1,26.8,9.1,26.8,9.1z"/>
		<path fill="#FFFFFF" d="M26.9,9.1L26.9,9.1L26.9,9.1C26.9,9.2,26.9,9.1,26.9,9.1z"/>
		<path fill="#FFFFFF" d="M26.9,9.2L26.9,9.2C26.9,9.2,26.9,9.2,26.9,9.2C26.9,9.2,26.9,9.2,26.9,9.2z"/>
		<path fill="#FFFFFF" d="M27,9.1C27,9.1,27,9.2,27,9.1C27,9.2,27,9.2,27,9.1z"/>
		<path fill="#FFFFFF" d="M27,9.1L27,9.1L27,9.1C27,9.2,27,9.2,27,9.1z"/>
		<polygon fill="#FFFFFF" points="26.9,9.2 26.9,9.2 26.9,9.2 		"/>
		<path fill="#FFFFFF" d="M26.8,9.2C26.8,9.2,26.8,9.2,26.8,9.2C26.8,9.2,26.8,9.2,26.8,9.2C26.8,9.2,26.8,9.2,26.8,9.2z"/>
		<polygon fill="#FFFFFF" points="26.6,9.3 26.6,9.3 26.6,9.3 		"/>
		<path fill="#FFFFFF" d="M26.8,9.2C26.8,9.2,26.8,9.2,26.8,9.2L26.8,9.2C26.8,9.2,26.8,9.2,26.8,9.2z"/>
		<polygon fill="#FFFFFF" points="26.8,9.2 26.8,9.2 26.8,9.2 		"/>
		<path fill="#FFFFFF" d="M26.7,9.4C26.6,9.4,26.6,9.4,26.7,9.4C26.6,9.4,26.6,9.4,26.7,9.4L26.7,9.4C26.7,9.4,26.7,9.5,26.7,9.4
			C26.7,9.4,26.7,9.4,26.7,9.4C26.7,9.4,26.7,9.3,26.7,9.4C26.6,9.3,26.6,9.3,26.7,9.4C26.6,9.4,26.7,9.3,26.7,9.4z"/>
		<path fill="#FFFFFF" d="M26.7,9.3L26.7,9.3C26.7,9.3,26.7,9.3,26.7,9.3C26.6,9.3,26.6,9.3,26.7,9.3L26.7,9.3L26.7,9.3z"/>
		<path fill="#FFFFFF" d="M26.7,9.3C26.8,9.3,26.7,9.3,26.7,9.3C26.7,9.3,26.8,9.2,26.7,9.3C26.7,9.2,26.7,9.2,26.7,9.3
			C26.7,9.2,26.7,9.2,26.7,9.3L26.7,9.3L26.7,9.3L26.7,9.3L26.7,9.3L26.7,9.3L26.7,9.3L26.7,9.3L26.7,9.3
			C26.7,9.3,26.7,9.3,26.7,9.3C26.7,9.3,26.7,9.3,26.7,9.3z"/>
		<path fill="#FFFFFF" d="M27,9.2C27,9.2,27,9.2,27,9.2C27,9.2,27,9.2,27,9.2C27,9.2,27,9.2,27,9.2L27,9.2C27,9.2,27,9.2,27,9.2
			C27,9.2,27,9.2,27,9.2z"/>
		<path fill="#FFFFFF" d="M26.8,9.3L26.8,9.3L26.8,9.3C26.9,9.3,26.9,9.3,26.8,9.3L26.8,9.3z"/>
		<polygon fill="#FFFFFF" points="26.6,9.3 26.6,9.3 26.6,9.3 		"/>
		<polygon fill="#FFFFFF" points="26.6,9.3 26.5,9.3 26.6,9.3 		"/>
		<path fill="#FFFFFF" d="M25.5,10.4L25.5,10.4C25.5,10.4,25.6,10.4,25.5,10.4C25.5,10.4,25.5,10.4,25.5,10.4z"/>
		<polygon fill="#FFFFFF" points="25.2,11.4 25.2,11.4 25.2,11.3 		"/>
		<path fill="#FFFFFF" d="M26,9.8L26,9.8C26,9.8,26,9.8,26,9.8C26,9.8,26,9.8,26,9.8z"/>
		<path fill="#FFFFFF" d="M26.4,9.5C26.4,9.5,26.4,9.5,26.4,9.5L26.4,9.5L26.4,9.5z"/>
		<polygon fill="#FFFFFF" points="25.6,10.8 25.6,10.8 25.6,10.8 		"/>
		<path fill="#FFFFFF" d="M25.6,10.9C25.6,10.8,25.6,10.8,25.6,10.9L25.6,10.9L25.6,10.9z"/>
		<path fill="#FFFFFF" d="M24,15L24,15c0,0.1-0.1,0.1,0,0.1l0,0c0,0,0.1,0,0.1,0c0,0,0.1-0.1,0-0.1c0,0,0,0,0,0c0,0,0,0,0-0.1l0,0
			c0-0.1,0-0.1,0.1-0.2l0,0c0,0,0,0,0,0c0,0,0,0.1,0,0c0.1,0,0-0.1,0.1-0.1c0,0,0,0,0,0l0,0l0,0c0,0,0,0,0,0c0,0,0,0,0,0
			c0,0,0-0.1,0-0.1l0,0c0-0.1,0-0.2,0-0.3l0,0c0-0.1,0,0,0-0.1l0,0c0,0,0,0,0-0.1c0,0,0,0,0,0c0-0.1,0,0,0-0.1l0,0c0,0,0,0,0-0.1
			c0,0,0,0,0,0c0.1-0.1,0-0.1,0.1-0.1c0,0,0,0.1-0.1,0c0,0,0,0,0-0.1c0,0,0.1,0,0.1-0.1c0,0,0,0,0,0c0,0,0,0,0-0.1c0,0,0,0,0,0
			l0,0.1c0,0,0-0.1,0-0.1c0,0,0,0,0,0c0,0,0,0,0,0c0,0,0,0.1,0,0.1c0,0,0-0.1,0,0c0,0,0-0.1,0-0.1l0,0c0,0,0,0,0,0l0,0
			c0,0,0-0.1,0-0.1c0,0.1,0,0-0.1,0c0-0.1,0-0.1,0.1-0.1c0,0,0,0,0,0c0,0,0,0,0,0c0-0.1,0,0,0,0c0,0,0,0,0-0.1l0,0c0-0.1,0,0,0-0.1
			l0,0l0,0l0,0c0,0,0,0,0-0.1c0,0,0,0,0,0c0,0,0,0,0,0c0,0,0,0,0,0l0,0c0,0,0-0.1,0-0.1c0,0,0,0,0,0l0-0.1c0,0,0,0,0,0c0,0,0,0,0,0
			c0,0,0,0,0,0l0-0.1c0,0,0,0,0,0c0,0,0-0.1,0-0.1c0,0,0,0,0,0c0,0,0.1-0.1,0-0.1l0,0c0,0-0.1,0,0,0c0,0,0,0,0,0c0,0,0-0.1,0-0.1
			c0,0,0,0,0,0l0,0c0,0,0,0.1,0,0.1c-0.1,0,0-0.1,0-0.1l0,0c0,0,0,0,0-0.1c0,0,0,0,0,0l0,0c0,0,0,0,0,0l0-0.1l0,0c0,0,0,0,0,0
			c0,0,0,0,0,0l0,0c0,0,0,0,0,0c0.1,0,0,0,0.1-0.1l0,0c0,0,0,0,0.1-0.1c0,0-0.1,0-0.1,0c0,0,0,0,0,0c0,0,0,0,0,0l0,0c0,0,0,0,0-0.1
			c0,0,0,0,0.1,0c0,0,0,0,0,0c0,0,0-0.1,0-0.1c0,0,0,0,0,0l0,0c0,0,0,0,0,0c0,0,0,0,0,0c0,0,0.1,0,0.1-0.1c0,0,0,0,0,0
			c0-0.1,0,0,0-0.1l0,0c0,0,0,0-0.1-0.1c0,0,0,0,0,0l0-0.1c0,0,0,0,0,0l0,0c0,0,0,0,0,0l0,0c0,0,0,0,0,0c0,0,0,0,0,0c0,0,0,0,0,0
			s0,0,0,0l0,0l0,0l0,0c0-0.1,0-0.1,0-0.2c0,0,0,0,0.1,0c0,0,0,0.1,0,0.1c0,0,0,0,0,0l0-0.1c0,0,0,0,0,0c-0.1,0,0-0.1,0-0.1
			c0,0,0,0,0,0c0.1,0,0-0.1,0-0.1c0,0,0,0,0,0c0,0,0-0.1,0,0l0,0c0,0,0.1-0.1,0-0.2c0,0,0,0,0,0l-0.1-0.2c0,0,0.1,0,0.1,0.1
			c0,0,0,0,0,0c0,0-0.1,0-0.1,0c0.1,0,0,0,0.1,0c0,0-0.1,0,0-0.1c0,0,0.1,0,0.1,0l0-0.1c0,0,0,0,0.1,0c0,0,0,0,0-0.1l0,0
			c0,0,0-0.1,0-0.1c0,0,0.1,0.1,0.1,0c0,0-0.1-0.1-0.1-0.2l0,0l0,0c0,0,0.1,0.2,0.1,0.2c0,0,0,0,0,0c0,0,0,0,0,0l0.1-0.1
			c0,0,0-0.1,0-0.1l0,0.1c0,0-0.1-0.1,0-0.1c0,0,0,0,0.1,0.1c0,0,0-0.1,0-0.1l0,0c0,0,0-0.1,0-0.1c0,0,0.1,0,0,0
			c0,0-0.1-0.1-0.2-0.1c0,0,0.1,0,0.1,0c0,0,0,0.1,0.1,0.1c0,0,0,0,0,0c0,0,0,0,0,0c0,0,0,0,0,0c0,0,0,0,0,0c0,0,0-0.1,0-0.1
			c0,0,0,0,0,0c0,0,0.1-0.1,0.1-0.1c0,0,0,0,0,0c0,0,0,0,0,0c0,0,0,0,0,0c0,0,0-0.1,0-0.1c0,0,0,0,0,0.1c0,0,0-0.1,0-0.1
			c0,0,0,0,0,0c0.1-0.1,0-0.1,0.1-0.1c0,0,0,0,0.1,0.1c0,0-0.1,0-0.1,0l0,0c0,0,0,0,0,0c0,0,0.1-0.1,0.2-0.1c0,0,0,0,0,0l0,0
			c0,0,0,0,0,0c0,0,0-0.1,0.1-0.1l0,0c0,0,0,0.3,0,0.3c0,0,0.1,0.2,0.1,0.2h0c0,0,0-0.3,0.1-0.4c0,0,0-0.1,0-0.1c0,0-0.1,0,0,0
			c0,0,0.3,0,0.2,0c0,0,0.3,0,0.3,0V10h-0.6H27V9.6c0,0-0.3,0-0.3,0c0,0-0.2,0-0.2,0.1c0,0-0.1,0-0.1,0l0,0c0,0-0.1,0-0.1,0l0,0
			c0,0-0.1,0-0.1,0c0,0,0,0.1,0,0l0,0.1l0,0c0,0-0.1,0.1-0.1,0.1c0,0,0,0,0,0.1l0,0c0,0-0.1,0-0.1,0.1c-0.1,0-0.1,0.1-0.1,0.1l0,0
			c0,0,0,0.1,0,0.1l0,0c0,0-0.1,0.1-0.1,0.1c0,0,0,0,0,0c-0.1,0,0,0.1-0.1,0.1c0,0,0,0,0,0l0,0l0,0l0,0c0,0,0,0,0,0c0,0,0,0,0,0l0,0
			l0,0c0,0,0,0,0,0l0,0c0,0,0,0-0.1,0c0,0,0,0.1,0,0.1c0,0,0,0,0,0c0,0,0,0,0,0l0,0l0,0.1c0,0,0,0-0.1,0c0,0.1,0,0,0,0.1l0,0
			c0,0,0,0.1,0,0.1c-0.1,0-0.1,0.2-0.2,0.2c0.1,0,0,0,0,0.1c0,0,0,0,0,0c0,0.1-0.1,0.1,0,0.1c0,0,0,0,0,0c0,0,0,0,0,0c0,0,0,0,0,0
			c0,0,0,0.1,0.1,0.1c0,0,0,0,0,0.1c0,0,0,0,0,0c0,0-0.1,0.1,0,0.1c0,0,0,0,0,0c0,0,0,0,0,0.1l0,0c0,0,0,0,0,0.1l0,0
			c-0.1,0.1,0,0-0.1,0.1l0,0c0,0-0.1,0,0,0.1l0,0c0,0-0.1,0-0.1,0c0,0,0,0,0,0c-0.1,0,0,0,0,0.1c0,0,0,0-0.1,0c0,0,0,0.1,0,0.1
			c0,0,0,0,0,0c0,0-0.1,0.1-0.1,0.1c0,0,0,0,0,0c0,0,0,0.1,0,0.1c-0.1,0,0,0.2-0.1,0.1l0,0.1l0,0c0,0,0,0.1,0,0.1c0,0,0,0,0,0
			c0,0.1,0,0.1,0,0.1l0,0c0,0-0.1,0.1-0.1,0.2c0,0,0,0,0,0c0,0.1-0.1,0.2,0,0.2l0,0.1c0-0.1,0,0,0.1,0c0,0,0,0.1,0,0
			c0,0,0,0.1-0.1,0.1c0,0.1-0.1,0.3-0.1,0.3l0,0l0,0c0,0,0,0,0,0c0,0,0,0.1,0,0.1c0,0.1,0,0,0,0l0,0l0,0c0,0,0,0,0,0.1c0,0,0,0,0,0
			c0,0,0,0,0,0l0,0l0,0c0,0,0,0,0,0c-0.1,0-0.1,0.2-0.1,0.2c0,0,0,0.1,0,0.1c0,0,0,0,0,0c-0.1,0,0,0.1-0.1,0.1c0,0,0,0.1,0,0.1
			c0,0,0,0,0,0c0,0.1-0.1,0.1-0.1,0.2c0,0,0,0,0,0l-0.1,0c0,0,0,0,0,0c0,0,0,0,0,0C24,14.6,24,14.8,24,15C23.9,14.9,23.9,14.9,24,15
			C24,14.9,24,15,24,15z M25,12C25,12,25.1,12,25,12C25,12,25,12,25,12z"/>
		<path fill="#FFFFFF" d="M24.6,13.2C24.6,13.3,24.6,13.3,24.6,13.2C24.6,13.3,24.6,13.3,24.6,13.2z"/>
		<path fill="#FFFFFF" d="M24.9,12.3L24.9,12.3C24.9,12.3,25,12.3,24.9,12.3C24.9,12.3,24.9,12.3,24.9,12.3z"/>
		<polygon fill="#FFFFFF" points="24.5,13 24.5,13 24.5,13 		"/>
		<polygon fill="#FFFFFF" points="24.8,12.7 24.8,12.7 24.8,12.7 		"/>
		<path fill="#FFFFFF" d="M26.5,9.4L26.5,9.4C26.5,9.4,26.5,9.4,26.5,9.4C26.5,9.4,26.5,9.4,26.5,9.4z"/>
		<path fill="#FFFFFF" d="M26.7,9.4L26.7,9.4C26.7,9.4,26.7,9.4,26.7,9.4L26.7,9.4z"/>
		<polygon fill="#FFFFFF" points="26.6,9.4 26.6,9.4 26.6,9.4 		"/>
		<path fill="#FFFFFF" d="M26.5,9.4C26.5,9.5,26.6,9.4,26.5,9.4C26.6,9.4,26.5,9.4,26.5,9.4z"/>
		<path fill="#FFFFFF" d="M26.3,9.5C26.3,9.5,26.3,9.6,26.3,9.5C26.3,9.5,26.3,9.5,26.3,9.5z"/>
		<polygon fill="#FFFFFF" points="26.6,9.5 26.6,9.5 26.6,9.5 		"/>
		<path fill="#FFFFFF" d="M26.5,9.6C26.5,9.6,26.5,9.5,26.5,9.6C26.5,9.6,26.4,9.6,26.5,9.6L26.5,9.6z"/>
		<polygon fill="#FFFFFF" points="26.6,9.5 26.5,9.5 26.5,9.5 		"/>
		<path fill="#FFFFFF" d="M26.2,9.8C26.2,9.8,26.2,9.8,26.2,9.8L26.2,9.8C26.2,9.8,26.2,9.8,26.2,9.8z"/>
		<path fill="#FFFFFF" d="M26.3,9.8C26.3,9.8,26.3,9.8,26.3,9.8L26.3,9.8L26.3,9.8z"/>
		<path fill="#FFFFFF" d="M26.3,9.9C26.3,9.8,26.3,9.8,26.3,9.9C26.3,9.8,26.3,9.9,26.3,9.9z"/>
		<polygon fill="#FFFFFF" points="25.9,10.2 25.9,10.1 25.9,10.2 		"/>
		<path fill="#FFFFFF" d="M25.8,10.6C25.8,10.6,25.7,10.6,25.8,10.6C25.8,10.5,25.8,10.6,25.8,10.6C25.7,10.6,25.7,10.6,25.8,10.6z"
			/>
		<polygon fill="#FFFFFF" points="23.9,15.1 23.9,15.1 23.9,15.1 		"/>
		<path fill="#FFFFFF" d="M23.9,15.1C23.9,15.1,23.9,15.1,23.9,15.1L23.9,15.1L23.9,15.1z"/>
		<path fill="#FFFFFF" d="M25.1,11.9L25.1,11.9C25.1,11.9,25.1,11.9,25.1,11.9L25.1,11.9z"/>
		<polygon fill="#FFFFFF" points="25,12.2 25,12.2 25,12.2 		"/>
		<path fill="#FFFFFF" d="M24.9,12.5L24.9,12.5C24.9,12.5,24.9,12.5,24.9,12.5z"/>
	</g>
</g>
</svg>
