<?xml version="1.0" encoding="utf-8"?>
<!-- Generator: Adobe Illustrator 18.1.0, SVG Export Plug-In . SVG Version: 6.00 Build 0)  -->
<!DOCTYPE svg PUBLIC "-//W3C//DTD SVG 1.1//EN" "http://www.w3.org/Graphics/SVG/1.1/DTD/svg11.dtd">
<svg version="1.1" xmlns="http://www.w3.org/2000/svg" xmlns:xlink="http://www.w3.org/1999/xlink" x="0px" y="0px"
	 viewBox="0 0 41 41" enable-background="new 0 0 41 41" xml:space="preserve">
<g id="BG" display="none">
	<rect x="-162" y="-61.2" display="inline" fill="#CECECE" width="273" height="204.2"/>
</g>
<g id="icons">
	<g id="facebook_logo">
	</g>
	<g id="twitter_logo">
	</g>
	<g id="instagram_logo">
	</g>
	<g>
		<circle fill="#FA8E47" cx="20.5" cy="20.5" r="20.5"/>
		<g>
			<path fill="#FFFFFF" d="M24.3,3.5c-0.3,0-0.1,0-0.1,0C24.3,3.6,24.3,3.5,24.3,3.5z"/>
			<polygon fill="#FFFFFF" points="21.6,3.4 21.2,3.4 21.5,3.4 			"/>
			<path fill="#FFFFFF" d="M20.4,3.4L20.4,3.4l0.3,0c-0.5,0-1.2,0.1-1.6,0.1C19.2,3.5,19.9,3.4,20.4,3.4z"/>
			<path fill="#FFFFFF" d="M17.9,3.5c-0.1,0-0.1,0-0.3,0C17.7,3.5,17.4,3.6,17.9,3.5C17.9,3.5,17.9,3.5,17.9,3.5z"/>
			<path fill="#FFFFFF" d="M17.9,3.5C18.2,3.4,17.7,3.5,17.9,3.5L17.9,3.5z"/>
			<path fill="#FFFFFF" d="M16.7,3.7L17,3.6C17,3.6,16.7,3.7,16.7,3.7C16.4,3.7,16.5,3.7,16.7,3.7z"/>
			<path fill="#FFFFFF" d="M16.4,3.8l0.2-0.1C16.5,3.8,16.5,3.8,16.4,3.8z"/>
			<path fill="#FFFFFF" d="M16.9,3.7l-0.4,0.1c0.1,0,0.1,0,0.2,0C16.7,3.7,16.8,3.7,16.9,3.7z"/>
			<path fill="#FFFFFF" d="M17.3,3.6c0.7-0.1,0.6-0.1-0.1,0C17.3,3.6,17.6,3.6,17.3,3.6z"/>
			<path fill="#FFFFFF" d="M19.1,3.5l0.2,0c-0.1,0-0.5,0-0.5,0C18.9,3.5,19.1,3.5,19.1,3.5z"/>
			<path fill="#FFFFFF" d="M14.6,4.3c0,0,0.1,0,0.2,0L15,4.2C14.9,4.2,14.6,4.3,14.6,4.3z"/>
			<path fill="#FFFFFF" d="M14.8,4.3l-0.4,0.1C14.7,4.3,14.8,4.3,14.8,4.3z"/>
			<polygon fill="#FFFFFF" points="17,3.7 16.2,3.9 16.4,3.9 			"/>
			<polygon fill="#FFFFFF" points="13.4,4.7 13.1,4.9 13.2,4.8 			"/>
			<path fill="#FFFFFF" d="M12.3,5.2c-0.2,0.1-0.4,0.3-0.6,0.4C11.9,5.5,12.1,5.4,12.3,5.2C12.5,5.2,12.1,5.3,12.3,5.2z"/>
			<path fill="#FFFFFF" d="M13.8,4.7c0,0-0.1,0-0.3,0.1l0.2,0C13.7,4.7,13.7,4.7,13.8,4.7z"/>
			<path fill="#FFFFFF" d="M13.7,4.7L13.7,4.7c-0.2,0.1-0.3,0.1-0.3,0.1C13.4,4.8,13.5,4.8,13.7,4.7z"/>
			<path fill="#FFFFFF" d="M15.2,4.3c0.1-0.1-0.1,0,0.2-0.1C15.2,4.2,14.7,4.4,15.2,4.3z"/>
			<path fill="#FFFFFF" d="M14.4,4.4L14,4.6L14.4,4.4C14.4,4.5,14.3,4.5,14.4,4.4z"/>
			<polygon fill="#FFFFFF" points="13.9,4.7 13.8,4.7 14,4.6 			"/>
			<path fill="#FFFFFF" d="M12,5.5c-0.1,0.1-0.3,0.2-0.5,0.3c0.2-0.1,0.4-0.2,0.6-0.3C12.2,5.4,12.3,5.4,12,5.5z"/>
			<polygon fill="#FFFFFF" points="9.8,7 9.8,7 9.8,7 			"/>
			<path fill="#FFFFFF" d="M12.2,5.5c0.1-0.1,0.2-0.1,0.3-0.2C12.4,5.3,12.3,5.4,12.2,5.5C12.1,5.5,12.1,5.5,12.2,5.5z"/>
			<path fill="#FFFFFF" d="M11.2,6c-0.1,0-0.3,0.1-0.3,0.1L11.2,6z"/>
			<path fill="#FFFFFF" d="M12.7,5.2L12.7,5.2C12.7,5.2,12.7,5.2,12.7,5.2z"/>
			<path fill="#FFFFFF" d="M12.7,5.2c-0.1,0-0.1,0.1-0.2,0.1C12.6,5.2,12.7,5.2,12.7,5.2C12.8,5.1,12.7,5.1,12.7,5.2z"/>
			<path fill="#FFFFFF" d="M9.4,7.6C9.4,7.6,9.3,7.7,9.4,7.6c0,0,0.3-0.3,0.7-0.5c0.3-0.2,0-0.2-0.3,0c0,0,0,0-0.3,0.3
				C9.6,7.2,10.2,6.8,10,7C9.5,7.4,9.6,7.3,9.4,7.4c0.2-0.1-0.5,0.5-0.3,0.5L9.4,7.6z"/>
			<path fill="#FFFFFF" d="M10.4,6.6l0.1-0.1c-0.2,0.1-0.3,0.2-0.5,0.3C9.8,6.9,9.8,7,9.8,7L10.4,6.6L10.4,6.6z"/>
			<path fill="#FFFFFF" d="M11,6.3c0.4-0.3,0.3-0.2,0.5-0.4c-0.7,0.4,0.2-0.1-0.3,0.1c0.1-0.1,0.3-0.2,0.4-0.2L11.2,6l0,0l0,0l0,0
				c0,0,0,0,0,0c0,0,0,0,0,0c0,0,0,0,0,0c-0.2,0.1,0,0,0,0l0,0l0,0c0,0-0.2,0.1-0.3,0.2c-0.2,0.1-0.3,0.2-0.3,0.2
				c0.1-0.1,0.3-0.2,0.6-0.4C11.1,6.1,10.7,6.4,11,6.3z"/>
			<path fill="#FFFFFF" d="M14.8,4.5C14.8,4.5,14.8,4.5,14.8,4.5C14.7,4.5,14.7,4.5,14.8,4.5z"/>
			<path fill="#FFFFFF" d="M14.8,4.4L14.8,4.4c-0.4,0.1-0.8,0.2-0.7,0.2c0.1,0,0.2,0,0.4,0C14.5,4.6,14.6,4.5,14.8,4.4
				C14.9,4.4,14.8,4.5,14.8,4.4C14.9,4.4,15.1,4.3,14.8,4.4z"/>
			<path fill="#FFFFFF" d="M12.8,5.2c0,0-0.1,0.1-0.3,0.1c-0.1,0.1-0.3,0.2-0.3,0.2s0.3-0.1,0.3-0.1l0,0C12.8,5.3,12.7,5.3,12.8,5.2
				z"/>
			<path fill="#FFFFFF" d="M9.7,7.1L9.7,7.1c0-0.1-0.2,0.2-0.2,0.2C9.5,7.3,9.7,7.1,9.7,7.1z"/>
			<polygon fill="#FFFFFF" points="9,7.6 8.9,7.7 9,7.6 			"/>
			<path fill="#FFFFFF" d="M4.6,27.3L4.6,27.3c-0.1-0.3-0.1-0.4-0.2-0.5C4.5,27.1,4.6,27.4,4.6,27.3z"/>
			<path fill="#FFFFFF" d="M14.3,36.3c0.1,0,0.2,0.1,0.3,0.1l-0.1,0C14.4,36.3,14.4,36.3,14.3,36.3z"/>
			<path fill="#FFFFFF" d="M33.3,32.7l0.1-0.2C33.2,32.8,33.3,32.7,33.3,32.7z"/>
			<path fill="#FFFFFF" d="M3.9,15.4c0.1-0.3,0.2-0.5,0.2-0.6C4.1,15,4,15.2,3.9,15.4z"/>
			<path fill="#FFFFFF" d="M26.7,37c-0.1,0-0.2,0.1-0.1,0.1C26.7,37.1,26.7,37,26.7,37z"/>
			<path fill="#FFFFFF" d="M3.7,16c0,0,0-0.1,0-0.1c0-0.2,0.1-0.4,0.1-0.6C3.8,15.6,3.8,15.8,3.7,16z"/>
			<path fill="#FFFFFF" d="M26.9,4.3c-0.1,0-0.2-0.1-0.3-0.1C26.7,4.3,26.8,4.3,26.9,4.3z"/>
			<path fill="#FFFFFF" d="M6.7,10.1C6.8,10,6.7,10.1,6.7,10.1L6.7,10.1z"/>
			<path fill="#FFFFFF" d="M3.6,17.8L3.6,17.8C3.6,17.8,3.6,17.8,3.6,17.8z"/>
			<path fill="#FFFFFF" d="M6.8,9.9c0,0,0.1-0.1,0.1-0.1C6.9,9.8,6.9,9.8,6.8,9.9z"/>
			<path fill="#FFFFFF" d="M6.7,10.1c0,0-0.1,0.1-0.2,0.2C6.6,10.2,6.6,10.2,6.7,10.1C6.7,10.1,6.7,10.1,6.7,10.1z"/>
			<path fill="#FFFFFF" d="M38.6,21.6C38.6,21.6,38.6,21.6,38.6,21.6C38.6,21.4,38.6,21.5,38.6,21.6z"/>
			<polygon fill="#FFFFFF" points="7.1,30.6 7.1,30.6 7.1,30.6 			"/>
			<path fill="#FFFFFF" d="M7.5,31.1c-0.2-0.2-0.3-0.3-0.4-0.5l0,0.2L7.5,31.1z"/>
			<path fill="#FFFFFF" d="M9.4,33.1C9.4,33.1,9.4,33.1,9.4,33.1C9.4,33.1,9.4,33.1,9.4,33.1L9.4,33.1z"/>
			<path fill="#FFFFFF" d="M3.5,23.7c0-0.1,0-0.2,0-0.2C3.5,23.6,3.5,23.7,3.5,23.7z"/>
			<path fill="#FFFFFF" d="M14.8,36.3C14.8,36.3,14.8,36.4,14.8,36.3C14.9,36.4,14.9,36.4,14.8,36.3z"/>
			<path fill="#FFFFFF" d="M33.3,32.8L33.3,32.8C33.3,32.7,33.3,32.7,33.3,32.8L33.3,32.8z"/>
			<path fill="#FFFFFF" d="M3.5,20.5c0,0,0,0,0-0.2C3.5,20.4,3.5,20.4,3.5,20.5z"/>
			<path fill="#FFFFFF" d="M7.9,8.7C7.9,8.7,7.8,8.8,7.9,8.7L7.6,9C7.7,8.8,7.8,8.8,7.9,8.7z"/>
			<path fill="#FFFFFF" d="M10.6,6.7c0.1,0,0.1-0.1,0.1-0.1l0,0C10.5,6.7,10.4,6.8,10.6,6.7z"/>
			<path fill="#FFFFFF" d="M8.2,8.5c0,0,0.2-0.2,0.4-0.4l0,0C8.6,8.1,8.4,8.3,8.2,8.5z"/>
			<path fill="#FFFFFF" d="M8.9,7.9c0,0-0.1,0.1-0.2,0.2L8.9,7.9z"/>
			<path fill="#FFFFFF" d="M6.4,10.5c0.1-0.1-0.5,0.7-0.1,0.1C6.4,10.5,6.3,10.5,6.4,10.5z"/>
			<polygon fill="#FFFFFF" points="8.3,8.6 8.4,8.4 8.3,8.5 			"/>
			<path fill="#FFFFFF" d="M7.3,9.7C7.3,9.7,7.3,9.6,7.3,9.7C7.2,9.8,7,10,7,10L7.3,9.7z"/>
			<path fill="#FFFFFF" d="M7.6,9.3c0,0.1-0.2,0.2-0.2,0.3C7.4,9.5,7.5,9.4,7.6,9.3z"/>
			<polygon fill="#FFFFFF" points="7.7,9.2 8,8.9 8,9 			"/>
			<path fill="#FFFFFF" d="M4.4,14.5c0,0.1,0-0.1,0.1-0.2c0-0.1,0.1-0.3,0-0.2L4.4,14.5z"/>
			<path fill="#FFFFFF" d="M5.2,13l0.1-0.2C5.3,12.9,5.2,12.9,5.2,13L5.2,13z"/>
			<path fill="#FFFFFF" d="M4.7,14C4.7,14.1,4.5,14.7,4.7,14C4.7,14.1,4.9,13.6,4.7,14z"/>
			<polygon fill="#FFFFFF" points="3.3,20.9 3.4,21 3.4,20.9 			"/>
			<path fill="#FFFFFF" d="M4.8,26.7C5,27,5,27.2,5,27c-0.2-0.5-0.1-0.1-0.3-0.6C4.7,26.3,4.9,26.8,4.8,26.7z"/>
			<polygon fill="#FFFFFF" points="25.3,3.8 24.9,3.7 25.2,3.8 			"/>
			<path fill="#FFFFFF" d="M24.6,3.7L24.6,3.7l-0.3-0.1C24.4,3.7,24.5,3.7,24.6,3.7z"/>
			<path fill="#FFFFFF" d="M22.6,37.4c0.1,0,0.1,0,0.3,0L22.6,37.4L22.6,37.4z"/>
			<polygon fill="#FFFFFF" points="27.3,36.4 27.5,36.4 27.4,36.4 			"/>
			<path fill="#FFFFFF" d="M30.5,34.8c0.3-0.2,0.5-0.2,0.4-0.3C30.8,34.6,30.7,34.7,30.5,34.8z"/>
			<path fill="#FFFFFF" d="M32,32.8c-0.1,0.1,0,0.1-0.1,0.1C32.1,32.7,32,32.8,32,32.8z"/>
			<polygon fill="#FFFFFF" points="33.7,30.6 33.7,30.7 33.9,30.3 			"/>
			<path fill="#FFFFFF" d="M34.4,29.6L34.4,29.6l-0.1,0.3c0.3-0.5,0.6-1.1,0.8-1.5C34.9,28.6,34.6,29.2,34.4,29.6z"/>
			<path fill="#FFFFFF" d="M35.6,27.5C35.6,27.5,35.7,27.5,35.6,27.5c0.1-0.1,0.1-0.2,0.1-0.3C35.7,27.3,35.9,26.9,35.6,27.5z"/>
			<path fill="#FFFFFF" d="M35.7,27.5C35.5,27.7,35.8,27.3,35.7,27.5L35.7,27.5z"/>
			<path fill="#FFFFFF" d="M36,26.6c0-0.1,0.1-0.4,0.1-0.3c0.1-0.4,0.1-0.3,0-0.1L36,26.6z"/>
			<path fill="#FFFFFF" d="M36.1,26.1c0,0,0-0.1,0.1-0.2L36.1,26.1z"/>
			<path fill="#FFFFFF" d="M36.1,26.3c0,0,0,0-0.1,0.2l0.1-0.4C36.1,26.2,36.1,26.2,36.1,26.3z"/>
			<path fill="#FFFFFF" d="M35.9,26.7C35.9,26.9,35.7,27.1,35.9,26.7C35.6,27.4,35.7,27.4,35.9,26.7z"/>
			<path fill="#FFFFFF" d="M34.9,28.5l-0.1,0.2c0.1-0.1,0.3-0.4,0.2-0.4C35.1,28.3,34.9,28.5,34.9,28.5z"/>
			<path fill="#FFFFFF" d="M36.7,24.3l0,0.3c0-0.1,0.1-0.4,0.1-0.4C36.8,24.1,36.7,24.3,36.7,24.3z"/>
			<path fill="#FFFFFF" d="M36.7,24.3l0.1-0.4C36.7,24.2,36.7,24.3,36.7,24.3z"/>
			<polygon fill="#FFFFFF" points="36.2,25.9 36,26.5 36.2,25.8 			"/>
			<polygon fill="#FFFFFF" points="37.1,22.9 37.1,22.5 37.1,22.6 			"/>
			<path fill="#FFFFFF" d="M37.3,21.6c0-0.3,0-0.5,0-0.7C37.3,21.1,37.2,21.3,37.3,21.6C37.2,21.8,37.3,21.4,37.3,21.6z"/>
			<path fill="#FFFFFF" d="M36.9,23.2c0,0,0-0.1,0.1-0.3L37,23.1C36.9,23.1,36.9,23.2,36.9,23.2z"/>
			<path fill="#FFFFFF" d="M37,23.1L37,23.1c0-0.2,0-0.3,0.1-0.3C37,22.8,37,22.9,37,23.1z"/>
			<path fill="#FFFFFF" d="M36.5,24.6c0,0.2,0.1-0.1,0,0.3C36.5,24.7,36.6,24.2,36.5,24.6z"/>
			<path fill="#FFFFFF" d="M36.8,23.9l0.1-0.4L36.8,23.9C36.8,23.8,36.8,23.8,36.8,23.9z"/>
			<polygon fill="#FFFFFF" points="36.9,23.4 36.9,23.3 36.9,23.2 			"/>
			<path fill="#FFFFFF" d="M37.2,21.2c0-0.2,0-0.4,0-0.6c0,0.3,0,0.5,0,0.7C37.2,21.4,37.2,21.5,37.2,21.2z"/>
			<polygon fill="#FFFFFF" points="37.1,18.4 37.1,18.4 37.1,18.4 			"/>
			<path fill="#FFFFFF" d="M37.1,21.4c0,0.2,0,0.3,0,0.4C37.1,21.6,37.1,21.5,37.1,21.4C37.1,21.3,37.1,21.3,37.1,21.4z"/>
			<path fill="#FFFFFF" d="M37.1,22L37.1,22C37.1,22,37.1,22,37.1,22z"/>
			<path fill="#FFFFFF" d="M37.1,22c0-0.1,0-0.2,0-0.2C37.1,21.9,37.1,22,37.1,22C37.1,22.1,37.1,22,37.1,22z"/>
			<path fill="#FFFFFF" d="M36.8,17.3l0.1,0.5c0,0,0-0.2,0,0c0,0,0.2,0.5,0.1,0.9c0,0.4,0.1,0.1,0.2-0.2c0,0,0,0-0.1-0.4
				c0,0.1,0,0.9,0,0.6c0-0.5,0-0.4,0-0.7C37,18.1,36.8,17.2,36.8,17.3z"/>
			<path fill="#FFFFFF" d="M37.2,19.2l0,0.2c0-0.2,0-0.3,0-0.6c0-0.3,0-0.3-0.1-0.4L37.2,19.2L37.2,19.2z"/>
			<path fill="#FFFFFF" d="M37.2,20.2c0-0.1-0.1-0.5-0.1-0.3c0,0.5,0,0.4,0,0.7C37.2,19.7,37.2,20.8,37.2,20.2c0,0.2,0,0.3,0,0.4
				L37.2,20.2L37.2,20.2L37.2,20.2L37.2,20.2C37.2,20.3,37.2,20.3,37.2,20.2C37.2,20.2,37.2,20.2,37.2,20.2
				C37.2,20.2,37.2,20.2,37.2,20.2C37.2,19.9,37.2,20.1,37.2,20.2L37.2,20.2L37.2,20.2C37.2,20.2,37.2,20.2,37.2,20.2
				C37.2,20.2,37.2,20.2,37.2,20.2c0-0.1,0.1-0.3,0-0.3C37.3,20,37.2,20.1,37.2,20.2c0-0.2,0-0.8,0-0.8
				C37.2,19.6,37.2,19.8,37.2,20.2z"/>
			<path fill="#FFFFFF" d="M36.5,24.2C36.5,24.2,36.5,24.2,36.5,24.2C36.5,24.1,36.5,24.1,36.5,24.2z"/>
			<path fill="#FFFFFF" d="M36.6,24.2L36.6,24.2c0.1-0.4,0.2-0.8,0.2-0.7c-0.1,0.1-0.1,0.2-0.2,0.4C36.6,23.9,36.6,24,36.6,24.2
				C36.5,24.3,36.5,24.2,36.6,24.2C36.5,24.3,36.5,24.6,36.6,24.2z"/>
			<path fill="#FFFFFF" d="M37,21.7C37,22.1,37,22,37,22C37,22,37,21.9,37,21.7c0-0.2,0-0.3,0-0.3L37,21.7L37,21.7z"/>
			<path fill="#FFFFFF" d="M37.2,18.4c0,0-0.1-0.4-0.1-0.4S37.2,18.3,37.2,18.4L37.2,18.4z"/>
			<polygon fill="#FFFFFF" points="37.1,17.5 37,17.2 37,17.4 			"/>
			<path fill="#FFFFFF" d="M2.3,14.6C2.3,14.6,2.3,14.7,2.3,14.6L2.3,14.6z"/>
			<path fill="#FFFFFF" d="M9.3,5.2c-0.1,0-0.1,0.1-0.2,0.2l0.1,0C9.2,5.3,9.3,5.3,9.3,5.2z"/>
			<path fill="#FFFFFF" d="M1.6,23.6c0,0,0.1,0.2,0.1,0.2C1.7,23.5,1.7,23.6,1.6,23.6z"/>
			<path fill="#FFFFFF" d="M33.2,8.7c0.2,0.3,0.3,0.5,0.4,0.5C33.4,9,33.3,8.8,33.2,8.7z"/>
			<path fill="#FFFFFF" d="M1.7,15.3c0,0.1,0,0.2,0,0.2C1.7,15.4,1.7,15.3,1.7,15.3z"/>
			<path fill="#FFFFFF" d="M29.8,34.7c0.1,0,0.1-0.1,0.3-0.2C30,34.5,29.9,34.6,29.8,34.7z"/>
			<path fill="#FFFFFF" d="M36.2,14C36.3,14.2,36.2,14,36.2,14L36.2,14z"/>
			<path fill="#FFFFFF" d="M31.3,7L31.3,7C31.3,7,31.3,7,31.3,7z"/>
			<path fill="#FFFFFF" d="M36.3,14.3c0-0.1,0-0.2-0.1-0.2C36.2,14.1,36.3,14.1,36.3,14.3z"/>
			<path fill="#FFFFFF" d="M36.3,14.2c0,0.1,0,0.1,0.1,0.2C36.4,14.4,36.4,14.4,36.3,14.2z"/>
			<path fill="#FFFFFF" d="M36.1,13.7c0,0.1,0.1,0.2,0.1,0.3c0,0,0-0.1,0,0C36.2,13.9,36.2,13.9,36.1,13.7z"/>
			<path fill="#FFFFFF" d="M8.2,34.5C8.2,34.5,8.2,34.5,8.2,34.5C8.4,34.6,8.3,34.6,8.2,34.5z"/>
			<polygon fill="#FFFFFF" points="18.4,2.5 18.4,2.5 18.4,2.5 			"/>
			<path fill="#FFFFFF" d="M34.6,11.1c0-0.1-0.1-0.1-0.1-0.2C34.6,11,34.6,11,34.6,11.1z"/>
			<path fill="#FFFFFF" d="M1.8,14.6c0,0,0,0.1,0.1,0.1c0,0,0-0.1,0.1-0.1L1.8,14.6z"/>
			<path fill="#FFFFFF" d="M25.5,36.8c0,0,0.1,0,0.1,0C25.7,36.8,25.6,36.8,25.5,36.8z"/>
			<path fill="#FFFFFF" d="M15,2.9C15,2.9,15,2.9,15,2.9c0,0-0.1,0-0.1,0L15,2.9z"/>
			<path fill="#FFFFFF" d="M2,15.4L2,15.4C2,15.4,2,15.4,2,15.4C2.1,15.3,2.1,15.2,2,15.4z"/>
			<path fill="#FFFFFF" d="M9,5.6C9,5.6,9,5.6,9,5.6C9,5.7,9,5.7,9,5.6z"/>
			<path fill="#FFFFFF" d="M1.6,23.6L1.6,23.6C1.6,23.6,1.6,23.6,1.6,23.6L1.6,23.6z"/>
			<path fill="#FFFFFF" d="M36.7,15.8C36.7,15.8,36.7,15.7,36.7,15.8l-0.1-0.4C36.7,15.7,36.7,15.7,36.7,15.8z"/>
			<path fill="#FFFFFF" d="M37,19.5c0-0.3,0-0.4,0-0.2C37,19.4,37,19.5,37,19.5L37,19.5z"/>
			<path fill="#FFFFFF" d="M36.8,16.8c0.1,0.1,0-0.2-0.1-0.5C36.7,16.3,36.8,16.5,36.8,16.8L36.8,16.8z"/>
			<path fill="#FFFFFF" d="M36.9,17.1c0,0,0-0.1,0-0.3C36.9,17,36.9,17,36.9,17.1z"/>
			<path fill="#FFFFFF" d="M36,13.4c0,0.1,0.1,0.1,0.1,0.1C36.2,13.7,35.7,12.7,36,13.4z"/>
			<polygon fill="#FFFFFF" points="36.7,16.4 36.6,16.2 36.7,16.5 			"/>
			<path fill="#FFFFFF" d="M36.3,14.9c-0.1-0.3-0.2-0.6-0.2-0.5l0.1,0.4C36.3,14.8,36.3,14.8,36.3,14.9z"/>
			<path fill="#FFFFFF" d="M36.3,14.9c0,0.1,0.1,0.3,0.1,0.4C36.4,15.2,36.4,15,36.3,14.9z"/>
			<polygon fill="#FFFFFF" points="36.5,15.8 36.4,15.5 36.5,15.9 			"/>
			<path fill="#FFFFFF" d="M34,10l-0.3-0.4c0,0,0,0.1,0.1,0.2C33.9,9.9,34,10.1,34,10z"/>
			<path fill="#FFFFFF" d="M34.6,11.1L34.6,11.1l0.1,0.2C34.6,11.2,34.6,11.2,34.6,11.1z"/>
			<path fill="#FFFFFF" d="M33.9,10.1C33.9,10.1,33.5,9.6,33.9,10.1C33.9,10.1,34.2,10.5,33.9,10.1z"/>
			<polygon fill="#FFFFFF" points="28.7,5 28.8,5 28.9,5 			"/>
			<path fill="#FFFFFF" d="M23.3,2.9c0.1,0-0.4-0.1-0.3-0.1c-0.3-0.1-0.5-0.1-0.4,0C23.2,3,22.8,2.8,23.3,2.9z"/>
			<path fill="#FFFFFF" d="M23,2.8c0,0,0.1,0,0.2,0C23.1,2.8,23.1,2.8,23,2.8z"/>
			<polygon fill="#FFFFFF" points="31.1,33.6 31.4,33.4 31.2,33.5 			"/>
			<path fill="#FFFFFF" d="M31.9,32.9c-0.1,0.1-0.2,0.2-0.2,0.2l0.1,0L31.9,32.9z"/>
			<path fill="#FFFFFF" d="M3.7,11.8c0,0-0.1,0.1-0.2,0.3L3.7,11.8L3.7,11.8z"/>
			<polygon fill="#FFFFFF" points="1.8,16.4 1.9,16.3 1.8,16.5 			"/>
			<path fill="#FFFFFF" d="M1.4,20.6c0-0.2,0-0.4,0-0.5C1.4,20.4,1.4,20.6,1.4,20.6z"/>
			<path fill="#FFFFFF" d="M2.4,21c0-0.2,0-0.1,0-0.1C2.3,21.1,2.4,20.9,2.4,21z"/>
			<polygon fill="#FFFFFF" points="2.7,23.8 2.7,23.8 2.8,24.2 			"/>
			<path fill="#FFFFFF" d="M2.9,25L2.9,25l-0.1-0.3C3,25.3,3.2,26,3.3,26.4C3.3,26.1,3,25.5,2.9,25z"/>
			<path fill="#FFFFFF" d="M3.6,27.5C3.6,27.5,3.6,27.5,3.6,27.5c0,0.1,0.1,0.2,0.1,0.3C3.7,27.7,3.8,28.1,3.6,27.5z"/>
			<path fill="#FFFFFF" d="M3.6,27.5C3.5,27.3,3.6,27.7,3.6,27.5L3.6,27.5z"/>
			<path fill="#FFFFFF" d="M4,28.7C4.2,29,4.2,28.9,4,28.7l-0.1-0.3C4,28.5,4.1,28.8,4,28.7z"/>
			<path fill="#FFFFFF" d="M4.2,28.9c0,0,0,0.1,0.1,0.2L4.2,28.9z"/>
			<path fill="#FFFFFF" d="M4.1,28.7c0,0,0,0-0.1-0.2l0.2,0.4C4.2,28.8,4.2,28.8,4.1,28.7z"/>
			<path fill="#FFFFFF" d="M3.9,28.2c-0.3-0.7-0.3-0.5,0,0.1C3.8,28.1,3.7,27.8,3.9,28.2z"/>
			<path fill="#FFFFFF" d="M3.3,26.2L3.2,26c0,0.1,0.1,0.5,0.2,0.5C3.4,26.5,3.3,26.3,3.3,26.2z"/>
			<path fill="#FFFFFF" d="M5.2,30.8c0,0,0-0.1,0-0.2L5,30.4C5.1,30.5,5.2,30.7,5.2,30.8z"/>
			<path fill="#FFFFFF" d="M5.2,30.6L5.4,31C5.2,30.6,5.2,30.6,5.2,30.6z"/>
			<polygon fill="#FFFFFF" points="4.4,29.1 4.1,28.5 4.5,29.2 			"/>
			<polygon fill="#FFFFFF" points="6.3,32.2 6.1,32.1 6,31.9 			"/>
			<path fill="#FFFFFF" d="M6.8,32.9c0.2,0.2,0.4,0.4,0.5,0.5C7.2,33.3,7,33.1,6.8,32.9C6.7,32.8,6.9,33.1,6.8,32.9z"/>
			<path fill="#FFFFFF" d="M6,31.8l-0.1-0.1c0,0-0.1-0.1-0.1-0.1C5.8,31.6,5.9,31.6,6,31.8z"/>
			<path fill="#FFFFFF" d="M5.9,31.7L5.9,31.7c0.1,0.1,0.2,0.2,0.2,0.3C6.1,31.9,6,31.8,5.9,31.7z"/>
			<path fill="#FFFFFF" d="M5.1,30.2c-0.1-0.1,0,0.1-0.2-0.2C5,30.2,5.3,30.6,5.1,30.2z"/>
			<path fill="#FFFFFF" d="M5.4,30.9c0,0,0.3,0.4,0.3,0.4C5.7,31.3,5.5,30.9,5.4,30.9C5.5,31,5.5,31,5.4,30.9z"/>
			<polygon fill="#FFFFFF" points="5.9,31.5 5.7,31.3 5.8,31.4 			"/>
			<path fill="#FFFFFF" d="M7.1,33.1c0.1,0.1,0.3,0.3,0.4,0.4c-0.2-0.2-0.3-0.4-0.5-0.6C7,33,6.9,32.9,7.1,33.1z"/>
			<polygon fill="#FFFFFF" points="9.2,35.1 9.2,35.1 9.3,35.2 			"/>
			<path fill="#FFFFFF" d="M7,33c-0.1-0.1-0.2-0.2-0.3-0.3C6.9,32.8,7,32.9,7,33C7.1,33,7.1,33,7,33z"/>
			<path fill="#FFFFFF" d="M8.1,34.2l-0.2-0.2C7.9,34,8,34.1,8.1,34.2z"/>
			<path fill="#FFFFFF" d="M6.6,32.5L6.6,32.5C6.6,32.6,6.6,32.6,6.6,32.5z"/>
			<path fill="#FFFFFF" d="M6.8,32.7c-0.1-0.1-0.1-0.2-0.2-0.2c0,0,0,0,0,0.1C6.6,32.6,6.7,32.7,6.8,32.7z"/>
			<path fill="#FFFFFF" d="M9.2,34.9c0.4,0.3,0.4,0.3,0.6,0.5c-0.2-0.2,0.6,0.4,0.6,0.3l-0.4-0.3c0,0,0.2,0.1,0,0
				c0,0-0.5-0.2-0.8-0.6c-0.3-0.3-0.2,0,0,0.3c0,0,0,0,0.4,0.2C9.5,35.3,8.9,34.7,9.2,34.9z"/>
			<path fill="#FFFFFF" d="M8.9,34.9c0.2,0.2,0.3,0.2,0.3,0.2l-0.7-0.6l0,0l-0.1-0.1C8.6,34.6,8.7,34.7,8.9,34.9z"/>
			<path fill="#FFFFFF" d="M7.8,33.9L7.8,33.9L7.8,33.9C7.8,33.9,7.8,33.9,7.8,33.9C7.8,33.9,7.9,33.9,7.8,33.9
				C7.9,33.9,7.9,33.9,7.8,33.9C8.1,34.1,7.9,34,7.8,33.9L7.8,33.9L7.8,33.9c0,0,0.2,0.1,0.3,0.3c0.2,0.1,0.3,0.3,0.3,0.3
				C8.3,34.3,8.2,34.2,7.8,33.9C8,34,8.3,34.3,8.2,34.1c-0.4-0.3-0.3-0.2-0.5-0.4C8.2,34.2,7.5,33.5,7.8,33.9
				c-0.1-0.1-0.2-0.2-0.3-0.3L7.8,33.9L7.8,33.9z"/>
			<path fill="#FFFFFF" d="M5.4,30.5C5.4,30.6,5.4,30.6,5.4,30.5C5.4,30.6,5.4,30.6,5.4,30.5z"/>
			<path fill="#FFFFFF" d="M5.4,30.6c0.2,0.3,0.4,0.7,0.3,0.6c0-0.1-0.1-0.2-0.2-0.4C5.5,30.8,5.5,30.8,5.4,30.6
				C5.3,30.4,5.4,30.6,5.4,30.6C5.3,30.5,5.1,30.2,5.4,30.6L5.4,30.6z"/>
			<path fill="#FFFFFF" d="M6.9,32.7L6.9,32.7c-0.3-0.3-0.2-0.2-0.3-0.2c0,0,0.5,0.5,0.5,0.5L6.9,32.7z"/>
			<path fill="#FFFFFF" d="M37.7,12.4L37.7,12.4C37.7,12.4,37.7,12.4,37.7,12.4z"/>
			<path fill="#FFFFFF" d="M31.4,36L31.4,36c-0.3,0.2-0.4,0.2-0.5,0.3C31.2,36.2,31.5,36,31.4,36z"/>
			<path fill="#FFFFFF" d="M39.5,24.4c0-0.1,0-0.2,0-0.3l0,0.1C39.5,24.3,39.5,24.3,39.5,24.4z"/>
			<path fill="#FFFFFF" d="M31.5,5.5l-0.2-0.1C31.6,5.6,31.4,5.5,31.5,5.5z"/>
			<path fill="#FFFFFF" d="M19.2,39.5c-0.3-0.1-0.5-0.2-0.6-0.1C18.9,39.4,19,39.5,19.2,39.5z"/>
			<path fill="#FFFFFF" d="M37.6,11.5c-0.1-0.1-0.1-0.1-0.1-0.1C37.6,11.4,37.6,11.5,37.6,11.5z"/>
			<path fill="#FFFFFF" d="M20,39.6c0,0-0.1,0-0.1,0c-0.2,0-0.4,0-0.6-0.1C19.4,39.6,19.7,39.6,20,39.6z"/>
			<path fill="#FFFFFF" d="M2.6,18c0,0.1,0,0.3-0.1,0.3C2.6,18.1,2.6,18,2.6,18z"/>
			<path fill="#FFFFFF" d="M13.2,37.6C13,37.6,13.2,37.6,13.2,37.6L13.2,37.6z"/>
			<path fill="#FFFFFF" d="M12.9,37.5c0.1,0,0.1,0.1,0.2,0.1C13.1,37.6,13,37.6,12.9,37.5z"/>
			<path fill="#FFFFFF" d="M13,37.5c-0.1,0-0.1-0.1-0.2-0.1C12.8,37.5,12.8,37.5,13,37.5z"/>
			<path fill="#FFFFFF" d="M13.4,37.8c-0.1,0-0.2-0.1-0.3-0.1c0,0,0,0,0,0C13.2,37.7,13.3,37.7,13.4,37.8z"/>
			<polygon fill="#FFFFFF" points="34.5,32.8 34.4,32.8 34.5,32.8 			"/>
			<path fill="#FFFFFF" d="M34.9,32.3c-0.2,0.2-0.3,0.4-0.4,0.5l0.2-0.1L34.9,32.3z"/>
			<path fill="#FFFFFF" d="M16.4,38.6c0.1,0,0.2,0,0.2,0.1C16.6,38.7,16.5,38.7,16.4,38.6z"/>
			<path fill="#FFFFFF" d="M39.9,22.3c0-0.1-0.1-0.4-0.1-0.5c0-0.6,0-0.7-0.1-1.2c0-0.2,0.1-0.5,0-0.9l0.1,0c0-1.1,0-0.5-0.1-1.6
				l0,0.1c-0.1-0.1-0.1-1-0.3-1.6l0,0.2c-0.1-0.3-0.1-1-0.2-1.3c0-0.1,0,0.1,0.1,0.2c-0.2-0.9-0.1-0.1-0.3-0.8c0-0.1,0.1,0.1,0-0.3
				c-0.1-0.2-0.5-1.2-0.8-1.8c0,0.1,0.1,0.3-0.1,0c-0.2-0.4-0.5-1.2-0.8-1.6c0-0.1,0-0.1,0-0.1c-0.2-0.3-0.6-1-0.8-1.2
				c0-0.2-0.4-0.6-0.7-1c-0.3-0.4-0.7-0.7-0.6-0.8l-0.8-0.8l0,0c-0.5-0.5-0.7-0.6-1-0.8c-0.1-0.1,0,0,0,0c-0.8-0.7-0.9-0.7-1.6-1.2
				l-0.1-0.1c-0.1-0.1-0.4-0.3-0.8-0.5c-0.4-0.3-0.9-0.6-1.4-0.8c0,0,0,0,0.1,0c-1.1-0.5-2.5-1.2-3-1.2l-0.8-0.2
				c1,0.3-0.2,0,0.2,0.2c-0.4-0.1-1-0.3-0.5-0.2l0.1,0c0.2,0-1.2-0.3-1.2-0.3C22.8,2,20.8,1.9,19,2.1l0.1,0c0,0-0.1,0-0.1,0
				c-0.1,0-0.3,0.1-0.3,0.1c-0.1,0-0.1,0-0.1,0c0.1,0,0.1,0,0.2,0c-0.1,0-0.2,0-0.3,0c-0.2,0-0.2,0,0.1-0.1
				c-0.8,0.1-0.7,0.1-1.4,0.2l0,0c-0.2,0-0.6,0.1-0.8,0.1c-0.6,0-2.7,0.6-4.1,1.1c0.3,0-0.6,0.2-0.7,0.3c-0.1,0-0.3,0.1-0.1,0
				c-0.7,0.3-1,0.4-1.4,0.8c-0.1,0,0.1-0.1,0-0.1c0,0-0.2,0.1-0.3,0.2c-0.1,0,0.1-0.1,0.2-0.1C9.6,4.8,9.5,4.9,9.5,5
				C9.2,5.2,9,5.3,8.8,5.5C8.7,5.6,8.5,5.7,8.9,5.4c-0.2,0.2-1.3,0.9-1.3,1c-0.1,0-0.3,0.2-0.3,0.3C6.8,7.1,6.8,7.1,6.4,7.5l0.1-0.1
				C6.4,7.6,6.2,7.8,5.9,8.1l0,0c-0.7,0.8-0.3,0.3-1,1.1l0.1,0c0,0.1-0.6,0.7-0.9,1.2l0.1-0.2c-0.2,0.3-0.6,0.7-0.8,1
				c0,0.1,0-0.1,0.1-0.2c-0.5,0.7,0,0.1-0.3,0.7c-0.1,0.1,0-0.2-0.2,0.2c-0.1,0.2-0.5,1.2-0.7,1.7c0.1-0.1,0.1-0.2,0,0.1
				C2.2,14,2,14.3,1.9,14.6c0,0,0.6-0.6,0.6-0.6c0.1-0.2,0.1-0.4,0.5-1.1l-0.2,0.4C3,13,3.2,12.7,3.4,12.2c-0.1,0.1-0.5,0.9-0.3,0.4
				c0.1-0.1,0.2-0.3,0.3-0.6c0,0,0.2-0.2,0.4-0.5l0,0C3.9,11.2,3.9,11.2,4,11c0.2-0.4,0.3-0.4,0.4-0.5C4.8,10,4,10.9,4.5,10.2
				c0.4-0.4,0.5-0.8,1-1.3c0.3-0.3,0,0.1,0.1,0l0.2-0.3c0.1-0.1,0.1,0,0,0c0.2-0.2,0-0.1,0.3-0.4c0-0.1,0.2-0.2,0.4-0.4
				C6.8,7.5,7.1,7.3,7.3,7c0.1-0.1,0,0.1,0,0.1c0.6-0.6,0.5-0.5,1-0.9l0.5-0.3c-0.4,0.2,0-0.1,0.4-0.5C9,5.5,8.9,5.5,8.8,5.6
				c0,0,0.1-0.1,0.3-0.2c0.1-0.1,0.3-0.2,0.3-0.2c0.1,0,0,0-0.1,0.1c0,0,0.1-0.1,0.1-0.1c0.2-0.1,0.1,0,0,0.1
				c-0.1,0-0.2,0.1-0.2,0.1C9.1,5.5,8.9,5.6,9,5.6c0.1,0,0.1-0.1,0.2-0.2c0,0-0.1,0.1,0,0.1c0,0,0.1-0.1,0.2-0.1l0.2,0l0,0l0.8-0.5
				c0.5-0.4,1.1-0.7,2.1-1.2c-0.2,0.1,0,0.1,0,0.1c-0.3,0.1-0.8,0.4-1.3,0.6c0.3-0.1,0.2-0.1,0.2,0l0.9-0.5c0,0,0.2-0.1,0.5-0.1
				c-0.2,0,0.7-0.3,1.1-0.5c0,0-0.1,0.1-0.5,0.2c0.5-0.1,0.6-0.4,1.2-0.4c-0.1,0-0.2,0-0.2,0.1C14.4,3,15.1,2.9,15,2.9
				c0.3-0.1,0.7-0.2,1.2-0.3l-0.4,0.1l0.3,0c-0.3,0.1-0.7,0.2-0.4,0.1c-0.3,0.1-1,0.3-1.7,0.6c-0.7,0.3-1.3,0.6-1.4,0.7
				c-0.4,0.2-0.8,0.5-1.4,0.8c0.1-0.1,0.2-0.1-0.2,0.2C11,5,10.1,5.7,9.7,5.9C9.9,5.8,9.6,6,9.3,6.3C9.1,6.5,8.8,6.7,9.1,6.5
				c-0.3,0.3,0,0-0.3,0.2C8,7.5,7.1,8.3,6.3,9.4c0,0,0.1-0.1,0,0.1L5.8,10c-0.1,0.2-0.1,0.2-0.4,0.6c0-0.1,0.1-0.1,0,0
				c-1.5,2.1-2.3,4.7-2.8,7.2c0.1-0.3,0-0.1,0,0.2c0-0.2,0,0,0.1,0c0,0-0.2,1.1-0.2,1.1c0,0.2-0.1,1.2,0,1.3l0-0.3
				c0,0.5,0.2-0.6,0.2-0.6C2.6,18.9,3,18.1,3,17.3c0-0.2,0,0.2,0,0.1c0-0.2,0.1-0.5,0.2-0.9l0,0.1c0.3-1.3,0.5-1.8,1.1-3.2l-0.1,0.1
				c0.1-0.3,0.2-0.3,0.3-0.5c0.1-0.4-0.4,0.8-0.3,0.5c0.1-0.2,0.4-0.7,0.6-1.2c0.2-0.5,0.5-0.9,0.6-1c0.3-0.4-0.1,0.1,0.1-0.3
				l0.1-0.1l0-0.1c0.2-0.3,0.3-0.4,0.3-0.4c0,0.1-0.1,0.2-0.2,0.3c0.3-0.3,0.7-0.9,0.8-1.1L6.4,9.9C6.6,9.6,6.8,9.3,7,9
				c0.2-0.3,0.5-0.5,0.7-0.8c0.5-0.6,1-1,1.5-1.5L9.1,6.8c0.7-0.7,0.6-0.5,1.5-1.1l0,0c0.2-0.2,0.4-0.3,0.7-0.5
				c-0.2,0.2,0.5-0.2,0.2,0c0.9-0.6,0.4-0.3,1-0.7l0.2,0c0.2-0.1,0.2-0.2,0.7-0.4c-0.4,0.2,0.3-0.1-0.1,0.1c1-0.5,1.5-0.7,2-0.8
				c0.5-0.3-0.9,0.3-0.7,0.2c-0.2,0.1,0.4-0.2,0.7-0.3c0.3-0.1,0.6-0.1,1.5-0.3c-0.1,0-0.1,0-0.2,0.1c0.3-0.1,0.6-0.2,1.1-0.3
				c0.2-0.1,0.5-0.1,0.6-0.2c0,0-0.2,0-0.4,0.1c-0.2,0-0.4,0.1-0.4,0.1c0.3-0.1,0.6-0.1,0.9-0.2c0,0,0,0,0,0l0,0
				c0.1,0,0.2,0,0.4-0.1c0,0-0.1,0-0.3,0.1c0.1,0,0.1,0,0.2,0c-0.2,0-0.1,0,0,0c0.1,0,0.2,0,0.4,0c-0.3,0.1-0.9,0.1-1.2,0.2
				c0.2,0,0.9-0.2,0.7-0.1c0.3-0.1,0.6-0.1,1-0.2c0.1,0,0.2,0,0.5,0.1c-0.1,0-0.1,0,0-0.1c0,0,0.1,0,0.2,0c0,0,0.1,0,0.1,0
				c0,0,0,0,0,0l-0.2,0c0.1,0,0.1,0,0.2,0c0,0,0,0.1-0.1,0.1c0,0,0.2,0,0.4,0c0.2,0,0.4,0,0.4,0c-0.2,0,0,0.1,0.1,0.1
				c-0.1,0,0.7,0.1,0.9,0.1l-0.3-0.1c0.9,0.1,0.9,0,1.7,0.2c-0.1,0-0.3,0.1,0.1,0.2c0.2,0,0.9,0,1.7,0.2l0.1,0.1
				c0,0,0.6,0.2,0.6,0.2c-0.5-0.1-1.5-0.3-2-0.4c0.3,0.1,0.1,0.1,0.5,0.2c0.2,0.1-0.3,0-0.4-0.1l1.1,0.4c0-0.1,0.8,0.2,0.8,0.2
				c0,0-1.2-0.4-1.2-0.4c0,0,0.8,0,1.5,0.4c0.2,0.1-0.2,0-0.2,0.1c0.1,0,0.7,0.3,0.8,0.3l-0.3-0.1c0.4,0.2,0.7,0.2,1.2,0.6
				c0.1,0.1,0.2,0.2,0.3,0.2c-0.4-0.2-0.8-0.4-1.1-0.5c0.3,0.1,0.1,0.1-0.1,0c0.2,0.1,0,0,0,0.1c0,0-0.9-0.4-0.9-0.4
				c-0.2,0-1.1-0.3-1.2-0.2l0.3,0.1c-0.4,0,0.5,0.3,0.5,0.3c0.5,0,1.2,0.5,1.9,0.6c0.2,0.1-0.1,0-0.1,0c0.2,0,0.4,0.1,0.8,0.3l0,0
				c1.1,0.5,1.6,0.8,2.7,1.5l-0.1-0.1c0.2,0.2,0.3,0.2,0.4,0.3c0.3,0.2-0.7-0.5-0.4-0.4c0.1,0.1,0.2,0.2,0.4,0.4c0,0,0,0,0,0
				c0.7,0.6,0.9,1,1.5,1.6c0,0.1,0.3,0.4,0.2,0.3c0.1,0.1,0.2,0.2,0.3,0.4c0.2,0.4-0.3-0.4-0.2-0.1c0,0,0.4,0.5,0.6,0.8
				c0-0.1-0.5-0.7-0.7-0.9c0.1,0,0.5,0.4,1,1.1c0.4,0.5,0.1,0.3,0.2,0.4c0.6,1.1,0.7,0.8,1.1,1.8c0.1,0.4-0.1,0.1-0.1,0.2
				c-0.2-0.5-0.3-0.8-0.5-1.1l0.2,0.4c-0.1-0.1-0.2-0.3-0.3-0.5c0.3,0.5,1,1.8,1.2,2.7c0.1,0.2,0.2,0.4,0.2,0.3l-0.1-0.3
				c-0.1-0.3,0.2,0.5,0.1,0.2c0.1,0.4,0.4,0.8,0.5,1.4l0,0.1c0,0-0.1-0.4-0.1-0.5c0.1,0.2,0.1,0.9,0.3,1.1l-0.1-0.4
				c0.1,0.4,0.3,0.9,0.4,1.4c0-0.2,0-0.1,0-0.5c0,0.3-0.3-1.3-0.3-0.8c0-0.4-0.1-0.7-0.2-1.1c0,0,0,0.2-0.1-0.2c0,0,0-0.1,0-0.1
				c0,0,0,0,0,0l0,0c0,0,0,0,0,0c0,0.1,0,0.2,0,0.2c-0.1-0.2-0.3-0.9-0.4-1.1c-0.1-0.2,0.1,0.1,0,0c0,0-0.1-0.3-0.2-0.3
				c0,0-0.2-0.7,0-0.1l-0.2-0.5c-0.1-0.3-0.3-0.7-0.4-1c-0.1-0.2-0.4-0.5-0.2-0.4l-0.5-0.7l0,0C34.3,10,34,9.7,33.7,9.3
				c-0.3-0.4-0.5-0.8-0.9-1.1c0,0,0,0,0,0c0,0,0,0,0,0c0,0,0,0,0.1,0.1c0.1,0.1,0.3,0.3,0.4,0.4c-0.1-0.2-0.3-0.4-0.5-0.5
				c0,0,0,0,0.1,0.1L33,8.4l0.1,0.1c0.2,0.2,0.3,0.3,0.3,0.4c0-0.1-0.1-0.1-0.2-0.2c0.3,0.4,0.7,0.8,0.9,0.9l-0.3-0.3
				c0.2,0.2,0.4,0.5,0.7,0.7c0.2,0.3,0.4,0.5,0.6,0.8c0.4,0.5,0.8,1.1,1.1,1.6l0-0.1c0.5,0.8,0.3,0.7,0.8,1.5l0,0
				c0.1,0.2,0.2,0.4,0.3,0.7c-0.1-0.2,0.1,0.5,0,0.2c0.4,0.9,0.2,0.4,0.5,1l0,0.2c0.1,0.2,0.1,0.2,0.3,0.7c-0.1-0.4,0,0.3-0.1-0.1
				c0.3,1,0.4,1.5,0.4,2c0.2,0.5-0.1-0.9,0-0.6c0-0.2,0.1,0.4,0.2,0.7c0.1,0.3,0,0.6,0,1.4c0-0.1,0-0.1,0-0.2c0,0.3,0.1,0.6,0,1
				c0,0.2,0,0.5,0,0.6l0-0.8c0,0.4,0.1,0.9,0,1.6c0-0.1,0-0.3,0-0.4c0,0.2,0,0.4,0,0.6c0-0.1,0-1,0-1.4c0,0.2,0,0.9,0,0.7
				c0,0.2,0,0.4,0,0.6c0,0.2-0.1,0.5-0.1,0.8l0,0c0,0.1,0,0.3,0,0.4l0-0.3c0,0.5-0.1,0.9-0.2,1.3c0.2-0.9,0.1-0.2,0.2-0.6
				c-0.2,1.1-0.2,0.6-0.5,1.9c0.1-0.2,0.2-0.6,0.1-0.4c-0.1,0.2-0.2,0.5-0.3,0.7c-0.3,0.8,0.1-0.1,0,0.2c-0.1,0.3-0.1,0.4-0.2,0.8
				l0,0c-0.4,0.9,0,0.3-0.4,1.1l0.2-0.4L37,28v-0.1c0,0.5-0.3,0.6-0.6,1c0.1-0.1,0,0.1-0.2,0.5c-0.2,0.2,0-0.2-0.3,0.4
				c0.1-0.1,0.1-0.3,0.3-0.5c0,0,0-0.1,0-0.2c-0.2,0.3-0.4,0.7-0.5,0.9c0-0.1,0.1-0.1,0.1-0.2c0,0-0.1,0.2-0.2,0.4
				c-0.1,0.2-0.2,0.4-0.2,0.4c-0.1,0.1,0,0,0-0.1c-0.1,0.1-0.2,0.3-0.3,0.5c0-0.1,0-0.1,0.2-0.4l-0.5,0.7c0,0-0.3,0.3-0.2,0.2
				c-0.3,0.3-0.7,0.9-1.2,1.3c0,0-0.1,0.1-0.2,0.2c-0.4,0.4-0.8,0.7-1.4,1.1l-0.4,0.2c-0.4,0.3,0.5-0.3-0.2,0.3
				c-0.5,0.4-0.2,0.1-0.4,0.2c-0.3,0.2-0.7,0.5-1.2,0.8c0.2-0.1,0.3-0.2,0.5-0.3l-0.4,0.2c0.4-0.3,0.8-0.5,0.4-0.3
				c0,0.2-1.5,0.8-1.5,0.9l-0.3,0.1c0.1,0,0.1,0,0.2-0.1c-0.5,0.2-0.4,0.2-1.1,0.5c-0.2,0.1-0.4,0.1-0.3,0.1l-0.5,0.2
				c-0.2,0-0.1,0,0,0L25.7,37c1.4-0.6,2.7-1.3,4-2.2c-0.3,0.2-0.1,0,0.1-0.1c-0.1,0.1,0,0-0.1,0c0,0,0.9-0.6,0.9-0.6
				c0.1-0.2,0.8-0.8,0.9-0.9l-0.2,0.2c0.3-0.3-0.5,0.3-0.6,0.2c-0.3,0.4-1.1,0.7-1.6,1.3c-0.2,0.1,0.1-0.1,0-0.1
				c-0.1,0.2-0.3,0.3-0.7,0.5l0,0.1c-1.1,0.7-1.6,0.6-2.9,1.6c-0.1,0-0.2,0-0.3,0c0.1,0,0.2-0.1,0.3-0.2c-0.2,0.1-0.7,0.2-1.1,0.3
				c-0.1,0-0.2,0-0.2,0.1c-0.1,0-0.2,0-0.3,0l0.5-0.1c-0.3,0-0.7,0.1-1.2,0.1c0.1,0,1-0.1,0.5,0.1c-0.1,0-0.3,0.1-0.6,0.1
				c0,0-0.3,0-0.6,0l0-0.1c-0.4,0-0.3,0.1-0.6,0.1c-0.4,0-0.5,0-0.6-0.1c-0.7,0,0.5,0.1-0.3,0.1c-0.6-0.1-1,0-1.6-0.1
				c-0.4-0.1,0.1,0-0.1-0.1l-0.3,0c-0.1,0-0.1,0,0,0c-0.3,0,0,0-0.5,0c-0.1,0.1-0.9-0.2-1.5-0.3c-0.1,0,0.1,0,0,0
				c-0.8-0.1-0.7-0.1-1.3-0.3l-0.5-0.2c0.4,0.2-0.1,0-0.6-0.1c0.1,0.1,0.3,0.1,0.3,0.2c0,0-0.7-0.2-0.7-0.2c-0.1,0,0,0,0.1,0
				c0,0-0.1,0-0.1,0c-0.2-0.1-0.1-0.1,0.1,0c0.1,0,0.1,0.1,0.2,0.1c0.2,0,0.3,0,0.3,0c-0.1,0-0.1,0-0.2-0.1c0,0,0.1,0,0.1,0
				c0,0-0.1,0-0.2-0.1l-0.1-0.1l0,0l-0.8-0.4c-0.6-0.2-1.2-0.5-2.1-1c0.2,0.1,0.1,0,0.1-0.1c0.2,0.2,0.7,0.4,1.2,0.7
				c-0.2-0.2-0.2-0.1-0.1-0.1l-0.9-0.5c0,0-0.2-0.1-0.4-0.3c0.1,0.2-0.6-0.4-1-0.6c0,0,0.1,0,0.5,0.3c-0.4-0.4-0.6-0.3-1-0.7
				c0.1,0.1,0.1,0.1,0.2,0.1c-0.2-0.2-0.7-0.6-0.6-0.5c-0.6-0.5-1.6-1.6-1.8-1.6c0,0,0.1,0,0.2,0c0,0-0.1-0.1-0.2-0.1
				c-0.1-0.1-0.2-0.2-0.4-0.3c-0.3-0.2-0.5-0.5-0.5-0.5c0.1,0.1-0.1-0.4,0.4,0.1C7,30.5,6.9,30.3,6.6,30c0.1,0.1,0.1,0.3,0,0.2
				c-0.3-0.5-0.2-0.3-0.4-0.8c0.1,0.2-0.1,0-0.3-0.2c0,0,0.1-0.1,0.1,0c0,0-0.5-0.6-0.5-0.6c0.1,0.2,0.1,0,0-0.2
				c0,0.1-0.3-0.6-0.4-0.8l0.1,0.3c-0.4-0.8-0.5-0.7-0.8-1.5c0.1,0.1,0.2,0.2,0.1-0.2c-0.1-0.1-0.2-0.3-0.3-0.5
				c-0.1-0.3-0.3-0.6-0.4-1l0-0.1c0,0-0.2-0.6-0.2-0.6c0.2,0.4,0.6,1.4,0.8,1.8c-0.1-0.3,0-0.1-0.1-0.6c0-0.2,0.1,0.2,0.1,0.4
				l-0.3-1.1c0,0.1-0.3-0.8-0.3-0.8c0,0,0.4,1.2,0.4,1.2c0,0.1-0.4-0.6-0.5-1.4c0-0.2,0.1,0.1,0.1,0.1c0-0.1-0.2-0.7-0.2-0.8
				l0.1,0.3c-0.1-0.4-0.2-0.7-0.2-1.2c0-0.2,0-0.5,0-0.6c0,0.3-0.2,0.4-0.3,0.2c0-0.1,0-1,0-1.2c0.1-0.3,0.1,0.5,0.2,0.2
				c0,0,0-0.2,0-0.2c0-0.2,0,0.1,0.1-0.3c-0.1-0.1,0-0.8,0-0.2c0-0.4,0-0.4,0.1-0.9c-0.1,0.1-0.1-0.4,0-0.9c0,0,0-0.1,0.1-0.1
				c0.1-0.8,0.3-1.3,0.5-2c0-0.1,0.1-0.4,0.1-0.3c0-0.1,0-0.2,0.1-0.4c0.2-0.4-0.2,0.5,0,0.2c0,0,0.2-0.6,0.3-0.9
				c-0.1,0.1-0.3,0.7-0.4,1.1c-0.1,0,0.1-0.6,0.3-1.4c0.2-0.6,0.2-0.2,0.2-0.4c0.6-1.1,0.3-1,0.9-1.9c0.3-0.3,0.1,0,0.2,0
				c-0.3,0.5-0.5,0.7-0.6,1l0.2-0.4c-0.1,0.2-0.2,0.5-0.3,0.7c0.2-0.3,1-1.8,1.6-2.5c0.1-0.1,0.3-0.4,0.2-0.3l-0.2,0.2
				C6.5,10.7,7,10,6.7,10.3C6.9,10,7.2,9.6,7.6,9.2l0.1,0c0,0-0.3,0.3-0.4,0.4C7.5,9.3,8,8.9,8.1,8.7L7.8,8.9c0.3-0.3,0.6-0.7,1-1
				C8.5,8,8.7,8,8.4,8.2C8.6,8,7.5,9.1,7.9,8.8C7.6,9,7.4,9.3,7,9.6c0,0,0.1-0.1-0.1,0.2c0,0,0,0.1,0,0.1c0,0,0,0,0,0l0,0
				c0,0,0,0,0,0C6.9,9.8,7,9.7,7,9.7c-0.1,0.2-0.5,0.7-0.6,0.9c-0.2,0.2,0-0.1,0,0c0,0-0.2,0.3-0.2,0.3c0,0-0.4,0.5-0.1,0l-0.3,0.5
				c-0.2,0.3-0.4,0.6-0.5,0.9C5.1,12.5,5,12.9,5,12.7l-0.3,0.8l0,0c-0.2,0.4-0.3,0.8-0.5,1.2c-0.1,0.4-0.3,0.8-0.4,1.3
				c-0.1,0.3-0.1,0.6-0.2,1L3.5,17c-0.1,0.3-0.2,1.1-0.2,1.2c-0.2,0.4-0.2,1.7-0.2,2.4l0,0c0,0.4,0.1,0.8,0.1,1.4l0,0
				c0,0.5,0.1,1.2,0.3,1.9c0,0,0-0.1,0-0.1c0,0.4,0.1,0.7,0.3,1.1C4,25.2,4.1,25.7,4.2,26c0.1,0.2,0.1,0.3,0.2,0.4c0,0,0,0,0,0
				c0,0,0,0,0,0.1c0,0.1,0.1,0.2,0.1,0.3c0-0.1,0-0.2-0.1-0.2c0.1,0.1,0.1,0.3,0.2,0.6l0,0.1c0,0,0,0,0,0c0.1,0.2,0.1,0.2,0.1,0
				c0.1,0.1,0.1,0.2,0.2,0.3c0,0.2,0.3,0.5,0.3,0.8c0.1,0.1,0.5,0.9,0.7,1C6,29.6,6.2,29.8,6.3,30l0,0.1c0,0,0.4,0.4,0.4,0.4
				c0.2,0.3,0.3,0.4,0,0.2c0.5,0.6,0.4,0.5,0.9,1l0,0c0.2,0.2,0.5,0.4,0.5,0.6c0.3,0.5,2,1.9,3.1,2.7c-0.2-0.2,0.5,0.4,0.6,0.3
				c0.1,0.1,0.2,0.2,0,0.1c0.6,0.3,0.9,0.6,1.4,0.7c0.1,0.1-0.2,0-0.1,0c0.1,0,0.2,0.1,0.3,0.1c0.1,0-0.1,0-0.2-0.1
				c0.7,0.3,0.8,0.3,0.8,0.2c0.3,0.2,0.5,0.2,0.8,0.3c0.1,0.1,0.3,0.2-0.1,0c0.2,0.1,1.5,0.6,1.5,0.5c0.1,0,0.3,0.1,0.4,0.1
				c0.6,0.1,0.6,0.1,1.1,0.3l-0.1,0c0.2,0,0.5,0.1,0.9,0.1l0,0c1,0.2,0.4,0.1,1.5,0.2l-0.1,0.1c0.1-0.1,0.8,0.2,1.4,0.2c0,0,0,0,0,0
				h0c0,0,0.1-0.1,0.1-0.1c-1.2,0.2-2.6,0.1-3.7,0.1l0.1,0.1c-1,0-0.8-0.1-1.8-0.1h0c-0.2,0-0.5-0.2-0.8-0.2c0.3,0-0.5-0.2-0.1-0.2
				c-1-0.2-0.5-0.1-1.2-0.2l-0.1-0.1c-0.2,0-0.3,0-0.8-0.2c0.4,0.1-0.3-0.2,0.2,0c-1-0.4-1.5-0.6-2-0.8c-0.1,0-0.1,0-0.1,0l-0.1,0
				l0.1,0.1l0.1,0c0.2,0.1,0.7,0.3,0.6,0.3c0.1,0,0,0,0,0l-0.1-0.1l0.1,0.1l0,0c-0.1,0-0.4-0.2-0.6-0.2c-0.1-0.1-0.3-0.2-0.4-0.3
				l0,0c0,0,0,0,0,0c-0.2-0.1-0.4-0.3-0.9-0.6c0.1,0,0.1,0,0.2,0.1c-0.2-0.1-0.4-0.2-0.6-0.3l-0.1,0l0,0c-0.1,0-0.2-0.1-0.2-0.2
				c-0.2-0.1-0.4-0.3-0.5-0.3l0.7,0.5c-0.4-0.3-0.8-0.4-1.4-0.9c0.1,0,0.2,0.1,0.4,0.2c-0.2-0.1-0.4-0.2-0.5-0.4
				c0.1,0,0.8,0.6,1.2,0.8c-0.2-0.2-0.8-0.5-0.5-0.4c-0.2-0.1-0.3-0.2-0.5-0.3c-0.2-0.2-0.4-0.4-0.6-0.5l0.1,0
				c-0.1-0.1-0.2-0.2-0.4-0.3l0.3,0.2c-0.4-0.3-0.7-0.6-1-1c0.7,0.7,0.1,0.2,0.4,0.5c-0.9-0.8-0.4-0.6-1.3-1.5
				c0.1,0.1,0.4,0.5,0.2,0.3c-0.2-0.2-0.4-0.5-0.4-0.6c-0.5-0.7,0,0.1-0.2-0.2c-0.1-0.3-0.3-0.3-0.5-0.6l0,0c-0.5-0.8-0.2-0.2-0.7-1
				L4,29.7l-0.3-0.4l0.1,0.1c-0.3-0.4-0.4-0.6-0.6-1c0,0.1-0.1,0-0.3-0.4c-0.1-0.3,0.1,0.1-0.2-0.4C2.8,27.6,2.9,27.8,3,28
				c0,0,0.1,0.1,0.1,0.1c-0.1-0.3-0.3-0.7-0.4-1c0,0.1,0.1,0.2,0.1,0.2c0,0-0.1-0.2-0.2-0.4c-0.1-0.2-0.2-0.4-0.2-0.4
				c0-0.1,0,0,0.1,0.1c-0.1-0.2-0.1-0.3-0.2-0.5c0.1,0.1,0.1,0,0.2,0.4l-0.3-0.8c0-0.1-0.1-0.4-0.1-0.3c-0.1-0.5-0.4-1.1-0.5-1.8
				c0,0,0-0.1-0.1-0.2c-0.1-0.6-0.2-1.1-0.2-1.8l0-0.4c0-0.6,0,0.6-0.1-0.4c0-0.7,0-0.2,0.1-0.5c0-0.3,0-0.9,0-1.5
				c0,0.2,0,0.4,0,0.5l0.1-0.5c0,0.6,0,1,0.1,0.5c0,0-0.1-0.5,0-0.9c0.1-0.4,0.1-0.9,0.1-0.9l0.1-0.3c0,0.1,0,0.1,0,0.2
				c0.1-0.6,0-0.4,0.2-1.2C1.9,16,1.9,15.8,1.9,16L2,15.4c0,0-0.2-0.2-0.1-0.4c0-0.1,0-0.2,0-0.3c-0.1,0.3-0.2,0.5-0.2,0.7
				c0,0.1,0,0.1,0,0.1c-0.1,0.4-0.2,1.1-0.3,1.4C1.2,17.1,1.1,19,1,19l0,1.1l0,0c0,0.7,0,1,0.1,1.2c0,0.2,0,0,0,0c0,1,0.1,1.1,0.2,2
				l0,0.1c0,0.2,0.2,1.5,0.6,2.4c0,0,0,0-0.1-0.1c0.2,0.5,0.4,1.2,0.6,1.7c0.2,0.5,0.4,1,0.6,1.2c0,0,0.4,0.6,0.4,0.6
				c-0.5-0.8,0.1,0.1-0.1-0.3c0.2,0.3,0.5,0.9,0.2,0.5l0-0.1c-0.2-0.1,0.6,1,0.5,1c1.1,1.6,2.3,2.9,3.7,4.1c0,0-0.1-0.2-0.1-0.2
				l0.5,0.4c0.1,0.1,0.1,0.2-0.2-0.1C8.1,34.8,8.5,35,8.5,35c0.7,0.5-0.3-0.1-0.1,0l0.3,0.2l-0.1-0.1C9,35.4,9,35.4,9.4,35.6
				c0.3,0.2,0.1,0.1,0.2,0.2c0,0,0,0,0.2,0.1l0.7,0.4l-0.2-0.2c0.3,0.2,0.6,0.4,0.3,0.1c0.2,0.1,0.6,0.3,1.1,0.6
				c0.2,0.2,0.5,0.3,0.8,0.5c0,0-0.1-0.1,0.3,0.1c0,0,0.1,0,0.1,0c0,0,0,0,0,0l0,0c0,0,0,0,0,0c-0.1-0.1-0.2-0.1-0.2-0.1
				c0.2,0.1,0.9,0.4,1.1,0.5c0.2,0.1-0.1,0,0,0c0,0,0.3,0.1,0.3,0.1c0,0,0.6,0.3,0,0.1l0.5,0.2c0.3,0.1,0.7,0.3,1,0.4
				c0.3,0.1,0.7,0.1,0.4,0.1L17,39l0,0c0.4,0.1,0.9,0.2,1.3,0.3c0.5,0.1,0.9,0.2,1.4,0.3c0.3,0,0.6,0,1.1,0.1l0.1,0
				c0.4,0,1.2,0,1.3,0c0.2,0.1,0.7,0,1.2-0.1c0.5-0.1,1-0.2,1.3-0.3l0,0c0.4-0.1,0.9-0.2,1.4-0.5l0,0c0.5-0.2,1.2-0.4,1.9-0.8
				c0,0-0.2,0.1-0.3,0.2c0.4-0.2,0.9-0.4,1.3-0.6c0.4-0.3,0.8-0.5,1.2-0.7c0.2-0.1,0.3-0.2,0.4-0.3l0,0c0,0,0,0,0.1,0
				c0.1,0,0.2-0.1,0.2-0.2c-0.1,0.1-0.2,0.1-0.2,0.1c0.1-0.1,0.3-0.2,0.5-0.4l0.1,0c0,0,0,0,0,0c0.2-0.1,0.1-0.1,0-0.1l0.2-0.2
				c0.2-0.1,0.5-0.4,0.7-0.5c0.1-0.1,0.9-0.8,1-0.9c0,0,0,0,0,0c0.2-0.2,0.4-0.3,0.5-0.5l0.1,0l0.4-0.5c0.3-0.2,0.4-0.3,0.2,0
				c0.6-0.6,0.4-0.5,0.9-1.1l0,0c0.2-0.2,0.4-0.5,0.5-0.6c0.2-0.2,0.6-0.8,1.1-1.5c0.4-0.7,0.9-1.5,1.3-2.2
				c-0.2,0.2,0.3-0.6,0.3-0.7c0.1-0.1,0.2-0.3,0.1,0c0.3-0.7,0.5-1,0.6-1.6c0-0.1,0,0.2,0,0.1c0-0.1,0.1-0.2,0.1-0.3
				c0-0.1,0,0.1,0,0.2c0.2-0.7,0.2-0.8,0.2-0.9c0.1-0.4,0.1-0.6,0.2-0.9c0-0.1,0.1-0.4,0,0.1C39.8,23.7,40,22.3,39.9,22.3z
				 M2.6,13.8c0-0.1,0-0.2,0-0.1C2.7,13.5,2.7,13.6,2.6,13.8z M2.9,13.1c0-0.2,0.1-0.3,0.2-0.5C3,12.8,3,13,2.9,13.1z M9.7,5.1
				C9.8,5.1,9.9,5,10,4.9C9.9,5,9.8,5.1,9.7,5.1z M35.4,12.1L35.4,12.1C35.3,11.8,35.3,11.9,35.4,12.1z M5.6,11.8L5.6,11.8
				C5.4,12,5.5,11.9,5.6,11.8z M5.9,29.3C5.9,29.4,5.9,29.4,5.9,29.3C5.9,29.4,6,29.4,5.9,29.3z M13.7,35.9c0.1,0,0.2,0.1,0.4,0.2
				C13.9,36.1,13.8,36,13.7,35.9z M9.7,35.8l-0.1-0.1C9.9,35.9,9.8,35.9,9.7,35.8z M38.6,14.4c-0.1-0.1-0.2-0.4-0.2-0.5
				C38.5,14.1,38.5,14.2,38.6,14.4z M16.5,2.6C16.5,2.6,16.5,2.6,16.5,2.6C16.5,2.6,16.5,2.6,16.5,2.6z M18.6,2.2c0.1,0,0.1,0,0.1,0
				c0,0,0,0,0,0L18.6,2.2C18.6,2.2,18.6,2.2,18.6,2.2z M19.1,2.3C19.1,2.3,19.1,2.4,19.1,2.3C19,2.4,19,2.4,19.1,2.3
				C19,2.3,19.1,2.3,19.1,2.3z M19.2,2.4C19.1,2.4,19.1,2.4,19.2,2.4c0,0,0.1,0,0.1,0c0,0,0,0,0,0C19.3,2.4,19.2,2.4,19.2,2.4z
				 M28.4,4.6c0.1,0,0.8,0.6,1,0.7c0.2,0.2-0.1,0-0.2,0c-0.3-0.1-0.5-0.3-0.8-0.4C28.1,4.7,28.2,4.6,28.4,4.6z M24.1,37.3
				c-0.1,0-0.2,0-0.2,0.1c-0.1,0-0.1,0-0.2,0C23.8,37.3,24,37.3,24.1,37.3z M21.2,37.8c0.1,0,0.1,0,0.2,0c0,0,0,0-0.1,0L21.2,37.8z
				 M21.3,37.8L21.3,37.8c0.1,0,0.1,0,0.1,0C21.4,37.8,21.4,37.8,21.3,37.8L21.3,37.8z M15.2,38.4L15.2,38.4
				C15.5,38.6,15.4,38.5,15.2,38.4z M39.2,25.1c0-0.1,0.1-0.3,0.1-0.4C39.3,24.8,39.2,25,39.2,25.1z M39.7,21.5c0,0.8,0,0.7,0,1.4
				l-0.1,0.6c0.1-0.4,0.1,0.1,0,0.6c0.1-0.2,0.1-0.3,0.1-0.4l-0.1,0.8c0,0.1,0,0,0-0.1c0,0.1,0,0.1,0,0.1c-0.1,0.3-0.1,0.1-0.1-0.1
				c0-0.1,0.1-0.2,0.1-0.3c0-0.2,0-0.4,0-0.3c0,0.1,0,0.2,0,0.2c0-0.1,0-0.1,0-0.1c0,0,0,0.1,0,0.2l-0.1,0.2l0,0
				c0,0-0.3,0.9-0.3,0.9c-0.1,0.3-0.1,0.7-0.3,1.1c-0.1,0.4-0.3,0.8-0.5,1.3c0.1-0.3,0-0.1-0.1-0.1c0.2-0.3,0.4-0.8,0.6-1.3
				c-0.1,0.3-0.1,0.2-0.1,0.1l-0.4,1c0,0-0.1,0.2-0.3,0.4c0.2-0.1-0.3,0.7-0.5,1.1c0,0,0-0.1,0.3-0.5c-0.3,0.4-0.3,0.7-0.6,1.1
				c-0.2,0.3-0.5,0.7-0.4,0.5l0.1-0.1c-0.2,0.3-0.6,0.9-0.9,1.3c-0.3,0.4-0.6,0.8-0.7,0.9c0,0,0-0.1,0-0.2c0,0-0.2,0.3-0.4,0.7
				c-0.2,0.3-0.4,0.6-0.4,0.6c0.1-0.1-0.4,0.1,0.1-0.4c-0.1,0.1-0.3,0.3-0.6,0.6c0.1-0.1,0.3-0.2,0.2,0c-0.4,0.3-0.3,0.2-0.8,0.6
				c0.2-0.1,0.1,0.1-0.2,0.3c0,0-0.1-0.1,0-0.1l-0.6,0.6c0.1-0.1,0-0.1-0.2,0c0.1,0-0.5,0.5-0.7,0.6c0,0,0.1,0,0.1-0.1
				c0.1-0.1,0.1-0.1,0.1-0.1c-0.7,0.5-0.7,0.6-1.4,1.2c0.1-0.1,0.2-0.3-0.2,0c-0.2,0.1-0.7,0.7-1.4,1.1l-0.1,0.1l-0.5,0.3
				c0.3-0.2,1.2-0.9,1.7-1.3c-0.3,0.2-0.1,0-0.5,0.3c-0.2,0.1,0.2-0.2,0.3-0.3l-1,0.6c0.1,0-0.8,0.5-0.7,0.5c0,0,0.3-0.2,0.6-0.3
				c0.1-0.1,0.3-0.2,0.4-0.2C29,37.1,29,37,29,37c0,0-0.1,0.1-0.3,0.3c-0.3,0.2-0.6,0.4-1,0.5c-0.2,0.1,0.1-0.2,0.1-0.2
				c-0.1,0.1-0.7,0.4-0.8,0.4c0,0,0.3-0.2,0.3-0.2c-0.4,0.2-0.7,0.4-1.2,0.5c-0.2,0.1-0.6,0.1-0.6,0.2c0.3,0,0.4,0.1,0.3,0.2
				c-0.1,0-1,0.2-1.2,0.3c-0.3,0,0.4-0.2,0.2-0.2c0,0-0.2,0.1-0.2,0.1c-0.2,0,0.1-0.1-0.4,0.1c-0.1,0.1-0.9,0.1-0.2,0.1
				c-0.4,0.1-0.5,0.1-1,0.1c0.1,0,0,0.1-0.2,0.1c-0.2,0-0.5,0.1-0.7,0.1c0,0-0.1,0-0.1,0c-0.4,0-0.8,0-1.1-0.1
				c-0.3,0-0.7-0.1-1.1-0.1c-0.1,0-0.5-0.1-0.3-0.1c-0.1,0-0.2,0-0.5-0.1c-0.5-0.1,0.6,0.1,0.2,0c0,0-0.7-0.1-1-0.1
				c0.1,0.1,0.8,0.2,1.2,0.2c0,0.1-0.7,0-1.5-0.1C17.1,39,17.5,39,17.3,39c-1.3-0.4-1.1-0.1-2.1-0.6c-0.4-0.2,0-0.1-0.1-0.2
				c0.5,0.2,0.8,0.3,1.2,0.4l-0.4-0.2c0.1,0,0.4,0.1,0.5,0.1c-0.6-0.2-2-0.7-2.8-1.1c-0.2-0.1-0.5-0.2-0.3-0.1l0.3,0.1
				c0.2,0.2-0.6-0.2-0.2,0c-0.3-0.2-0.7-0.3-1.2-0.5c0.2,0.1,0.4,0.1,0.6,0.2c0.1,0.1,0.2,0.1,0.2,0.1l-0.1-0.1
				c0.3,0.1,0.6,0.2,0.7,0.2c0.5,0.1,0.9,0.2,1.5,0.4c-0.1,0-0.2-0.1,0.3,0c-0.2,0.1,0.9,0.2,1.3,0.3c-0.2-0.1,0.2,0,0.5,0
				c0.3,0,0.7,0,0.4,0c0.4,0,0,0,0.3,0.1c1,0,2.3,0.1,3.5-0.1c0,0-0.2,0,0.1-0.1l0.7,0c0.2-0.1,0.2-0.1,0.7-0.2c-0.1,0-0.2,0,0,0
				c0,0,0.1,0,0.1,0c0,0,0,0,0.3,0c0.2,0,1.2-0.3,1.8-0.3c-0.1,0-0.3,0,0-0.1c0.4-0.1,1.2-0.2,1.6-0.4c0.1,0,0.1,0,0.1,0
				c0.3-0.1,1.1-0.4,1.2-0.5c0.4,0,1.9-0.9,2-0.9l0.9-0.5l0,0c0.6-0.3,0.7-0.5,0.9-0.7c0.1-0.1,0,0,0,0c0.8-0.6,0.9-0.6,1.5-1.2
				l0.1,0c0.2-0.1,1.1-1,1.7-1.7c0,0,0,0-0.1,0.1c0.3-0.5,0.7-0.9,1.1-1.4c0.3-0.5,0.6-0.9,0.6-1.1c0,0,0.1-0.2,0.2-0.3
				c0.1-0.2,0.1-0.3,0.1-0.3c-0.4,0.8,0-0.2-0.2,0.2c0.2-0.3,0.5-0.8,0.3-0.4l0,0.1c0,0.2,0.5-1,0.6-1c0.7-1.7,1.1-3.5,1.3-5.2
				c0,0-0.1,0.2-0.1,0.2l0-0.6c0-0.2,0.1-0.2,0,0.2c0-0.2,0-0.7,0-0.7c0.1-0.8,0.1,0.3,0.1,0.1l0-0.4l0,0.1c0-0.3,0-0.4-0.1-0.8
				c0-0.3,0-0.2,0-0.3c0,0,0,0,0-0.2l0-0.8l0,0.3c0-0.3-0.1-0.7-0.1-0.4c0-0.3-0.1-1-0.2-1.6c-0.2-0.7-0.4-1.3-0.4-1.4
				c-0.2-0.6-0.4-0.9-0.6-1.4c0,0.1,0,0.2-0.2-0.2c0.2,0.1-0.4-0.8-0.5-1.2c0.1,0.2-0.1-0.1-0.3-0.4c-0.2-0.3-0.4-0.5-0.2-0.3
				c-0.2-0.4,0,0-0.1-0.3c-0.3-0.4-0.6-0.9-0.9-1.3c-0.3-0.5-0.7-1-1.1-1.4c0,0,0.1,0.2-0.1,0l-0.4-0.5c-0.2-0.2-0.2-0.1-0.5-0.4
				c0,0.1,0.1,0.1,0,0c-0.6-0.6-1.2-1.1-1.9-1.5c-0.1-0.1-0.1-0.1-0.2-0.1c-0.2-0.4-1.4-1.1-1.9-1.5l0,0c-0.4-0.3-0.8-0.4-1.2-0.7
				l0,0c-0.4-0.2-1.1-0.6-1.8-0.9c0.1,0,0.2,0.1,0.3,0.2c-0.2-0.1-0.4-0.2-0.6-0.3c-0.2-0.1-0.4-0.1-0.7-0.2
				c-0.5-0.1-0.8-0.2-1.3-0.4c-0.2,0-0.3-0.1-0.5-0.1c0,0,0,0,0,0c0,0-0.1,0-0.1,0c-0.1,0-0.2-0.1-0.3-0.1c0.1,0,0.2,0.1,0.2,0.1
				c-0.1,0-0.3-0.1-0.5-0.1c0,0,0,0,0.1,0c0,0,0,0-0.1,0c-0.1,0-0.1,0-0.2,0l0,0c0.1,0,0.2,0,0.3,0c0.1,0,0.1,0,0.2,0
				c0,0-0.1,0-0.1,0c0.1,0,0.2,0,0.3,0.1c0.9,0.1-0.1-0.1,0.3,0c0.3,0.1,0.4,0,0.8,0.1l0,0c1,0.2,0.3,0,1.2,0.2l-0.4,0l0.5,0.1
				l-0.1,0C26.2,3,26.3,3,26.8,3.2c-0.1-0.1,0.1,0,0.5,0.1c0.3,0.1-0.2,0,0.4,0.2c-0.1,0-0.3-0.1-0.6-0.2c0,0-0.1,0-0.2,0
				c0.3,0.1,0.8,0.3,1,0.4c-0.1,0-0.2-0.1-0.2-0.1c0,0,0.9,0.3,0.9,0.3c0.1,0.1,0,0-0.1,0C28.8,3.9,29,4,29.2,4.1
				c-0.1,0-0.1,0-0.4-0.1l0.8,0.4c0,0,0.4,0.2,0.3,0.2c0.4,0.2,1.1,0.6,1.6,0.9c0,0,0.1,0,0.2,0.1c0.5,0.4,0.8,0.6,1.5,1.2l0.3,0.3
				c0.4,0.4-0.4-0.4,0.4,0.2c0.5,0.4,0.2,0.2,0.3,0.4c0.3,0.2,0.7,0.6,1.1,1.1c-0.1-0.1-0.3-0.3-0.4-0.4l0.3,0.4
				c-0.4-0.4-0.7-0.7-0.4-0.3c0.1,0,0.4,0.3,0.7,0.7c0.3,0.4,0.6,0.7,0.6,0.7l0.2,0.3c-0.1-0.1-0.1-0.1-0.1-0.2
				c0.3,0.5,0.4,0.3,0.8,1c0.1,0.2,0.2,0.4,0.1,0.3l0.3,0.5c0.1,0.2,0.1,0.1,0,0c0,0,0.1,0.2,0.2,0.4c0.1,0.2,0.2,0.4,0.2,0.4l0,0
				c0.1,0.1,0.2,0.4,0.3,0.5c0.1,0.2-0.1-0.1,0,0l0.3,0.5c0.1,0.2-0.1-0.2-0.3-0.5c0.1,0.5,0.3,0.4,0.5,1.4l-0.2-0.5
				c0,0.3,0.2,0.7,0.4,1.2c0-0.1-0.3-1.1-0.1-0.6c0,0.2,0.1,0.3,0.2,0.6c0,0,0.1,0.3,0.2,0.6l-0.1,0c0.1,0.4,0.1,0.3,0.2,0.6
				c0.1,0.4,0.1,0.5,0.1,0.6c0.2,0.7,0-0.5,0.1,0.3c0.1,0.6,0.2,1,0.3,1.7c0,0.4,0-0.1,0,0.1l0.1,0.4c0,0.1,0,0.1,0,0
				c0,0.3,0.1,0,0.1,0.5C39.8,20.1,39.8,21,39.7,21.5C39.7,21.7,39.7,21.5,39.7,21.5z M38.9,19.7l0,0.1
				C38.8,19.6,38.8,19.6,38.9,19.7z"/>
			<path fill="#FFFFFF" d="M33.4,34.3C33.3,34.3,33.3,34.3,33.4,34.3C33.4,34.3,33.4,34.3,33.4,34.3z"/>
			<path fill="#FFFFFF" d="M37.1,29.4c0,0,0-0.1,0.1-0.1C37.2,29.4,37.2,29.4,37.1,29.4z"/>
			<path fill="#FFFFFF" d="M37.1,29.5C37.1,29.5,37.1,29.5,37.1,29.5c0-0.1,0.1-0.1,0.1-0.1C37.1,29.5,37.1,29.5,37.1,29.5z"/>
			<path fill="#FFFFFF" d="M39.4,23.9C39.4,23.9,39.4,23.9,39.4,23.9C39.5,23.8,39.5,23.8,39.4,23.9z"/>
			<path fill="#FFFFFF" d="M31.5,5.5L31.5,5.5C31.5,5.5,31.5,5.5,31.5,5.5L31.5,5.5z"/>
			<path fill="#FFFFFF" d="M24.7,38.9c0,0-0.1,0-0.3,0C24.5,39,24.6,38.9,24.7,38.9z"/>
			<path fill="#FFFFFF" d="M11.4,36.7l0.4,0.2C11.6,36.8,11.6,36.8,11.4,36.7C11.5,36.7,11.5,36.8,11.4,36.7z"/>
			<path fill="#FFFFFF" d="M8.7,34.4c-0.1-0.1-0.1-0.1-0.1-0.1l0,0C8.7,34.4,8.9,34.5,8.7,34.4z"/>
			<path fill="#FFFFFF" d="M10.4,35.9c0,0,0.1,0.1,0.2,0.2L10.4,35.9z"/>
			<path fill="#FFFFFF" d="M13.6,37.9c-0.2,0,0.9,0.3,0.2,0C13.7,37.8,13.7,37.9,13.6,37.9z"/>
			<path fill="#FFFFFF" d="M17.7,39l0.5,0.1c0.1,0-0.1,0-0.3-0.1C17.8,39,17.6,39,17.7,39z"/>
			<path fill="#FFFFFF" d="M16.5,38.6L16.5,38.6l-0.2-0.1C16.4,38.6,16.4,38.6,16.5,38.6z"/>
			<path fill="#FFFFFF" d="M17.8,38.9C17.7,38.9,17.2,38.8,17.8,38.9C17.7,38.9,18.4,39,17.8,38.9z"/>
			<polygon fill="#FFFFFF" points="25.1,39 25.2,38.9 25.1,38.9 			"/>
			<path fill="#FFFFFF" d="M30.5,36.1c-0.1,0.1,0.4-0.2,0.3-0.1c0.3-0.2,0.4-0.3,0.3-0.3C30.5,36,31,35.8,30.5,36.1z"/>
			<polygon fill="#FFFFFF" points="2.4,19.7 2.4,20.1 2.4,19.9 			"/>
			<path fill="#FFFFFF" d="M2.4,20.8c0-0.1,0-0.3,0-0.3l-0.1,0.1L2.4,20.8z"/>
			<path fill="#FFFFFF" d="M38.8,15.5L38.8,15.5c0,0,0-0.1-0.1-0.3C38.8,15.2,38.9,15.5,38.8,15.5z"/>
			<polygon fill="#FFFFFF" points="36.7,10.8 36.7,10.9 36.7,10.7 			"/>
			<path fill="#FFFFFF" d="M33.9,7.5c0.1,0.1,0.3,0.2,0.4,0.4C34,7.6,33.9,7.4,33.9,7.5z"/>
			<path fill="#FFFFFF" d="M22.1,28C22.1,28,22,28,22.1,28C22,28,22.1,28,22.1,28z"/>
			<polygon fill="#FFFFFF" points="22.3,28.1 22.3,28.1 22.3,28.1 			"/>
			<path fill="#FFFFFF" d="M22.4,28.1L22.4,28.1L22.4,28.1C22.4,28.1,22.4,28.2,22.4,28.1C22.5,28.1,22.4,28.2,22.4,28.1z"/>
			<path fill="#FFFFFF" d="M22.4,28.4C22.4,28.4,22.4,28.4,22.4,28.4C22.4,28.4,22.4,28.4,22.4,28.4L22.4,28.4z"/>
			<path fill="#FFFFFF" d="M22.4,28.5C22.4,28.5,22.5,28.4,22.4,28.5L22.4,28.5C22.4,28.4,22.4,28.5,22.4,28.5z"/>
			<path fill="#FFFFFF" d="M22.5,28.4L22.5,28.4C22.5,28.4,22.5,28.4,22.5,28.4C22.5,28.4,22.5,28.4,22.5,28.4z"/>
			<path fill="#FFFFFF" d="M22.5,28.4C22.5,28.3,22.4,28.3,22.5,28.4C22.4,28.3,22.4,28.3,22.5,28.4z"/>
			<path fill="#FFFFFF" d="M22.5,28.1L22.5,28.1C22.5,28.1,22.5,28.2,22.5,28.1L22.5,28.1z"/>
			<path fill="#FFFFFF" d="M22.6,28.6C22.6,28.5,22.6,28.5,22.6,28.6L22.6,28.6C22.6,28.5,22.6,28.5,22.6,28.6z"/>
			<polygon fill="#FFFFFF" points="22.6,28.3 22.6,28.3 22.5,28.3 			"/>
			<polygon fill="#FFFFFF" points="22.7,28.6 22.6,28.6 22.7,28.6 			"/>
			<path fill="#FFFFFF" d="M22.7,28.7C22.7,28.7,22.7,28.7,22.7,28.7C22.7,28.7,22.7,28.7,22.7,28.7C22.7,28.7,22.7,28.7,22.7,28.7z
				"/>
			<path fill="#FFFFFF" d="M22.7,28.5C22.7,28.5,22.7,28.6,22.7,28.5L22.7,28.5L22.7,28.5z"/>
			<path fill="#FFFFFF" d="M22.7,28.5L22.7,28.5C22.7,28.5,22.7,28.5,22.7,28.5C22.7,28.5,22.7,28.5,22.7,28.5z"/>
			<path fill="#FFFFFF" d="M22.6,28.4C22.6,28.4,22.7,28.4,22.6,28.4C22.6,28.4,22.6,28.4,22.6,28.4z"/>
			<path fill="#FFFFFF" d="M22.7,28.4C22.7,28.5,22.7,28.5,22.7,28.4L22.7,28.4L22.7,28.4z"/>
			<polygon fill="#FFFFFF" points="22.7,28.5 22.7,28.5 22.7,28.5 			"/>
			<path fill="#FFFFFF" d="M22.8,28.6C22.8,28.6,22.8,28.6,22.8,28.6C22.8,28.6,22.8,28.6,22.8,28.6C22.8,28.6,22.8,28.6,22.8,28.6z
				"/>
			<polygon fill="#FFFFFF" points="23,28.7 23,28.7 23,28.7 			"/>
			<path fill="#FFFFFF" d="M22.8,28.6C22.8,28.6,22.8,28.6,22.8,28.6C22.8,28.6,22.8,28.6,22.8,28.6C22.8,28.6,22.8,28.6,22.8,28.6z
				"/>
			<path fill="#FFFFFF" d="M22.7,28.6C22.7,28.6,22.8,28.6,22.7,28.6C22.8,28.6,22.8,28.6,22.7,28.6L22.7,28.6z"/>
			<path fill="#FFFFFF" d="M23.1,28.5C23.2,28.5,23.2,28.5,23.1,28.5C23.1,28.5,23.1,28.5,23.1,28.5c-0.1,0-0.1,0.1-0.2,0.2
				c0,0,0,0,0.1,0C23,28.6,23,28.6,23.1,28.5c-0.1,0-0.1,0.1-0.1,0.1C23.1,28.6,23.2,28.6,23.1,28.5L23.1,28.5z"/>
			<path fill="#FFFFFF" d="M22.9,28.7L22.9,28.7C22.9,28.7,22.9,28.7,22.9,28.7C23,28.7,23,28.7,22.9,28.7L22.9,28.7L22.9,28.7z"/>
			<path fill="#FFFFFF" d="M23,28.6C22.9,28.5,22.9,28.6,23,28.6C22.9,28.6,22.9,28.6,23,28.6c-0.1,0.1-0.1,0.1-0.1,0.1l0,0l0,0h0
				l0,0C22.9,28.7,22.9,28.7,23,28.6L23,28.6l-0.1,0.1l0,0l0.1,0C22.9,28.7,22.9,28.6,23,28.6C22.9,28.6,22.9,28.6,23,28.6z"/>
			<path fill="#FFFFFF" d="M22.7,28.3L22.7,28.3C22.7,28.4,22.7,28.4,22.7,28.3C22.7,28.4,22.7,28.4,22.7,28.3
				C22.8,28.3,22.7,28.3,22.7,28.3C22.7,28.3,22.7,28.3,22.7,28.3C22.7,28.3,22.7,28.3,22.7,28.3z"/>
			<path fill="#FFFFFF" d="M22.9,28.4L22.9,28.4C22.8,28.4,22.8,28.5,22.9,28.4L22.9,28.4L22.9,28.4z"/>
			<polygon fill="#FFFFFF" points="22.9,28.8 23,28.7 23,28.7 			"/>
			<polygon fill="#FFFFFF" points="23,28.8 23,28.8 23,28.8 			"/>
			<path fill="#FFFFFF" d="M24.8,29.1L24.8,29.1C24.7,29.1,24.7,29.1,24.8,29.1C24.7,29.1,24.8,29.2,24.8,29.1z"/>
			<path fill="#FFFFFF" d="M25.4,28.2C25.4,28.2,25.4,28.2,25.4,28.2L25.4,28.2L25.4,28.2z"/>
			<path fill="#FFFFFF" d="M23.7,29C23.7,29.1,23.7,29.1,23.7,29C23.7,29.1,23.7,29,23.7,29z"/>
			<path fill="#FFFFFF" d="M23.3,28.9L23.3,28.9C23.3,28.9,23.3,28.9,23.3,28.9L23.3,28.9z"/>
			<polygon fill="#FFFFFF" points="24.8,28.5 24.8,28.5 24.8,28.5 			"/>
			<path fill="#FFFFFF" d="M24.8,28.5C24.8,28.5,24.8,28.5,24.8,28.5l0.1,0.2L24.8,28.5z"/>
			<path fill="#FFFFFF" d="M25.9,27.5C25.8,27.5,25.8,27.5,25.9,27.5c-0.1,0,0-0.1,0-0.1c0,0,0,0,0,0c0,0,0-0.1-0.1-0.1
				c0.2,0-0.1-0.2,0.1-0.2l0-0.1l0,0c0-0.1,0-0.1-0.1-0.1c0,0,0,0,0,0c0-0.1,0-0.1-0.1-0.1l0.1,0c0,0,0.1-0.1,0-0.2c0,0,0,0,0,0
				c-0.1-0.1,0.1-0.2-0.1-0.2l-0.1,0c0,0.1-0.1,0-0.1,0c0,0,0-0.1,0.1,0l0,0c0.1,0,0-0.1,0.1-0.1c0-0.1,0-0.3,0-0.4l-0.1,0l0,0
				c0,0,0.1,0,0.1,0c0,0-0.1,0-0.1,0c0-0.1,0.1,0,0.1,0l0,0l0,0c0,0-0.1,0-0.1,0c0,0,0,0,0,0c0,0,0,0,0,0l0-0.1l-0.1,0
				c0,0,0-0.1-0.1,0c0.1-0.1,0-0.2,0-0.2c-0.1,0-0.1,0-0.1-0.1c0,0-0.1,0-0.1,0c0.1,0,0-0.1,0.1-0.1c-0.1,0.1-0.1-0.1-0.1,0
				c0,0,0,0,0.1-0.1c-0.1,0,0-0.2-0.1-0.2c0,0,0,0-0.1,0l0.1-0.1c0,0-0.1,0-0.1,0c0,0,0,0,0,0c0-0.2-0.2-0.3-0.2-0.5c0,0,0,0,0,0
				c0,0,0,0-0.1,0l0-0.1c-0.1,0,0-0.1-0.1,0l0,0c-0.1,0-0.1,0.1-0.2,0.2c0.1,0-0.1,0.1,0.1,0.1c0,0,0,0-0.1,0c0,0,0.1,0,0.1,0l0,0
				c0.1,0.1,0,0.1,0.1,0.2l0,0c0,0,0,0,0,0c0.1,0,0-0.1,0.1-0.1c-0.1,0.1,0.1,0.1,0,0.2c0,0,0,0,0.1,0l0,0l0,0c0,0,0,0-0.1,0.1
				c0,0,0,0,0,0c0,0,0,0.1,0,0.1l0,0c0.1,0.1,0.1,0.2,0.2,0.2l0-0.2c0.1,0,0,0,0,0c0,0,0,0.2,0,0.2c0,0,0,0.1-0.1,0.1
				c0.1,0,0.1,0.1,0.2,0.1l0,0c0,0,0.1,0,0.1,0c0,0-0.1,0-0.1,0c-0.1,0.1,0.1,0.1,0,0.2c0.1,0,0-0.1,0.1-0.1c0,0,0.1,0,0.1,0
				c0,0-0.1,0.1-0.1,0.1c0,0,0,0,0,0c0,0,0,0,0,0.1c0.1,0,0,0,0.1,0l0,0c0,0,0.1,0,0.1,0.1c0,0,0,0-0.1,0c0,0,0,0,0,0
				c-0.1,0,0-0.1-0.1-0.1c0,0,0.1,0,0,0.1c0.1,0,0,0.1,0.1,0.1l-0.1,0c0,0,0,0,0,0l-0.1,0c0.1,0,0,0.1,0,0.1c0-0.1,0.1,0,0.1-0.1
				c0.1,0.1-0.1,0.1-0.1,0.2c0,0,0-0.1,0,0c0,0,0,0,0,0.1c0,0.1,0,0,0.1,0c-0.1,0,0,0,0.1,0l-0.1,0c0,0.1,0.1,0,0.1,0.1l-0.1,0l0,0
				l-0.1,0c0,0,0,0,0,0.1c0,0,0.1,0,0.1,0c0,0-0.1,0,0,0c0,0-0.1,0,0,0l-0.1,0c0,0,0,0.1,0,0.1c0,0,0,0,0,0l0.1,0.1c0,0,0,0-0.1,0
				c0,0,0,0,0,0c0,0-0.1,0-0.1,0l0,0.1c0,0,0,0-0.1,0c0,0,0.1,0.1,0.1,0.1c0,0,0,0,0,0c0,0-0.1,0.1,0,0.1l-0.1,0c0,0,0.1,0,0.1,0
				c0,0-0.1,0-0.1,0c0,0,0.1,0.1,0.1,0.1c0,0,0,0,0,0l0,0c-0.1,0,0-0.1-0.1,0c0.1,0,0,0.1,0.1,0.1l0,0c0,0,0,0,0,0
				c-0.1,0,0.1,0,0.1,0.1c0,0,0,0-0.1,0l0,0c0,0,0,0,0,0l0,0.1l0,0c0,0,0.1,0,0.1,0c0,0,0,0,0,0l0,0c0,0-0.1,0-0.1,0
				c-0.1,0,0,0-0.1,0.1l0,0c-0.1,0-0.1,0-0.1,0.1c0,0,0.1,0,0.2,0c0,0,0,0,0,0c-0.1,0,0,0,0,0l-0.1,0c0,0,0,0,0.1,0.1
				c0,0-0.1,0-0.1,0c0,0,0.1,0,0.1,0c0,0,0,0.1,0,0.1c0,0,0,0-0.1,0l0,0c0,0,0,0,0,0c0,0,0.1,0,0.1,0.1c0.1,0-0.1,0-0.1,0.1
				c0,0,0,0-0.1,0c0,0.1,0,0.1,0.1,0.1l-0.1,0c0.1,0,0.1,0.1,0.1,0.1c0,0,0.1,0,0.1,0l0,0.1c0,0,0,0-0.1,0l0,0c0,0-0.1,0-0.1-0.1
				l0,0c0,0-0.1-0.1-0.1-0.1c0,0,0,0,0,0c0,0,0,0,0,0c0,0,0,0,0,0l-0.1,0l0,0l-0.1,0c0,0.1,0.1,0.2,0.1,0.2c0,0-0.1-0.1-0.1-0.1
				c0.1,0,0-0.1,0-0.1c0,0,0,0,0,0l0,0.1c0,0,0,0-0.1,0c0.1,0.1,0,0.1,0,0.1c0,0-0.1-0.1,0-0.1c-0.1,0,0.1,0.1,0,0.1c0,0,0,0,0,0
				c0,0,0,0.1,0,0l0,0c0,0-0.1,0.1-0.1,0.2c0,0-0.1-0.1-0.1-0.1c0,0,0.1,0.3,0.1,0.3c0-0.1-0.2-0.2-0.1-0.3c0,0,0,0,0,0
				c0,0,0.1,0.1,0.1,0.1c-0.1-0.1,0,0-0.1-0.1c0,0,0.1,0.1,0,0.1c0,0-0.1-0.1-0.1-0.1l0,0.1c0,0,0-0.1-0.1-0.1c0,0,0,0,0,0l0,0
				c-0.1,0,0,0.2-0.1,0.2c0,0,0-0.2-0.1-0.2c0,0.1,0,0.3,0,0.4l0,0l0,0c0-0.1,0.1-0.3,0.1-0.4c0,0,0,0,0,0c0,0,0-0.1,0-0.1
				c0,0-0.1,0-0.1,0c0,0.1,0,0.1,0,0.1l0.1-0.1c0,0.1,0,0.2-0.1,0.2c0,0,0-0.1,0-0.2c0,0,0,0,0,0l0,0c0,0,0,0.1-0.1,0c0,0,0-0.1,0,0
				c0,0.1,0,0.3,0,0.4c0,0-0.1-0.1-0.1-0.1c0-0.1,0-0.2,0-0.2c0,0,0,0,0,0.1c0,0,0-0.1,0-0.1c0,0.1-0.1,0,0,0.1c0,0,0,0-0.1,0
				c0,0-0.1,0.2-0.1,0.2c0,0,0,0,0-0.1c-0.1,0-0.1-0.1-0.1-0.1c0,0,0,0,0-0.1c0,0,0,0,0,0c0-0.1,0,0,0-0.1c0,0-0.1,0-0.1,0.1
				c0,0.1,0.1,0,0.1,0c0,0.1-0.1,0.2-0.2,0.2c-0.1,0,0-0.1,0-0.1c-0.1-0.1-0.1,0.1-0.2,0c0-0.1,0-0.1,0.1-0.1c0,0,0,0.1,0.1,0.1l0,0
				c0,0,0,0,0.1,0c0-0.1-0.1-0.1-0.2-0.1c0,0,0,0,0,0l0,0c0,0.1-0.1,0,0,0.1c0,0-0.1,0-0.1,0l0-0.1c0,0,0,0,0,0c0,0,0-0.1-0.1,0
				l0,0.1c0,0-0.1,0.1-0.1,0c0,0.1,0,0,0,0.1c0-0.1,0.1,0.1,0.1-0.1c0,0,0,0,0,0c0,0,0.1,0,0.1,0c0,0,0,0,0,0l0.1,0c0,0,0,0.1,0,0.1
				l0,0c0,0,0,0.1,0.1,0c0,0,0.1,0,0,0l0.1,0l0,0c0.1,0,0.2,0,0.2,0.1l0,0c0,0,0,0,0,0c0,0,0,0,0.1,0l0,0c0,0,0.1,0,0.1,0l0,0
				c0,0,0.1,0.1,0.1,0c0,0.1,0.1,0.1,0.2,0.1l0-0.1c0,0,0.1,0,0.1,0l0,0c0,0,0.1,0,0.2,0c0,0,0,0,0,0c0.1,0.1,0.1-0.1,0.2,0
				c0,0,0,0,0,0l0,0c0,0,0,0,0,0l0,0c0,0,0,0,0,0c0,0,0,0,0,0l0,0l0,0c0,0,0,0,0-0.1c0,0,0,0,0,0c0,0.1,0,0,0.1,0c0,0,0.1-0.1,0-0.1
				c0,0,0,0,0,0c0,0,0,0,0,0l0,0.1l0-0.1c0,0,0.1,0,0.1,0.1c0-0.1,0-0.1,0-0.2l0,0c0,0,0-0.1,0-0.1c0.1,0,0.2-0.1,0.3-0.2
				c-0.1-0.1,0.1,0,0-0.1c0,0,0.1,0,0.1,0c0-0.1,0.1,0,0-0.1c0,0,0,0,0,0c0,0,0,0,0,0c0,0,0,0,0,0c0-0.1-0.1-0.1-0.1-0.2
				c0,0,0,0,0-0.1c0,0,0.1,0,0.1,0c0,0,0.1-0.1,0-0.1c0,0,0,0,0,0c0,0,0,0,0-0.1l0,0c-0.1,0,0,0,0-0.1l0,0c0.1-0.1,0,0,0.1-0.1
				l-0.1,0c-0.1,0,0.1,0,0.1-0.1l0,0c0,0,0.2,0,0.2-0.1c0,0,0,0,0,0c0.1-0.1-0.1,0-0.1-0.1c0,0,0.1,0,0.1,0
				C25.9,27.6,25.8,27.5,25.9,27.5z M25.4,27.5C25.4,27.5,25.3,27.5,25.4,27.5C25.4,27.5,25.4,27.5,25.4,27.5z M23.4,28.9L23.4,28.9
				C23.4,29,23.4,29,23.4,28.9z"/>
			<path fill="#FFFFFF" d="M23.2,28.9L23.2,28.9C23.2,28.9,23.2,28.9,23.2,28.9z"/>
			<path fill="#FFFFFF" d="M23.2,28.9L23.2,28.9C23.2,28.9,23.2,28.9,23.2,28.9C23.2,28.9,23.2,28.9,23.2,28.9z"/>
			<path fill="#FFFFFF" d="M22.8,28.9L22.8,28.9L22.8,28.9l0.2,0l0.2,0c0,0,0-0.1,0-0.1c-0.1,0-0.1,0-0.2,0
				C23,28.9,22.8,28.9,22.8,28.9z"/>
			<polygon fill="#FFFFFF" points="25.3,26.8 25.3,26.8 25.3,26.7 			"/>
			<path fill="#FFFFFF" d="M23,28.5C23,28.5,23.1,28.5,23,28.5C23.1,28.5,23.1,28.5,23,28.5L23,28.5z"/>
			<path fill="#FFFFFF" d="M23.1,28.7L23.1,28.7C23.1,28.7,23.1,28.7,23.1,28.7C23.2,28.7,23.2,28.7,23.1,28.7z"/>
			<path fill="#FFFFFF" d="M23.3,28.9C23.3,28.9,23.3,29,23.3,28.9C23.3,29,23.4,28.9,23.3,28.9z"/>
			<polygon fill="#FFFFFF" points="23.2,28.6 23.2,28.6 23.2,28.6 			"/>
			<path fill="#FFFFFF" d="M23.3,28.7C23.3,28.7,23.3,28.7,23.3,28.7C23.3,28.7,23.3,28.7,23.3,28.7L23.3,28.7z"/>
			<polygon fill="#FFFFFF" points="23.3,28.6 23.3,28.6 23.3,28.6 			"/>
			<path fill="#FFFFFF" d="M23.7,28.8C23.7,28.8,23.7,28.8,23.7,28.8C23.7,28.8,23.7,28.8,23.7,28.8L23.7,28.8z"/>
			<path fill="#FFFFFF" d="M23.6,28.6L23.6,28.6C23.6,28.7,23.6,28.7,23.6,28.6L23.6,28.6z"/>
			<path fill="#FFFFFF" d="M23.7,28.6C23.7,28.6,23.7,28.6,23.7,28.6C23.7,28.7,23.8,28.6,23.7,28.6z"/>
			<polygon fill="#FFFFFF" points="24.2,28.9 24.2,28.9 24.2,29 			"/>
			<path fill="#FFFFFF" d="M24.6,28.5C24.5,28.5,24.6,28.6,24.6,28.5C24.5,28.6,24.6,28.6,24.6,28.5C24.6,28.6,24.6,28.6,24.6,28.5z
				"/>
			<path fill="#FFFFFF" d="M24.9,24.1L24.9,24.1C24.9,24.1,24.9,24.1,24.9,24.1C25,24.1,25,24.1,24.9,24.1L24.9,24.1L24.9,24.1
				c0.1,0,0.1,0,0.2,0L24.9,24.1L24.9,24.1L24.9,24.1L24.9,24.1L24.9,24.1l-0.1,0C24.8,24,24.9,24,24.9,24.1
				C24.9,24.1,24.9,24.1,24.9,24.1z"/>
			<path fill="#FFFFFF" d="M25.3,27.5L25.3,27.5L25.3,27.5C25.2,27.5,25.2,27.5,25.3,27.5z"/>
			<polygon fill="#FFFFFF" points="25.3,27.2 25.4,27.2 25.3,27.2 			"/>
			<path fill="#FFFFFF" d="M25.2,27C25.2,27,25.2,27,25.2,27C25.2,27,25.3,26.9,25.2,27z"/>
			<path fill="#FFFFFF" d="M24.5,23.2C24.5,23.2,24.5,23.2,24.5,23.2C24.5,23.3,24.5,23.2,24.5,23.2z"/>
			<polygon fill="#FFFFFF" points="23.8,22.8 23.8,22.8 23.7,22.7 			"/>
			<path fill="#FFFFFF" d="M23.4,22.7L23.4,22.7L23.4,22.7c-0.1-0.1-0.3,0-0.5,0C23.1,22.7,23.3,22.6,23.4,22.7z"/>
			<path fill="#FFFFFF" d="M22.6,23.2c0,0,0,0,0-0.2c0,0,0,0,0,0C22.5,23.1,22.5,23.1,22.6,23.2C22.5,23.2,22.6,23.2,22.6,23.2z"/>
			<path fill="#FFFFFF" d="M22.5,23C22.6,22.8,22.5,23.1,22.5,23L22.5,23z"/>
			<path fill="#FFFFFF" d="M22.7,23.6C22.9,23.7,22.9,23.7,22.7,23.6l-0.1-0.1C22.7,23.5,22.8,23.6,22.7,23.6z"/>
			<path fill="#FFFFFF" d="M22.9,23.6C22.9,23.6,22.9,23.6,22.9,23.6C22.9,23.6,22.9,23.6,22.9,23.6z"/>
			<path fill="#FFFFFF" d="M22.9,23.6C22.9,23.6,22.9,23.5,22.9,23.6c0,0-0.1-0.1-0.1-0.1L22.9,23.6z"/>
			<path fill="#FFFFFF" d="M22.7,23.4C22.7,23.3,22.6,23.2,22.7,23.4C22.6,23.1,22.5,23.1,22.7,23.4z"/>
			<path fill="#FFFFFF" d="M23.1,22.8L23.1,22.8C23.1,22.7,23,22.8,23.1,22.8C23,22.8,23.1,22.8,23.1,22.8z"/>
			<path fill="#FFFFFF" d="M23.4,23.9C23.5,23.9,23.4,23.9,23.4,23.9l-0.1-0.1C23.4,23.9,23.5,23.9,23.4,23.9z"/>
			<path fill="#FFFFFF" d="M23.4,23.9l0.1,0C23.4,23.8,23.4,23.8,23.4,23.9z"/>
			<path fill="#FFFFFF" d="M23,23.6L23,23.6c0,0-0.2-0.1-0.2-0.1C22.8,23.5,23,23.6,23,23.6z"/>
			<polygon fill="#FFFFFF" points="23.8,24.1 23.9,24 23.9,24 			"/>
			<path fill="#FFFFFF" d="M24.2,24.1C24.1,24.1,24.2,24.1,24.2,24.1c0.1,0.1,0.2,0.1,0.2,0C24.3,24.1,24.3,24.1,24.2,24.1z"/>
			<path fill="#FFFFFF" d="M23.8,24L23.8,24L23.8,24C23.7,23.9,23.8,24,23.8,24z"/>
			<path fill="#FFFFFF" d="M23.8,23.9C23.8,23.9,23.9,23.9,23.8,23.9C23.9,23.9,23.8,23.9,23.8,23.9L23.8,23.9z"/>
			<path fill="#FFFFFF" d="M23.4,23.7c-0.1,0,0,0.1-0.1,0.1C23.3,23.7,23.5,23.7,23.4,23.7z"/>
			<path fill="#FFFFFF" d="M23.5,23.9l0.1,0L23.5,23.9C23.6,23.8,23.6,23.8,23.5,23.9z"/>
			<polygon fill="#FFFFFF" points="23.7,23.8 23.7,23.8 23.7,23.9 			"/>
			<path fill="#FFFFFF" d="M24.3,24c0.1,0,0.1,0,0.2,0C24.4,24,24.3,24,24.3,24C24.3,24,24.2,24,24.3,24z"/>
			<polygon fill="#FFFFFF" points="25.1,24 25.1,24 25.1,24 			"/>
			<path fill="#FFFFFF" d="M24.3,24c0,0-0.1,0-0.1,0C24.2,24,24.2,24,24.3,24C24.3,24,24.3,24,24.3,24z"/>
			<path fill="#FFFFFF" d="M24.6,24C24.6,24.1,24.7,24.1,24.6,24C24.6,24.1,24.6,24.1,24.6,24z"/>
			<path fill="#FFFFFF" d="M24.1,24C24.1,24,24.1,24,24.1,24C24.1,24,24.1,24,24.1,24L24.1,24z"/>
			<path fill="#FFFFFF" d="M25.2,24c0,0-0.3-0.1-0.2-0.1C25.2,23.9,25.2,23.9,25.2,24c0-0.1,0.2-0.2,0.2-0.2l-0.1,0c0,0,0,0,0,0
				c0,0-0.1,0.1-0.2,0c-0.1,0,0,0.2,0.1,0.3C25.1,24,25.1,24,25.2,24z"/>
			<path fill="#FFFFFF" d="M24.6,24L24.6,24L24.6,24C24.6,24,24.6,24,24.6,24L24.6,24C24.6,24,24.6,24,24.6,24
				C24.7,24,24.6,24,24.6,24L24.6,24L24.6,24l0.2,0C24.8,24,24.7,24,24.6,24c0.1-0.1,0.2-0.1,0.1-0.1C24.5,23.9,24.6,23.9,24.6,24
				C24.7,24,24.4,24,24.6,24c0,0-0.1,0-0.1,0C24.5,24,24.5,24,24.6,24L24.6,24z"/>
			<path fill="#FFFFFF" d="M23.5,23.7C23.5,23.6,23.5,23.6,23.5,23.7C23.5,23.6,23.4,23.6,23.5,23.7L23.5,23.7
				c0.1,0.1,0.2,0.1,0.2,0.1C23.7,23.7,23.6,23.7,23.5,23.7C23.6,23.7,23.6,23.7,23.5,23.7z"/>
			<path fill="#FFFFFF" d="M24.1,23.8l0.2,0L24.1,23.8l0.1,0C24.1,23.8,24.1,23.8,24.1,23.8z"/>
			<polygon fill="#FFFFFF" points="25.2,24 25.1,24.1 25.1,24.1 			"/>
			<polygon fill="#FFFFFF" points="25.3,24.1 25.4,24.1 25.3,24 			"/>
			<path fill="#FFFFFF" d="M31,17.1L31,17.1L31,17.1C31.1,17.1,31.1,17.1,31,17.1z"/>
			<path fill="#FFFFFF" d="M27.6,13.7L27.6,13.7C27.6,13.7,27.6,13.7,27.6,13.7z"/>
			<path fill="#FFFFFF" d="M28.1,23.2C28.1,23.3,28.1,23.3,28.1,23.2c-0.1,0-0.1,0.1-0.2,0.1C28,23.3,28.1,23.3,28.1,23.2z"/>
			<path fill="#FFFFFF" d="M26.3,24C26.4,24,26.4,24,26.3,24C26.4,24,26.4,24,26.3,24C26.3,24,26.3,24,26.3,24z"/>
			<path fill="#FFFFFF" d="M25,15.5C25,15.5,25,15.5,25,15.5C25,15.5,25,15.5,25,15.5z"/>
			<polygon fill="#FFFFFF" points="30.4,19.6 30.4,19.6 30.4,19.6 			"/>
			<path fill="#FFFFFF" d="M30.4,19.4c0,0.1,0,0.1,0,0.2l0.1,0L30.4,19.4z"/>
			<path fill="#FFFFFF" d="M25.5,14.9C25.5,15,25.4,15,25.5,14.9C25.4,15,25.5,15,25.5,14.9z"/>
			<path fill="#FFFFFF" d="M23.6,19l-0.1,0.2c0,0.1,0.1,0.1,0,0.2c0,0,0,0,0,0c-0.2,0.7-0.1,1.4-0.3,2c0-0.1,0,0,0,0c0,0,0,0,0.1,0
				l-0.1,0.3c0.1,0.1,0,0.3,0.1,0.3l0-0.1c0.1,0.1,0.2-0.2,0.3-0.1c-0.1-0.1,0.2-0.3,0-0.6c0,0,0,0,0.1,0c0-0.1,0-0.1,0-0.2l0,0
				c0-0.3,0.1-0.5,0.2-0.9l-0.1,0c0-0.1,0-0.1,0.1-0.1c-0.1-0.1,0,0.2-0.1,0.1c0.1-0.1,0.1-0.6,0.2-0.6c0-0.1-0.1,0,0-0.1l0,0l0,0
				c0-0.1,0.1-0.1,0.1-0.1c0,0,0,0.1,0,0.1c0.1-0.1,0-0.3,0.1-0.3l0,0.1c0-0.3,0.2-0.8,0.2-1.1l0,0c0-0.3,0.1-0.2,0.1-0.5l0,0
				c0-0.1,0-0.1,0-0.2c0,0.1,0.1-0.1,0.1,0c0-0.3,0-0.1,0-0.3l0.1,0c0-0.1,0-0.1,0-0.2c0,0.1,0.1-0.1,0.1,0.1
				c0.2-0.3,0.1-0.4,0.2-0.5c-0.1-0.2-0.1,0.2-0.1,0.1c-0.1,0,0-0.1,0-0.2c0-0.1,0.2-0.1,0.3-0.3c0,0,0,0,0,0c0.1-0.1,0-0.2,0.1-0.3
				c0-0.1,0.1-0.1,0-0.2l-0.1,0.2c0-0.1,0-0.3,0.1-0.4c0,0,0,0.1,0,0.1c0,0,0-0.1,0.1-0.1c0.1,0.1-0.1,0.2-0.1,0.4
				c0.1,0,0.1-0.2,0.1-0.1c-0.1-0.1,0.1-0.2,0.1-0.4l0,0c0,0,0-0.1,0-0.1l0,0.1c0-0.1,0.1-0.1,0.1-0.2c0,0,0-0.1-0.1,0
				c0.1-0.3,0.2-0.1,0.4-0.4c0,0-0.1,0.1-0.1,0c0,0,0.1-0.1,0.2-0.1c0.1-0.2-0.1,0,0-0.1c0.1,0,0.1-0.1,0.1-0.2l0,0
				c0.2-0.2,0-0.1,0.2-0.2l0,0.1l0.1-0.1l0,0.1c0.1-0.1,0.1-0.1,0.2-0.2c0,0,0-0.1,0.1-0.2c0.1,0,0,0.1,0.1,0c0,0,0,0.1-0.1,0.1
				c0,0,0,0,0,0.1c0.1,0,0.2-0.1,0.2-0.1c0,0,0,0-0.1,0l0.2-0.2c0,0,0,0,0,0.1c0,0,0.1-0.1,0.1-0.1c0,0,0,0.1-0.1,0.1
				c0,0,0.2-0.1,0.2-0.1c0,0,0.1,0,0.1,0c0.1,0,0.3-0.1,0.4-0.1c0,0,0,0,0.1,0c0.2,0,0.3,0.1,0.5,0l0.1,0.1c0.1,0-0.1-0.1,0.1-0.1
				c0.2,0,0,0.1,0.1,0.1c0.1,0,0.2,0,0.4,0.1c-0.1,0-0.1,0-0.1,0l0.1,0.1c-0.2,0-0.2,0-0.2,0.1c0.1-0.1,0.4,0.1,0.5,0l0,0.1
				c0,0,0,0,0,0c0.1,0.1,0.1,0,0.3,0.1c0.1,0,0.1,0.1,0,0.1l0.1,0.1c0,0,0,0,0,0c0,0,0.2,0.1,0.2,0.1l0,0c0,0,0.1,0,0.1,0.1
				c0,0.1,0,0,0,0l0.1,0.1c0,0.1-0.1,0-0.1-0.1c0,0.2,0.1,0.1,0.2,0.3l-0.1-0.1c0,0.1,0.1,0.2,0.1,0.3c0,0-0.1-0.3,0-0.2
				c0,0,0,0.1,0.1,0.1c0,0,0,0.1,0.1,0.2l-0.1,0c0.1,0.1,0.1,0.1,0.1,0.1c0,0.1,0,0.1,0,0.2c0.1,0.2,0-0.1,0.1,0
				c0,0.1,0.1,0.2,0.2,0.4c0,0.1,0,0-0.1,0l0.1,0.1c0,0,0,0,0,0c0,0.1,0.1,0,0.1,0.1c0.1,0,0,0.3,0.1,0.4c0,0,0,0-0.1,0
				c0.1,0.2,0.1,0.2,0.2,0.3l0,0.2c0-0.1,0.1,0,0.2,0.1c0,0,0-0.1,0-0.1l0.1,0.2c0,0,0,0-0.1,0l0,0c0,0.1-0.1,0-0.1,0l0-0.1
				c0,0-0.1-0.1-0.1-0.1c0,0,0,0,0,0.1c0,0,0,0,0,0c0,0,0,0,0,0.1l-0.1,0l0,0c0,0-0.1,0.3-0.1,0.3c0.1,0.2,0.2,0.4,0.2,0.7
				c-0.1-0.1-0.1,0-0.2,0c0.1-0.1,0-0.2,0-0.4c0,0.1,0,0.1-0.1,0l0.1,0.3c-0.1,0,0,0.1-0.1,0.1c0.1,0,0,0.2,0,0.3c0,0-0.1,0,0-0.2
				c-0.1,0.1,0.1,0.2,0,0.3c0,0,0,0,0-0.1c0,0.1,0,0.3-0.1,0.2l0,0c0,0.2-0.2,0.6-0.1,0.7c0,0-0.1-0.1-0.1-0.1l0.2,0.5
				c-0.1-0.1-0.3,0-0.3-0.2c0,0-0.1,0.1-0.1,0.2c0,0,0.1,0,0.1,0c-0.1,0.1-0.1,0.1-0.2,0.2c0,0,0.1,0.1,0.1,0.1c0,0-0.1,0-0.1-0.1
				l0,0.2c0-0.1-0.1-0.1-0.1,0c0,0-0.1,0.2-0.1,0.2l0.1-0.1c-0.1,0.2,0.1,0.3-0.1,0.5c0,0-0.1-0.1-0.2,0c0,0.1,0.1,0.4,0,0.6l-0.1,0
				l-0.1,0.2c0-0.1,0-0.5,0-0.7c-0.1,0.1,0,0-0.1,0.1c-0.1,0,0-0.1,0-0.1l-0.2,0.2c0.1,0-0.1,0.2,0,0.3l0.1-0.3
				c0.1,0,0.1,0.3-0.1,0.5c-0.1,0-0.1-0.1-0.1-0.1c0,0-0.1,0.2-0.1,0.2l0-0.1c-0.1,0.1-0.1,0.2-0.2,0.3c0,0-0.2,0-0.1,0.1
				c0.1,0,0.3,0.2,0.3,0.2c0,0-0.2,0.1-0.3,0.2c-0.1,0,0-0.2-0.1-0.2c0,0,0,0.1,0,0.1c-0.1,0,0-0.1-0.1,0c0,0.1-0.2,0.1,0,0.1
				c-0.1,0.1-0.1,0.1-0.2,0.1c0.1,0,0,0.2-0.1,0.3c0,0,0,0-0.1,0c-0.2,0.1-0.3,0.2-0.5,0.3c0,0-0.1,0-0.1,0c0,0,0,0.1-0.1,0.1
				c-0.1,0,0.1-0.1,0-0.1c0,0-0.1,0.1-0.2,0.2c0.1,0,0.2-0.1,0.3-0.2c0,0.1-0.1,0.2-0.3,0.4c-0.2,0.1-0.1,0-0.1,0
				c-0.3,0.1-0.2,0.2-0.5,0.3c-0.1,0,0-0.1-0.1-0.1c0.1-0.1,0.2,0,0.3-0.1l-0.1,0c0,0,0.1-0.1,0.2-0.1c-0.1,0-0.6,0.2-0.8,0.2
				c0,0-0.1,0.1-0.1,0.1l0.1,0c0.1,0-0.1,0.1,0,0.1c-0.1,0.1-0.2,0.1-0.4,0.1l0-0.1c0,0,0.1,0,0.2,0c-0.1,0-0.3-0.1-0.3,0l0.1,0
				c-0.1,0-0.3,0.1-0.4,0.1c0.1,0.1,0,0,0.1,0.1c-0.1-0.1,0.4,0,0.2-0.1c0.1,0.1,0.2,0,0.3,0.1c0,0-0.1,0,0.1,0c0,0,0,0,0,0
				c0,0,0,0,0,0l0,0c0,0,0,0,0,0c0,0-0.1,0-0.1,0c0.1,0,0.2-0.1,0.3-0.1c0.1,0,0,0,0,0l0.1-0.1c0,0,0.2,0,0,0.1l0.1,0
				c0.1,0,0.2,0,0.3-0.1c0.1,0,0.2-0.1,0.1-0.1c0,0,0.2-0.1,0.2-0.1l0,0c0.1-0.1,0.3-0.2,0.4-0.2c0,0,0,0,0,0c0.1,0,0.1,0,0.2-0.1
				c0,0-0.1,0-0.1,0c0.1,0,0.2-0.1,0.2-0.1c0.1-0.1,0.1-0.1,0.3-0.2l0,0c0.1-0.1,0.3-0.2,0.3-0.2c0.2,0,0.4-0.3,0.6-0.4l0,0
				c0.1-0.1,0.2-0.2,0.2-0.3l0,0c0.1-0.1,0.3-0.2,0.4-0.4c0,0,0,0,0,0c0.2-0.2,0.2-0.4,0.4-0.6c0-0.1,0-0.1,0.1-0.1c0,0,0,0,0,0l0,0
				c0,0,0,0,0.1-0.1c0,0,0,0.1-0.1,0.1c0,0,0.1-0.1,0.1-0.1h0.1c0,0,0,0,0,0c0,0,0.1,0,0,0h0c0,0,0-0.1-0.1-0.1c0,0,0-0.1,0-0.1
				c0.1,0,0-0.2,0.2-0.2c0-0.1,0.1-0.3,0-0.4c0,0,0,0,0,0c0-0.1,0.1-0.1,0.1-0.2l0.1,0l0-0.2c0.1-0.1,0.1-0.1,0.1,0
				c0-0.2,0-0.2,0-0.4l0,0c0-0.1,0-0.2,0-0.2c0.2-0.1,0.2-0.7,0.3-1.1c-0.1,0.1,0.1-0.2,0-0.2c0,0,0.1-0.1,0.1,0
				c0-0.2,0.1-0.3,0-0.5c0,0,0,0,0.1,0c0,0,0-0.1,0-0.1c0,0,0,0,0,0.1c0-0.2-0.1-0.2-0.2-0.2c0-0.1,0-0.2,0-0.2c0,0,0-0.1,0.1,0
				c0-0.1,0-0.4-0.1-0.4c0,0,0-0.1,0-0.1c0-0.2,0-0.2-0.1-0.3l0,0C31,16.1,31,16,31,15.9l0,0c0-0.3-0.1-0.1-0.1-0.4l0,0
				c-0.1,0-0.1-0.3-0.2-0.4l0,0.1c-0.1-0.1,0-0.3,0-0.4c0,0,0,0,0,0c-0.1-0.3-0.1,0-0.2-0.2c0,0,0.1,0,0-0.1c0-0.1-0.3-0.2-0.4-0.4
				c0,0,0,0.1-0.1,0c-0.1-0.1-0.2-0.3-0.3-0.3c0,0,0,0,0,0c-0.1,0-0.3-0.2-0.4-0.1c0-0.3-0.6-0.2-0.5-0.3l-0.3-0.1l0,0
				c-0.2-0.1-0.3,0-0.3,0c0,0,0,0,0,0c-0.3-0.1-0.3-0.1-0.6,0l0-0.1c-0.1,0-0.4-0.1-0.7,0.1c0,0,0,0,0,0c-0.3,0.1-0.8,0.2-0.8,0.4
				c0,0-0.2,0.2-0.1,0.2c0.2-0.1,0,0.1,0.1,0.1c-0.1,0.1-0.2,0.1-0.2,0l0,0c0-0.1-0.3,0.2-0.3,0.1c-0.4,0.4-0.7,0.8-1,1.2l0.1,0
				l-0.1,0.1c0,0-0.1,0,0-0.1c-0.1,0-0.1,0.2,0,0.2c-0.1,0.2,0-0.1-0.1-0.1l0,0.1l0,0c0,0.1,0,0.1,0,0.2c-0.1,0.1-0.1,0-0.1,0.1
				c0,0,0,0,0,0.1L24.3,16l0.1-0.1c0,0.1-0.1,0.2,0,0.1c-0.2,0.1-0.3,0.7-0.4,0.8c0,0.1,0,0.3-0.1,0.4c0,0,0.1,0,0.1,0.1
				c-0.1-0.1-0.1,0.2-0.3,0.3c0.1-0.1-0.1,0.4,0.1,0.3c0,0.1-0.1,0-0.1,0.1C23.7,18.3,23.5,18.6,23.6,19C23.5,19,23.6,18.9,23.6,19z
				 M26.9,23.8L26.9,23.8C27,23.8,26.9,23.8,26.9,23.8z M30.1,14.8C30,14.8,30,14.7,30.1,14.8C30,14.7,30,14.7,30.1,14.8z
				 M24.5,15.8C24.4,15.9,24.4,15.8,24.5,15.8L24.5,15.8z"/>
			<path fill="#FFFFFF" d="M29.8,21.7C29.8,21.8,29.7,21.8,29.8,21.7C29.7,21.8,29.8,21.8,29.8,21.7z"/>
			<polygon fill="#FFFFFF" points="27.6,13.7 27.6,13.7 27.6,13.7 			"/>
			<path fill="#FFFFFF" d="M25.8,24l0.1,0C25.9,24,25.8,24,25.8,24C25.8,24,25.8,24,25.8,24z"/>
			<path fill="#FFFFFF" d="M24.8,23.8C24.8,23.8,24.8,23.8,24.8,23.8L24.8,23.8C24.8,23.8,24.9,23.8,24.8,23.8z"/>
			<path fill="#FFFFFF" d="M25.5,23.9c0,0.1,0.1,0,0.1,0C25.7,23.8,25.6,23.9,25.5,23.9C25.5,23.9,25.5,23.9,25.5,23.9z"/>
			<path fill="#FFFFFF" d="M25.5,23.9C25.5,23.9,25.5,23.9,25.5,23.9C25.4,23.9,25.5,23.9,25.5,23.9z"/>
			<path fill="#FFFFFF" d="M26.5,23.9C26.4,24,26.7,23.8,26.5,23.9C26.5,23.9,26.5,23.9,26.5,23.9z"/>
			<polygon fill="#FFFFFF" points="25.7,23.8 25.6,23.7 25.6,23.8 			"/>
			<path fill="#FFFFFF" d="M26.1,23.7C26.1,23.7,26.1,23.7,26.1,23.7c0,0,0.1,0,0.1,0L26.1,23.7z"/>
			<polygon fill="#FFFFFF" points="25.9,23.7 25.8,23.7 25.8,23.7 			"/>
			<path fill="#FFFFFF" d="M27.5,23.3C27.5,23.3,27.4,23.3,27.5,23.3L27.5,23.3C27.6,23.2,27.5,23.2,27.5,23.3z"/>
			<path fill="#FFFFFF" d="M27,23.3C27.1,23.3,27.1,23.4,27,23.3L27,23.3L27,23.3z"/>
			<path fill="#FFFFFF" d="M27.4,23.1C27.4,23.2,27.3,23.2,27.4,23.1C27.4,23.2,27.5,23.1,27.4,23.1z"/>
			<polygon fill="#FFFFFF" points="29,22.2 29.1,22.2 29,22.1 			"/>
			<path fill="#FFFFFF" d="M29.9,20.7c0-0.1,0.1-0.1,0-0.1C29.8,20.7,29.9,20.7,29.9,20.7C29.8,20.8,29.9,20.7,29.9,20.7z"/>
			<polygon fill="#FFFFFF" points="23.1,22 23.2,22 23.2,21.9 			"/>
			<path fill="#FFFFFF" d="M23.2,22.1L23.2,22.1L23.2,22.1C23.2,22.2,23.2,22.1,23.2,22.1z"/>
			<path fill="#FFFFFF" d="M30.1,15L30.1,15L30.1,15C30.1,15,30.1,15,30.1,15z"/>
			<polygon fill="#FFFFFF" points="29.3,14.2 29.3,14.2 29.3,14.1 			"/>
			<path fill="#FFFFFF" d="M28.3,13.8c0,0,0.1,0,0.1,0C28.3,13.9,28.3,13.8,28.3,13.8z"/>
			<path fill="#FFFFFF" d="M17.6,24.9c-0.1,0-0.1,0-0.1,0C17.7,24.9,17.6,24.9,17.6,24.9z"/>
			<path fill="#FFFFFF" d="M18.9,23.5c0,0,0,0.2,0,0.2l0,0C19,23.8,18.9,23.5,18.9,23.5z"/>
			<path fill="#FFFFFF" d="M18,21.6C18,21.6,18,21.6,18,21.6c-0.1,0-0.1-0.1-0.2-0.1C17.9,21.6,17.7,21.4,18,21.6z"/>
			<path fill="#FFFFFF" d="M18,21.6C18.2,21.7,17.9,21.5,18,21.6L18,21.6z"/>
			<path fill="#FFFFFF" d="M15.8,21.2c0,0,0.1,0,0.1,0.1l0.2,0C16,21.2,15.8,21.2,15.8,21.2z"/>
			<path fill="#FFFFFF" d="M15.9,21.2c0,0-0.2,0-0.2,0.1C15.9,21.2,15.9,21.2,15.9,21.2z"/>
			<path fill="#FFFFFF" d="M14.9,21.4c0,0,0.1-0.1,0.1-0.1C15,21.3,14.8,21.4,14.9,21.4L14.9,21.4z"/>
			<path fill="#FFFFFF" d="M13.8,21.8c0.1-0.1,0.3-0.2,0.4-0.2c0.1-0.1-0.2,0-0.1-0.1C14.1,21.6,13.9,21.7,13.8,21.8z"/>
			<path fill="#FFFFFF" d="M15.1,21.3l0.1,0c0,0,0.1,0,0.1,0C15.2,21.3,15.2,21.3,15.1,21.3z"/>
			<path fill="#FFFFFF" d="M15.2,21.4L15.2,21.4c-0.1,0-0.2,0-0.2,0C15,21.4,15,21.4,15.2,21.4z"/>
			<path fill="#FFFFFF" d="M16.3,21.3c-0.1,0-0.4,0.1-0.2,0.1C16.3,21.3,16.1,21.3,16.3,21.3z"/>
			<path fill="#FFFFFF" d="M15.7,21.3C15.7,21.3,15.6,21.3,15.7,21.3l-0.3,0L15.7,21.3z"/>
			<polygon fill="#FFFFFF" points="15.3,21.4 15.4,21.4 15.3,21.4 			"/>
			<path fill="#FFFFFF" d="M14.1,21.8c-0.1,0.1-0.2,0.1-0.3,0.2C13.9,21.9,14,21.8,14.1,21.8C14.2,21.7,14.2,21.7,14.1,21.8z"/>
			<polygon fill="#FFFFFF" points="12.8,22.9 12.8,22.9 12.8,22.9 			"/>
			<path fill="#FFFFFF" d="M14.4,21.7c-0.1,0-0.2,0.1-0.2,0.1c0,0,0,0,0,0C14.3,21.7,14.4,21.7,14.4,21.7z"/>
			<path fill="#FFFFFF" d="M13.5,22.1c-0.1,0-0.2,0.1-0.2,0.1C13.4,22.2,13.5,22.2,13.5,22.1z"/>
			<path fill="#FFFFFF" d="M14.5,21.6L14.5,21.6C14.5,21.6,14.5,21.6,14.5,21.6z"/>
			<path fill="#FFFFFF" d="M14.5,21.6c-0.1,0-0.1,0.1-0.1,0.1C14.5,21.6,14.5,21.6,14.5,21.6C14.6,21.6,14.6,21.6,14.5,21.6z"/>
			<path fill="#FFFFFF" d="M13,23c-0.2,0.3-0.2,0.2-0.3,0.3c0.1-0.1-0.1,0.4,0,0.4l0.1-0.3c0,0,0,0.1,0,0c0,0,0.1-0.3,0.3-0.5
				c0.1-0.2-0.1-0.2-0.3-0.1c0,0,0,0-0.1,0.2C12.7,23.1,13.1,22.8,13,23z"/>
			<path fill="#FFFFFF" d="M13.1,22.5L13.1,22.5c0,0-0.1,0.1-0.2,0.2c-0.1,0.2-0.1,0.2-0.1,0.2L13.1,22.5L13.1,22.5z"/>
			<path fill="#FFFFFF" d="M13.5,22.4c0.2-0.2,0.2-0.2,0.3-0.3c-0.4,0.3,0.1-0.1-0.2,0.1c0.1-0.1,0.2-0.1,0.2-0.2
				c-0.1,0-0.1,0.1-0.2,0.1l0,0l0,0v0c0,0,0,0,0,0l0,0c0,0,0,0,0,0c-0.1,0.1,0,0,0,0l0,0l0,0c0,0-0.4,0.3-0.4,0.3
				c0.1-0.1,0.2-0.2,0.4-0.3C13.5,22.2,13.3,22.4,13.5,22.4z"/>
			<path fill="#FFFFFF" d="M15.9,21.5C15.9,21.5,15.9,21.5,15.9,21.5C15.9,21.5,15.9,21.5,15.9,21.5z"/>
			<path fill="#FFFFFF" d="M15.5,21.4C15.5,21.4,15.5,21.4,15.5,21.4C15.5,21.4,15.5,21.4,15.5,21.4z"/>
			<path fill="#FFFFFF" d="M15.9,21.4L15.9,21.4c-0.2,0-0.4,0-0.4,0c0.1,0,0.1,0,0.2,0.1C15.7,21.5,15.8,21.4,15.9,21.4
				C16,21.4,15.9,21.5,15.9,21.4C16,21.5,16.1,21.4,15.9,21.4z"/>
			<path fill="#FFFFFF" d="M14.6,21.7l-0.4,0.2l0.2,0l0,0C14.6,21.7,14.6,21.7,14.6,21.7z"/>
			<path fill="#FFFFFF" d="M12.6,23.1c0,0,0.1-0.2,0.1-0.2l0-0.1C12.7,22.9,12.6,23.1,12.6,23.1z"/>
			<polygon fill="#FFFFFF" points="12.4,23.6 12.4,23.4 12.4,23.4 			"/>
			<path fill="#FFFFFF" d="M20.9,13.5L20.9,13.5C20.9,13.5,20.9,13.5,20.9,13.5z"/>
			<path fill="#FFFFFF" d="M20.3,28.4L20.3,28.4c-0.2,0.1-0.2,0.2-0.3,0.2C20.2,28.5,20.4,28.4,20.3,28.4z"/>
			<path fill="#FFFFFF" d="M22.4,20.2L22.4,20.2c0,0.1,0,0.1,0,0.2C22.4,20.3,22.4,20.3,22.4,20.2z"/>
			<path fill="#FFFFFF" d="M17.3,9.9l-0.1,0C17.4,10,17.3,10,17.3,9.9z"/>
			<path fill="#FFFFFF" d="M13.3,29c-0.1-0.1-0.2-0.3-0.2-0.3C13.1,28.9,13.2,28.9,13.3,29z"/>
			<path fill="#FFFFFF" d="M21.1,12.9C21.1,12.8,21.1,12.8,21.1,12.9C21.1,12.8,21.1,12.9,21.1,12.9z"/>
			<path fill="#FFFFFF" d="M13.6,29.3C13.6,29.3,13.6,29.3,13.6,29.3c-0.1-0.1-0.2-0.2-0.3-0.3C13.4,29.1,13.5,29.3,13.6,29.3z"/>
			<path fill="#FFFFFF" d="M19.8,22.9c0,0,0.1,0,0.2,0C20,22.9,19.9,22.9,19.8,22.9z"/>
			<path fill="#FFFFFF" d="M11.9,25.6C11.9,25.5,11.9,25.6,11.9,25.6L11.9,25.6z"/>
			<path fill="#FFFFFF" d="M11.9,25.4c0,0,0-0.1,0-0.1C11.9,25.3,11.9,25.3,11.9,25.4z"/>
			<path fill="#FFFFFF" d="M11.9,25.6C11.9,25.6,11.9,25.6,11.9,25.6c0,0.1,0,0.1,0,0.2C11.9,25.7,11.9,25.6,11.9,25.6z"/>
			<path fill="#FFFFFF" d="M11.5,13C11.5,13,11.5,13,11.5,13C11.5,13.1,11.5,13,11.5,13z"/>
			<polygon fill="#FFFFFF" points="21.1,25.9 21.1,25.9 21.1,25.9 			"/>
			<path fill="#FFFFFF" d="M21.2,25.5c0,0.2,0,0.3-0.1,0.4l0.2-0.1L21.2,25.5z"/>
			<path fill="#FFFFFF" d="M12.4,27.2c0,0,0.1,0.3,0.1,0.3C12.5,27.3,12.5,27.3,12.4,27.2z"/>
			<path fill="#FFFFFF" d="M13.8,9.9c0.1-0.1-0.7,0.2-0.7,0.2c-1.1,0.5-1.9,1.5-2,2.6l0.1-0.1c0,0,0,0.4,0,0.4c0,0.1-0.1,0.1,0-0.1
				c-0.1,0.1,0,0.5,0,0.5c0,0.5-0.1-0.2-0.1,0l0,0.2l0-0.1c0,0.2,0.1,0.2,0.1,0.5c0,0.2,0,0.1,0,0.2c0,0,0,0,0,0.1l0.1,0.5l0-0.2
				c0.1,0.2,0.1,0.4,0.1,0.2c0,0.4,0.6,1.6,0.7,1.8c0.2,0.2,0.3,0.5,0.5,0.8c0-0.1,0-0.2,0.2,0.1c-0.2,0,0.3,0.5,0.3,0.8
				c-0.1-0.2,0.6,0.7,0.4,0.3c0.2,0.2,0,0,0.1,0.2c0.4,0.4,0.9,1,1.5,1.5c0,0-0.1-0.1,0.1,0l0.2,0.3c0.1,0.1,0.2,0,0.3,0.2
				c0,0-0.1-0.1,0,0c0.7,0.7,1.6,1.2,2.6,1.6l0,0l0.1,0.1c0,0,0,0-0.1-0.1c0,0,0.1,0,0.1,0c0.1,0.2,0.3,0.4,0.3,0.6l0,0.1
				c0,0,0.1,0.1,0.1,0.1c-0.1-0.3-0.2-0.5-0.3-0.7c0.4,0.2,0.8,0.3,1.1,0.5c-0.2-0.1-0.1-0.1,0.1,0c-0.1,0,0,0,0-0.1
				c0,0,0.6,0.2,0.6,0.2c0.1,0,0.7,0.1,0.7,0l-0.2,0c0.3,0-0.3-0.2-0.3-0.3c-0.3,0-0.7-0.3-1.2-0.3c-0.1-0.1,0.1,0,0,0
				c-0.1,0-0.3,0-0.5-0.1l0,0c-0.6-0.2-0.8-0.4-1.3-0.7c0.1,0,0,0-0.3-0.2c0,0-0.1,0-0.1-0.1l0,0.1c0,0-0.1,0-0.1-0.1c0,0,0,0,0,0
				l0,0c0,0,0,0-0.1-0.1l0.2,0c0,0-0.2-0.1-0.2-0.1c-0.2-0.1-0.2,0-0.1,0c0,0,0.1,0,0.1,0.1l0,0c-0.3-0.2-0.9-0.6-1-0.8
				c-0.2-0.2,0,0.1-0.2-0.1l0-0.1l-0.1,0c-0.1-0.1-0.2-0.2-0.2-0.2c0,0,0.1,0.1,0.1,0.1c-0.2-0.2-0.5-0.4-0.6-0.5l0.2,0.2
				c-0.6-0.5-1.2-1.2-1.7-1.7l0,0.1c-0.4-0.4-0.3-0.4-0.7-0.8l0,0c-0.1-0.1-0.2-0.2-0.3-0.4c0.1,0.1-0.1-0.3,0-0.1
				c-0.4-0.5-0.2-0.2-0.5-0.5l0-0.1c-0.1-0.1-0.1-0.1-0.3-0.4c0.1,0.2,0-0.2,0.1,0c-0.2-0.6-0.5-0.8-0.5-1.2
				c-0.2-0.2,0.1,0.5,0.1,0.4c0,0.1-0.2-0.2-0.2-0.4c-0.1-0.2,0-0.4-0.1-0.9c0,0,0,0.1,0,0.1c0-0.2-0.1-0.4-0.1-0.6
				c-0.1-0.1,0-0.3-0.1-0.3l0,0.5c0-0.3-0.2-0.5-0.1-1c0,0,0,0.2,0,0.3c0-0.1,0-0.2,0-0.4c0.1,0-0.1,0.6,0,0.8c0-0.1-0.1-0.5,0-0.4
				c-0.1-0.2,0-0.5,0.1-0.8l0,0c0-0.1,0-0.2,0.1-0.3l0,0.2c0-0.3,0.2-0.4,0.3-0.7c-0.3,0.5-0.1,0.1-0.3,0.3c0.1-0.3,0.2-0.4,0.3-0.4
				c0.1-0.1,0.2-0.1,0.5-0.4c-0.1,0.1-0.3,0.2-0.2,0.1c0.1-0.1,0.3-0.2,0.3-0.2c0.4-0.3-0.1,0,0.1-0.1c0.2,0,0.2-0.2,0.4-0.3l0,0
				c0.5-0.2,0.1-0.2,0.6-0.3l-0.2,0.1l0.3-0.1l0,0.1c0.3-0.1,0.4-0.2,0.6-0.3c-0.1,0,0-0.1,0.3-0.2c0.2,0-0.1,0.1,0.3,0
				c-0.1,0.1-0.2,0.1-0.3,0.1c0,0-0.1,0-0.1,0.1c0.2,0,0.5-0.1,0.6-0.1c0,0-0.1,0-0.1,0c0,0,0.5-0.2,0.5-0.1c0.1,0,0,0,0,0.1
				c0.1,0,0.2,0,0.3-0.1c0,0,0,0.1-0.2,0.1c0,0,0.5-0.1,0.5-0.1c0,0,0.2,0.1,0.2,0.1c0.1,0,0.3,0,0.5,0c0.2,0,0.4,0,0.5,0.1
				c0,0,0.1,0,0.1,0c0.3,0.1,0.4,0.2,0.9,0.5l0.2,0.2c0.3,0.2-0.2-0.3,0.2,0c0.3,0.2,0.1,0.1,0.2,0.2c0.2,0.1,0.5,0.3,0.6,0.6
				c-0.1-0.1-0.1-0.1-0.2-0.2l0.1,0.2c-0.3-0.2-0.4-0.4-0.3-0.1c0.1,0,0.2,0.1,0.4,0.3C19.8,11.8,20,12,20,12l0.1,0.2
				c0,0,0,0-0.1-0.1c0.1,0.3,0.2,0.2,0.4,0.6c0.1,0.1,0.1,0.2,0,0.2l0.2,0.3c0,0.1,0,0.1,0,0l0.2,0.5l0,0c0,0.1,0.1,0.2,0.2,0.3
				c0,0.1,0-0.1,0,0l0.1,0.3c0,0.1-0.1-0.1-0.2-0.3c0,0.3,0.1,0.2,0.2,0.8l-0.1-0.3c0,0.2,0.1,0.4,0.1,0.7c0-0.1-0.1-0.6,0.1-0.3
				c0,0.1,0,0.2,0.1,0.4c0,0,0,0.2,0.1,0.4l-0.1,0c0.1,0.2,0.1,0.2,0.2,0.3c0.1,0.2,0,0.3,0,0.4c0.1,0.4,0-0.3,0.1,0.2
				c0,0.3,0.1,0.6,0.2,1c0,0.2,0,0-0.1,0.1l0.1,0.2c0,0.1,0,0,0,0c0,0.2,0.1,0,0.1,0.3c0.1,0.1-0.1,0.6,0.1,0.9c0,0.1,0,0-0.1,0
				c0.1,0.5,0.1,0.4,0.1,0.8l0,0.3c0.1-0.2,0.1,0.1,0.2,0.3c0-0.1,0-0.2,0.1-0.2l0,0.4c0,0.1,0,0-0.1-0.1c0,0,0,0.1,0,0.1
				c0,0.2-0.1,0.1-0.1,0c0-0.1,0-0.1,0-0.2c0-0.1-0.1-0.2-0.1-0.2c0,0,0,0.1,0,0.1c0,0,0,0,0,0c0,0,0,0.1,0,0.1l-0.1,0.1l0,0
				c0,0,0,0.1,0,0.3c0,0.1,0,0.3,0,0.3c0.1,0.4,0.1,0.8,0.1,1.4c0-0.2-0.1,0-0.2-0.1c0.1-0.2,0-0.5,0.1-0.8c0,0.2,0,0.1-0.1,0.1
				l0,0.6c-0.1,0-0.1,0.1-0.1,0.3c0.1-0.1,0,0.5,0,0.7c0,0-0.1-0.1,0-0.3c-0.1,0.3,0.1,0.4-0.1,0.7c0-0.1,0-0.1,0-0.1
				c0,0.2-0.1,0.6-0.1,0.5l0-0.1c-0.1,0.5-0.4,1.4-0.3,1.5c0,0-0.1-0.1-0.1-0.1c0,0,0,0.2,0,0.5c0,0.2,0,0.5,0,0.5
				c0-0.1-0.3,0.1-0.2-0.3c0,0.1-0.1,0.2-0.2,0.5c0-0.1,0.2-0.1,0.1,0c-0.2,0.2-0.1,0.2-0.4,0.5c0.1-0.1,0.1,0.1,0,0.2
				c0,0-0.1,0-0.1-0.1l-0.1,0.5c0-0.1-0.1-0.1-0.2,0c0,0-0.2,0.3-0.3,0.4l0.1-0.1c-0.3,0.4-0.2,0.5-0.5,0.9c0-0.1,0-0.2-0.2-0.1
				c-0.1,0.1-0.2,0.6-0.6,0.9l-0.1,0c0,0-0.3,0.2-0.3,0.2c0.1-0.1,0.3-0.2,0.4-0.4c0.2-0.2,0.3-0.4,0.4-0.5c-0.2,0.1-0.1,0-0.3,0.2
				c-0.1,0,0.1-0.1,0.1-0.2c0,0-0.1,0.1-0.3,0.2c-0.1,0.1-0.3,0.2-0.3,0.2c0.1,0.1-0.4,0.3-0.4,0.3c0,0,0.2-0.1,0.3-0.2
				c0.1-0.1,0.3-0.2,0.3-0.2c0.1,0-0.2,0.4-0.7,0.6c-0.1,0,0-0.2,0-0.2c0,0-0.4,0.2-0.5,0.2l0.2-0.1c-0.3,0.1-0.4,0.3-0.7,0.2
				c-0.1,0-0.3,0-0.3,0c0.2,0.1,0.3,0.3,0.2,0.4c0,0-0.6,0-0.7,0c-0.2-0.1,0.3-0.1,0.1-0.2c0,0-0.1,0-0.1,0c-0.1,0,0-0.1-0.2-0.1
				c0,0.1-0.5,0-0.1,0.1c-0.2,0-0.3,0-0.5-0.1c0.1,0.1-0.3,0.1-0.5,0c0,0,0-0.1,0-0.1c-0.2-0.1-0.4-0.2-0.6-0.3L14,29.2
				c-0.1-0.1-0.2-0.1-0.2-0.2c0,0-0.2-0.2-0.1-0.2c-0.1,0-0.1-0.1-0.2-0.2c-0.1-0.2,0.2,0.2,0.1,0c-0.1,0-0.3-0.2-0.4-0.4
				c0,0.1,0.3,0.4,0.4,0.5c0,0-0.1,0-0.3-0.1c-0.1-0.1-0.3-0.3-0.4-0.5c-0.3-0.3,0-0.2-0.1-0.2c-0.3-0.7-0.5-0.5-0.6-1.2
				c0-0.3,0.1,0,0.1-0.1c0.1,0.2,0.1,0.3,0.1,0.4c0,0,0,0,0,0c0,0.1,0.2,0.3,0.2,0.4c-0.1-0.2-0.4-1.2-0.4-1.8
				c0-0.1-0.1-0.3-0.1-0.2l0,0.2c0,0.2-0.1-0.3-0.1-0.1c0-0.2,0-0.5,0-0.9l0.1-0.1c0,0-0.1,0.2-0.1,0.3c0-0.1,0-0.2,0.1-0.3
				c0.1-0.1,0.1-0.3,0.1-0.3l-0.1,0.2c0.1-0.2,0-0.6,0.2-0.9c-0.1,0.1,0,0.1-0.2,0.3c0.1-0.2-0.2,0.8,0,0.5
				c-0.2,0.2-0.1,0.4-0.2,0.7c0,0,0.1-0.1,0,0.2c0,0,0,0,0,0.1l0,0c0,0,0,0,0,0c0,0,0,0,0,0c0-0.1,0-0.1,0-0.1c0,0.1,0,0.2,0,0.3
				c0,0.1,0,0.3,0.1,0.4c0,0.2,0-0.1,0,0l0.1,0.2c0,0,0,0.4-0.1,0.1c0,0,0,0.3,0.1,0.3c0,0.2,0.1,0.5,0.2,0.6c0,0.2,0.2,0.4,0.1,0.2
				l0.3,0.5l0,0c0.3,0.5,0.6,0.9,1.1,1.3c0.1,0.1,0.3,0.2,0.6,0.4l0,0.1c0.1,0,0.2,0.2,0.4,0.2c0.1,0.1,0.3,0.1,0.3,0.1
				c0.1,0.1,0.4,0.2,0.7,0.2c0.3,0,0.6,0,0.8,0l0-0.1c0.3,0,0.5-0.1,0.9-0.2l0,0c0.3-0.1,0.7-0.2,1.2-0.4c0,0-0.1,0.1-0.2,0.1
				c0.6-0.1,1-0.6,1.4-0.8c0.1-0.1,0.2-0.1,0.2-0.2c0,0,0,0,0,0c0,0,0,0,0,0c0,0,0.1-0.1,0.1-0.1c0,0-0.1,0.1-0.1,0.1
				c0.1-0.1,0.2-0.2,0.2-0.3l0.1,0c0,0,0,0,0,0c0.1-0.1,0.1-0.1,0-0.1c0-0.1,0.1-0.1,0.1-0.2c0.1,0,0.2-0.3,0.4-0.4
				c0-0.1,0.3-0.6,0.3-0.7c0,0,0,0,0,0c0.1-0.1,0.2-0.3,0.2-0.4l0.1,0l0.1-0.3c0.1-0.2,0.2-0.2,0.1,0c0.1-0.5,0.1-0.4,0.2-0.8l0,0
				c0.1-0.1,0.1-0.4,0.1-0.5c0.2-0.3,0.4-1.6,0.6-2.4c-0.1,0.1,0.1-0.4,0-0.4c0,0,0.1-0.2,0.1,0c0-0.4,0.1-0.7,0-1
				c0,0,0,0.1,0.1,0.1c0,0,0-0.1,0-0.2c0,0,0,0.1,0,0.1c0-0.5-0.1-0.5-0.2-0.5c0-0.2,0-0.3,0-0.5c0-0.1,0.1-0.2,0.1,0.1
				c0-0.2,0-1,0-1c0,0,0-0.2,0-0.3c0-0.3,0-0.4-0.1-0.7l0,0.1c-0.1-0.1,0-0.3-0.1-0.6l0,0c0-0.6-0.1-0.3-0.1-0.9l0,0
				c-0.1,0,0-0.6-0.2-0.9l0,0.1c-0.1-0.2,0-0.6,0-0.8c0,0,0,0.1,0.1,0.1C22,14.9,22,15.4,21.9,15c0-0.1,0.1,0.1,0-0.2
				c0-0.1-0.3-0.7-0.4-1.1c0,0.1,0,0.2-0.1,0c-0.1-0.3-0.2-0.7-0.4-0.9c0,0,0-0.1,0-0.1c-0.1-0.2-0.4-0.6-0.5-0.7
				c0.1-0.3-0.9-1-0.7-1.1c0,0-0.1-0.1-0.2-0.2c-0.1-0.1-0.3-0.2-0.3-0.2l0,0c-0.3-0.3-0.5-0.4-0.6-0.4c-0.1-0.1,0,0,0,0
				c-0.5-0.4-0.6-0.4-1.1-0.5l0-0.1c-0.1,0-0.9-0.3-1.5-0.3c0,0,0,0,0.1,0c-0.3,0-0.8,0-1.1,0.1c-0.4,0.1-0.7,0.1-0.7,0.3L13.8,9.9
				c0.6-0.3,0,0,0.3,0C13.9,9.9,13.5,10,13.8,9.9L13.8,9.9z M11.2,14.2L11.2,14.2C11.3,14.3,11.3,14.2,11.2,14.2z M17.7,21.5
				c0,0-0.1,0-0.1-0.1C17.6,21.4,17.6,21.5,17.7,21.5z M17.3,21.3c0.1,0.1,0.2,0.1,0.1,0.1C17.4,21.4,17.4,21.4,17.3,21.3
				C17.3,21.3,17.3,21.3,17.3,21.3z M12.1,26.8L12.1,26.8C12.2,27,12.2,27,12.1,26.8z M21.3,14.7c0-0.1-0.1-0.2-0.1-0.3
				C21.3,14.5,21.3,14.6,21.3,14.7z"/>
			<path fill="#FFFFFF" d="M22.2,20.1C22.2,20.1,22.2,20.1,22.2,20.1C22.2,20.1,22.2,20.1,22.2,20.1z"/>
			<path fill="#FFFFFF" d="M17.3,9.9L17.3,9.9C17.3,9.9,17.3,9.9,17.3,9.9L17.3,9.9z"/>
			<path fill="#FFFFFF" d="M16.4,29.8c0,0,0,0-0.1,0C16.3,29.7,16.3,29.8,16.4,29.8z"/>
			<path fill="#FFFFFF" d="M12,24.6c0-0.1,0.1-0.2,0.1-0.2c0,0,0,0,0,0L12,24.6z"/>
			<path fill="#FFFFFF" d="M13.3,22.7C13.4,22.6,13.4,22.6,13.3,22.7L13.3,22.7C13.3,22.7,13.2,22.8,13.3,22.7z"/>
			<path fill="#FFFFFF" d="M12.3,24.2c0,0,0.1-0.2,0.1-0.3l0,0C12.3,23.8,12.3,24,12.3,24.2z"/>
			<path fill="#FFFFFF" d="M12.4,23.8c0,0,0-0.1,0.1-0.1C12.5,23.7,12.4,23.8,12.4,23.8z"/>
			<path fill="#FFFFFF" d="M12,26C12,25.9,11.9,25.9,12,26C11.9,25.8,12,26.4,12,26z"/>
			<polygon fill="#FFFFFF" points="12.4,24.3 12.4,24.1 12.4,24.2 			"/>
			<path fill="#FFFFFF" d="M12.2,25.4l0-0.3c0,0,0,0,0-0.1C12.2,25.2,12.2,25.4,12.2,25.4z"/>
			<path fill="#FFFFFF" d="M12.2,25.1c0-0.1,0-0.2,0-0.2C12.2,24.9,12.2,25,12.2,25.1z"/>
			<polygon fill="#FFFFFF" points="12.4,24.5 12.3,24.5 12.3,24.7 			"/>
			<path fill="#FFFFFF" d="M12.9,28.2l0.2,0.2c0,0,0-0.1-0.1-0.1C13,28.2,12.9,28.1,12.9,28.2z"/>
			<path fill="#FFFFFF" d="M12.7,27.4L12.7,27.4l0-0.1C12.7,27.4,12.7,27.4,12.7,27.4z"/>
			<path fill="#FFFFFF" d="M13.1,28.1C13.1,28,12.9,27.8,13.1,28.1C13.1,28.1,13.3,28.3,13.1,28.1z"/>
			<polygon fill="#FFFFFF" points="16.6,29.9 16.6,30 16.7,29.9 			"/>
			<path fill="#FFFFFF" d="M19.8,28c-0.2,0.2,0,0.1-0.2,0.3c0,0.1,0.2-0.2,0.1-0.1C19.8,28.1,19.9,28,19.8,28z"/>
			<path fill="#FFFFFF" d="M20.9,23.2L20.9,23.2c-0.1,0,0.1,0,0.1,0L20.9,23.2z"/>
			<path fill="#FFFFFF" d="M21.4,23.2l0.1-0.1C21.4,23.1,21.3,23.1,21.4,23.2L21.4,23.2z"/>
			<path fill="#FFFFFF" d="M21.4,15.1l0,0.2l0,0C21.4,15.3,21.4,15.2,21.4,15.1z"/>
			<polygon fill="#FFFFFF" points="20.4,12.6 20.4,12.5 20.3,12.6 			"/>
			<path fill="#FFFFFF" d="M18.8,10.8c0.1,0.1,0.2,0.1,0.2,0.2C18.8,10.9,18.8,10.7,18.8,10.8z"/>
			<polygon fill="#FFFFFF" points="22.1,10.2 22.1,10.2 22.2,10.2 			"/>
			<path fill="#FFFFFF" d="M22.2,10.3L22.2,10.3L22.2,10.3C22.2,10.3,22.2,10.3,22.2,10.3C22.3,10.3,22.2,10.3,22.2,10.3z"/>
			<path fill="#FFFFFF" d="M22.2,10.4C22.2,10.4,22.2,10.4,22.2,10.4C22.3,10.4,22.3,10.4,22.2,10.4L22.2,10.4z"/>
			<path fill="#FFFFFF" d="M22.3,10.4C22.3,10.5,22.3,10.4,22.3,10.4L22.3,10.4C22.3,10.4,22.3,10.4,22.3,10.4z"/>
			<path fill="#FFFFFF" d="M22.3,10.4C22.3,10.4,22.3,10.4,22.3,10.4C22.3,10.4,22.3,10.4,22.3,10.4L22.3,10.4z"/>
			<path fill="#FFFFFF" d="M22.3,10.4C22.3,10.4,22.3,10.4,22.3,10.4C22.3,10.4,22.3,10.4,22.3,10.4z"/>
			<path fill="#FFFFFF" d="M22.3,10.3L22.3,10.3C22.3,10.3,22.3,10.3,22.3,10.3L22.3,10.3z"/>
			<path fill="#FFFFFF" d="M22.3,10.5C22.4,10.5,22.4,10.5,22.3,10.5L22.3,10.5C22.3,10.5,22.4,10.5,22.3,10.5z"/>
			<polygon fill="#FFFFFF" points="22.3,10.4 22.3,10.4 22.4,10.4 			"/>
			<polygon fill="#FFFFFF" points="22.4,10.6 22.4,10.6 22.4,10.6 			"/>
			<path fill="#FFFFFF" d="M22.4,10.6C22.4,10.6,22.4,10.6,22.4,10.6C22.4,10.6,22.4,10.6,22.4,10.6C22.4,10.6,22.4,10.6,22.4,10.6z
				"/>
			<path fill="#FFFFFF" d="M22.4,10.5L22.4,10.5C22.4,10.5,22.4,10.5,22.4,10.5L22.4,10.5z"/>
			<path fill="#FFFFFF" d="M22.4,10.5L22.4,10.5C22.4,10.5,22.4,10.5,22.4,10.5C22.4,10.5,22.4,10.5,22.4,10.5z"/>
			<path fill="#FFFFFF" d="M22.4,10.4C22.4,10.4,22.4,10.4,22.4,10.4C22.4,10.4,22.4,10.4,22.4,10.4z"/>
			<path fill="#FFFFFF" d="M22.4,10.5L22.4,10.5L22.4,10.5C22.4,10.5,22.4,10.5,22.4,10.5z"/>
			<polygon fill="#FFFFFF" points="22.4,10.5 22.4,10.5 22.4,10.5 			"/>
			<path fill="#FFFFFF" d="M22.5,10.6C22.5,10.6,22.5,10.6,22.5,10.6C22.5,10.6,22.5,10.6,22.5,10.6C22.5,10.6,22.5,10.6,22.5,10.6z
				"/>
			<polygon fill="#FFFFFF" points="22.6,10.7 22.6,10.7 22.6,10.7 			"/>
			<path fill="#FFFFFF" d="M22.5,10.6L22.5,10.6L22.5,10.6C22.5,10.6,22.5,10.6,22.5,10.6z"/>
			<polygon fill="#FFFFFF" points="22.4,10.6 22.5,10.6 22.4,10.6 			"/>
			<path fill="#FFFFFF" d="M22.6,10.6C22.6,10.7,22.6,10.7,22.6,10.6C22.6,10.7,22.7,10.7,22.6,10.6L22.6,10.6
				C22.7,10.6,22.7,10.7,22.6,10.6C22.7,10.7,22.6,10.6,22.6,10.6C22.6,10.6,22.6,10.7,22.6,10.6C22.6,10.7,22.6,10.7,22.6,10.6
				C22.6,10.7,22.6,10.6,22.6,10.6z"/>
			<path fill="#FFFFFF" d="M22.6,10.7L22.6,10.7L22.6,10.7L22.6,10.7C22.5,10.7,22.5,10.7,22.6,10.7C22.5,10.7,22.5,10.7,22.6,10.7z
				"/>
			<path fill="#FFFFFF" d="M22.5,10.6L22.5,10.6L22.5,10.6L22.5,10.6L22.5,10.6L22.5,10.6L22.5,10.6L22.5,10.6
				C22.5,10.6,22.5,10.6,22.5,10.6C22.5,10.6,22.5,10.6,22.5,10.6C22.5,10.6,22.5,10.6,22.5,10.6C22.5,10.6,22.5,10.6,22.5,10.6
				C22.5,10.6,22.5,10.6,22.5,10.6L22.5,10.6L22.5,10.6z"/>
			<path fill="#FFFFFF" d="M22.5,10.4C22.5,10.4,22.4,10.4,22.5,10.4C22.4,10.4,22.4,10.4,22.5,10.4C22.4,10.4,22.4,10.4,22.5,10.4
				L22.5,10.4C22.4,10.4,22.4,10.5,22.5,10.4C22.4,10.5,22.4,10.4,22.5,10.4z"/>
			<path fill="#FFFFFF" d="M22.5,10.5L22.5,10.5C22.5,10.5,22.5,10.5,22.5,10.5L22.5,10.5L22.5,10.5z"/>
			<polygon fill="#FFFFFF" points="22.5,10.7 22.6,10.7 22.5,10.7 			"/>
			<polygon fill="#FFFFFF" points="22.6,10.7 22.6,10.7 22.6,10.8 			"/>
			<path fill="#FFFFFF" d="M23,11.7L23,11.7C23,11.7,23,11.7,23,11.7C23,11.7,22.9,11.8,23,11.7z"/>
			<polygon fill="#FFFFFF" points="23.2,12.4 23.3,12.4 23.2,12.4 			"/>
			<path fill="#FFFFFF" d="M22.8,11.2L22.8,11.2C22.8,11.2,22.8,11.2,22.8,11.2C22.8,11.2,22.8,11.2,22.8,11.2z"/>
			<polygon fill="#FFFFFF" points="22.7,10.9 22.7,10.9 22.7,10.9 			"/>
			<polygon fill="#FFFFFF" points="23.3,11.9 23.3,11.9 23.3,11.9 			"/>
			<path fill="#FFFFFF" d="M23.3,11.9C23.3,11.9,23.3,11.9,23.3,11.9L23.3,11.9L23.3,11.9z"/>
			<path fill="#FFFFFF" d="M23.4,14C23.4,14,23.4,14,23.4,14C23.4,14,23.4,14,23.4,14z"/>
			<path fill="#FFFFFF" d="M23.3,12.3C23.3,12.3,23.3,12.3,23.3,12.3L23.3,12.3C23.3,12.2,23.3,12.2,23.3,12.3c0-0.1,0-0.1,0-0.1
				c0,0,0,0,0,0c0,0-0.1,0,0-0.1c0,0,0,0,0,0c0,0,0-0.1,0,0l0,0c0,0,0-0.1-0.1-0.1c0,0,0.1,0,0.1,0l-0.2,0c0,0,0.1,0,0.1,0
				c0,0,0,0,0,0c0,0-0.1,0-0.1,0c0,0,0,0,0-0.1c0,0-0.1,0-0.1,0c0,0,0.1,0,0.1,0l-0.1,0c0,0,0,0,0.1,0c0,0,0,0,0,0l0,0
				c0,0-0.1,0-0.1-0.1c0,0,0.1,0,0.1,0c0,0-0.2,0-0.2,0l0,0l0,0c0,0,0.2,0,0.2,0.1c0,0,0,0,0,0c0,0,0,0,0,0l0-0.1c0,0,0,0-0.1,0
				l0.1,0.1c0,0-0.1,0-0.1-0.1c0,0,0.1,0,0.1,0c0,0,0,0,0,0l0,0c0,0-0.1,0,0-0.1c0,0,0,0,0,0c0,0-0.1,0.1-0.2,0.1c0,0,0-0.1,0-0.1
				c0,0,0.1,0,0.1,0c0,0,0,0,0,0c0,0,0,0,0,0c0,0,0,0,0,0c0,0,0,0,0,0c0,0-0.1,0-0.1,0c0,0,0,0,0,0c0,0,0-0.1,0-0.1c0,0,0,0,0,0
				c0,0,0,0,0,0c0,0,0,0,0,0c0,0,0,0-0.1,0c0,0,0,0,0,0.1c0,0-0.1,0-0.1,0c0,0,0,0,0,0c0-0.1-0.1,0-0.1-0.1c0,0,0,0,0.1,0
				c0,0,0,0,0,0.1l0,0c0,0,0,0,0,0c0,0,0-0.1-0.1-0.2c0,0,0,0,0,0l0,0c0,0,0,0,0,0c0,0-0.1,0-0.1,0l0,0c0,0,0,0,0,0c0,0,0-0.1,0-0.1
				l0,0c0,0-0.1,0-0.1,0c0,0,0,0,0,0c0,0,0,0.1,0.1,0c0,0,0,0.1,0,0.1c0,0,0,0.1,0,0.1H23v-0.1V11h-0.3l0-0.1c0,0,0,0,0,0
				c0,0,0,0,0,0l0,0c0,0,0,0,0,0l0,0c0,0,0,0,0,0c0,0,0,0,0,0l0,0l0,0c0,0,0.1,0.1,0,0.1c0,0,0,0,0,0l0,0c0,0,0,0.1,0,0.1
				c0,0,0,0.1,0,0.1l0,0c0,0,0,0,0,0.1l0,0c0,0,0,0.1,0,0.1c0,0,0,0,0,0c0,0.1,0.1,0.1,0,0.1c0,0,0,0,0,0l0,0v0l0,0c0,0,0,0,0,0
				c0,0,0,0,0,0l0,0l0,0c0,0,0,0,0,0l0,0c0,0,0,0,0,0c0,0,0,0.1,0.1,0.1c0,0,0,0,0,0c0,0,0,0,0,0l0,0l0,0c0,0,0,0-0.1,0
				c0,0,0,0,0.1,0.1l0,0c0,0,0,0,0,0c0,0,0,0.1,0,0.2c0.1,0,0,0,0,0c0,0,0,0,0,0c0,0,0,0.1,0,0.1c0,0,0,0,0,0c0,0,0,0,0,0
				c0,0,0,0,0,0c0,0,0.1,0,0.1,0c0,0,0,0,0,0c0,0,0,0,0,0c0,0,0,0.1,0,0.1c0,0,0,0,0,0c0,0,0,0,0,0.1l0,0.2c0,0,0,0.2,0,0.2h0
				c0,0,0-0.2,0-0.1l0-0.1c0.1,0,0,0,0,0l0,0c0,0-0.1,0-0.1,0.1c0,0,0,0,0,0c0,0,0,0,0,0c0,0,0,0,0,0c0,0,0.1,0.1,0,0.1c0,0,0,0,0,0
				c0,0,0,0.1,0,0.1l0,0c0,0,0,0.1,0,0.1c-0.1,0,0,0.1,0,0.1l0,0.1l0,0c0,0,0,0,0,0.1c0,0,0,0,0,0c0,0.1,0,0.1,0,0.1l0,0
				c0,0,0,0.1,0,0.1c0,0,0,0,0,0c0,0.1-0.1,0.1,0,0.2l0,0c0,0,0,0,0.1,0c0,0,0,0,0,0c0,0,0,0.1,0,0.1c0,0.1,0,0.2,0,0.3l0,0l0,0
				c0,0,0,0,0,0c0,0,0,0,0,0c0,0,0,0,0,0l0,0l0,0c0,0,0,0,0,0c0,0,0,0,0,0c0,0,0,0,0,0l0,0l0,0c0,0,0,0,0,0c-0.1,0,0,0.1,0,0.2
				c0,0,0,0.1,0,0.1c0,0,0,0,0,0c-0.1,0,0,0-0.1,0.1c0,0,0,0.1,0.1,0c0,0,0,0,0,0c0,0.1,0,0.1,0,0.2c0,0,0,0,0,0l0,0c0,0,0.1,0,0,0
				c0,0,0,0,0,0c-0.1,0.1,0,0.3-0.1,0.4c0,0,0,0,0,0c0,0,0,0,0,0l0,0c0,0,0,0.1,0,0.1l0,0c0,0,0.1,0,0.1,0c0,0,0.1-0.1,0-0.1
				c0,0,0,0,0,0c0,0,0,0,0,0l0,0c0-0.1,0-0.1,0.1-0.2l0,0c0,0,0,0,0,0c0,0,0,0,0,0c0.1,0,0-0.1,0.1-0.1c0,0,0,0,0,0l0,0l0,0
				c0,0,0,0,0,0l0,0c0,0,0-0.1,0-0.1l0,0c0-0.1,0-0.1,0-0.2l0,0c0-0.1,0,0,0-0.1l0,0c0,0,0,0,0,0c0,0,0,0,0,0c0-0.1,0,0-0.1-0.1l0,0
				c0,0,0,0,0,0c0,0,0,0,0.1,0c0-0.1,0-0.1,0-0.1c-0.1,0,0,0,0,0c0,0,0,0,0,0c0,0,0.1,0,0.1-0.1l0,0c0,0,0,0,0-0.1c0,0,0,0,0,0l0,0
				c0,0-0.1,0,0-0.1c0,0,0,0,0,0c0,0,0,0,0,0c0,0,0,0.1,0,0.1c0,0,0-0.1,0,0c-0.1,0,0,0,0-0.1l0,0c0,0,0,0,0,0l0,0c0,0,0,0,0-0.1
				c0,0.1,0,0,0,0c0-0.1,0-0.1,0-0.1c0,0,0,0,0,0c0,0,0,0,0,0c0,0,0,0.1,0,0c0,0,0,0,0,0h0c0,0-0.1-0.1,0-0.1l0,0.1l0,0h0
				c0,0,0-0.1,0-0.1c0,0,0,0,0-0.1c0,0,0,0,0,0c0,0,0,0,0,0l0,0c0,0,0,0,0-0.1l0,0l0,0c0,0,0,0,0,0c0,0,0,0,0,0c0,0,0,0,0,0l0,0
				c0,0,0,0,0,0c0,0,0-0.1,0-0.1c0,0,0,0,0,0c0,0,0-0.1,0-0.1l0,0c0,0,0,0-0.1,0c0,0,0,0,0,0c0,0-0.1,0,0-0.1c0,0,0,0,0,0l0,0
				c0,0,0,0.1,0.1,0c-0.1,0,0-0.1-0.1-0.1l0,0c0,0,0,0,0-0.1c0,0,0,0,0,0l0,0c0,0,0,0,0,0l0-0.1h0c0,0,0,0,0,0c0,0,0,0,0,0l0,0
				c0,0,0,0,0,0c0.1,0,0,0,0-0.1l0,0c0,0,0,0,0-0.1c0,0-0.1,0.1-0.1,0c0,0,0,0.1,0,0c0,0,0,0,0,0h0c0,0,0-0.1,0-0.1c0,0,0-0.1,0-0.1
				c0,0,0,0,0,0c0,0,0-0.1,0-0.1c0,0,0,0,0,0l0,0l0,0c0,0,0,0,0,0c0,0,0-0.1,0-0.1c0,0,0,0,0,0c0,0,0,0-0.1-0.1l0,0c0,0-0.1,0-0.1,0
				c0,0,0,0,0,0l0,0c0,0,0,0,0,0l0,0c0,0,0,0,0,0l0,0c0,0,0,0,0.1,0c0,0,0,0,0,0c0,0,0,0,0,0S23.3,12.2,23.3,12.3l0-0.3h0l0,0.1
				c0,0-0.1,0-0.1,0c0,0,0,0,0.1,0C23.3,12.2,23.3,12.3,23.3,12.3z M23.4,12.9C23.4,12.9,23.4,12.9,23.4,12.9
				C23.4,12.9,23.4,12.9,23.4,12.9z"/>
			<path fill="#FFFFFF" d="M23.4,13.2L23.4,13.2C23.4,13.2,23.4,13.2,23.4,13.2L23.4,13.2z"/>
			<polygon fill="#FFFFFF" points="23.3,13.8 23.3,13.8 23.3,13.8 			"/>
			<polygon fill="#FFFFFF" points="23.4,13.5 23.4,13.5 23.4,13.5 			"/>
			<path fill="#FFFFFF" d="M22.6,10.8C22.6,10.8,22.6,10.8,22.6,10.8C22.6,10.8,22.6,10.8,22.6,10.8L22.6,10.8z"/>
			<path fill="#FFFFFF" d="M22.6,10.6L22.6,10.6C22.6,10.6,22.6,10.6,22.6,10.6L22.6,10.6z"/>
			<path fill="#FFFFFF" d="M22.7,10.8C22.7,10.7,22.7,10.7,22.7,10.8C22.6,10.7,22.6,10.7,22.7,10.8z"/>
			<polygon fill="#FFFFFF" points="22.6,10.7 22.6,10.7 22.7,10.7 			"/>
			<path fill="#FFFFFF" d="M22.7,10.9C22.6,10.9,22.7,10.9,22.7,10.9C22.7,10.9,22.7,10.9,22.7,10.9z"/>
			<polygon fill="#FFFFFF" points="22.7,10.7 22.7,10.7 22.7,10.7 			"/>
			<path fill="#FFFFFF" d="M22.7,10.8L22.7,10.8C22.7,10.8,22.7,10.8,22.7,10.8L22.7,10.8z"/>
			<polygon fill="#FFFFFF" points="22.7,10.7 22.7,10.7 22.7,10.8 			"/>
			<path fill="#FFFFFF" d="M22.9,11L22.9,11C22.9,11.1,22.9,11,22.9,11C22.9,11,22.9,11,22.9,11z"/>
			<path fill="#FFFFFF" d="M22.9,11L22.9,11L22.9,11C22.9,10.9,22.9,10.9,22.9,11z"/>
			<path fill="#FFFFFF" d="M22.9,11C22.9,11,23,11,22.9,11C22.9,11,22.9,11,22.9,11z"/>
			<polygon fill="#FFFFFF" points="23,11.4 23,11.4 23,11.4 			"/>
			<path fill="#FFFFFF" d="M23.2,11.7C23.3,11.6,23.2,11.7,23.2,11.7C23.2,11.6,23.2,11.7,23.2,11.7C23.2,11.7,23.2,11.7,23.2,11.7z
				"/>
			<polygon fill="#FFFFFF" points="23,15.5 23,15.5 23,15.4 			"/>
			<path fill="#FFFFFF" d="M23.1,15.5L23.1,15.5L23.1,15.5C23.1,15.5,23.1,15.5,23.1,15.5z"/>
			<path fill="#FFFFFF" d="M23.5,12.9C23.4,12.9,23.4,12.9,23.5,12.9L23.5,12.9L23.5,12.9z"/>
			<polygon fill="#FFFFFF" points="23.5,13.1 23.4,13.1 23.5,13.1 			"/>
			<path fill="#FFFFFF" d="M23.5,13.3L23.5,13.3C23.5,13.3,23.5,13.4,23.5,13.3z"/>
			<polygon fill="#FFFFFF" points="27.4,9.4 27.4,9.4 27.4,9.4 			"/>
			<path fill="#FFFFFF" d="M27.4,9.4L27.4,9.4L27.4,9.4C27.3,9.4,27.3,9.4,27.4,9.4C27.3,9.5,27.3,9.4,27.4,9.4z"/>
			<path fill="#FFFFFF" d="M27.2,9.4C27.2,9.4,27.2,9.4,27.2,9.4C27.1,9.4,27.1,9.4,27.2,9.4L27.2,9.4z"/>
			<path fill="#FFFFFF" d="M27.1,9.4C27.1,9.4,27.1,9.4,27.1,9.4C27,9.4,27.1,9.4,27.1,9.4L27.1,9.4z"/>
			<path fill="#FFFFFF" d="M27.1,9.4L27.1,9.4C27.1,9.4,27.1,9.4,27.1,9.4C27.1,9.4,27.1,9.4,27.1,9.4z"/>
			<path fill="#FFFFFF" d="M27.1,9.4C27.2,9.4,27.2,9.4,27.1,9.4C27.1,9.4,27.1,9.4,27.1,9.4z"/>
			<path fill="#FFFFFF" d="M27.3,9.5C27.3,9.5,27.2,9.5,27.3,9.5L27.3,9.5L27.3,9.5z"/>
			<path fill="#FFFFFF" d="M27,9.5C26.9,9.5,26.9,9.5,27,9.5C26.9,9.5,26.9,9.5,27,9.5L27,9.5z"/>
			<polygon fill="#FFFFFF" points="27.1,9.5 27.1,9.4 27.1,9.5 			"/>
			<polygon fill="#FFFFFF" points="26.8,9.5 26.8,9.5 26.8,9.5 			"/>
			<path fill="#FFFFFF" d="M26.7,9.5C26.7,9.5,26.7,9.5,26.7,9.5C26.7,9.5,26.7,9.5,26.7,9.5C26.8,9.5,26.7,9.5,26.7,9.5z"/>
			<path fill="#FFFFFF" d="M26.8,9.5L26.8,9.5L26.8,9.5C26.9,9.5,26.9,9.5,26.8,9.5z"/>
			<path fill="#FFFFFF" d="M26.9,9.5L26.9,9.5C26.9,9.5,26.8,9.5,26.9,9.5C26.8,9.5,26.9,9.5,26.9,9.5z"/>
			<path fill="#FFFFFF" d="M27,9.5C27,9.5,27,9.5,27,9.5C27,9.5,27,9.5,27,9.5z"/>
			<path fill="#FFFFFF" d="M26.9,9.5L26.9,9.5L26.9,9.5C26.9,9.5,26.9,9.5,26.9,9.5z"/>
			<polygon fill="#FFFFFF" points="26.9,9.5 26.9,9.5 26.9,9.5 			"/>
			<path fill="#FFFFFF" d="M26.7,9.6C26.7,9.6,26.7,9.6,26.7,9.6C26.7,9.6,26.7,9.6,26.7,9.6C26.8,9.6,26.8,9.6,26.7,9.6z"/>
			<polygon fill="#FFFFFF" points="26.6,9.7 26.6,9.7 26.6,9.7 			"/>
			<path fill="#FFFFFF" d="M26.8,9.6C26.8,9.6,26.8,9.6,26.8,9.6L26.8,9.6C26.8,9.6,26.8,9.6,26.8,9.6z"/>
			<polygon fill="#FFFFFF" points="26.8,9.5 26.8,9.6 26.8,9.6 			"/>
			<path fill="#FFFFFF" d="M26.6,9.7C26.6,9.8,26.6,9.7,26.6,9.7C26.6,9.8,26.6,9.8,26.6,9.7L26.6,9.7C26.6,9.8,26.6,9.8,26.6,9.7
				C26.6,9.8,26.6,9.8,26.6,9.7C26.7,9.7,26.6,9.7,26.6,9.7C26.6,9.7,26.6,9.7,26.6,9.7C26.6,9.7,26.6,9.7,26.6,9.7z"/>
			<path fill="#FFFFFF" d="M26.6,9.6L26.6,9.6C26.6,9.6,26.6,9.6,26.6,9.6C26.6,9.7,26.6,9.7,26.6,9.6L26.6,9.6L26.6,9.6z"/>
			<path fill="#FFFFFF" d="M26.7,9.7C26.7,9.7,26.7,9.6,26.7,9.7C26.7,9.7,26.7,9.6,26.7,9.7C26.7,9.6,26.7,9.6,26.7,9.7
				C26.7,9.6,26.7,9.6,26.7,9.7L26.7,9.7L26.7,9.7L26.7,9.7L26.7,9.7L26.7,9.7L26.7,9.7L26.7,9.7L26.7,9.7
				C26.7,9.6,26.7,9.6,26.7,9.7C26.7,9.6,26.7,9.7,26.7,9.7z"/>
			<path fill="#FFFFFF" d="M27,9.6C27,9.6,27,9.6,27,9.6C27,9.6,27,9.6,27,9.6C27,9.6,27,9.6,27,9.6L27,9.6C27,9.6,26.9,9.6,27,9.6
				C26.9,9.6,26.9,9.6,27,9.6z"/>
			<path fill="#FFFFFF" d="M26.8,9.6L26.8,9.6L26.8,9.6C26.8,9.6,26.8,9.6,26.8,9.6L26.8,9.6z"/>
			<polygon fill="#FFFFFF" points="26.6,9.6 26.6,9.7 26.6,9.7 			"/>
			<polygon fill="#FFFFFF" points="26.5,9.7 26.5,9.7 26.5,9.7 			"/>
			<path fill="#FFFFFF" d="M25.5,10.8L25.5,10.8C25.5,10.8,25.5,10.8,25.5,10.8C25.5,10.8,25.5,10.8,25.5,10.8z"/>
			<polygon fill="#FFFFFF" points="25.2,11.7 25.2,11.7 25.2,11.7 			"/>
			<path fill="#FFFFFF" d="M26,10.2L26,10.2C26,10.2,26,10.2,26,10.2C26,10.1,26,10.2,26,10.2z"/>
			<path fill="#FFFFFF" d="M26.3,9.9C26.3,9.9,26.3,9.9,26.3,9.9L26.3,9.9L26.3,9.9z"/>
			<polygon fill="#FFFFFF" points="25.6,11.2 25.6,11.2 25.6,11.2 			"/>
			<path fill="#FFFFFF" d="M25.5,11.2C25.5,11.2,25.5,11.2,25.5,11.2L25.5,11.2L25.5,11.2z"/>
			<path fill="#FFFFFF" d="M23.9,15.3L23.9,15.3c0,0.1-0.1,0.1,0,0.1l0,0c0,0,0.1,0,0.1,0c0,0,0.1-0.1,0-0.1c0,0,0,0,0,0
				c0,0,0,0,0-0.1l0,0c0-0.1,0-0.1,0.1-0.2l0,0c0,0,0,0,0,0c0,0,0,0.1,0,0c0.1,0,0-0.1,0.1-0.1c0,0,0,0,0,0l0,0l0,0c0,0,0,0,0,0
				c0,0,0,0,0,0c0,0,0-0.1,0-0.1l0,0c0-0.1,0-0.2,0-0.3l0,0c0-0.1,0,0,0-0.1l0,0c0,0,0,0,0-0.1c0,0,0,0,0,0c0-0.1,0,0,0-0.1l0,0
				c0,0,0,0,0-0.1c0,0,0,0,0,0c0.1-0.1,0-0.1,0.1-0.1c0,0,0,0.1-0.1,0c0,0,0,0,0-0.1c0,0,0.1,0,0.1-0.1c0,0,0,0,0,0c0,0,0,0,0-0.1
				c0,0,0,0,0,0l0,0.1c0,0,0-0.1,0-0.1c0,0,0,0,0,0c0,0,0,0,0,0c0,0,0,0.1,0,0.1c0,0,0-0.1,0,0c0,0,0-0.1,0-0.1l0,0c0,0,0,0,0,0l0,0
				c0,0,0-0.1,0-0.1c0,0.1,0,0-0.1,0c0-0.1,0-0.1,0.1-0.1c0,0,0,0,0,0c0,0,0,0,0,0c0-0.1,0,0,0,0c0,0,0,0,0-0.1l0,0c0-0.1,0,0,0-0.1
				l0,0l0,0l0,0c0,0,0,0,0-0.1c0,0,0,0,0,0c0,0,0,0,0,0c0,0,0,0,0,0l0,0c0,0,0-0.1,0-0.1c0,0,0,0,0,0l0-0.1c0,0,0,0,0,0c0,0,0,0,0,0
				c0,0,0,0,0,0l0-0.1c0,0,0,0,0,0c0,0,0-0.1,0-0.1c0,0,0,0,0,0c0,0,0.1-0.1,0-0.1l0,0c0,0-0.1,0,0,0c0,0,0,0,0,0c0,0,0-0.1,0-0.1
				c0,0,0,0,0,0l0,0c0,0,0,0.1,0,0.1c-0.1,0,0-0.1,0-0.1l0,0c0,0,0,0,0-0.1c0,0,0,0,0,0l0,0c0,0,0,0,0,0l0-0.1l0,0c0,0,0,0,0,0
				c0,0,0,0,0,0l0,0c0,0,0,0,0,0c0.1,0,0,0,0.1-0.1l0,0c0,0,0,0,0.1-0.1c0,0-0.1,0-0.1,0c0,0,0,0,0,0c0,0,0,0,0,0l0,0c0,0,0,0,0-0.1
				c0,0,0,0,0.1,0c0,0,0,0,0,0c0,0,0-0.1,0-0.1c0,0,0,0,0,0l0,0c0,0,0,0,0,0c0,0,0,0,0,0c0,0,0.1,0,0.1-0.1c0,0,0,0,0,0
				c0-0.1,0,0,0-0.1l0,0c0,0,0,0-0.1-0.1c0,0,0,0,0,0l0-0.1c0,0,0,0,0,0l0,0c0,0,0,0,0,0l0,0c0,0,0,0,0,0c0,0,0,0,0,0c0,0,0,0,0,0
				s0,0,0,0l0,0l0,0l0,0c0-0.1,0-0.1,0-0.2c0,0,0,0,0.1,0c0,0,0,0.1,0,0.1c0,0,0,0,0,0l0-0.1c0,0,0,0,0,0c-0.1,0,0-0.1,0-0.1
				c0,0,0,0,0,0c0.1,0,0-0.1,0-0.1c0,0,0,0,0,0c0,0,0-0.1,0,0l0,0c0,0,0.1-0.1,0-0.2c0,0,0,0,0,0l-0.1-0.2c0,0,0.1,0,0.1,0.1
				c0,0,0,0,0,0c0,0-0.1,0-0.1,0c0.1,0,0,0,0.1,0c0,0-0.1,0,0-0.1c0,0,0.1,0,0.1,0l0-0.1c0,0,0,0,0.1,0c0,0,0,0,0-0.1l0,0
				c0,0,0-0.1,0-0.1c0,0,0.1,0.1,0.1,0c0,0-0.1-0.1-0.1-0.2l0,0l0,0c0,0,0.1,0.2,0.1,0.2c0,0,0,0,0,0c0,0,0,0,0,0l0.1-0.1
				c0,0,0-0.1,0-0.1l0,0.1c0,0-0.1-0.1,0-0.1c0,0,0,0,0.1,0.1c0,0,0-0.1,0-0.1l0,0c0,0,0-0.1,0-0.1c0,0,0.1,0,0,0
				c0,0-0.1-0.1-0.2-0.1c0,0,0.1,0,0.1,0c0,0,0,0.1,0.1,0.1c0,0,0,0,0,0c0,0,0,0,0,0c0,0,0,0,0,0c0,0,0,0,0,0c0,0,0-0.1,0-0.1
				c0,0,0,0,0,0c0,0,0.1-0.1,0.1-0.1c0,0,0,0,0,0c0,0,0,0,0,0c0,0,0,0,0,0c0,0,0-0.1,0-0.1c0,0,0,0,0,0.1c0,0,0-0.1,0-0.1
				c0,0,0,0,0,0c0.1-0.1,0-0.1,0.1-0.1c0,0,0,0,0.1,0.1c0,0-0.1,0-0.1,0l0,0c0,0,0,0,0,0c0,0,0.1-0.1,0.2-0.1c0,0,0,0,0,0l0,0
				c0,0,0,0,0,0c0,0,0-0.1,0.1-0.1l0,0c0,0,0,0.1,0,0.1c0,0,0.1,0,0.1,0h0c0,0,0-0.2,0.1-0.2c0,0,0,0,0,0c0,0-0.1,0,0,0.1
				c0,0,0.3,0,0.2,0c0,0,0.3,0,0.3,0V10h-0.7H27V9.9c0,0-0.3,0-0.3,0c0,0-0.2,0-0.2,0.1c0,0-0.1,0-0.1,0l0,0c0,0-0.1,0-0.1,0l0,0
				c0,0-0.1,0-0.1,0c0,0,0,0.1,0,0l0,0.1l0,0c0,0-0.1,0.1-0.1,0.1c0,0,0,0,0,0.1l0,0c0,0-0.1,0-0.1,0.1c-0.1,0-0.1,0.1-0.1,0.1l0,0
				c0,0,0,0.1,0,0.1l0,0c0,0-0.1,0.1-0.1,0.1c0,0,0,0,0,0c-0.1,0,0,0.1-0.1,0.1c0,0,0,0,0,0l0,0l0,0l0,0c0,0,0,0,0,0c0,0,0,0,0,0
				l0,0l0,0c0,0,0,0,0,0l0,0c0,0,0,0-0.1,0c0,0,0,0.1,0,0.1c0,0,0,0,0,0c0,0,0,0,0,0l0,0l0,0.1c0,0,0,0-0.1,0c0,0.1,0,0,0,0.1l0,0
				c0,0,0,0.1,0,0.1c-0.1,0-0.1,0.2-0.2,0.2c0.1,0,0,0,0,0.1c0,0,0,0,0,0c0,0.1-0.1,0.1,0,0.1c0,0,0,0,0,0c0,0,0,0,0,0c0,0,0,0,0,0
				c0,0,0,0.1,0.1,0.1c0,0,0,0,0,0.1c0,0,0,0,0,0c0,0-0.1,0.1,0,0.1c0,0,0,0,0,0c0,0,0,0,0,0.1l0,0c0,0,0,0,0,0.1l0,0
				c-0.1,0.1,0,0-0.1,0.1l0,0c0,0-0.1,0,0,0.1l0,0c0,0-0.1,0-0.1,0c0,0,0,0,0,0c-0.1,0,0,0,0,0.1c0,0,0,0-0.1,0c0,0,0,0.1,0,0.1
				c0,0,0,0,0,0c0,0-0.1,0.1-0.1,0.1c0,0,0,0,0,0c0,0,0,0.1,0,0.1c-0.1,0,0,0.2-0.1,0.1l0,0.1l0,0c0,0,0,0.1,0,0.1c0,0,0,0,0,0
				c0,0.1,0,0.1,0,0.1l0,0c0,0-0.1,0.1-0.1,0.2c0,0,0,0,0,0c0,0.1-0.1,0.2,0,0.2l0,0.1c0-0.1,0,0,0.1,0c0,0,0,0.1,0,0
				c0,0,0,0.1-0.1,0.1c0,0.1-0.1,0.3-0.1,0.3l0,0l0,0c0,0,0,0,0,0c0,0,0,0.1,0,0.1c0,0.1,0,0,0,0l0,0l0,0c0,0,0,0,0,0.1c0,0,0,0,0,0
				c0,0,0,0,0,0l0,0l0,0c0,0,0,0,0,0c-0.1,0-0.1,0.2-0.1,0.2c0,0,0,0.1,0,0.1c0,0,0,0,0,0c-0.1,0,0,0.1-0.1,0.1c0,0,0,0.1,0,0.1
				c0,0,0,0,0,0c0,0.1-0.1,0.1-0.1,0.2c0,0,0,0,0,0l-0.1,0c0,0,0,0,0,0c0,0,0,0,0,0C24,15,24,15.2,23.9,15.3
				C23.9,15.3,23.9,15.3,23.9,15.3C23.9,15.3,23.9,15.3,23.9,15.3z M25,12.3C25,12.4,25,12.4,25,12.3C25,12.4,25,12.4,25,12.3z"/>
			<path fill="#FFFFFF" d="M24.6,13.6C24.6,13.6,24.6,13.6,24.6,13.6C24.6,13.6,24.6,13.6,24.6,13.6z"/>
			<path fill="#FFFFFF" d="M24.9,12.6L24.9,12.6C24.9,12.7,24.9,12.7,24.9,12.6C24.9,12.7,24.9,12.7,24.9,12.6z"/>
			<polygon fill="#FFFFFF" points="24.5,13.4 24.5,13.4 24.5,13.4 			"/>
			<polygon fill="#FFFFFF" points="24.8,13.1 24.8,13.1 24.8,13.1 			"/>
			<path fill="#FFFFFF" d="M26.4,9.8L26.4,9.8C26.4,9.8,26.4,9.8,26.4,9.8C26.4,9.8,26.4,9.8,26.4,9.8z"/>
			<path fill="#FFFFFF" d="M26.7,9.7L26.7,9.7C26.7,9.7,26.7,9.8,26.7,9.7L26.7,9.7z"/>
			<polygon fill="#FFFFFF" points="26.5,9.8 26.5,9.8 26.5,9.8 			"/>
			<path fill="#FFFFFF" d="M26.5,9.8C26.5,9.8,26.5,9.8,26.5,9.8C26.5,9.8,26.5,9.8,26.5,9.8z"/>
			<path fill="#FFFFFF" d="M26.3,9.9C26.3,9.8,26.3,9.9,26.3,9.9C26.3,9.9,26.3,9.9,26.3,9.9z"/>
			<polygon fill="#FFFFFF" points="26.5,9.9 26.5,9.9 26.5,9.8 			"/>
			<path fill="#FFFFFF" d="M26.4,9.9C26.4,9.9,26.4,9.9,26.4,9.9C26.4,9.9,26.4,9.9,26.4,9.9L26.4,9.9z"/>
			<polygon fill="#FFFFFF" points="26.5,9.9 26.5,9.9 26.5,9.9 			"/>
			<path fill="#FFFFFF" d="M26.2,10.2C26.2,10.2,26.2,10.1,26.2,10.2L26.2,10.2C26.2,10.2,26.2,10.2,26.2,10.2z"/>
			<path fill="#FFFFFF" d="M26.3,10.1C26.3,10.1,26.3,10.1,26.3,10.1L26.3,10.1L26.3,10.1z"/>
			<path fill="#FFFFFF" d="M26.2,10.2C26.2,10.2,26.3,10.2,26.2,10.2C26.2,10.2,26.2,10.3,26.2,10.2z"/>
			<polygon fill="#FFFFFF" points="25.9,10.5 25.8,10.5 25.9,10.5 			"/>
			<path fill="#FFFFFF" d="M25.7,11C25.8,10.9,25.7,10.9,25.7,11C25.7,10.9,25.7,10.9,25.7,11C25.7,10.9,25.7,11,25.7,11z"/>
			<polygon fill="#FFFFFF" points="23.9,15.4 23.8,15.5 23.9,15.4 			"/>
			<path fill="#FFFFFF" d="M23.9,15.5C23.9,15.5,23.9,15.5,23.9,15.5L23.9,15.5L23.9,15.5z"/>
			<path fill="#FFFFFF" d="M25.1,12.3L25.1,12.3C25.1,12.3,25.1,12.3,25.1,12.3L25.1,12.3z"/>
			<polygon fill="#FFFFFF" points="24.9,12.6 24.9,12.6 24.9,12.6 			"/>
			<path fill="#FFFFFF" d="M24.9,12.9L24.9,12.9C24.9,12.9,24.8,12.9,24.9,12.9z"/>
		</g>
	</g>
</g>
</svg>
